<svg xmlns="http://www.w3.org/2000/svg" xmlns:xlink="http://www.w3.org/1999/xlink" viewBox="0 0 100 100"><defs><style>.cls-1{isolation:isolate;}.cls-2{opacity:0.5;fill:url(#radial-gradient);}.cls-3{fill:#a4645c;}.cls-4{fill:#68aed9;}.cls-5{fill:#464778;}.cls-6{fill:#fff;}.cls-7{fill:#f37771;}.cls-8{fill:#f89747;}.cls-9{fill:#595884;}.cls-10{mix-blend-mode:multiply;}.cls-11{fill:#9c97b3;}.cls-12{fill:#9590ad;}.cls-13{fill:#f8ada4;}.cls-14{fill:#f16163;}.cls-15{fill:#873334;}</style><radialGradient id="radial-gradient" cx="48.84" cy="42.91" r="37.17" gradientUnits="userSpaceOnUse"><stop offset="0" stop-color="#efa8b9"/><stop offset="1" stop-color="#f27594"/></radialGradient></defs><g class="cls-1"><g id="Layer_1" data-name="Layer 1"><path class="cls-2" d="M48.23,32.36s4.69-24.48,21.4-24S94.55,27.08,83.12,48.19,54,77.51,54,77.51,21.7,68.57,12.9,52.88s-.88-33.42,15.39-35S48.23,32.36,48.23,32.36Z"/><path class="cls-3" d="M46.57,55.1s.83-.22.93-.07a6.52,6.52,0,0,1,.09,1.34c0,.2-.75.86-1.05.4S46.57,55.1,46.57,55.1Z"/><path class="cls-4" d="M47.24,58c-.33.08-4.73,1.11-7.62.15a8.58,8.58,0,0,1-4.84-4.69c-.14-.27-.28-.57-.42-.86l-.19-.38-.78-1.66s-2-3.5.81-5.81c0,0,1.17.61,2.08,3s2.61,5.54,4.73,6.38a22.24,22.24,0,0,0,6.19.84S47.57,57.9,47.24,58Z"/><path class="cls-5" d="M49.05,54.05c0-.06-.06-1.08.07-1.16s.49-.06.51.07.17,1,.07,1.08S49.05,54.05,49.05,54.05Z"/><path class="cls-4" d="M50.51,52s0,0,0,.05,0,0,0,0a7.38,7.38,0,0,1-.94,1h-.42s-1-.8-1.12-1L48,52v0c-.11-.26-.19-.88,0-1a6.12,6.12,0,0,1,1-.13h.67a2.65,2.65,0,0,1,.64,0l.06,0h0C50.6,51.14,50.56,51.72,50.51,52Z"/><path class="cls-6" d="M50,51.9H49.9a4.25,4.25,0,0,0,.27-.46l.25-.44h0l-.06,0a3.23,3.23,0,0,0-.22.41,4.85,4.85,0,0,1-.29.49c-.12-.15-.24-.3-.34-.45s-.25-.32-.35-.49H49c-.1.15-.17.32-.26.48s-.19.31-.27.47a4.17,4.17,0,0,1-.29-.44,2.13,2.13,0,0,0-.16-.25l-.09-.09a.18.18,0,0,0,0,.07h0a1.16,1.16,0,0,1,.18.27,3.48,3.48,0,0,0,.34.51L48,52h0v0l.48-.07h0a1.05,1.05,0,0,0,.17.29c.07.12.15.22.23.34l.2.3a1.5,1.5,0,0,0,.14.18h.11a4.53,4.53,0,0,1-.38-.55l-.22-.29a2.83,2.83,0,0,1-.2-.28v0c.25,0,.51,0,.76,0h.48s0,0,0,0c-.07.18-.15.36-.21.54s-.18.45-.23.62h.09l.23-.62a2,2,0,0,0,.21-.55,3,3,0,0,1,.61.08s0,0,0-.05A1.19,1.19,0,0,0,50,51.9Zm-.7,0-.75,0c.08-.16.19-.31.27-.48s.09-.17.13-.25a2.12,2.12,0,0,1,.11-.21,4.15,4.15,0,0,0,.3.43,5.6,5.6,0,0,0,.36.49Z"/><path class="cls-7" d="M47.85,54.47a1.6,1.6,0,0,1,1.41-.76,1.92,1.92,0,0,1,1.61.76Z"/><path class="cls-8" d="M47.78,54.33c-.33.19-.53.44-.37,1.3a2,2,0,0,0,.89,1.5A4.32,4.32,0,0,0,50.47,57c.3-.21,1.23-1.84.62-2.61C50.81,54.06,48.11,54.15,47.78,54.33Z"/><path class="cls-8" d="M47.9,54.43s-1.28-3.88-1.47-4-.83.51-.78,1.35a4,4,0,0,0,1.24,2.35A1.12,1.12,0,0,0,47.9,54.43Z"/><path class="cls-9" d="M40.56,82.44s-1.37,3.28-.29,3.86,6.14.56,6.4.15c.73-1.17-2.64-1.37-3-2.1s-.1-2.69-.25-2.69S40.85,81.56,40.56,82.44Z"/><path class="cls-9" d="M17,80.4s-1.94-.4-2.57.11A2.37,2.37,0,0,0,14,82.86c.19.91.54,2.76.68,3.52s2.08.73,2.52.58.3-.44-.36-1.24-.69-1.87-.25-2.2a1.77,1.77,0,0,1,1.19-.19Z"/><path class="cls-5" d="M22.82,63.92a16.14,16.14,0,0,0,.69,6c1,2.79,2.78,6.26,2.34,8.31s-2.39,2-4.15,2A45.69,45.69,0,0,1,16.37,80a10.08,10.08,0,0,0,.15,2,6.15,6.15,0,0,0,.54,1.81s10.45,1.47,13.43-1.37,1.66-13.39,1.66-13.39,4.94.59,7,1.67,1.9,3.37,1.61,5.8c-.23,2-.92,6.22-.92,6.22a8.26,8.26,0,0,0,2.44.43,6.72,6.72,0,0,0,1.86,0S46.13,72.23,46,70s-2.3-4.15-5.72-5.42a18.6,18.6,0,0,0-6.74-1.08s-4.1-1.22-6.64-.88A11.43,11.43,0,0,0,22.82,63.92Z"/><path class="cls-4" d="M30.53,43.46a14.3,14.3,0,0,0-5.75,2.9c-2.06,2-2.71,7.47-2.86,10.85a47,47,0,0,0,.58,7.87s1.62,1.54,5.79.88,5.36-2.27,5.47-2.45a26.21,26.21,0,0,1-.26-6.89c.51-3.56.88-5.42.88-5.42s1.43-4.22,1.24-4.73a7,7,0,0,0-1.79-2C33.5,44.27,30.53,43.46,30.53,43.46Z"/><path class="cls-3" d="M30.13,41.67,30.2,45s1.17,1.43,2.46,1.32,1.46-.48,1.46-.48l-.66-3.48Z"/><path class="cls-3" d="M27.2,38.74s1.5,4,4.54,4.61,5.13-2.63,3.44-6.56-2.89-4-3.59-3.92S27,35.07,26.68,36.1A4.77,4.77,0,0,0,27.2,38.74Z"/><path class="cls-3" d="M28.35,40.37s-1.94-.47-1.52.52,1.07,1.27,1.67,1a1,1,0,0,0,.6-.81Z"/><path class="cls-3" d="M44.86,56.67s2.52-.88,3-1,2.84.68,2.86,1.22S50.26,58.35,49,58.4l-2.24.08s-1.86.83-2.23.48S44.32,56.86,44.86,56.67Z"/><path class="cls-5" d="M31.16,39.21h0l-.07.07.08-.08.05-.09a.35.35,0,0,0,0-.12v-.08a.49.49,0,0,0,0-.27l0-.09v0l-.06-.1L31,38.33a.39.39,0,0,0-.22-.09h-.13a.2.2,0,0,0-.11,0,.52.52,0,0,0-.19.14.33.33,0,0,0-.07.16.14.14,0,0,0,0,.07v.07a.29.29,0,0,0,0,.18v0a.36.36,0,0,0,0,.09h0l.06.1.1.1,0,0,0,0a.37.37,0,0,0,.32.09h-.1a.34.34,0,0,0,.34-.14Z"/><path class="cls-5" d="M33.76,37.85h0l-.06,0a.27.27,0,0,0,.13-.13l-.05.06a.19.19,0,0,0,.07-.08.55.55,0,0,0,.06-.18.15.15,0,0,1,0-.07c0-.05,0-.09,0-.14a1,1,0,0,0,0-.17l0-.06a.5.5,0,0,0,0-.13.39.39,0,0,0-.08-.1l0,0-.07-.06-.1,0a.31.31,0,0,0-.19,0,.28.28,0,0,0-.17.09.45.45,0,0,0-.11.17v0a.53.53,0,0,0,0,.25v.07a1.09,1.09,0,0,0,.05.17s0,.09,0,.12l0,.06a.47.47,0,0,0,.13.15l.1,0-.08,0a.26.26,0,0,0,.09,0h0a.27.27,0,0,0,.27-.06Z"/><g class="cls-10"><path class="cls-11" d="M31.91,37.76c.12.17.21.36.35.53a.48.48,0,0,0,.52.14c.11,0,.22-.06.32,0a.27.27,0,0,1,.11.2.78.78,0,0,1-.21.49l-.19.23c-.05.06-.12.13-.11.21a0,0,0,0,0,0,0c.08,0,.13-.06.18-.11l.19-.23a1.23,1.23,0,0,0,.26-.54.43.43,0,0,0-.24-.44.44.44,0,0,0-.32,0,.43.43,0,0,1-.35,0,1.08,1.08,0,0,1-.24-.28,3.53,3.53,0,0,0-.21-.32c0-.07-.15,0-.1.08Z"/></g><path class="cls-6" d="M34.41,39.6c-.19,0-2.61,1.32-2.61,1.32s1.09.85,1.94.38S34.41,39.6,34.41,39.6Z"/><path class="cls-5" d="M30.56,36.83A2.07,2.07,0,0,0,30,37a.88.88,0,0,0-.25.18.81.81,0,0,0-.19.29.22.22,0,0,0,.08.24.25.25,0,0,0,.25,0l.09-.06s0,0,0,0l0,0,.09-.06.21-.13c.14-.08.28-.16.43-.23a.19.19,0,0,0,.1-.13.26.26,0,0,0,0-.15.23.23,0,0,0-.26-.13Z"/><path class="cls-5" d="M32.59,36.4a1.18,1.18,0,0,1,.19-.11h0l.1-.05.11-.06h0l.06,0,.12,0,.06,0h0c-.08,0,0,0,0,0a.51.51,0,0,0,.17,0,.2.2,0,0,0,.16-.18.23.23,0,0,0-.11-.23.51.51,0,0,0-.4,0,1,1,0,0,0-.3.14,1,1,0,0,0-.25.21,1.84,1.84,0,0,0-.17.22.17.17,0,0,0,0,.19.15.15,0,0,0,.19,0Z"/><path class="cls-5" d="M28.42,40.92a5.88,5.88,0,0,0,.28-2,5.8,5.8,0,0,0-1.14-2.78s3.3-.73,4.52-1.73a2.89,2.89,0,0,0,1-3.25c-.34-.83-1.15-1.3-1.39-.78a7.06,7.06,0,0,0-.22,2s-.71-1.32-1.35-1.13-.41,1.59-.41,1.59-.44-1.15-1-.83-.29,1.79-.29,1.79-.64-1-1-.47a3.35,3.35,0,0,0-.32,1.35s-.84-.43-1.26.8A4.39,4.39,0,0,0,26.43,39,9.16,9.16,0,0,0,28.42,40.92Z"/><path class="cls-4" d="M28.55,48.59s2.35,5.9,6.93,6.86a46.43,46.43,0,0,0,9.45.8A10.35,10.35,0,0,0,45,58l.15.84.11.52a38.08,38.08,0,0,1-10.52.22c-5.24-.74-8.06-3.92-9-6.23s-1.21-3.81,0-5S28.55,48.59,28.55,48.59Z"/><g class="cls-10"><path class="cls-12" d="M30.8,58.58a12.14,12.14,0,0,0,2.55.94,1.85,1.85,0,0,1,0-.23c-.26,0-.52-.09-.76-.15A6.44,6.44,0,0,1,31,58.47a14.33,14.33,0,0,1-2.8-2A12.35,12.35,0,0,1,25,51.23a0,0,0,0,0-.09,0A12.07,12.07,0,0,0,28,56.57,11.52,11.52,0,0,0,30.8,58.58Z"/><path class="cls-12" d="M32.25,53.6a12.46,12.46,0,0,1-3.59-4.84c0-.06-.12,0-.09,0a12,12,0,0,0,3.6,5,13.46,13.46,0,0,0,1.59,1.08l0-.22A13.08,13.08,0,0,1,32.25,53.6Z"/></g><path class="cls-5" d="M32.64,45.94c.1-.12,2.06-1.95,2.59-1.49s.13,2.4-.17,3.13-2.37-1.27-2.37-1.27-2.2,2.44-2.81,1.56-.61-3,0-3.22S32.64,45.94,32.64,45.94Z"/><g class="cls-10"><path class="cls-12" d="M34.46,51.81a4.79,4.79,0,0,0-.1.76l-.19-.38c0-.16,0-.32.06-.48a4.63,4.63,0,0,1,.36-1.52A10.1,10.1,0,0,1,34.46,51.81Z"/></g><g class="cls-10"><path class="cls-12" d="M35.85,55.56a25.38,25.38,0,0,0,4.76.66c.81.06,1.62.11,2.43.13.62,0,1.26-.05,1.87,0,.08,0,.1-.13,0-.15a7.74,7.74,0,0,0-1.8-.07c-.78,0-1.57-.06-2.35-.12a36.51,36.51,0,0,1-4.9-.52c-.05,0-.08,0,0,0Z"/></g><path class="cls-13" d="M61.62,58.5s.54,5.62,1.22,10.6,2.54,14.27,2.54,14.27-1.81,1.76-1.56,2,3.27-1,3.51-1.41-.19-1.42-.19-1.42-.29-10.51-.59-13.83c0-.68.83-9.92.83-9.92S61.81,58.11,61.62,58.5Z"/><path class="cls-13" d="M67.53,58.89s1.22,9,2.74,9.63,12.9-6.21,12.9-6.21,1.75,1.42,2.1,1.32-1.66-3.13-2.15-3.52a.84.84,0,0,0-1,0,4,4,0,0,1-.64.79c-.14,0-7.67,3.27-8,3s.05-6,.05-6S68.75,56.89,67.53,58.89Z"/><path class="cls-5" d="M62.86,43.65a30.88,30.88,0,0,0-1.76,8.28A39.17,39.17,0,0,0,61,60a17.56,17.56,0,0,0,7,.59,22.08,22.08,0,0,0,6.38-1.18s.51-5.57-.66-9.16a26,26,0,0,0-4.4-7.33S63.82,44.82,62.86,43.65Z"/><path class="cls-14" d="M55.75,38.92a1.65,1.65,0,0,0,2.31.48c1.43-.88,3.41-3.85,3.41-3.85s-.29-2.75-.95-2.79S55.5,37.6,55.75,38.92Z"/><path class="cls-15" d="M67.75,18S67,16.38,64.5,17s-2,2.84-3.69,4.17S57.93,22.79,58,25.07s1.81,5.25,8,6.46,9.72,0,10.26-2.35-1-3.8-2.47-5.25-2-2-2.44-3.28-.22-2.24-1.32-2.75A2.84,2.84,0,0,0,67.75,18Z"/><path class="cls-14" d="M70.41,35.22a6.47,6.47,0,0,1-.91-2.82,3.13,3.13,0,0,1,.55-2s-3.52-.55-4.25-.51l-.77,0s-3.16,0-3.67.41S60.27,33.37,60,35.49a7,7,0,0,0,.12,1.11A20.69,20.69,0,0,0,61.29,40a1.33,1.33,0,0,1,.11.24c0,.11.08.24.13.37l.18.5q.16.51.3,1a15.83,15.83,0,0,1,.45,2.76,7.49,7.49,0,0,0,4.32.26c2.83-.48,3.3-1.5,3.3-1.5S70.41,35.44,70.41,35.22Z"/><path class="cls-14" d="M74.44,34.45a24.2,24.2,0,0,0-3.77-3.75c-.14.06-1-.53-1.16-.39-.3.36-.14,1.07-.27,1.51a6.3,6.3,0,0,0,.31,2.33,5.23,5.23,0,0,0,.26,1,2.44,2.44,0,0,0,.1.24c1,1.2,3.7,4.18,5,4C76.64,39.14,75.73,36,74.44,34.45Z"/><path class="cls-13" d="M66.86,30.34A1.79,1.79,0,0,1,66.75,29c.22-.74.44-2.17.44-2.17l-3.08.59v.15a12.2,12.2,0,0,1-.26,2.63c-.22.37-1.39,1.4-.62,2.35a2.16,2.16,0,0,0,3.15-.18c.84-.88.7-1.4.59-1.73Z"/><path class="cls-13" d="M67.29,18.75a7.64,7.64,0,0,0-4.48,1.17c-.52,1.53-1.19,4.08-.77,5.91l0,.16a3,3,0,0,0,.31.76,2.89,2.89,0,0,0,.63.79l.17.14a3.39,3.39,0,0,0,4.19-.38l.11-.09a7,7,0,0,0,1.34-1.49l.1-.15.09-.14a7.6,7.6,0,0,0,1.11-6.3A11,11,0,0,0,67.29,18.75Z"/><path class="cls-13" d="M69.2,24.11s1-1,1.51-.4-.59,1.87-1.14,1.83-.81-.84-.81-.84Z"/><path class="cls-13" d="M58.1,33.42s2.46-3.11,2.6-3.48a29.51,29.51,0,0,1,.84-3.26c.3-.4.74-1.21,1.07-.95A3.85,3.85,0,0,1,63,28.4a10.3,10.3,0,0,1-1,2.24s-2.6,7.66-4.29,8.54-2.53-.44-1.94-2A18.77,18.77,0,0,1,58.1,33.42Z"/><path class="cls-13" d="M68.76,29.9S67,27.52,67.41,26.06s.88-1.36,1.39-.55A21.07,21.07,0,0,1,70,29.28S75.91,36,76.2,37.2s-.55,2.64-2,1.9S68.76,29.9,68.76,29.9Z"/><path class="cls-5" d="M63.68,23.85l0-.06,0-.17a.78.78,0,0,0,0-.14v-.12a.32.32,0,0,0-.06-.17.15.15,0,0,0-.06-.09.49.49,0,0,0-.14-.11h0l.24.35v0l0-.11-.05-.09L63.62,23a.27.27,0,0,0-.14-.07.22.22,0,0,0-.11,0,.21.21,0,0,0-.11,0,.18.18,0,0,0-.1,0,.31.31,0,0,0-.13.1h0l.4-.15H63.3a.49.49,0,0,0-.17.06.24.24,0,0,0-.09.06.33.33,0,0,0-.1.14l0,0c0,.05,0,.1,0,.14v.08a.76.76,0,0,0,0,.15v0h0l0,.12a.14.14,0,0,0,0,.06l0,.1L63,24l.09.05a.32.32,0,0,0,.16,0h.11l.1,0a.18.18,0,0,0,.09-.06.38.38,0,0,0,.09-.13Z"/><path class="cls-5" d="M66.38,23.33h0l0-.05-.08-.07-.09,0h0l-.05,0H66l-.06,0h-.06l-.11.06a.2.2,0,0,0-.08.08.42.42,0,0,0-.09.14.06.06,0,0,1,0,0,.59.59,0,0,0,0,.14.22.22,0,0,0,0,.08c0,.05,0,.1,0,.15v0h0l0,.11,0,.06.07.09.08.07.09.05a.29.29,0,0,0,.16,0,.14.14,0,0,0,.11,0,.19.19,0,0,0,.1-.05.18.18,0,0,0,.08-.07.57.57,0,0,0,.08-.13s0-.05,0-.07a1.13,1.13,0,0,0,0-.18.61.61,0,0,0,0-.14v-.12A.33.33,0,0,0,66.38,23.33Z"/><g class="cls-10"><path class="cls-11" d="M64.68,23.48c0,.25.15.52,0,.76a.15.15,0,0,1-.14.1.86.86,0,0,0-.28,0c-.16.06-.44.19-.44.4s.19.3.34.34a.82.82,0,0,0,.35,0c.1,0,.31,0,.34-.15a.07.07,0,0,0,0-.06.18.18,0,0,0-.14,0h-.15a1.23,1.23,0,0,1-.27,0l-.11,0,0,0,0,0a.12.12,0,0,1,0,0s0,0,0,0,0,0,0,0a.35.35,0,0,1,.15-.17.67.67,0,0,1,.28-.1.44.44,0,0,0,.2,0,.33.33,0,0,0,.16-.19.59.59,0,0,0,0-.37c0-.14-.06-.28-.07-.42a.07.07,0,0,0-.14,0Z"/></g><path class="cls-6" d="M66.64,25.52l-3.35.36a1.87,1.87,0,0,0,1.66,1C66.08,26.83,66.64,25.52,66.64,25.52Z"/><path class="cls-15" d="M66.37,22.44h.08l.12,0s0,0,0,0h0l.05,0,.12.05,0,0s0,0,0,0l0,0,0,0,.05,0,0,0h0l0,0a.27.27,0,0,0,.17.06l0,0h0c-.07,0,0,0,0,0a.07.07,0,0,0,.1,0,.14.14,0,0,0,0-.07l0,.06s0,0,0,0a.2.2,0,0,0,0-.2.67.67,0,0,0-.09-.14.64.64,0,0,0-.29-.19.94.94,0,0,0-.62,0,.15.15,0,0,0-.09.17.14.14,0,0,0,.16.11Z"/><path class="cls-15" d="M61.19,21.82a7.55,7.55,0,0,0,4.46-.46A4.32,4.32,0,0,0,68,18.56s-1.54-1.37-2.88-1S61.3,21.32,61.19,21.82Z"/><path class="cls-15" d="M67.43,17.41A9.28,9.28,0,0,0,68,20.88a17.56,17.56,0,0,0,1.66,3.52,4.55,4.55,0,0,0,1.51-2.13c.2-1.07-.24-3.76-1.05-4.45S67.43,17.41,67.43,17.41Z"/><path class="cls-15" d="M63.82,22a2.71,2.71,0,0,0-.4,0,.85.85,0,0,0-.23,0,.36.36,0,0,0-.24.16.18.18,0,0,0,0,.2.18.18,0,0,0,.19.07h0l.14,0,.1,0h-.06a1.62,1.62,0,0,1,.44,0,.16.16,0,0,0,.14-.06A.16.16,0,0,0,64,22.2a.19.19,0,0,0-.14-.22Z"/><g class="cls-10"><path class="cls-11" d="M62,25.83l.16-.13a.48.48,0,0,1,.31-.12c.26,0,.36.3.43.5a5.39,5.39,0,0,1,.22,1.06,3.2,3.2,0,0,1,0,.54L63,27.54a2.28,2.28,0,0,0,0-.26,5.7,5.7,0,0,0-.17-1c0-.18-.09-.48-.28-.57s-.33.16-.47.27Z"/></g><g class="cls-10"><path class="cls-11" d="M68.93,25.57a2.78,2.78,0,0,0-.28-.47.73.73,0,0,0-.63-.33.79.79,0,0,0-.55.53,2.17,2.17,0,0,0-.2.87,2.9,2.9,0,0,0,0,.51,1.34,1.34,0,0,0,0,.35c0,.09,0,.17.07.27l.11-.09a.75.75,0,0,0,0-.16,1.15,1.15,0,0,1-.06-.37,2.9,2.9,0,0,1,0-.51,2.07,2.07,0,0,1,.29-1,.59.59,0,0,1,.38-.23.49.49,0,0,1,.34.15,2.45,2.45,0,0,1,.29.35,2,2,0,0,1,.14.25Z"/></g><path class="cls-14" d="M67.83,83.87c-.09-.73-.38-.71-.49-.72a3.53,3.53,0,0,1-.74.73c-.4.31-1.47,1.45-2.49,1.48a.41.41,0,0,1-.34-.22,4.84,4.84,0,0,1-.67.63c-.48.35-.84.58-.76.82.15.44,3.09.43,3.57.06a5.58,5.58,0,0,0,1-1.76l.44,1.69.23,0A14.22,14.22,0,0,0,67.83,83.87Z"/><path class="cls-14" d="M67.33,83.15h0S67.34,83.14,67.33,83.15Z"/><path class="cls-14" d="M82.3,59.89c-.67.3-.56.57-.54.68a3.47,3.47,0,0,1,.92.48c.42.3,1.82,1,2.15,1.94a.56.56,0,0,1-.14.45,7,7,0,0,1,.83.45c.48.36.81.57,1,.42.38-.27-.51-3.07-1-3.42a5.52,5.52,0,0,0-2-.4L85,59.57,85,59.35A13.81,13.81,0,0,0,82.3,59.89Z"/><path class="cls-14" d="M81.7,60.56Z"/></g></g></svg>