<svg id="Layer_1" data-name="Layer 1" xmlns="http://www.w3.org/2000/svg" xmlns:xlink="http://www.w3.org/1999/xlink" viewBox="0 0 100 100"><defs><style>.cls-1{fill:#b2d399;}.cls-2{fill:#d7e6c5;}.cls-3{fill:#974341;}.cls-4{fill:#f5bda9;}.cls-5{fill:#63c1c3;}.cls-6{fill:#2aa7a1;}.cls-7{fill:url(#radial-gradient);}.cls-8{fill:#f2987b;}.cls-9{fill:#e84e4d;}.cls-10{fill:#f4a091;}.cls-11{fill:#b34f4d;}.cls-12{fill:#ed766e;}.cls-13{fill:url(#radial-gradient-2);}.cls-14{fill:url(#radial-gradient-3);}.cls-15{fill:url(#radial-gradient-4);}.cls-16{fill:url(#radial-gradient-5);}.cls-17{fill:url(#radial-gradient-6);}.cls-18{fill:url(#radial-gradient-7);}.cls-19{fill:url(#radial-gradient-8);}.cls-20{fill:url(#radial-gradient-9);}</style><radialGradient id="radial-gradient" cx="52.05" cy="64.23" r="15.44" gradientUnits="userSpaceOnUse"><stop offset="0" stop-color="#efa8b9"/><stop offset="1" stop-color="#f27594"/></radialGradient><radialGradient id="radial-gradient-2" cx="67.42" cy="-532.23" r="1.86" gradientTransform="translate(-269.12 441.49) rotate(32.2)" xlink:href="#radial-gradient"/><radialGradient id="radial-gradient-3" cx="88.59" cy="-518.77" r="2.2" gradientTransform="translate(-269.12 441.49) rotate(32.2)" xlink:href="#radial-gradient"/><radialGradient id="radial-gradient-4" cx="30.71" cy="-484.93" r="2.2" gradientTransform="translate(96.33 526.55) rotate(-13.22)" xlink:href="#radial-gradient"/><radialGradient id="radial-gradient-5" cx="106.25" cy="-504.22" r="2.2" gradientTransform="translate(-269.12 441.49) rotate(32.2)" xlink:href="#radial-gradient"/><radialGradient id="radial-gradient-6" cx="23.85" cy="-459.54" r="2.2" gradientTransform="translate(96.33 526.55) rotate(-13.22)" xlink:href="#radial-gradient"/><radialGradient id="radial-gradient-7" cx="32.66" cy="-524.56" r="1.86" gradientTransform="translate(-269.12 441.49) rotate(32.2)" xlink:href="#radial-gradient"/><radialGradient id="radial-gradient-8" cx="35.26" cy="-516.2" r="1.29" gradientTransform="matrix(1.07, 0.25, -0.26, 1.08, -137.03, 574.13)" xlink:href="#radial-gradient"/><radialGradient id="radial-gradient-9" cx="58.33" cy="-530.93" r="1.29" gradientTransform="matrix(1.07, 0.25, -0.26, 1.08, -137.03, 574.13)" xlink:href="#radial-gradient"/></defs><path class="cls-1" d="M31.29,27v-.15a.33.33,0,0,1,0-.14c0-.17,0-.33,0-.5s.27-.52.51-.37A25.73,25.73,0,0,1,35,28.17a10,10,0,0,1,1.28,1.24,2,2,0,0,1,.49,1.48,10.21,10.21,0,0,1-.32,1,.83.83,0,0,0,0,.35v0h0v0A7.39,7.39,0,0,0,38,31a.25.25,0,0,1,.36,0,3.42,3.42,0,0,1,1.23,1.94,3.09,3.09,0,0,1-.47,2.36,2.38,2.38,0,0,1-.44.51.08.08,0,0,1,0,0,.27.27,0,0,0,0,.3.69.69,0,0,0,.46.12c.48,0,1-.28,1.5-.31a1.37,1.37,0,0,1,1.35.84,3.26,3.26,0,0,1,.21,1.45,2.49,2.49,0,0,1-.41,1.35,1.62,1.62,0,0,1-1.29.67,8.2,8.2,0,0,0-1.4-.06.83.83,0,0,0-.55.9,2,2,0,0,0,.54,1.19,2.18,2.18,0,0,0,2.6.48,1.83,1.83,0,0,0,.58-.42.32.32,0,0,1,.51.17A6.17,6.17,0,0,1,41.31,48a5.21,5.21,0,0,1-.59.56A3.6,3.6,0,0,1,40,49a.15.15,0,0,1-.16,0,9.6,9.6,0,0,1-3.66.44,7.84,7.84,0,0,1-3.82-.75,9.7,9.7,0,0,1-2.66-2.37c-.84-1-1.86-2.34-1.14-3.69a.45.45,0,0,1,.61-.12.47.47,0,0,0,.25.05.74.74,0,0,0,.34-.14.78.78,0,0,0,.27-.3.74.74,0,0,0,.11-.39c0-.68-.63-1.24-1.2-1.57-.39-.22-.81-.38-1.22-.56-.21-.1-.42-.19-.62-.3a.52.52,0,0,1-.31-.34,3.38,3.38,0,0,1,0-.45,5.7,5.7,0,0,1,.71-2.58,2.19,2.19,0,0,1,.85-1c.53-.23,1,.16,1.38.45a2.1,2.1,0,0,0,1.07.43.7.7,0,0,0,.69-.36.61.61,0,0,0,0-.33,1.25,1.25,0,0,0-.19-.46,2.75,2.75,0,0,0-.77-.75,3,3,0,0,1-1.45-1.94,3.88,3.88,0,0,1,1-2.69,4.24,4.24,0,0,0,1.2-2.2Z"/><path class="cls-2" d="M30.38,30.92a1.42,1.42,0,0,1,1.11-.07,3.24,3.24,0,0,1,1.09.48,4.47,4.47,0,0,1,1,.84,2,2,0,0,1,.19.22c-.34-1.23-.71-2.46-1.13-3.66a.14.14,0,0,1,.27-.1c.3.71.57,1.43.82,2.17h0l.16-.25a3.55,3.55,0,0,1,.4-.47,3,3,0,0,1,.46-.41,1.48,1.48,0,0,1,.54-.21s.06,0,0,.07a5.12,5.12,0,0,1-.36.43c-.14.13-.28.25-.41.39a5.14,5.14,0,0,0-.38.42c-.06.07-.12.15-.19.22a.44.44,0,0,1-.15.12c.13.41.26.82.38,1.23.31,1.06.58,2.12.82,3.2.08-.13.16-.25.25-.37.22-.29.44-.57.68-.83s.49-.53.75-.77a1.92,1.92,0,0,1,.86-.57s.1,0,.08.07a2.42,2.42,0,0,1-.62.77c-.24.24-.46.48-.69.73s-.44.5-.65.76-.2.27-.31.4l-.15.18-.11.08a1.62,1.62,0,0,1,0,.19,41.32,41.32,0,0,1,.7,4.83c.07-.14.15-.27.23-.41.27-.41.55-.82.84-1.22s.6-.78.93-1.16c.15-.18.31-.36.48-.53a1.74,1.74,0,0,1,.29-.25l.33-.18s.14,0,.1.08-.1.22-.16.33a2.34,2.34,0,0,1-.2.27c-.15.18-.32.35-.48.53-.31.36-.62.72-.91,1.1s-.57.76-.84,1.16a6.49,6.49,0,0,0-.39.62c-.06.1-.1.2-.15.3l0,0c.06.76.1,1.53.12,2.3,0,.51,0,1,0,1.53,0,.05,0,.1,0,.16a.09.09,0,0,1,0,.11c0,.13,0,.26,0,.38,0,.28,0,.56,0,.85a2,2,0,0,1,.13-.25,9.18,9.18,0,0,1,.67-1,9,9,0,0,1,1.73-1.7c.33-.25.74-.61,1.18-.54a.08.08,0,0,1,.06.11c-.15.36-.53.54-.83.76a9.89,9.89,0,0,0-.88.72,11.3,11.3,0,0,0-1.49,1.75c-.21.31-.39.64-.61.94v.05a2.17,2.17,0,0,1,0,.26,1.67,1.67,0,0,1-.08.3.23.23,0,0,1-.23.13.23.23,0,0,1-.18-.19,4.27,4.27,0,0,1,0-1l0-1c0-.39,0-.77,0-1.15l0,0c-.13-.19-.26-.39-.41-.57A8.47,8.47,0,0,0,31.8,42L31,41.66a3,3,0,0,1-.41-.17,1,1,0,0,1-.22-.13,1,1,0,0,1-.1-.17.11.11,0,0,1,.06-.13.53.53,0,0,1,.35,0,3.12,3.12,0,0,1,.43.15l.77.32a8.13,8.13,0,0,1,1.31.76,9.3,9.3,0,0,1,2.08,2l.21.3v-.08c0-1.3-.09-2.61-.22-3.9l-.15-1.33-.24-.16c-.16-.12-.33-.24-.51-.35a6.84,6.84,0,0,0-1.15-.57,5.9,5.9,0,0,0-1.24-.3c-.2,0-.41,0-.62-.06a2.74,2.74,0,0,1-.62-.13s0-.09,0-.11a1.47,1.47,0,0,1,.22-.1l.26-.05a2.53,2.53,0,0,1,.55,0,5.73,5.73,0,0,1,1,.18,5.8,5.8,0,0,1,1.91.91,4,4,0,0,1,.34.27,47.2,47.2,0,0,0-1.12-5.66l-.15-.17-.42-.43a6.3,6.3,0,0,0-.93-.78,3.13,3.13,0,0,0-.93-.42,4.5,4.5,0,0,0-.51-.08,4.75,4.75,0,0,1-.53,0A.14.14,0,0,1,30.38,30.92Z"/><path class="cls-1" d="M76.69,43.67a.63.63,0,0,0-1-.23,3.35,3.35,0,0,1-1.55.72.86.86,0,0,1-.85-.44c-.12-.25.12-.46.35-.61A13.48,13.48,0,0,0,75,42.36c1.58-1.31,1.52-3.64,1-5.43a25.66,25.66,0,0,1-1.2-4,.62.62,0,0,0-.86-.46c-2.17,1-4.51,2.11-5.76,4.26a5.45,5.45,0,0,0-.79,3.22,11.39,11.39,0,0,1,.17,1.43c0,.37-.16.65-.51.68-1.23.11-1.41-1.6-1.51-2.49a.61.61,0,0,0-1-.38,9.38,9.38,0,0,0-2.8,2.88,4,4,0,0,0-.17,3.58A4.29,4.29,0,0,0,62.76,47c.32.26.71.64.63,1a.76.76,0,0,1-.19.33,1.88,1.88,0,0,1-.4.29,1.46,1.46,0,0,1-1,.12c-1.16-.35-1.66-1.86-2-2.87a.59.59,0,0,0-.9-.21,4.22,4.22,0,0,0-1.29,3.41,6.08,6.08,0,0,0,1.6,3.62,12.34,12.34,0,0,0,1.58,1.49l.79.61c.2.15.55.33.63.59.15.48-.55.91-.92,1a2.85,2.85,0,0,1-1.88-.27c-1.46-.69-2.25-2.25-3-3.62a.56.56,0,0,0-1.06.16,9.84,9.84,0,0,0,5.1,10.08,6.19,6.19,0,0,0,.63.32,11.81,11.81,0,0,0,1.07.53,12.66,12.66,0,0,0,5.61.91,18.69,18.69,0,0,0,5.81-1.24,7.66,7.66,0,0,0,4.11-3.33,4.68,4.68,0,0,0-.34-5.17.56.56,0,0,0-.66-.16,3.42,3.42,0,0,1-2.46.33c-.89-.39-.49-1.45,0-2,.79-.83,2.05-1,3-1.52a2.9,2.9,0,0,0,.82-.51c.24-.25.18-.72.19-1.06a13.52,13.52,0,0,0-.13-2A12.07,12.07,0,0,0,76.69,43.67Z"/><path class="cls-2" d="M74.58,39.12c-.08-.27-.57-.11-.75-.07a4.38,4.38,0,0,0-.92.39,6.75,6.75,0,0,0-.82.48c-.2.13-.39.27-.57.41.1-.28.21-.56.32-.84.37-.92.82-1.83,1.13-2.77.08-.23-.26-.36-.38-.16A19.22,19.22,0,0,0,71.45,39c-.35.8-.68,1.61-1,2.42C70.24,42,70,42.5,69.84,43h0a15,15,0,0,0-.39-1.46c-.14-.48-.29-.94-.47-1.41-.09-.24-.18-.48-.28-.72a2.85,2.85,0,0,0-.16-.3c-.08-.11-.19-.17-.27-.27a.1.1,0,0,0-.17.07c0,.11,0,.23,0,.34a1.89,1.89,0,0,0,.09.34c.08.23.18.46.26.69.17.47.33.93.47,1.4s.27.92.39,1.39c.06.24.12.47.2.71l0,.1c-.3.83-.57,1.67-.83,2.52-.55,1.77-1,3.57-1.41,5.38a19.28,19.28,0,0,0-.64-1.9c-.26-.69-.52-1.37-.8-2a8,8,0,0,0-.46-1,8.61,8.61,0,0,0-.62-1,.09.09,0,0,0-.17.07c.06.36.13.72.22,1.07a9,9,0,0,0,.38,1c.26.66.51,1.32.76,2s.52,1.29.71,2a8.4,8.4,0,0,1,.19,1c0,.18,0,.36.08.55v0q-.3,1.62-.54,3.24c-.14,1-.26,2-.37,3,0,.09,0,.18,0,.28l-.23-.23A4.9,4.9,0,0,0,64.52,59a5.29,5.29,0,0,0-1.46-.46,2.85,2.85,0,0,0-.77,0,2,2,0,0,0-.73.29.11.11,0,0,0,0,.2c.22,0,.42.14.64.18s.44,0,.66.08a4.9,4.9,0,0,1,2.39,1.11,4.25,4.25,0,0,1,.48.47,1.29,1.29,0,0,1,.16.17,2.46,2.46,0,0,1,0,.26A4.14,4.14,0,0,0,66,62.8c.07.21.41.3.52.07a2.43,2.43,0,0,0,.2-.63,4.91,4.91,0,0,0,.06-.67c0-.45.07-.89.12-1.34.07-.85.17-1.7.28-2.54.11-.16.23-.31.35-.46a13.92,13.92,0,0,1,1.31-1.35,10.93,10.93,0,0,1,3.14-2c.32-.14.66-.25,1-.36a.82.82,0,0,0,.44-.28.43.43,0,0,0-.05-.55.32.32,0,0,0-.51.11l0,0-.22.06-.42.15c-.29.12-.59.24-.87.38a10.74,10.74,0,0,0-1.57.92,11.1,11.1,0,0,0-2.4,2.24c.2-1.38.45-2.76.73-4.13.22-1.07.46-2.14.73-3.21l.51-.36c.43-.31.89-.59,1.35-.86A14.69,14.69,0,0,1,72,47.26c.23-.11.48-.21.71-.33a1.12,1.12,0,0,0,.6-.47.1.1,0,0,0-.06-.15,1.11,1.11,0,0,0-.78,0,6.74,6.74,0,0,0-.74.3,16,16,0,0,0-1.47.79,12.54,12.54,0,0,0-1.33.92q.8-3.09,1.84-6.11l.33-.9.36-.3q.36-.3.75-.57c.28-.18.56-.34.85-.49s.59-.25.88-.38S74.66,39.39,74.58,39.12Z"/><path class="cls-2" d="M87.08,57.18l.11-.22a1,1,0,0,0,.09-.21c.13-.25.26-.49.41-.73s-.06-1-.52-.9a42.14,42.14,0,0,0-6.48,1.35,15.88,15.88,0,0,0-2.78,1,3.26,3.26,0,0,0-1.77,1.89,16.37,16.37,0,0,0-.19,1.7,1.31,1.31,0,0,1-.22.54l0,0s0,0,0,0l0,0a12.79,12.79,0,0,1-1.56-3,.44.44,0,0,0-.53-.3,5.65,5.65,0,0,0-3.2,2.09,5.2,5.2,0,0,0-.61,5,.36.36,0,0,1,0,.09.4.4,0,0,1-.09.27.43.43,0,0,1-.19.15,1.2,1.2,0,0,1-.78-.15c-.72-.33-1.3-1.1-2-1.49a2.28,2.28,0,0,0-2.61.34,5.29,5.29,0,0,0-1.32,2A4.17,4.17,0,0,0,62.46,69a2.67,2.67,0,0,0,1.48,1.91,13.17,13.17,0,0,1,2.16.87,1.37,1.37,0,0,1,.21,1.75,3.3,3.3,0,0,1-1.64,1.42,3.66,3.66,0,0,1-4.25-1.06,3.86,3.86,0,0,1-.6-1,.51.51,0,0,0-.88-.1,10.27,10.27,0,0,0-1.51,9.39A8.46,8.46,0,0,0,58,83.34a6.49,6.49,0,0,0,.84,1.13.3.3,0,0,0,.25.09,16,16,0,0,0,5.23,3.18,13.09,13.09,0,0,0,6.3,1.5A15.77,15.77,0,0,0,76.2,87.5c2-.93,4.43-2.26,4.28-4.79a.76.76,0,0,0-.85-.61.66.66,0,0,1-.4-.09,1.25,1.25,0,0,1-.42-.44,1.55,1.55,0,0,1-.21-.65,1.34,1.34,0,0,1,.11-.67c.46-1,1.81-1.44,2.89-1.53.75-.07,1.49,0,2.24,0,.38,0,.76,0,1.14,0a.87.87,0,0,0,.7-.31,3.36,3.36,0,0,0,.32-.66,9.19,9.19,0,0,0,.71-4.39,3.54,3.54,0,0,0-.59-2.09c-.65-.72-1.58-.43-2.39-.28a3.35,3.35,0,0,1-1.91-.08,1.19,1.19,0,0,1-.8-1,1,1,0,0,1,.19-.52,2.22,2.22,0,0,1,.61-.57,5,5,0,0,1,1.67-.6c1.34-.3,2.77-.66,3.53-1.92a6.4,6.4,0,0,0,.3-4.77C87,60.2,86.49,58.59,87,57.3A.61.61,0,0,1,87.08,57.18Z"/><path class="cls-1" d="M85.73,63.78a2.45,2.45,0,0,0-1.63-.88,6,6,0,0,0-2,0,7.86,7.86,0,0,0-2,.62l-.45.2C81,62.08,82.44,60.48,83.9,59a.24.24,0,0,0-.34-.34c-.94.87-1.85,1.78-2.73,2.71h0a4,4,0,0,0-.07-.5,5.7,5.7,0,0,0-.27-1,6,6,0,0,0-.41-.93,2.62,2.62,0,0,0-.67-.7c-.06,0-.12,0-.11.09a4.82,4.82,0,0,0,.25.9c.11.29.25.57.35.86s.2.59.28.89.08.32.13.47a.89.89,0,0,0,.15.29c-.49.53-1,1-1.43,1.59-1.19,1.38-2.33,2.81-3.43,4.27a5.88,5.88,0,0,0-.14-.73c-.12-.58-.27-1.16-.44-1.73s-.38-1.12-.6-1.67A3.29,3.29,0,0,0,73.5,62c-.06,0-.16,0-.16.06a4.06,4.06,0,0,0,.4,1.59c.19.51.37,1,.54,1.57s.32,1.06.46,1.6c.06.27.12.55.19.82s.07.25.11.37a1.24,1.24,0,0,0,.1.2l-.19.26a69.35,69.35,0,0,0-4.38,6.82c0-.26,0-.52-.07-.78-.12-.81-.26-1.62-.43-2.43s-.36-1.6-.6-2.38c-.11-.38-.22-.76-.36-1.14a3,3,0,0,0-.26-.58c-.12-.18-.27-.32-.39-.5s-.22-.06-.2.06,0,.4,0,.6a3.45,3.45,0,0,0,.11.54c.11.38.25.76.36,1.14.23.75.44,1.52.62,2.29s.34,1.55.47,2.33a9.87,9.87,0,0,1,.16,1.2c0,.19,0,.38,0,.57v.06c-.62,1.12-1.21,2.26-1.77,3.4-.37.76-.72,1.53-1.07,2.3l-.17.21a.17.17,0,0,0,0,.21c-.08.19-.17.38-.25.58-.18.42-.36.86-.54,1.29,0-.16,0-.31,0-.46a13,13,0,0,0-.31-2A15.4,15.4,0,0,0,64.41,78c-.33-.6-.69-1.43-1.41-1.64a.13.13,0,0,0-.16.13,3.41,3.41,0,0,0,.72,1.72,15.7,15.7,0,0,1,.83,1.7,18,18,0,0,1,1,3.68c.1.6.15,1.23.28,1.83l0,.09c0,.13-.11.26-.16.4a2.85,2.85,0,0,0-.08.51.35.35,0,0,0,.26.34.36.36,0,0,0,.4-.16,7.14,7.14,0,0,0,.68-1.52c.2-.49.4-1,.61-1.47s.5-1.17.77-1.75l.06,0c.34-.19.67-.4,1-.58a13.77,13.77,0,0,1,2.12-.93A14.89,14.89,0,0,1,76,79.57c.49,0,1,0,1.47,0a5.86,5.86,0,0,0,.73,0,1.4,1.4,0,0,0,.41-.06.71.71,0,0,0,.27-.18.16.16,0,0,0,0-.23.83.83,0,0,0-.5-.29,6.34,6.34,0,0,0-.75-.07c-.46,0-.92-.05-1.39,0a14.12,14.12,0,0,0-2.51.23,15.18,15.18,0,0,0-4.49,1.57l-.54.3.06-.12c.93-2,1.94-3.87,3-5.74.37-.64.75-1.27,1.14-1.9l.46-.09c.34-.06.67-.13,1-.17a10.94,10.94,0,0,1,2.14-.06,9.79,9.79,0,0,1,2.08.39c.33.1.65.23,1,.34a4.32,4.32,0,0,0,1,.23c.09,0,.11-.11.07-.16s-.17-.22-.26-.31A3.41,3.41,0,0,0,80,73a3.12,3.12,0,0,0-.83-.38,8.72,8.72,0,0,0-1.67-.43,9.42,9.42,0,0,0-3.51,0c-.22,0-.46.1-.7.17a80.65,80.65,0,0,1,5.6-7.78l.34-.14c.31-.14.62-.26.94-.37a9.2,9.2,0,0,1,1.93-.53,5,5,0,0,1,1.69,0,6.18,6.18,0,0,1,.84.24c.28.09.53.22.83.29S85.85,64,85.73,63.78Z"/><path class="cls-2" d="M20.67,49.4a.64.64,0,0,1,.9-.4,3.43,3.43,0,0,0,1.65.42.89.89,0,0,0,.76-.6c.06-.26-.21-.43-.47-.53a11.94,11.94,0,0,1-1.37-.51c-1.8-1-2.18-3.28-2-5.14a25.41,25.41,0,0,0,.43-4.16.62.62,0,0,1,.76-.62c2.32.57,4.82,1.23,6.45,3.11a5.39,5.39,0,0,1,1.38,3,13.55,13.55,0,0,0,.1,1.43c.09.37.29.61.63.58,1.23-.12,1.09-1.84,1-2.73a.61.61,0,0,1,.89-.55A9.15,9.15,0,0,1,35.1,45a4,4,0,0,1,.83,3.49,4.36,4.36,0,0,1-1,1.55c-.26.32-.58.76-.43,1.09a.67.67,0,0,0,.24.29,1.57,1.57,0,0,0,.45.21,1.48,1.48,0,0,0,1-.07c1.08-.57,1.29-2.14,1.46-3.2a.58.58,0,0,1,.84-.38,4.21,4.21,0,0,1,1.91,3.11,6,6,0,0,1-.9,3.86,13.13,13.13,0,0,1-1.27,1.76l-.66.74c-.17.18-.48.43-.51.7-.06.5.71.79,1.09.81a2.86,2.86,0,0,0,1.8-.61c1.3-1,1.79-2.64,2.23-4.11a.56.56,0,0,1,1.07,0,9.85,9.85,0,0,1-3.13,10.85c-.18.15-.37.29-.56.43s-.63.5-.95.72a12.53,12.53,0,0,1-5.34,1.94A18.22,18.22,0,0,1,27.42,68a7.59,7.59,0,0,1-4.66-2.5,4.65,4.65,0,0,1-.63-5.14.58.58,0,0,1,.62-.28A3.42,3.42,0,0,0,25.23,60c.8-.55.21-1.51-.39-1.94-.94-.68-2.21-.62-3.28-.93a2.76,2.76,0,0,1-.89-.35c-.29-.21-.32-.68-.39-1a12.18,12.18,0,0,1,.39-6.34Z"/><path class="cls-1" d="M21.9,44.54c0-.29.54-.22.72-.21a4.18,4.18,0,0,1,1,.21,8,8,0,0,1,.9.31l.64.31-.48-.77c-.54-.84-1.15-1.65-1.63-2.51-.12-.21.19-.4.34-.23A19.7,19.7,0,0,1,25,43.82c.49.73,1,1.46,1.43,2.2.31.49.61,1,.91,1.49v0c0-.5.06-1,.11-1.51s.12-1,.2-1.46c0-.26.09-.52.15-.77a1.19,1.19,0,0,1,.1-.32,2.53,2.53,0,0,1,.21-.32.1.1,0,0,1,.18,0,3.43,3.43,0,0,1,.06.34,1.94,1.94,0,0,1,0,.34c0,.25-.09.49-.13.73-.07.49-.14,1-.2,1.46s-.1,1-.12,1.44l-.06.73a.41.41,0,0,0,0,.11c.44.76.87,1.54,1.28,2.32.87,1.64,1.66,3.32,2.39,5a19.05,19.05,0,0,1,.28-2c.11-.72.25-1.44.39-2.16a8.66,8.66,0,0,1,.26-1.12,9.47,9.47,0,0,1,.43-1,.09.09,0,0,1,.18,0,10,10,0,0,1,0,1.09,7.83,7.83,0,0,1-.17,1.08c-.14.69-.26,1.39-.39,2.08s-.26,1.37-.32,2.07a6.81,6.81,0,0,0,0,1c0,.19,0,.37,0,.55,0,0,0,0,0,0,.4,1,.78,2,1.14,3.08s.63,1.93.92,2.9c0,.09.05.18.08.26l.18-.25a4.81,4.81,0,0,1,1.08-1.08,5.88,5.88,0,0,1,1.35-.73,3.16,3.16,0,0,1,.75-.18,2.29,2.29,0,0,1,.77.15.12.12,0,0,1,0,.21c-.2.09-.39.21-.6.29s-.42.13-.63.21a4.81,4.81,0,0,0-1.19.62,5.12,5.12,0,0,0-1,.91,5.44,5.44,0,0,0-.39.55l-.13.2a2.17,2.17,0,0,1,.07.24,4,4,0,0,1,.23,1.52c0,.22-.35.37-.49.16a2.14,2.14,0,0,1-.32-.57c-.08-.21-.13-.43-.19-.65-.11-.43-.23-.86-.36-1.3-.23-.81-.48-1.63-.75-2.44-.14-.13-.28-.26-.43-.38a14.68,14.68,0,0,0-1.53-1.09,11.23,11.23,0,0,0-3.47-1.39c-.34-.07-.69-.12-1-.17a.79.79,0,0,1-.49-.19.4.4,0,0,1,0-.54.32.32,0,0,1,.52,0h0l.22,0,.44.07c.32.06.63.12.94.21a12,12,0,0,1,1.71.6,11.31,11.31,0,0,1,2.77,1.76c-.46-1.32-1-2.63-1.48-3.92-.42-1-.86-2-1.32-3l-.57-.26c-.48-.22-1-.41-1.48-.59a13.68,13.68,0,0,0-1.54-.47c-.25-.06-.51-.11-.76-.18a1.21,1.21,0,0,1-.67-.35.11.11,0,0,1,0-.17,1.13,1.13,0,0,1,.77-.09,6.74,6.74,0,0,1,.78.16c.54.14,1.08.31,1.6.5a13.07,13.07,0,0,1,1.48.66c-.91-1.93-1.89-3.82-3-5.66l-.49-.83-.4-.22c-.28-.15-.56-.3-.85-.42a7.32,7.32,0,0,0-.93-.33c-.31-.09-.62-.13-.93-.21S21.87,44.81,21.9,44.54Z"/><path class="cls-1" d="M13.08,62.85l-.18-.16a.86.86,0,0,1-.16-.18c-.2-.19-.4-.37-.63-.55a.6.6,0,0,1,.2-1,41.34,41.34,0,0,1,6.56-.86,16.26,16.26,0,0,1,3,0,3.27,3.27,0,0,1,2.29,1.2c.34.47.45,1.06.74,1.54a1.38,1.38,0,0,0,.38.44l0,0h.05a12.43,12.43,0,0,0,.48-3.38.43.43,0,0,1,.39-.45,5.69,5.69,0,0,1,3.72.91,5.12,5.12,0,0,1,2.14,3.36,4.69,4.69,0,0,1,.07,1.12s0,.07,0,.1a.43.43,0,0,0,.17.22.46.46,0,0,0,.23.08,1.13,1.13,0,0,0,.69-.4c.57-.54.86-1.46,1.44-2.08a2.27,2.27,0,0,1,2.58-.54,5.51,5.51,0,0,1,1.93,1.49,4.29,4.29,0,0,1,1.05,2.09,2.68,2.68,0,0,1-.77,2.29c-.53.55-1.32.89-1.75,1.53a1.38,1.38,0,0,0,.38,1.72,3.26,3.26,0,0,0,2,.8,3.65,3.65,0,0,0,3.66-2.4A3.73,3.73,0,0,0,44,68.6a.52.52,0,0,1,.8-.39,10.26,10.26,0,0,1,4.52,8.37,8.73,8.73,0,0,1-.07,1.35,6.34,6.34,0,0,1-.43,1.34.26.26,0,0,1-.2.17,15.94,15.94,0,0,1-3.89,4.73,13.13,13.13,0,0,1-5.45,3.5,16,16,0,0,1-5.89.21c-2.17-.22-4.93-.67-5.61-3.11a.74.74,0,0,1,.59-.85.66.66,0,0,0,.35-.22,1.22,1.22,0,0,0,.25-.56,1.38,1.38,0,0,0,0-.67,1.31,1.31,0,0,0-.32-.6c-.78-.82-2.18-.76-3.24-.49-.72.18-1.41.47-2.11.72-.36.13-.72.25-1.09.35a.85.85,0,0,1-.76,0,3.65,3.65,0,0,1-.52-.52A9.29,9.29,0,0,1,18.75,78a3.6,3.6,0,0,1-.13-2.17c.37-.89,1.35-.92,2.16-1.06a3.35,3.35,0,0,0,1.78-.7A1.2,1.2,0,0,0,23,72.82a1.08,1.08,0,0,0-.36-.44,2.25,2.25,0,0,0-.76-.33,4.84,4.84,0,0,0-1.78,0c-1.36.17-2.83.3-4-.64A6.37,6.37,0,0,1,14.26,67c-.13-1.3-.17-3-1.09-4Z"/><path class="cls-2" d="M16.53,68.64a2.4,2.4,0,0,1,1.25-1.37,5.79,5.79,0,0,1,1.85-.67,7.79,7.79,0,0,1,2.1-.08l.49,0c-1.82-1.09-3.68-2.13-5.56-3.1a.24.24,0,0,1,.21-.43c1.17.52,2.33,1.07,3.47,1.66h0a2.56,2.56,0,0,1-.1-.48,7,7,0,0,1-.07-1,6.77,6.77,0,0,1,.08-1,2.52,2.52,0,0,1,.4-.88c0-.06.13,0,.14,0a5.81,5.81,0,0,1,.06.93c0,.31-.05.62-.05.93s0,.63,0,.94c0,.16,0,.32,0,.48a.93.93,0,0,1,0,.33c.63.33,1.26.67,1.88,1,1.58.91,3.12,1.87,4.64,2.89-.05-.24-.08-.49-.11-.74-.07-.58-.13-1.18-.15-1.77a17.61,17.61,0,0,1,0-1.78,3.35,3.35,0,0,1,.38-1.68.1.1,0,0,1,.18,0,4.22,4.22,0,0,1,.15,1.62c0,.56,0,1.11,0,1.67s.05,1.1.1,1.66c0,.28.07.56.09.84,0,.13,0,.26,0,.39s0,.14,0,.22l.26.17a71.75,71.75,0,0,1,6.39,5c-.07-.25-.14-.5-.19-.76-.16-.81-.29-1.62-.4-2.43s-.18-1.63-.22-2.45c0-.4,0-.79,0-1.19a4.62,4.62,0,0,1,.06-.64c0-.2.14-.39.2-.59s.19-.14.22,0,.13.37.17.57a3.31,3.31,0,0,1,.07.55c0,.4,0,.8,0,1.19,0,.79.09,1.59.17,2.37s.19,1.58.33,2.36a11.93,11.93,0,0,0,.24,1.19c0,.18.11.36.17.54a.14.14,0,0,0,0,.06c1,.85,1.88,1.73,2.78,2.63.6.59,1.19,1.2,1.77,1.81l.24.14a.16.16,0,0,1,.08.19c.14.16.28.31.43.46l.94,1.05a3.74,3.74,0,0,1-.12-.45,13,13,0,0,1-.35-2,15.1,15.1,0,0,1,.12-4c.11-.69.18-1.58.79-2a.14.14,0,0,1,.2.07A3.58,3.58,0,0,1,42.23,75,16.91,16.91,0,0,0,42,76.86a17.35,17.35,0,0,0,.22,3.81c.1.61.27,1.22.34,1.83l.06.07.28.32a4.09,4.09,0,0,1,.25.46.37.37,0,0,1-.14.41.36.36,0,0,1-.43,0,7.26,7.26,0,0,1-1.14-1.21l-1.06-1.19c-.43-.47-.86-.93-1.3-1.39l-.08,0c-.38-.07-.76-.16-1.14-.22a13.62,13.62,0,0,0-2.3-.17,14.94,14.94,0,0,0-4.6.77q-.69.24-1.38.51c-.22.09-.45.19-.68.27a1.42,1.42,0,0,1-.41.08.85.85,0,0,1-.31-.09.16.16,0,0,1-.08-.21.82.82,0,0,1,.38-.44c.22-.12.45-.22.68-.32.43-.17.86-.34,1.3-.49A13.51,13.51,0,0,1,32.92,79a15.2,15.2,0,0,1,4.76,0l.6.11-.09-.1q-2.28-2.31-4.76-4.42c-.56-.48-1.13-.95-1.7-1.41l-.47.06c-.34,0-.67.1-1,.18a11.23,11.23,0,0,0-2,.64,9.57,9.57,0,0,0-1.83,1.06c-.28.2-.54.43-.81.64a4.84,4.84,0,0,1-.88.56c-.09,0-.15-.07-.12-.14a2.79,2.79,0,0,1,.14-.37,4.06,4.06,0,0,1,.26-.36,3.59,3.59,0,0,1,.66-.63,8.94,8.94,0,0,1,1.43-1,9.48,9.48,0,0,1,3.34-1.11c.22,0,.46-.06.71-.07a80.63,80.63,0,0,0-7.85-5.5l-.37,0-1,0a10.3,10.3,0,0,0-2,.14,4.93,4.93,0,0,0-2.3,1.06,8.75,8.75,0,0,1-.69.55A.24.24,0,0,1,16.53,68.64Z"/><path class="cls-3" d="M57.13,14.18C42.38,10.59,36.91,23.25,37.48,31s-3.1,8.5-2.06,11.6S34,49.1,36.11,52.2,58.51,57,60.92,54.5s3.33-5.29,2.53-8.5,3-5.17,2.06-8.85S70.34,17.39,57.13,14.18Z"/><path class="cls-4" d="M68.81,60.28s.56,3.26,1,5.94c0,0-1.51,1.56-1.7,1.64s-3.94.23-4.25-.08.15-4.48.65-5.24,1.53-2.38,1.8-2.76S68.81,60.28,68.81,60.28Z"/><path class="cls-4" d="M33.27,56.79a47.43,47.43,0,0,0,.12,9c.37,3.31,5.86,3.59,5.93,3.67a4.44,4.44,0,0,0,1.5-2.37,13,13,0,0,0-.5-4.37c-.61-1.49-1.5-4.13-2.22-4.71A7.84,7.84,0,0,0,35,56.91,10.39,10.39,0,0,1,33.27,56.79Z"/><path class="cls-5" d="M69.51,60.24a13,13,0,0,0-8.27-10.41,26.48,26.48,0,0,1-2.35,2.4c-.15-.06-18.64-6-18.64-6-5,.92-8.92,8.36-9.28,10.25,0,0,2,3,8.52,4.2l-.1,11.23s-1.47,14.78-3,18.69H67.24a170.9,170.9,0,0,1-3.53-20.76c0-.18,3.25-8.55,3.25-8.55A4.45,4.45,0,0,0,69.51,60.24Z"/><path class="cls-6" d="M42.14,49.5a1.85,1.85,0,0,0-1.11.26,9.8,9.8,0,0,0-1,.49c-.3.19-.62.35-.93.54a4.4,4.4,0,0,0-.91.81,12.39,12.39,0,0,0-2.4,4.24A5.41,5.41,0,0,0,35.66,59a.83.83,0,0,0,.17.32l-.2-.06c-.27-.08-.53-.17-.79-.27a9.26,9.26,0,0,1-1.45-.71,6.17,6.17,0,0,1-1.16-.87,6.51,6.51,0,0,1-.51-.54c-.15-.19-.29-.4-.45-.58a.16.16,0,0,0-.26.15,3.41,3.41,0,0,0,.84,1.25,7,7,0,0,0,1.21,1,8.08,8.08,0,0,0,1.52.78c.27.11.55.21.82.3a3,3,0,0,0,.88.2.26.26,0,0,0,.22-.39.57.57,0,0,0,.18,0,.84.84,0,0,0,.58-1c0-.1,0-.19-.07-.29s0,0,0-.06a.43.43,0,0,1,0-.05v0h0a3.22,3.22,0,0,1,0-.62.76.76,0,0,1,0-.15v-.15s0-.09,0-.14c0-.21.1-.42.16-.62s.12-.38.19-.57a2.6,2.6,0,0,0,.1-.25l0-.08,0-.1c.14-.32.29-.63.46-.94a15.27,15.27,0,0,1,1.12-1.75h0l.06-.08c0-.06.1-.13.16-.19s.28-.35.41-.53l.27-.4h0l.06-.07.2-.24a4.06,4.06,0,0,1,.81-.68,3.36,3.36,0,0,0,1-.67A.25.25,0,0,0,42.14,49.5Z"/><path class="cls-6" d="M37.18,58.21v-.06h0Z"/><path class="cls-6" d="M69.45,60c-.21,0-.39.14-.57.25s-.34.2-.52.29l0,0,0-.11a4,4,0,0,0,.1-.92c0-.26,0-.53,0-.8A6.83,6.83,0,0,0,68.31,57a5.13,5.13,0,0,0-.69-1.41,6.37,6.37,0,0,0-.44-.62c-.13-.16-.31-.4-.53-.44a.19.19,0,0,0-.23.13,1.24,1.24,0,0,0,.08.63c0,.23.11.45.15.68.08.41,0,.83.1,1.27a13.33,13.33,0,0,1,.08,1.41c0,.52-.06,1-.09,1.54a.81.81,0,0,0,.69.8.21.21,0,0,0-.06.1.14.14,0,0,0,.06.14c.16.11.41,0,.56-.1l.58-.25c.18-.09.35-.19.52-.29l.25-.15c.1-.07.21-.13.24-.26A.19.19,0,0,0,69.45,60Z"/><path class="cls-6" d="M64.14,72.73c-.09-.16-.45-.09-.58,0s-.47.16-.72.22-.61.19-.91.3a.88.88,0,0,0-.32-.66.84.84,0,0,0-1.09.06c-.25.25-.46.54-.7.8l-.38.4-.13.07a2.22,2.22,0,0,0-.57.39c-.26.27-.5.56-.76.83l-.79.8L55.9,77l-.83.67-.39.32-.17.13-.08.07,0,0q-.45.33-.93.63l-.3.21-.17.12a1.3,1.3,0,0,0-.19.22s0,0,0,0l-.14-.07c-.3-.15-.59-.32-.87-.49s-.57-.37-.84-.56L50.56,78l-.18-.13-.14-.11c-.53-.42-1.05-.87-1.56-1.31s-1.1-1-1.68-1.42a5.68,5.68,0,0,0-1-.57.68.68,0,0,0-.18-.26,1.17,1.17,0,0,0-.66-.27l-.3,0-.73-.08-.77-.08-.35,0h-.09l-.15,0c-.48-.07-1-.17-1.44-.26-.24,0-.48-.11-.72-.14a2,2,0,0,0-.49,0,1,1,0,0,0-.24,0l-.13,0c-.06,0-.08,0-.05,0a.48.48,0,0,0-.21.8c.05.06.14.19.22.27a2.09,2.09,0,0,0,.39.27A6.52,6.52,0,0,0,41,75c.24.07.49.12.74.17l.71.32c.38.18.76.34,1.13.53l.51.28.23.13.12.09.08.06c.62.51,1.22,1,1.85,1.53s1.43,1.06,2.14,1.59a16.16,16.16,0,0,0,2,1.41,3.43,3.43,0,0,0,2.59.27A5.84,5.84,0,0,0,55.21,80c.61-.53,1.18-1.1,1.76-1.66l.93-.92c.74-.61,1.46-1.24,2.15-1.9.29-.29.57-.57.84-.87s.49-.51.71-.79c.48-.08,1-.17,1.44-.29a5.75,5.75,0,0,0,.71-.2C64,73.31,64.29,73,64.14,72.73Z"/><path class="cls-4" d="M49.09,40.43A4.32,4.32,0,0,1,47,44.26c-2.5,1.53-6.74,1.94-6.74,1.94s3.63,6.13,9.19,6.54,11.8-2.91,11.8-2.91S53.89,49,55.83,41.2c0,0-4.7-1.84-5-1.79A12.18,12.18,0,0,0,49.09,40.43Z"/><path class="cls-7" d="M52.6,79.63s-18.12-9.31-15.84-23c1.68-10.1,13.59-9.15,16.84-4.21,0,0,3.9-4.55,9-2.45C70.25,53.16,70.51,69.21,52.6,79.63Z"/><path class="cls-8" d="M55.5,43.5a9.72,9.72,0,0,1,.33-2.3s-4.7-1.84-5-1.79a12.18,12.18,0,0,0-1.73,1A4.32,4.32,0,0,1,47,44.26a5,5,0,0,1-.46.26A14.94,14.94,0,0,0,55.5,43.5Z"/><path class="cls-4" d="M44.36,28.49a2.24,2.24,0,0,0-2.55,2.14,2.87,2.87,0,0,0,2.3,3s1,9.14,8.58,10S62.18,33,62.28,31c0,0-5.25-5.57-5.56-9.09C56.72,22,50.75,28.23,44.36,28.49Z"/><path class="cls-8" d="M44.29,30.51a1.54,1.54,0,0,0-.3-.69.91.91,0,0,0-.66-.35.75.75,0,0,0-.33.07.38.38,0,0,0-.13.09.46.46,0,0,0-.07.16.08.08,0,0,0,.12.1l.09,0,.07,0a.37.37,0,0,1,.18,0,.46.46,0,0,1,.28.15.67.67,0,0,1,.1.21.49.49,0,0,0-.25.14,1.4,1.4,0,0,0-.33.79,1.06,1.06,0,0,0,.13.92.59.59,0,0,0,.86-.12,1.27,1.27,0,0,0,.29-.71A2.65,2.65,0,0,0,44.29,30.51Z"/><path class="cls-9" d="M48.08,65.65c-.07,0-.07,0,0,0a.38.38,0,0,0-.21,0,1,1,0,0,0-.44.15l-.23.14h0l-.47-.34-.24-.18-.13-.09v0c-.64-.49-1.26-1-1.87-1.53l-.21-.17L44,63.39c-.16-.12-.31-.25-.46-.38l-.47-.39-.41-.34a6.2,6.2,0,0,1-1.4-1.67,5.08,5.08,0,0,1-.43-1.12,4.11,4.11,0,0,1-.12-.61c0-.2,0-.41,0-.62a.13.13,0,0,0-.24-.07,2.53,2.53,0,0,0-.28,1.11,3.36,3.36,0,0,0,.13,1.14,6.67,6.67,0,0,0,1,2.16,19.42,19.42,0,0,0,3.56,3.63l.58.46-.23.07c-.32.1-.65.18-1,.26a19.23,19.23,0,0,1-2,.34,17.93,17.93,0,0,1-2.18.33.07.07,0,0,0,0,.13,2.05,2.05,0,0,0,1.11.29c.37,0,.73,0,1.1,0,.72,0,1.44-.08,2.15-.15a11.36,11.36,0,0,0,2.16-.45l0,0,.06,0a1.28,1.28,0,0,0,1,.23.69.69,0,0,0,.48-.83l-.06-.16a.91.91,0,0,0,.37-.58A.46.46,0,0,0,48.08,65.65Z"/><path class="cls-9" d="M47.11,59.67c0-.06,0-.12,0-.18a.5.5,0,0,0,0-.12c0-.07,0-.08,0,0,0-.26-.06-.48-.08-.79s0-.53,0-.79a1.9,1.9,0,0,0-.05-.86.28.28,0,0,0-.39-.1,1.41,1.41,0,0,0-.42.84,4.69,4.69,0,0,0-.16.91,4,4,0,0,0,0,.85,1.84,1.84,0,0,0,.33,1.08.51.51,0,0,0,.85-.22A1.41,1.41,0,0,0,47.11,59.67Z"/><path class="cls-9" d="M57.9,60.42c-.34-.49-1,.07-1.26.36a9.25,9.25,0,0,0-1,1.33,13,13,0,0,0-.81,1.4l-.06.14-.23-.06-.82-.24c-.53-.15-1.06-.32-1.58-.51s-1-.38-1.49-.59l-.76-.34a1.74,1.74,0,0,0-.83-.24.19.19,0,0,0-.18.24,1.61,1.61,0,0,0,.57.62l.72.53c.5.36,1,.71,1.53,1a9,9,0,0,0,1.7.85,8.39,8.39,0,0,0,.85.27h0v0a.57.57,0,0,0,.29.51.64.64,0,0,0,.3.08.56.56,0,0,0,.51-.29,1.91,1.91,0,0,0,.16-.32.81.81,0,0,0,.36-.8.7.7,0,0,0,0-.14,2,2,0,0,1,.1-.26,12.8,12.8,0,0,1,.59-1.31,13.74,13.74,0,0,1,.76-1.27,3.16,3.16,0,0,1,.38-.44C57.8,60.87,58.05,60.63,57.9,60.42Z"/><path class="cls-9" d="M61.6,59.89a3.77,3.77,0,0,0-.92.4,4.19,4.19,0,0,0-.8.66,5.88,5.88,0,0,1-.76.67c-.29.19-.58.39-.89.58s-1.1.51-.94,1.11a.61.61,0,0,0,.62.43,1.51,1.51,0,0,0,.7-.3A7.29,7.29,0,0,0,60.34,62a8.5,8.5,0,0,0,.72-1,10.13,10.13,0,0,1,.61-1A.08.08,0,0,0,61.6,59.89Z"/><path class="cls-9" d="M64.93,62.84a.26.26,0,0,0-.3,0,.87.87,0,0,0-.36.48c-.09.2-.2.39-.31.59a11.55,11.55,0,0,1-.67,1.1,11.21,11.21,0,0,1-.82,1c-.3.33-.62.65-.95,1a3,3,0,0,0-.48.58,1.72,1.72,0,0,0-.09.19c0-.06,0-.16,0,.06a.51.51,0,0,0,0,.4.7.7,0,0,0,.92.2,2.45,2.45,0,0,0,.63-.48,12.11,12.11,0,0,0,1.83-2.15A5.75,5.75,0,0,0,65,64.33a3.88,3.88,0,0,0,.12-.76A.83.83,0,0,0,64.93,62.84Z"/><path class="cls-9" d="M60.37,72.75a.46.46,0,0,0-.18-.13,2.15,2.15,0,0,0-.87-.22c-.33-.05-.65-.11-1-.18s-.69-.15-1-.23a.62.62,0,0,0-.14-.36.64.64,0,0,0-.68-.23l-.33-.05-.5,0H55.5a.69.69,0,0,0,0-.68.78.78,0,0,0-.87-.35,3.89,3.89,0,0,0-1,.47l-.16.09a1.2,1.2,0,0,0-.5,0l-.19.08h0a.3.3,0,0,0-.26.15s0,0-.06.09a.46.46,0,0,0-.06.23l-.49.23-.38.17-.12.05-.25.1a21,21,0,0,1-3.81,1.08c-.35.06-.7.15-1,.19s-.88,0-1.19.25a.36.36,0,0,0,0,.45,1.35,1.35,0,0,0,1,.41,8.8,8.8,0,0,0,1.15.13,8.36,8.36,0,0,0,2.17-.25,19.61,19.61,0,0,0,3.92-1.44l0,0h0l.65-.1c.65.17,1.32.27,2,.41s1.35.27,2,.37a8.34,8.34,0,0,0,1.11.11,1.91,1.91,0,0,0,1.06-.17.41.41,0,0,0,.19-.13A.35.35,0,0,0,60.37,72.75Z"/><path class="cls-4" d="M69.78,66.22a19.06,19.06,0,0,1-11.12-.12c-6-1.93-8.65-3.81-9.21-4.45s-1-4.37-2.2-5-.71,1.66-.65,2.6a3.22,3.22,0,0,1-1.88-2.19c-.58-1.79-1.43-1.58-1.63-1.18,0,0-.39-.69-1-.57s-.56.9-.56.9a1.2,1.2,0,0,0-.84,1.13,1.31,1.31,0,0,0-.44,1.3c.11.95.57,2.24,2.38,3.92a43,43,0,0,0,3.77,3.19c.52.36,7.13,6.51,14,7.37S70.43,69.69,69.78,66.22Z"/><path class="cls-4" d="M33.43,65.64a20.21,20.21,0,0,0,11.33,1.84c6.43-.84,9.5-2.22,10.19-2.76s1.87-4.36,3.17-4.75.42,2,.19,2.87a5.5,5.5,0,0,0,2.59-2.29c.92-1.67,1.74-1.3,1.88-.88,0,0,.51-.62,1.09-.39s.4,1,.4,1a1.21,1.21,0,0,1,.65,1.26,1.27,1.27,0,0,1,.21,1.36,8,8,0,0,1-3.45,4,43.22,43.22,0,0,1-4.42,2.47c-.59.26-8.44,5.15-15.54,4.8S33.55,69.27,33.43,65.64Z"/><path class="cls-8" d="M54.91,64.67a.86.86,0,0,0-.38.13l-.44.22-.87.38c-.57.23-1.16.45-1.76.64s-1.17.34-1.77.47l-.89.19-.49.11A.35.35,0,0,0,48,67,.08.08,0,0,0,48,67a.31.31,0,0,0,.31.06l.49,0c.3,0,.59-.1.88-.16.63-.14,1.26-.3,1.88-.49s1.21-.4,1.8-.64l.86-.37a2.12,2.12,0,0,0,.8-.46A.18.18,0,0,0,54.91,64.67Z"/><path class="cls-8" d="M61.18,66.93c-.58.33-1.14.72-1.71,1.07s-1.15.69-1.74,1c-1.17.65-2.38,1.24-3.59,1.82-.14.07,0,.31.11.25a35.44,35.44,0,0,0,3.63-1.73c.59-.32,1.18-.65,1.76-1a19.45,19.45,0,0,0,1.73-1.1C61.56,67.12,61.39,66.8,61.18,66.93Z"/><path class="cls-8" d="M62.75,59.77c0-.09-.18,0-.16.07s0,.12-.05.16l-.11.21c-.06.12-.12.25-.19.37s-.3.48-.47.71a7.18,7.18,0,0,1-1.14,1.26c-.12.1-.23.2-.36.29s-.19.14-.29.22,0,0,0,0a.29.29,0,0,1-.1,0,.08.08,0,0,0-.05.1.37.37,0,0,0,0,.15.16.16,0,0,0,.2,0,2.6,2.6,0,0,0,.38-.27l.36-.28c.23-.2.45-.42.66-.64a6.79,6.79,0,0,0,1-1.52,3.82,3.82,0,0,0,.21-.46A.59.59,0,0,0,62.75,59.77Z"/><path class="cls-8" d="M64.16,60.33a1.45,1.45,0,0,0-.22.36l-.23.4c-.15.26-.31.51-.48.76a10.1,10.1,0,0,1-1.16,1.38l-.38.35-.18.16-.08.07h0a.3.3,0,0,0-.13.18.12.12,0,0,0,.18.13,1.22,1.22,0,0,0,.19-.12l.18-.15.35-.32c.22-.21.43-.44.63-.67a8.83,8.83,0,0,0,1-1.53q.13-.24.24-.48a1.7,1.7,0,0,0,.16-.48A.06.06,0,0,0,64.16,60.33Z"/><path class="cls-8" d="M64.85,61.59a4.16,4.16,0,0,0-.22.48l-.22.48a10.11,10.11,0,0,1-.53.9,6.23,6.23,0,0,1-.67.79c-.12.13-.25.25-.38.37l-.2.18-.08.1s-.06,0,0,0,0,0,0,0,.07.14.14.13a.71.71,0,0,0,.38-.23,6.65,6.65,0,0,0,.65-.65,6.52,6.52,0,0,0,1-1.57c.07-.15.13-.32.19-.48a2.11,2.11,0,0,0,.12-.51A.07.07,0,0,0,64.85,61.59Z"/><path class="cls-8" d="M45,60.07a.64.64,0,0,0-.1-.18l-.15-.16c-.1-.11-.2-.23-.29-.35a5.52,5.52,0,0,1-.48-.77,7.93,7.93,0,0,1-.69-1.77,3.12,3.12,0,0,1-.11-.85c0-.08,0-.16,0-.22a0,0,0,0,0,0,0c-.12.06-.11.3-.11.41a2.31,2.31,0,0,0,.06.52,5.82,5.82,0,0,0,.3,1,7.08,7.08,0,0,0,.86,1.69,3.53,3.53,0,0,0,.34.41l.19.18a.44.44,0,0,0,.23.1S45,60.09,45,60.07Z"/><path class="cls-8" d="M43.6,60.13a2.27,2.27,0,0,0-.29-.4A10.19,10.19,0,0,1,42.26,58a8.06,8.06,0,0,1-.42-1.1,3.15,3.15,0,0,1-.13-.61,5.61,5.61,0,0,0,0-.58,0,0,0,0,0-.05,0,.92.92,0,0,0-.11.46,3.05,3.05,0,0,0,.05.52,5.28,5.28,0,0,0,.33,1,10.4,10.4,0,0,0,.93,1.82c.09.14.19.28.29.41l.14.19a.62.62,0,0,0,.18.18C43.58,60.33,43.64,60.24,43.6,60.13Z"/><path class="cls-8" d="M43,61.49a7.18,7.18,0,0,0-.63-.6,4,4,0,0,1-.55-.73,8.93,8.93,0,0,1-.77-1.89c-.06-.2-.12-.39-.17-.59l-.07-.28a2.91,2.91,0,0,0,0-.31s-.07,0-.08,0a1.14,1.14,0,0,0,0,.52,4.72,4.72,0,0,0,.13.54c.1.35.2.71.33,1.05a5.05,5.05,0,0,0,1,1.77,1.44,1.44,0,0,0,.84.57A0,0,0,0,0,43,61.49Z"/><path class="cls-10" d="M66,54.17c-.09-.16-.19-.32-.29-.48A7.62,7.62,0,0,0,64,51.89a3.18,3.18,0,0,0-1.26-.66,1.92,1.92,0,0,0-.86,0c-.2.06-.5.22-.5.47a.75.75,0,0,0,.28.48l.11.09.18.14.11.08.16.12.11.08c-.07-.05-.2-.14.11.09l.22.14.21.15h0l.12.09a8.55,8.55,0,0,1,.81.78c.06.06.11.13.16.19a.39.39,0,0,1,.08.1c.11.13,0,0,0,0s.11.16.14.2l.18.26a5.48,5.48,0,0,0,.31.52.84.84,0,0,0,1.24.11A.93.93,0,0,0,66,54.17Z"/><path class="cls-10" d="M66.65,57.54a.82.82,0,0,0-.1-.26.94.94,0,0,0-.23-.32.53.53,0,0,0-.28-.18.39.39,0,0,0-.45.15.08.08,0,0,0,0,0s0,0,0,.05a.69.69,0,0,0-.05.13.19.19,0,0,0,0,.08.86.86,0,0,0,0,.17v.06a1.22,1.22,0,0,0,0,.26,1.49,1.49,0,0,1,0,.21l0,.2,0-.17a1.36,1.36,0,0,0,0,.3.76.76,0,0,0,.1.39.62.62,0,0,0,.35.27l.16,0a.51.51,0,0,0,.29-.08.71.71,0,0,0,.29-.28.94.94,0,0,0,.1-.28,1.75,1.75,0,0,0,0-.46C66.68,57.74,66.67,57.64,66.65,57.54Z"/><path class="cls-8" d="M39.58,67.21a7.31,7.31,0,0,0-1.53-.39,12.36,12.36,0,0,1-1.55-.44c-.11,0-.18.13-.08.19a7.79,7.79,0,0,0,1.53.62,3.17,3.17,0,0,0,1.61.15C39.62,67.32,39.63,67.23,39.58,67.21Z"/><path class="cls-8" d="M67.35,66.58a1,1,0,0,0-.34-.14,1.62,1.62,0,0,0-.44,0c-.3,0-.6.06-.9.09l-.87.11c-.22,0-.54.08-.68.27a0,0,0,0,0,0,0,1,1,0,0,0,.71.14l.9,0c.29,0,.58,0,.87-.06a2.14,2.14,0,0,0,.44-.08,1.42,1.42,0,0,0,.33-.21A.08.08,0,0,0,67.35,66.58Z"/><path class="cls-6" d="M43,49c0-.17-.21-.23-.34-.32a3.27,3.27,0,0,1-.37-.28c-.24-.21-.47-.44-.69-.67a18.25,18.25,0,0,1-1.28-1.49c-.12-.15-.38,0-.27.16A10.39,10.39,0,0,0,41.28,48a9.63,9.63,0,0,0,.72.71l.37.31c.14.1.32.24.49.17A.19.19,0,0,0,43,49Z"/><path class="cls-11" d="M65.28,32.06a6.1,6.1,0,0,0-.57-.29c-.2-.07-.4-.13-.59-.21A5.65,5.65,0,0,1,63,30.89,12.91,12.91,0,0,1,61.11,29a21.88,21.88,0,0,1-3.24-4.57,12.43,12.43,0,0,1-.6-1.46c-.08-.24-.15-.49-.21-.73S57,22,57,21.93s.13-.43-.06-.54-.65.16-.85.36c-.45.45-.92.89-1.39,1.32a21.94,21.94,0,0,1-6.41,4.11,15.39,15.39,0,0,1-7.73,1.12c-.32,0-.65-.1-1-.12a.14.14,0,0,0-.06.25,6.09,6.09,0,0,0,1.85.43,12,12,0,0,0,2,.08,15.1,15.1,0,0,0,3.89-.66A21.07,21.07,0,0,0,54,24.59c.51-.4,1-.82,1.5-1.24l.7-.63.31-.27c0,.18.07.36.11.53a9.76,9.76,0,0,0,.47,1.38A14.82,14.82,0,0,0,58.57,27a29.91,29.91,0,0,0,1.83,2.37,15.6,15.6,0,0,0,2,2,6.09,6.09,0,0,0,1.33.87,3.42,3.42,0,0,0,.75.29,1.66,1.66,0,0,0,.8-.06A.22.22,0,0,0,65.28,32.06Z"/><path class="cls-11" d="M39.61,37.87a12.57,12.57,0,0,0,.49-3.71c0-.61,0-1.23-.07-1.85,0-.31-.05-.61-.09-.92a4.3,4.3,0,0,0-.17-.95.1.1,0,0,0-.2,0,6.92,6.92,0,0,0-.06,1.64c0,.57,0,1.13,0,1.7a16.94,16.94,0,0,1-.41,3.32c-.25,1.06-.76,2-1,3.07A4.18,4.18,0,0,0,38,41.82a4.17,4.17,0,0,1,.19,1.6c-.12.49-.45.9-.55,1.39s-.05,1,.39,1.2c.12.05.29.05.35-.08s0-.36-.07-.5a2,2,0,0,1,.3-1.22,2.61,2.61,0,0,0,.25-1.6A7.42,7.42,0,0,1,38.64,41,15,15,0,0,1,39.61,37.87Z"/><path class="cls-11" d="M43,35c-.49-.39-.89.89-1,1.19a9.6,9.6,0,0,0-.36,2.12c-.09,1.5.09,3,.06,4.49,0,.42,0,.84-.08,1.26s-.23.85,0,1.21a.11.11,0,0,0,.16,0c.3-.16.36-.5.42-.82s.09-.7.11-1.06a18.92,18.92,0,0,0,0-2.13,20.2,20.2,0,0,1,0-4,7,7,0,0,1,.26-1.1c.05-.17.11-.34.17-.51s.09-.41.18-.45S43.06,35.07,43,35Z"/><path class="cls-11" d="M45.42,41a.19.19,0,0,0-.32,0,2.49,2.49,0,0,0-.13.86c0,.29,0,.58-.08.86s-.07.56-.11.84a1.75,1.75,0,0,0,0,.46.93.93,0,0,0,.09.4.1.1,0,0,0,.17.05,1.1,1.1,0,0,0,.26-.31,2.16,2.16,0,0,0,.14-.43c.05-.31.09-.63.13-.94a6.77,6.77,0,0,0,0-.9A2.08,2.08,0,0,0,45.42,41Z"/><path class="cls-11" d="M64,34c-.09-.19-.35-.05-.31.13a5.75,5.75,0,0,1-.05,3.08,5,5,0,0,1-.71,1.35,7.65,7.65,0,0,0-.83,1.29,2.59,2.59,0,0,0-.18,1.43,7.56,7.56,0,0,1,.24,1.55,2.93,2.93,0,0,1-.63,1.33,3.31,3.31,0,0,0-.46,1.4c-.07.52-.07,1.06-.13,1.58s-.28,1-.32,1.5c0,.1.11.15.19.11a1.48,1.48,0,0,0,.69-1.22c.08-.48.09-1,.13-1.47a3.94,3.94,0,0,1,.29-1.36,10.33,10.33,0,0,0,.75-1.39c.29-1.07-.55-2.1-.16-3.15a5.92,5.92,0,0,1,.8-1.29,5.65,5.65,0,0,0,.73-1.37A4.66,4.66,0,0,0,64,34Z"/><path class="cls-11" d="M59.47,42.14c.08-.19.26-.47.21-.68a.1.1,0,0,0-.1-.07c-.22,0-.38.28-.49.45a3.91,3.91,0,0,0-.31.76,4.15,4.15,0,0,0-.12,1.68,6.09,6.09,0,0,1,.08.95,3.43,3.43,0,0,1-.2.94c-.09.29-.19.58-.28.86a2.21,2.21,0,0,0-.12.95.13.13,0,0,0,.21.09,2.23,2.23,0,0,0,.44-.76c.1-.29.18-.59.27-.88a4.2,4.2,0,0,0,.17-1.83,4.68,4.68,0,0,1,0-1.67A3.88,3.88,0,0,1,59.47,42.14Z"/><path class="cls-11" d="M55.08,19c-.41.37-.84.7-1.22,1.1s-.78.77-1.2,1.12A18.51,18.51,0,0,1,50,23.09a19.45,19.45,0,0,1-6.12,2.34,17.93,17.93,0,0,1-1.81.27c-.61.06-1.23.06-1.83.18a.1.1,0,0,0,0,.2,5.83,5.83,0,0,0,1.67.1c.55,0,1.11-.08,1.66-.16a17.49,17.49,0,0,0,3.29-.77,19,19,0,0,0,5.9-3.3q.72-.6,1.38-1.26a7.85,7.85,0,0,0,1.13-1.56A.13.13,0,0,0,55.08,19Z"/><path class="cls-11" d="M52.29,17.17c-.64.51-1.25,1-1.88,1.58a17,17,0,0,1-1.95,1.41c-.7.44-1.42.85-2.14,1.25s-1.53.85-2.32,1.2a6.85,6.85,0,0,1-1.45.48c-.24.05-.48.1-.72.13a3,3,0,0,0-.73.05s-.06.06,0,.08a1,1,0,0,0,.52.18,4,4,0,0,0,2-.2,15.91,15.91,0,0,0,2.57-1.13,25.53,25.53,0,0,0,4.39-2.73,6.11,6.11,0,0,0,1.83-2.18A.09.09,0,0,0,52.29,17.17Z"/><path class="cls-11" d="M63.57,27.55h0c0-.06-.1-.11-.15-.15l-.35-.32c-.24-.2-.48-.4-.71-.62a10.9,10.9,0,0,1-1.24-1.39,12.19,12.19,0,0,1-1.77-3.32,10.34,10.34,0,0,1-.3-1c-.09-.35-.2-.7-.27-1.06,0-.14-.24-.1-.24,0a6.68,6.68,0,0,0,0,1,8,8,0,0,0,.16,1,11.4,11.4,0,0,0,.62,1.9,10.58,10.58,0,0,0,2.22,3.31,10.22,10.22,0,0,0,.84.77c.29.23.64.53,1,.4a.41.41,0,0,0,.29-.19A.22.22,0,0,0,63.57,27.55Z"/><path class="cls-11" d="M64.36,25.39l0,0,0,0,0-.06-.3-.32a12.33,12.33,0,0,1-1.84-2.24,13.57,13.57,0,0,1-.79-1.45,11.41,11.41,0,0,1-.65-1.58,0,0,0,0,0-.06,0,9.82,9.82,0,0,0,.19,1.43,9,9,0,0,0,.49,1.4A9.52,9.52,0,0,0,62.91,25c.15.17.3.34.46.49s.45.41.75.33A.32.32,0,0,0,64.36,25.39Z"/><path class="cls-3" d="M51.21,28.92a.41.41,0,0,0-.13-.28,1.43,1.43,0,0,0-.55-.31,1.81,1.81,0,0,0-.57-.06,1.15,1.15,0,0,0-.59.19,1.24,1.24,0,0,0-.21.19.38.38,0,0,0-.09.24h0V29a.17.17,0,0,0,.12.15h.08a.17.17,0,0,0,.1,0h0l.15,0h.13l.12,0h.33l.1,0h.09l0,0,.09,0,0,0,.08.06a.41.41,0,0,0,.17.07l.07,0c.2,0,.45-.13.41-.36C51.22,28.94,51.22,28.93,51.21,28.92Z"/><path class="cls-3" d="M59.53,30.59a1.56,1.56,0,0,0-.91-.52,1.41,1.41,0,0,0-.5,0,.89.89,0,0,0-.31.11.63.63,0,0,0-.21.22.23.23,0,0,0,.16.33h.71l.09,0h0l.16.08,0,0,.07.05.06.06,0,0a.37.37,0,0,0,.22.14.39.39,0,0,0,.28,0A.38.38,0,0,0,59.53,30.59Z"/><path class="cls-8" d="M54.35,35.12h0a.31.31,0,0,0-.12-.05h-.1l-.12,0-.19.06H53.5s-.06,0,0,0h0l-.09,0-.18,0h0l-.09,0-.16-.1c-.11-.07-.24.06-.2.17a1,1,0,0,0,.75.63,1.51,1.51,0,0,0,.56,0,.61.61,0,0,0,.39-.22.28.28,0,0,0,.07-.21A.19.19,0,0,0,54.35,35.12Z"/><path class="cls-8" d="M54.13,35.09h0Z"/><path class="cls-12" d="M48.65,34.15a.89.89,0,0,0-.49-.8,2.44,2.44,0,0,0-.88-.23,1.09,1.09,0,0,0-.91.32.85.85,0,0,0-.11,1A1.35,1.35,0,0,0,47,35a1.78,1.78,0,0,0,1,.06.83.83,0,0,0,.7-.75s0,0,0-.06S48.65,34.18,48.65,34.15Z"/><path class="cls-12" d="M60.6,36a.89.89,0,0,0-.49-.8,2.44,2.44,0,0,0-.88-.23,1.12,1.12,0,0,0-.92.32.86.86,0,0,0-.1,1,1.32,1.32,0,0,0,.72.52,1.85,1.85,0,0,0,1,.06.82.82,0,0,0,.7-.75v-.06S60.6,36.07,60.6,36Z"/><path class="cls-8" d="M54.69,37.25c-.13.07-.21.21-.32.31a1.34,1.34,0,0,1-.31.22,1.49,1.49,0,0,1-.75.16,1.4,1.4,0,0,1-.69-.24,3.73,3.73,0,0,1-.3-.26c-.09-.1-.2-.19-.29-.3s-.22,0-.2.12a.94.94,0,0,0,.16.46,1.76,1.76,0,0,0,.35.37,1.86,1.86,0,0,0,2,.23,1.83,1.83,0,0,0,.44-.28,1,1,0,0,0,.35-.47A.29.29,0,0,0,54.69,37.25Z"/><path class="cls-3" d="M50.84,31.14a1.29,1.29,0,0,1-1.53.61,1.42,1.42,0,0,1-.72-.53,4.85,4.85,0,0,0-.29-.49c-.09-.12-.3-.27-.42-.09s0,.42.12.58a2.61,2.61,0,0,0,.31.54,1.91,1.91,0,0,0,1,.64,2,2,0,0,0,2.14-.9A.36.36,0,0,0,50.84,31.14Z"/><path class="cls-3" d="M59.87,32.72a.31.31,0,0,0-.31-.24.41.41,0,0,0-.29.11l-.13.14-.13.11a1.79,1.79,0,0,1-.32.18,1.16,1.16,0,0,1-.71,0,1.45,1.45,0,0,1-.92-1,.22.22,0,0,0-.42,0,1.56,1.56,0,0,0,1.15,1.67,1.89,1.89,0,0,0,1.08,0,1.84,1.84,0,0,0,1-.67A.35.35,0,0,0,59.87,32.72Z"/><path class="cls-13" d="M72.94,27.8a1.85,1.85,0,0,1-.78.17,1.92,1.92,0,0,0-1.42.43l-.13.22-.09-.24a5.33,5.33,0,0,1-.43-2.08,1.66,1.66,0,0,1,.41-1.16.78.78,0,0,1,.86-.2,1,1,0,0,1,.5.44,1.93,1.93,0,0,1,.21.64,1.63,1.63,0,0,1,.63-.16,1.13,1.13,0,0,1,.64.16h0a.87.87,0,0,1,.41.81A1.22,1.22,0,0,1,72.94,27.8Z"/><path class="cls-14" d="M84,50.62a2.52,2.52,0,0,1-.92.2,2.28,2.28,0,0,0-1.68.5l-.16.26-.11-.28a6.26,6.26,0,0,1-.5-2.46,1.89,1.89,0,0,1,.49-1.37.91.91,0,0,1,1-.24,1.18,1.18,0,0,1,.59.52,2.13,2.13,0,0,1,.25.76,1.89,1.89,0,0,1,.74-.19,1.39,1.39,0,0,1,.76.19h0a1,1,0,0,1,.49.95A1.44,1.44,0,0,1,84,50.62Z"/><path class="cls-15" d="M17.15,46.89a2.55,2.55,0,0,1-.51.79c-.63.66-.89,1.29-.82,1.56l.08.29-.28-.12a6.52,6.52,0,0,1-2.11-1.36,2.06,2.06,0,0,1-.64-1.32.93.93,0,0,1,.55-.89,1.14,1.14,0,0,1,.78-.05,2.17,2.17,0,0,1,.72.35,1.81,1.81,0,0,1,.39-.66,1.21,1.21,0,0,1,.66-.4h0a1.07,1.07,0,0,1,1,.32A1.47,1.47,0,0,1,17.15,46.89Z"/><path class="cls-16" d="M91.15,72.34a2.41,2.41,0,0,1-.93.19,2.33,2.33,0,0,0-1.68.51l-.15.26L88.28,73a6.51,6.51,0,0,1-.51-2.46,2,2,0,0,1,.49-1.38,1,1,0,0,1,1-.24,1.2,1.2,0,0,1,.58.52,2.06,2.06,0,0,1,.25.77,1.74,1.74,0,0,1,.75-.19,1.26,1.26,0,0,1,.75.19h0a1.06,1.06,0,0,1,.49,1A1.47,1.47,0,0,1,91.15,72.34Z"/><path class="cls-17" d="M16.27,73.18a2.23,2.23,0,0,1-.51.79c-.62.66-.89,1.29-.82,1.56l.08.29-.28-.12a6.52,6.52,0,0,1-2.11-1.36A2,2,0,0,1,12,73a.92.92,0,0,1,.54-.89,1.15,1.15,0,0,1,.78,0,2.17,2.17,0,0,1,.72.35,1.81,1.81,0,0,1,.39-.66,1.24,1.24,0,0,1,.67-.4h0a1.05,1.05,0,0,1,1,.32A1.45,1.45,0,0,1,16.27,73.18Z"/><path class="cls-18" d="M39.45,15.77a2.06,2.06,0,0,1-.78.17,1.93,1.93,0,0,0-1.43.43l-.13.21L37,16.35a5.52,5.52,0,0,1-.43-2.08A1.65,1.65,0,0,1,37,13.11a.79.79,0,0,1,.86-.21,1.08,1.08,0,0,1,.49.44,1.66,1.66,0,0,1,.21.65,1.54,1.54,0,0,1,.63-.16,1.13,1.13,0,0,1,.64.16h0a.9.9,0,0,1,.42.8A1.23,1.23,0,0,1,39.45,15.77Z"/><path class="cls-19" d="M37,23.91a1.62,1.62,0,0,1-.52.32c-.55.2-.89.49-.93.67l0,.19-.12-.15a4,4,0,0,1-.81-1.41,1.28,1.28,0,0,1,0-1,.61.61,0,0,1,.57-.36.68.68,0,0,1,.46.2,1.2,1.2,0,0,1,.31.41,1.37,1.37,0,0,1,.42-.27.79.79,0,0,1,.5,0h0a.66.66,0,0,1,.49.48A.94.94,0,0,1,37,23.91Z"/><path class="cls-20" d="M65.45,13.81a1.62,1.62,0,0,1-.52.32c-.55.2-.89.49-.93.67L64,15l-.12-.15A3.84,3.84,0,0,1,63,13.43a1.28,1.28,0,0,1,0-1,.61.61,0,0,1,.57-.36.68.68,0,0,1,.46.2,1.2,1.2,0,0,1,.31.41,1.37,1.37,0,0,1,.42-.27.79.79,0,0,1,.5,0h0a.68.68,0,0,1,.49.48A.94.94,0,0,1,65.45,13.81Z"/></svg>