<svg xmlns="http://www.w3.org/2000/svg" xmlns:xlink="http://www.w3.org/1999/xlink" viewBox="0 0 100 100"><defs><style>.cls-1{isolation:isolate;}.cls-2{opacity:0.5;fill:url(#radial-gradient);}.cls-3{fill:#f16163;}.cls-4{fill:#f89747;}.cls-5{fill:#464778;}.cls-6{fill:#f9b7ad;}.cls-7{fill:#873334;}.cls-8{mix-blend-mode:multiply;}.cls-9{fill:#9c97b3;}.cls-10{fill:#fff;}.cls-11{fill:#a4645c;}</style><radialGradient id="radial-gradient" cx="42.03" cy="47.71" r="33.44" gradientUnits="userSpaceOnUse"><stop offset="0" stop-color="#efa8b9"/><stop offset="1" stop-color="#f27594"/></radialGradient></defs><g class="cls-1"><g id="Layer_1" data-name="Layer 1"><path class="cls-2" d="M68.76,22.2c-4.29-3.58-10.35-5.5-15.7-6a38.94,38.94,0,0,0-21.89,4.63c-4.49,2.44-8.62,5.5-9.15,10.87-.33,3.26-.4,5.47-3,7.75C13.18,44.67,7.27,51.71,6.92,59.93c-.4,9.48,8.28,12.64,15.75,15.56,7.66,3,16.33,3.88,24.49,3.88,7.18,0,15.39-.56,21.48-4.84,4.67-3.26,8.68-8.16,8.5-14.16S71,50.72,71,44.69c0-3.85,3.3-6.91,3.35-10.87A14.55,14.55,0,0,0,68.76,22.2Z"/><path class="cls-3" d="M37.91,34s3.68,0,4.88,1.14,3.67,8.08,5.44,11.29,7.32,4.11,7.32,4.11l.3,2.57s-5.31.6-7.75-1.17A19.67,19.67,0,0,1,42.39,44a22.14,22.14,0,0,1-1.07-4.71Z"/><path class="cls-4" d="M52.17,39.59a9.73,9.73,0,0,0-3.5.87c-1.14.64-2,3.58-3.21,5.08s-2.34,2.74-2.91,2.77-1.47,2-1.07,3.11.84.93.84.93a8.4,8.4,0,0,0,4.34-2.1,17.31,17.31,0,0,0,3.68-5.38C50.3,44.74,52.44,39.89,52.17,39.59Z"/><path class="cls-3" d="M38,83.08s-.53,1.84,0,2.17,5.79.18,5.88-.2c.27-1.17-2.57-1.33-2.77-1.9a3.92,3.92,0,0,1-.2-.64l0-.26Z"/><path class="cls-3" d="M25.32,81.12s-1.3,1.41-1,1.95,5.11,2.73,5.35,2.43c.76-.93-1.71-2.34-1.64-2.94a4.1,4.1,0,0,1,.11-.66l.08-.25Z"/><path class="cls-5" d="M30.56,54.12a13.22,13.22,0,0,0-.93,4.68c-.07,2.74.73,8.22-.2,11.49s-4.55,11-4.55,11a4.48,4.48,0,0,0,2.34,1.34l1.61.4A70.09,70.09,0,0,0,34.3,72.29,55.29,55.29,0,0,0,37,60.2s.46,4.75.6,11.23-.07,12.22-.07,12.22.8-.07,2.14-.13a5.15,5.15,0,0,0,1.73-.27,119.45,119.45,0,0,0,1.47-17.77c-.06-8.55-.33-11.62-.33-11.62S31.56,52.39,30.56,54.12Z"/><path class="cls-6" d="M30.65,57.9a6.78,6.78,0,0,0,.88-1.19l.12-.21L30,55.13s-2,.66-1.64,1.56A8.27,8.27,0,0,0,30,58.38,2.36,2.36,0,0,0,30.65,57.9Z"/><path class="cls-3" d="M35.22,33.9a21.6,21.6,0,0,0-5.93,1.92c-1.91,1.2-4.5,7.08-5,11.4a11.44,11.44,0,0,0,2.62,8.42,20.65,20.65,0,0,0,1.38,1.6,12.27,12.27,0,0,0,1.38-.93,9.18,9.18,0,0,0,1-.94,9.56,9.56,0,0,1-2.62-6.5,9.89,9.89,0,0,1,2.76-7.31s-.09,7.93-.18,10a26.75,26.75,0,0,1-.27,3.12,24.92,24.92,0,0,0,7.39.85c4.46-.09,5.35-.71,5.35-.71s-.22-6.06-.22-8.15-.14-7.8-.14-7.8-.44-3.56-1.33-4A14.9,14.9,0,0,0,35.22,33.9Z"/><path class="cls-6" d="M35.77,30.94a18.26,18.26,0,0,0-1.23,3.68c.1.33,1.6,2.74,3.44,2.3s1-1.87.7-2.27a2.38,2.38,0,0,0-.5-.5l.67-1.94Z"/><path class="cls-6" d="M35.25,29.3a1.16,1.16,0,0,0-.88-.52c-.45,0-.53.59-.46,1,.18.89,1.23.7,1.37-.11"/><path class="cls-6" d="M34.34,25.4c0,2,0,4.59,1.4,6.26A4,4,0,0,0,38.68,33a2.84,2.84,0,0,0,2.76-2.34,8.4,8.4,0,0,0-.74-5.86,1.19,1.19,0,0,0-1-.71,8,8,0,0,0-2.28.23,8.71,8.71,0,0,0-1.71.61A3.1,3.1,0,0,1,34.34,25.4Z"/><path class="cls-7" d="M34.91,29.58a5.92,5.92,0,0,0,.62-1.84,5.34,5.34,0,0,0-.37-2,7.18,7.18,0,0,0,4.57-.51c2-1.13,1.34-3.57.61-3.75a1.48,1.48,0,0,0-1.71.79,3.6,3.6,0,0,0-.52,1.16s-.58-1.1-1.52-.88S36,24.09,36,24.09s-.88-1.25-2.34,0S34.91,29.58,34.91,29.58Z"/><g class="cls-8"><path class="cls-9" d="M42.65,39.74c0,.88,0,1.76.08,2.63,0,.44,0,.88.07,1.32,0,.2,0,.4,0,.61a3.23,3.23,0,0,0,0,.62,0,0,0,0,0,.08,0,5.61,5.61,0,0,0,0-1.23c0-.44,0-.88-.05-1.32,0-.87-.1-1.75-.1-2.63a.1.1,0,1,0-.19,0Z"/></g><path class="cls-5" d="M38.58,29.09h0l-.07.05a.21.21,0,0,0,.08-.06l0-.06a.51.51,0,0,0,0-.1v-.06a.45.45,0,0,0,0-.23s0-.05,0-.08v0l0-.09-.06-.09a.52.52,0,0,0-.18-.1h-.2a.42.42,0,0,0-.17.1.25.25,0,0,0-.08.12s0,0,0,.05,0,0,0,.06a.3.3,0,0,0,0,.16h0l0,.08h0l0,.09a.31.31,0,0,0,.07.09l0,0,0,0a.33.33,0,0,0,.26.11h-.08a.29.29,0,0,0,.29-.08Z"/><path class="cls-5" d="M40.68,28.31h0l-.06,0a.22.22,0,0,0,.13-.08l-.06.05a.19.19,0,0,0,.07-.06.42.42,0,0,0,.09-.14s0,0,0-.05,0-.08,0-.12,0-.09,0-.14v-.05a.37.37,0,0,0,0-.11.3.3,0,0,0,0-.1l0,0,0-.06-.07-.05a.28.28,0,0,0-.32,0,.38.38,0,0,0-.11.11l0,0a.35.35,0,0,0-.05.2v.06a.33.33,0,0,0,0,.14.37.37,0,0,0,0,.11l0,.06a.25.25,0,0,0,.08.14l.07.06-.06-.05a.18.18,0,0,0,.07.05l.06,0-.05,0h0a.25.25,0,0,0,.24,0Z"/><g class="cls-8"><path class="cls-9" d="M39.52,28.17c0,.19,0,.39.09.57a.44.44,0,0,0,.38.32.36.36,0,0,1,.26.13.26.26,0,0,1,0,.21.71.71,0,0,1-.36.32l-.25.12c-.06,0-.15.06-.17.13a0,0,0,0,0,0,.06c.07,0,.14,0,.2,0l.24-.12a1.07,1.07,0,0,0,.41-.35.39.39,0,0,0,0-.46.46.46,0,0,0-.27-.13.41.41,0,0,1-.29-.13.9.9,0,0,1-.09-.32c0-.12,0-.23,0-.35s-.13,0-.12,0Z"/></g><path class="cls-10" d="M40.43,30.52c-.18,0-2.63.44-2.63.44s.36,1.47,1.65,1.07A1.24,1.24,0,0,0,40.43,30.52Z"/><path class="cls-7" d="M38.11,27.34a.75.75,0,0,0-.57.09.69.69,0,0,0-.13.11l-.06.08a.19.19,0,0,0,0,.07s0,0,0,0a.21.21,0,0,0,0,.11h0s0,0,0,0v0a.22.22,0,0,0,0,.14.1.1,0,0,0,.11.06l.09-.06s0,0,0,0h.05l.08,0s0,0,0,0h0l.09,0,.1-.05.18-.11.09,0,.05,0s0,0,0,0h0a.16.16,0,0,0,0-.3Z"/><path class="cls-7" d="M40.19,26.8h0l-.21,0a.24.24,0,0,0,.12.07l-.05,0a.2.2,0,0,0,.11,0h.13a.43.43,0,0,0,.27-.08l-.07.05h0a.17.17,0,0,0,.15-.12.11.11,0,0,0,0-.08.23.23,0,0,0-.07-.1l0,0,.08.1a.21.21,0,0,0-.11-.12l-.09,0h-.1a.2.2,0,0,0-.11,0,.27.27,0,0,0-.12,0,.16.16,0,0,0-.08.06h0a.17.17,0,0,0-.05.13l.17-.13h0a.22.22,0,0,0-.08,0l-.06,0a.14.14,0,0,0,0,.15.15.15,0,0,0,.11.08.13.13,0,0,0,.14-.07Z"/><path class="cls-11" d="M48.35,65.17a80.3,80.3,0,0,0,.49,9.08c.54,4.23,1,9.13,1,9.13h1.29s.45-7.92.58-11.58a51.9,51.9,0,0,1,.53-6S48.89,64.81,48.35,65.17Z"/><path class="cls-11" d="M53.7,65.79S56,73.36,58.46,77.42s3.39,5.63,3.39,5.63l1.33-.58s-3.74-8-4.27-11.29-.85-6.1-.85-6.1S53.88,65.66,53.7,65.79Z"/><path class="cls-4" d="M51.51,79.78l-2.24-.2.4,3.84s-2.84,1.37-2.34,1.87,4.14.13,4.34,0-.33-1.83-.33-2.07S51.51,79.78,51.51,79.78Z"/><path class="cls-4" d="M61.77,78.81l-2.11.77,2,3.31s-2,2.44-1.33,2.68,3.81-1.63,3.92-1.87S63.16,82.18,63.07,82,61.77,78.81,61.77,78.81Z"/><path class="cls-7" d="M57.45,54.46A22,22,0,0,1,59,60.57a34.35,34.35,0,0,1,.26,5.58s-1.6,1.07-5.67,1a21.07,21.07,0,0,1-6.45-1,74.12,74.12,0,0,1,.53-7.58,19.52,19.52,0,0,1,1.41-4.27S57.32,53.72,57.45,54.46Z"/><path class="cls-4" d="M52,39.86c-.13,0-1.5.37-1.77.84s-2.47,3.37-2.64,4.77,1,3.07,1.27,3.58-.23,5.54-.1,5.87,3.31.81,5.55.64a7.9,7.9,0,0,0,3.47-1,20.21,20.21,0,0,1-.67-5.28,13.5,13.5,0,0,1,1.11-3.47s.56-4-.07-4.58a11.46,11.46,0,0,0-4.18-1.77A5.2,5.2,0,0,0,52,39.86Z"/><path class="cls-5" d="M57.65,32.45c.32-.54,1.18-.72,1.73-.82a2.8,2.8,0,0,1,1.38.06c.73.22,1.25.57,1.28,1.39s-.26,1.46-.26,2.22,1,1.13,1.46,1.79a2,2,0,0,1,.24,1.28,2.22,2.22,0,0,1-.64,1.26,2.78,2.78,0,0,1-1.4.94,3,3,0,0,1-1.36.1,1.18,1.18,0,0,1-.85-1.1c0-.42.37-.78.44-1.2s-.41-.51-.73-.58a1.66,1.66,0,0,1-1.26-.69,1.8,1.8,0,0,1-.07-1.44A4.55,4.55,0,0,0,58,34.44a2.36,2.36,0,0,0-.51-1.23C57.35,33,57.12,32.65,57.65,32.45Z"/><path class="cls-11" d="M51.87,38.26a18.06,18.06,0,0,1-.43,2.47,2.25,2.25,0,0,0-1.07,1.2c-.17.67.93,1.64,2.5.8s1.43-2,1.43-2L55.05,37Z"/><path class="cls-11" d="M57.26,32c-.25,2-.61,4.62-2.19,6.13a4.11,4.11,0,0,1-3.13,1,2.89,2.89,0,0,1-2.48-2.71A7.21,7.21,0,0,1,50.73,31c.3-.41.79-1.07,1.31-1.05a8,8,0,0,1,2.26.52A8.75,8.75,0,0,1,56,31.3,3.21,3.21,0,0,0,57.26,32Z"/><path class="cls-11" d="M55.76,36.45c.48-.25,1.11-.58,1.52,0,.29.4,0,.8-.39,1s-.75.33-1,0A.81.81,0,0,1,55.76,36.45Z"/><path class="cls-5" d="M56.22,36.45a5.53,5.53,0,0,1-.93-2.63,12.15,12.15,0,0,1-.2-2.92s-.45-.55-1.84-.25a6.47,6.47,0,0,0-3.65,2.66,5.09,5.09,0,0,1,2.34-3.52,4.67,4.67,0,0,1,5.08.42c1,.85,1.3,1.8.93,3.38A6.66,6.66,0,0,1,56.22,36.45Z"/><path class="cls-11" d="M57.55,58.6c.17.2.32.4.47.6l1.11-1.28s-1-1.32-1.47-.84a11.06,11.06,0,0,0-.79.85A7.17,7.17,0,0,1,57.55,58.6Z"/><path class="cls-4" d="M56.18,43.8s3.84,5.43,3.74,6.89a14.71,14.71,0,0,1-1.53,4.68,19.56,19.56,0,0,1-1.11,1.74,10.45,10.45,0,0,1,1.44,1.21l.27.37s3.7-4.68,4-7.07A11.72,11.72,0,0,0,61,44.42a9.61,9.61,0,0,0-3.9-4,5.63,5.63,0,0,0-2-.62A22.28,22.28,0,0,0,56.18,43.8Z"/><g class="cls-8"><path class="cls-9" d="M48.68,43.66a10,10,0,0,0-1,2.22A3.2,3.2,0,0,0,47.61,47a1.57,1.57,0,0,0,.4,1s.09,0,.08,0a9.55,9.55,0,0,1-.3-1.08,3.36,3.36,0,0,1,.13-1.09,10.08,10.08,0,0,1,.91-2c.05-.1-.1-.19-.15-.09Z"/></g><path class="cls-5" d="M51.11,34.48s0,0,0,0a.59.59,0,0,0,.06-.14l0-.12v-.1a.22.22,0,0,0,0-.14.16.16,0,0,0-.05-.09.22.22,0,0,0-.1-.09h0l.18.31h0V34l0-.09-.05-.07a.24.24,0,0,0-.12-.07s0,0-.09,0a.14.14,0,0,0-.09,0,.15.15,0,0,0-.09,0,.26.26,0,0,0-.11.07h0l.35-.09h0l-.1,0a.26.26,0,0,0-.15,0,.14.14,0,0,0-.08.05.24.24,0,0,0-.1.1,0,0,0,0,0,0,0,.54.54,0,0,0-.05.11.17.17,0,0,0,0,.07s0,.08,0,.12v0h0v.1s0,0,0,.06l0,.08.06.07.07.06a.28.28,0,0,0,.13,0h.09a.16.16,0,0,0,.09,0s.05,0,.08,0a.45.45,0,0,0,.09-.1Z"/><path class="cls-5" d="M53.47,35.08a1.74,1.74,0,0,1,.11-.18.41.41,0,0,1,.05-.09.49.49,0,0,0,.06-.17.33.33,0,0,0,0-.14.42.42,0,0,0,0-.12l-.06-.07a.16.16,0,0,0-.11-.07.11.11,0,0,0-.08,0,.33.33,0,0,0-.14,0,.35.35,0,0,0-.2.16.46.46,0,0,0-.07.16l0,.1a1.6,1.6,0,0,0,0,.21.27.27,0,0,0,0,.23l0,.06a.21.21,0,0,0,.1.06.13.13,0,0,0,.08,0h.12a.31.31,0,0,0,.18-.14Z"/><g class="cls-8"><path class="cls-9" d="M51.77,34.65c-.05.21,0,.45-.15.62a.11.11,0,0,1-.13,0,1,1,0,0,0-.24,0c-.14,0-.4.06-.44.23s.09.28.21.35a.9.9,0,0,0,.27.11c.09,0,.26,0,.31-.06a0,0,0,0,0,0-.06.14.14,0,0,0-.11,0l-.12,0-.22-.07-.09-.06,0,0,0,0,0,0v0h0a.26.26,0,0,1,.16-.1.52.52,0,0,1,.25,0,.32.32,0,0,0,.17,0,.26.26,0,0,0,.17-.12.66.66,0,0,0,.12-.3,2,2,0,0,1,0-.35.06.06,0,0,0-.12,0Z"/></g><path class="cls-10" d="M53,36.89l-2.81-.49a1.58,1.58,0,0,0,1.12,1.2A1.92,1.92,0,0,0,53,36.89Z"/><path class="cls-5" d="M50.43,33.31l.06,0,0,0h0l.07,0h.06s0,0,0,0l.11,0h.07a.28.28,0,0,0,.15-.08A.06.06,0,0,0,51,33c-.07-.14-.26-.14-.39-.11a1,1,0,0,0-.34.19.12.12,0,0,0,0,.17.15.15,0,0,0,.18,0Z"/><path class="cls-5" d="M53.39,33.72h0s0,0,0,0h0l.1,0h0l0,0,.09.05,0,0s0,0,0,0l0,0,0,0a.08.08,0,0,0,0,0l0,0a0,0,0,0,1,0,0l0,0A.16.16,0,0,0,54,34h0c-.06,0,0,0,0,0a.08.08,0,0,0,.09,0s0,0,0-.05l0,0h0a.18.18,0,0,0,.05-.17.42.42,0,0,0-.07-.13.55.55,0,0,0-.22-.18.81.81,0,0,0-.53-.05.12.12,0,0,0-.08.14c0,.06,0,.1.12.11Z"/><path class="cls-6" d="M58.05,51.32a1.47,1.47,0,0,0-1-.64c-.77-.13-.57,1,0,1.84s.8,1.17.94,1A2.84,2.84,0,0,0,58.05,51.32Z"/><path class="cls-3" d="M47.51,26.39A3.55,3.55,0,0,0,46.26,28a3.27,3.27,0,0,0-1-1.21c-.31-.24-.86-.73-1.29-.5s-.35,1.11-.25,1.55a4.44,4.44,0,0,0,1,1.81,13.11,13.11,0,0,0,2,1.69,1.17,1.17,0,0,0,.64-.54,6.07,6.07,0,0,0,.56-.8,12.24,12.24,0,0,0,1-2c.17-.5.39-1.43-.09-1.84S47.85,26.14,47.51,26.39Z"/><path class="cls-3" d="M58.7,22.67a1.85,1.85,0,0,0-1.47-.37,3.67,3.67,0,0,0-2.13,1c.1-.41.23-.8.33-1.21s.11-.92-.32-1.1-.91.16-1.17.53a3.87,3.87,0,0,0-.63,1.56,12.41,12.41,0,0,0-.14,2.58c0,.14,1.15,0,1.57-.09s.85-.24,1.27-.37a6.9,6.9,0,0,0,2.08-1C58.48,23.87,59.16,23.19,58.7,22.67Z"/><path class="cls-3" d="M48.62,17.24a4.73,4.73,0,0,0-.9,2.24c-.55-.59-1-1.39-1.83-1.55a.8.8,0,0,0-.78.23,1,1,0,0,0-.09.95,6.18,6.18,0,0,0,1.34,2.31,16,16,0,0,0,2,2c.11.1.26.2.35,0a23,23,0,0,0,1-2.32,9.3,9.3,0,0,0,.63-2.25A2.53,2.53,0,0,0,50,16.8C49.53,16.35,48.93,16.87,48.62,17.24Z"/></g></g></svg>