<svg xmlns="http://www.w3.org/2000/svg" xmlns:xlink="http://www.w3.org/1999/xlink" viewBox="0 0 100 100"><defs><style>.cls-1{isolation:isolate;}.cls-16,.cls-2{opacity:0.5;}.cls-2{fill:url(#radial-gradient);}.cls-3{fill:#5a4c52;}.cls-11,.cls-4{fill:#342e30;}.cls-4{opacity:0.3;}.cls-5{fill:#7b6f75;}.cls-6{fill:#fff;}.cls-16,.cls-7{fill:#314288;}.cls-8{fill:#d7bfd9;}.cls-9{fill:#ab1f23;}.cls-10{fill:#c9e9ef;}.cls-12,.cls-30{fill:#e55597;}.cls-13{fill:#2fa2dc;}.cls-14,.cls-22{fill:#d87f60;}.cls-15{fill:#30a2dc;}.cls-17{fill:#be3a7b;}.cls-18{fill:#ba6728;}.cls-19,.cls-26{fill:none;stroke-miterlimit:10;stroke-width:0.16px;}.cls-19{stroke:#935323;}.cls-20{fill:#935323;}.cls-21{fill:#f3b678;}.cls-22{mix-blend-mode:multiply;}.cls-22,.cls-30{opacity:0.2;}.cls-23{fill:#563113;}.cls-24{fill:#261e18;}.cls-25{fill:#f9be8a;}.cls-26{stroke:#be3a7b;}.cls-27{fill:#ee6fa3;}.cls-28{fill:#e25b98;}.cls-29{fill:#ee8c39;}</style><radialGradient id="radial-gradient" cx="46.34" cy="53.42" r="30.05" gradientUnits="userSpaceOnUse"><stop offset="0" stop-color="#efa8b9"/><stop offset="1" stop-color="#f27594"/></radialGradient></defs><g class="cls-1"><g id="Layer_1" data-name="Layer 1"><path class="cls-2" d="M18.34,70.91A24,24,0,0,0,20.21,74c5,7,14.17,8.72,22.24,8.57,9.75-.18,23.39-1.82,29.93-10.08,2.67-3.37,1.43-7.47.27-11.2-.94-3.06-1.56-6.12-.72-9.29,2.06-7.8,10.31-18.35,1-24.67C66.11,22.68,55.58,23.39,49.52,29c-3.59,3.32-5.6,7.93-9,11.41-6.51,6.63-18,2-23.1,11C14.09,57.18,15.27,65,18.34,70.91Z"/><path class="cls-3" d="M42.22,76.17,28.75,77.49a.47.47,0,0,1-.17,0,.4.4,0,0,1-.23-.23L13.57,40c-.12-.29.61-2.27.93-2.23l13.62,1.68a.38.38,0,0,1,.33.25L43,74.15C43.08,74.63,42.51,76.16,42.22,76.17Z"/><path class="cls-4" d="M42.22,76.17,28.75,77.49a.47.47,0,0,1-.17,0l1.55-3.06L43,74.15C43.08,74.63,42.51,76.16,42.22,76.17Z"/><path class="cls-5" d="M15.38,38.21l12.75,1.5a.41.41,0,0,1,.33.25L42.61,73.91a.4.4,0,0,1-.35.55L29.8,75.59a.42.42,0,0,1-.39-.25L15,38.75A.4.4,0,0,1,15.38,38.21Z"/><path class="cls-6" d="M41.73,74l-2.54.23-9.14.85a.38.38,0,0,1-.37-.24L16,40.4a.38.38,0,0,1,.39-.52l12,1.42a.38.38,0,0,1,.31.23l8.64,20.74,4.69,11.25A.38.38,0,0,1,41.73,74Z"/><path class="cls-7" d="M41.73,74l-2.54.23A13.51,13.51,0,0,1,34.1,71c-3.35-3.35-4.65-7.48-2.91-9.22,1.24-1.23,3.67-.94,6.18.54l4.69,11.25A.38.38,0,0,1,41.73,74Z"/><path class="cls-6" d="M22.9,39.76a.38.38,0,0,1-.76.08.38.38,0,0,1,.34-.42A.39.39,0,0,1,22.9,39.76Z"/><path class="cls-6" d="M23.69,39.94a.26.26,0,1,1-.29-.23A.25.25,0,0,1,23.69,39.94Z"/><path class="cls-8" d="M30.25,62.91A1.72,1.72,0,0,1,28.53,65,2.59,2.59,0,0,1,26,62.51a1.72,1.72,0,0,1,2.13-1.71A2.68,2.68,0,0,1,30.25,62.91Z"/><path class="cls-9" d="M27.41,61.85a.86.86,0,0,0-.72,0,.47.47,0,0,0-.16.54,1.45,1.45,0,0,0,.35.52,9.74,9.74,0,0,0,1.37,1.22.4.4,0,0,0,.23.1c.16,0,.29-.14.37-.27l.71-1.06c.16-.24.32-.55.16-.8a.56.56,0,0,0-.8-.07,1.47,1.47,0,0,0-.41.8A3.72,3.72,0,0,0,27.41,61.85Z"/><path class="cls-10" d="M21.89,48.22l8.61.58a.83.83,0,0,1,.71.51L32,51.24a.83.83,0,0,1-.79,1.13l-8.37-.27a.77.77,0,0,1-.72-.48l-1-2.24A.82.82,0,0,1,21.89,48.22Z"/><path class="cls-6" d="M30.64,50h0L22,49.54a.1.1,0,1,1,0-.19l8.6.5a.1.1,0,0,1,.09.1A.09.09,0,0,1,30.64,50Z"/><path class="cls-6" d="M30.93,51.35h0l-8.6-.5a.09.09,0,0,1-.09-.09c0-.06.05-.1.1-.09l8.6.5a.09.09,0,0,1,0,.18Z"/><path class="cls-10" d="M24.66,56.06l8.62.39A.85.85,0,0,1,34,57l.81,1.92A.82.82,0,0,1,34.05,60l-8.38-.09a.8.8,0,0,1-.73-.47l-1.06-2.22A.82.82,0,0,1,24.66,56.06Z"/><path class="cls-6" d="M33.45,57.69h0l-8.61-.32a.1.1,0,0,1,0-.19l8.6.32a.09.09,0,0,1,.09.1A.1.1,0,0,1,33.45,57.69Z"/><path class="cls-6" d="M33.76,59h0l-8.61-.32a.08.08,0,0,1-.08-.09c0-.06,0-.1.09-.09l8.61.31a.1.1,0,0,1,.09.1A.09.09,0,0,1,33.76,59Z"/><path class="cls-10" d="M19.12,41.53l8.59.85a.82.82,0,0,1,.69.54l.71,1.95a.82.82,0,0,1-.83,1.1l-8.36-.53a.81.81,0,0,1-.7-.5l-.94-2.28A.82.82,0,0,1,19.12,41.53Z"/><path class="cls-6" d="M27.81,43.62h0l-8.58-.77a.1.1,0,0,1-.09-.1.09.09,0,0,1,.1-.08l8.59.77a.09.09,0,0,1,.08.1A.11.11,0,0,1,27.81,43.62Z"/><path class="cls-6" d="M28.05,45h0l-8.58-.77a.1.1,0,0,1-.08-.1.11.11,0,0,1,.1-.09l8.58.77a.1.1,0,0,1,0,.19Z"/><path class="cls-8" d="M25.34,54.27a.88.88,0,0,1-.89,1.07,1.32,1.32,0,0,1-1.28-1.28.88.88,0,0,1,1.09-.87A1.38,1.38,0,0,1,25.34,54.27Z"/><path class="cls-9" d="M23.88,53.72a.41.41,0,0,0-.36,0,.22.22,0,0,0-.09.27.8.8,0,0,0,.18.27,5.76,5.76,0,0,0,.7.62.23.23,0,0,0,.12.06c.08,0,.15-.08.19-.14l.36-.55c.09-.12.17-.28.09-.41a.29.29,0,0,0-.41,0,.78.78,0,0,0-.22.41A1.79,1.79,0,0,0,23.88,53.72Z"/><path class="cls-8" d="M28.13,54.23a.87.87,0,0,1-.88,1.07A1.33,1.33,0,0,1,26,54a.89.89,0,0,1,1.09-.88A1.38,1.38,0,0,1,28.13,54.23Z"/><path class="cls-9" d="M26.68,53.68a.47.47,0,0,0-.37,0,.25.25,0,0,0-.08.28.64.64,0,0,0,.18.26,4.58,4.58,0,0,0,.7.63.22.22,0,0,0,.12,0c.08,0,.14-.07.19-.14l.36-.54c.08-.13.17-.28.08-.41a.3.3,0,0,0-.41,0,.76.76,0,0,0-.21.42A1.92,1.92,0,0,0,26.68,53.68Z"/><path class="cls-11" d="M18.54,49.43l-.4.39a.17.17,0,0,1-.27-.06L16.48,46.3a.17.17,0,0,1,0-.18l.4-.39a.17.17,0,0,1,.27.06l1.39,3.46A.17.17,0,0,1,18.54,49.43Z"/><path class="cls-11" d="M34.63,75.69l-.16.53a.17.17,0,0,0,.17.21l3.72-.35A.17.17,0,0,0,38.5,76l.16-.53a.17.17,0,0,0-.17-.21l-3.72.35A.19.19,0,0,0,34.63,75.69Z"/><path class="cls-3" d="M49.79,78.12l13.47,1.32a.47.47,0,0,0,.17,0,.37.37,0,0,0,.23-.23L78.44,42c.12-.29-.61-2.27-.92-2.23L63.89,41.4a.39.39,0,0,0-.33.25L49,76.1C48.93,76.58,49.5,78.11,49.79,78.12Z"/><path class="cls-4" d="M49.79,78.12l13.47,1.32a.47.47,0,0,0,.17,0l-1.55-3.06L49,76.1C48.93,76.58,49.5,78.11,49.79,78.12Z"/><path class="cls-5" d="M76.63,40.16l-12.75,1.5a.38.38,0,0,0-.32.25l-14.16,34a.4.4,0,0,0,.35.55l12.47,1.13a.41.41,0,0,0,.38-.25L77.05,40.7A.4.4,0,0,0,76.63,40.16Z"/><path class="cls-6" d="M76,42.35,62.33,76.83a.38.38,0,0,1-.37.24L50.28,76a.38.38,0,0,1-.33-.52l.72-1.74,4.27-10.22,8.35-20a.36.36,0,0,1,.3-.23l12-1.42A.38.38,0,0,1,76,42.35Z"/><path class="cls-7" d="M59.32,70.71c-2.63,3.46-6.21,5.15-8,3.78a2.15,2.15,0,0,1-.64-.76l4.27-10.22C57.13,61.65,59.48,61,60.82,62,62.62,63.35,62,67.26,59.32,70.71Z"/><path class="cls-6" d="M69.12,41.71a.37.37,0,0,0,.33.42.38.38,0,0,0,.42-.34.37.37,0,0,0-.33-.42A.38.38,0,0,0,69.12,41.71Z"/><path class="cls-6" d="M68.32,41.89a.26.26,0,1,0,.29-.23A.25.25,0,0,0,68.32,41.89Z"/><path class="cls-8" d="M61.76,64.87A1.72,1.72,0,0,0,63.48,67,2.59,2.59,0,0,0,66,64.46a1.72,1.72,0,0,0-2.13-1.71A2.69,2.69,0,0,0,61.76,64.87Z"/><path class="cls-9" d="M64.6,63.8a.86.86,0,0,1,.72,0,.47.47,0,0,1,.16.54,1.37,1.37,0,0,1-.35.52,9.74,9.74,0,0,1-1.37,1.22.4.4,0,0,1-.23.1c-.16,0-.28-.14-.37-.27l-.71-1.06c-.16-.24-.32-.55-.16-.8a.56.56,0,0,1,.8-.07,1.55,1.55,0,0,1,.42.8A3.64,3.64,0,0,1,64.6,63.8Z"/><path class="cls-10" d="M70.12,50.17l-8.61.58a.83.83,0,0,0-.71.51L60,53.19a.83.83,0,0,0,.79,1.13l8.37-.27a.8.8,0,0,0,.73-.48l1-2.24A.83.83,0,0,0,70.12,50.17Z"/><path class="cls-6" d="M61.37,52h0l8.6-.49a.1.1,0,1,0,0-.19l-8.6.5a.1.1,0,0,0-.09.1A.09.09,0,0,0,61.37,52Z"/><path class="cls-6" d="M61.08,53.3h0l8.6-.5a.09.09,0,0,0,.09-.09.09.09,0,0,0-.1-.09l-8.6.5a.09.09,0,0,0-.09.09A.11.11,0,0,0,61.08,53.3Z"/><path class="cls-10" d="M67.35,58l-8.62.39a.85.85,0,0,0-.72.5l-.81,1.92A.82.82,0,0,0,58,62l8.37-.09a.79.79,0,0,0,.73-.47l1.06-2.22A.82.82,0,0,0,67.35,58Z"/><path class="cls-6" d="M58.57,59.64h0l8.61-.32a.09.09,0,0,0,.09-.1.08.08,0,0,0-.09-.08l-8.61.31a.1.1,0,0,0-.09.1C58.48,59.6,58.52,59.63,58.57,59.64Z"/><path class="cls-6" d="M58.25,61h0l8.61-.32a.09.09,0,0,0,.09-.09c0-.06,0-.1-.1-.09l-8.61.31a.1.1,0,0,0-.09.1A.09.09,0,0,0,58.25,61Z"/><path class="cls-10" d="M72.89,43.48l-8.58.85a.8.8,0,0,0-.69.54l-.71,2a.81.81,0,0,0,.82,1.1l8.36-.53a.82.82,0,0,0,.71-.5l.93-2.28A.82.82,0,0,0,72.89,43.48Z"/><path class="cls-6" d="M64.2,45.57h0l8.58-.77a.1.1,0,0,0,.09-.1.09.09,0,0,0-.1-.08l-8.58.77a.1.1,0,0,0-.09.1A.11.11,0,0,0,64.2,45.57Z"/><path class="cls-6" d="M64,46.9h0l8.58-.77a.09.09,0,0,0,.08-.1.1.1,0,0,0-.1-.09L64,46.71a.1.1,0,0,0,0,.19Z"/><path class="cls-8" d="M66.68,56.22a.87.87,0,0,0,.88,1.07A1.32,1.32,0,0,0,68.84,56a.88.88,0,0,0-1.09-.87A1.35,1.35,0,0,0,66.68,56.22Z"/><path class="cls-9" d="M68.13,55.67a.43.43,0,0,1,.37,0,.23.23,0,0,1,.08.27.68.68,0,0,1-.18.27,5.76,5.76,0,0,1-.7.62.2.2,0,0,1-.12.06c-.08,0-.15-.08-.19-.14L67,56.21c-.08-.12-.17-.28-.09-.41a.29.29,0,0,1,.41,0,.78.78,0,0,1,.22.41A1.92,1.92,0,0,1,68.13,55.67Z"/><path class="cls-8" d="M63.88,56.18a.87.87,0,0,0,.88,1.07A1.33,1.33,0,0,0,66.05,56,.89.89,0,0,0,65,55.09,1.39,1.39,0,0,0,63.88,56.18Z"/><path class="cls-9" d="M65.33,55.63a.47.47,0,0,1,.37,0,.25.25,0,0,1,.08.28.64.64,0,0,1-.18.26,4.58,4.58,0,0,1-.7.63.22.22,0,0,1-.12.05c-.08,0-.14-.07-.19-.14l-.36-.54c-.08-.12-.16-.28-.08-.41a.3.3,0,0,1,.41,0,.76.76,0,0,1,.21.42A1.92,1.92,0,0,1,65.33,55.63Z"/><path class="cls-11" d="M73.47,51.38l.4.39a.17.17,0,0,0,.27-.06l1.39-3.46a.17.17,0,0,0,0-.18l-.4-.39a.16.16,0,0,0-.26.06l-1.4,3.46A.17.17,0,0,0,73.47,51.38Z"/><path class="cls-11" d="M57.38,77.64l.16.53a.17.17,0,0,1-.17.21L53.65,78a.17.17,0,0,1-.14-.12l-.16-.53a.17.17,0,0,1,.17-.21l3.72.35A.19.19,0,0,1,57.38,77.64Z"/><path class="cls-12" d="M61.23,24.93a2.2,2.2,0,0,0-1.62-.75,1.17,1.17,0,0,0-.94,1.05,3.56,3.56,0,0,0,.24,1.53,24.47,24.47,0,0,0,1.8,4.2,1.08,1.08,0,0,0,.42.48,1.22,1.22,0,0,0,1.12-.23L65,29.57c.62-.38,1.31-.91,1.22-1.64a1.41,1.41,0,0,0-1.74-1,3.78,3.78,0,0,0-1.78,1.37S62.12,25.81,61.23,24.93Z"/><path class="cls-12" d="M65.42,19.91a1.17,1.17,0,0,0-1,.18.63.63,0,0,0-.1.77,1.87,1.87,0,0,0,.6.62,13.12,13.12,0,0,0,2.17,1.34.58.58,0,0,0,.34.09c.22,0,.35-.27.44-.47l.71-1.61c.16-.37.3-.84,0-1.14a.78.78,0,0,0-1.11.11A2,2,0,0,0,67.16,21,5.09,5.09,0,0,0,65.42,19.91Z"/><path class="cls-12" d="M24.71,29.32a1.18,1.18,0,0,0-1,.17.65.65,0,0,0-.09.78,2,2,0,0,0,.6.62,13.39,13.39,0,0,0,2.16,1.33.54.54,0,0,0,.35.09c.22,0,.35-.26.44-.46l.7-1.62c.17-.37.31-.83,0-1.14a.8.8,0,0,0-1.11.11,2.13,2.13,0,0,0-.37,1.2A4.87,4.87,0,0,0,24.71,29.32Z"/><path class="cls-12" d="M19.92,23.38A1.55,1.55,0,0,0,18.7,23a.83.83,0,0,0-.58.83,2.69,2.69,0,0,0,.32,1.07,18,18,0,0,0,1.67,2.81.8.8,0,0,0,.35.31c.27.1.56-.09.78-.27L23,26.33c.41-.33.85-.77.71-1.28a1,1,0,0,0-1.33-.54,2.67,2.67,0,0,0-1.14,1.14A6.49,6.49,0,0,0,19.92,23.38Z"/><path class="cls-13" d="M35.9,21.12H30A1.89,1.89,0,0,0,28.14,23v1.72A1.88,1.88,0,0,0,30,26.58h.67l1.59,1.91.25-1.91H35.9a1.88,1.88,0,0,0,1.87-1.87V23A1.89,1.89,0,0,0,35.9,21.12Z"/><path class="cls-6" d="M31,23.85a.65.65,0,1,1-.65-.65A.65.65,0,0,1,31,23.85Z"/><path class="cls-6" d="M33.31,23.85a.65.65,0,1,1-.65-.65A.65.65,0,0,1,33.31,23.85Z"/><path class="cls-6" d="M35.61,23.85A.65.65,0,1,1,35,23.2.65.65,0,0,1,35.61,23.85Z"/><path class="cls-13" d="M77.42,58.71H73.76l-3.25-2,1.17,2h-.14a1.87,1.87,0,0,0-1.87,1.87v1.71a1.87,1.87,0,0,0,1.87,1.87h5.88a1.87,1.87,0,0,0,1.87-1.87V60.58A1.87,1.87,0,0,0,77.42,58.71Z"/><circle class="cls-6" cx="72.22" cy="61.44" r="0.65"/><path class="cls-6" d="M75.17,61.44a.65.65,0,1,1-.65-.65A.66.66,0,0,1,75.17,61.44Z"/><path class="cls-6" d="M77.46,61.44a.65.65,0,1,1-.65-.65A.65.65,0,0,1,77.46,61.44Z"/><path class="cls-14" d="M54.61,32.14a6.52,6.52,0,0,1,1.56,0c.68.08,2.67,1.49,1.52,2.17a2.24,2.24,0,0,1-3.21-2.2"/><path class="cls-15" d="M34.67,61.3a4.23,4.23,0,0,0-2.45,3.19,13.36,13.36,0,0,0,9.26,8.12s4.88-3.29,4.61-11.25C46,59.4,37.05,57.82,34.67,61.3Z"/><path class="cls-16" d="M34.67,61.52s0,5.6,6.86,5.6c5.71,0,4.16-6.18,4.16-6.18Z"/><path class="cls-7" d="M34.3,68.05A17.47,17.47,0,0,0,37.7,62l.13,0a17.82,17.82,0,0,1-3.44,6.21Z"/><path class="cls-15" d="M58.41,60.87a9.17,9.17,0,0,1,1.76,4.66c.27,3-8.17,9.64-9,8,0,0-4.39-3.22-4-12.38C48,59.33,56,57.4,58.41,60.87Z"/><path class="cls-16" d="M47,61.19s1.08,4.59,7,4.23,5.43-3.44,4.17-5.55S47,61.19,47,61.19Z"/><path class="cls-7" d="M57.25,70.35a21,21,0,0,1-4.09-6.87l-.13,0a20,20,0,0,0,4.13,7Z"/><path class="cls-17" d="M51.94,42.11a3.84,3.84,0,0,1-1.73-1.25,6.46,6.46,0,0,1-.62-2.25s-.67-.79-1.29.65c-1.43.34-13,3.14-14,4.33-1.59,1.81-.88,5.58,2.54,4.93a43.2,43.2,0,0,0,12.92-5C52.59,43.36,51.94,42.11,51.94,42.11Z"/><path class="cls-18" d="M62.5,43.73c0,2.73-2.51,7.06-2.76,8.43s-.44,8.37-.57,9.13-3.6,3.41-7.27,2.78-5.06-2.4-5.38-3.16.76-2,.76-2l.32-1.52.88-4.18.07-.3s0-2.53-.32-8.16,6-11.63,6-11.63C60.37,32.27,62.5,41,62.5,43.73Z"/><path class="cls-19" d="M55.51,36.82s1.61,8.9-.25,14.78-2.84,8.47-2.35,12.61"/><path class="cls-20" d="M52.94,55.25c-1,.5-4.21,1.7-5.34,2.11l.88-4.18c1.21-1.47,10.79-13.13,11-10.72C59.77,45,54.1,54.65,52.94,55.25Z"/><path class="cls-21" d="M51,35.48l1.76,2.12s.72,0,2.15-1.38a5.6,5.6,0,0,0,1.66-3l-3.83-3.32Z"/><path class="cls-14" d="M52.52,30.49l-1.57,5L52.18,37A9.49,9.49,0,0,0,52.52,30.49Z"/><path class="cls-21" d="M52.9,33.3a5.39,5.39,0,0,1-3.32,3.47c-.7.26-1.13.53-1.8.13a10.29,10.29,0,0,1-2.87-3.32h0l-.17-.29A34.93,34.93,0,0,1,42.63,29s-.87-4.88,4-5.52,5.82,3.25,6.07,5.65A21.39,21.39,0,0,1,52.9,33.3Z"/><path class="cls-22" d="M41.8,27.57A2.07,2.07,0,0,0,44.63,29c2.26-.74,3.13-3.36,5-3.52S44.15,21.59,41.8,27.57Z"/><path class="cls-23" d="M42.63,29l-.06-1.47a1.7,1.7,0,0,0,2.2.54,36.1,36.1,0,0,0,3.85-2.85l1.06.21a3.54,3.54,0,0,0,.44,2.1c.58.74,1.34.78,1.83,2.73h.48s-1.16-2.65.84-3.12c0,0-.52-2.71-.77-3.73s-3.22-3.17-7.73-1.63S39.84,27.92,42.63,29Z"/><path class="cls-14" d="M49.32,34a1.54,1.54,0,0,1-.88,1.2c-.83.43-1.09-.12-1.09-.12C47.88,35.43,48.84,35.14,49.32,34Z"/><path class="cls-21" d="M52.06,28.43S52,30.57,53,30.55s1.25-.95,1.4-1.53.35-1.57-.85-1.84S52.06,28.43,52.06,28.43Z"/><path class="cls-14" d="M52.5,28.55s-.06,1.4.59,1.38.81-.61.9-1,.23-1-.54-1.2S52.5,28.55,52.5,28.55Z"/><path class="cls-24" d="M49.14,29.61c-.07,0,.23,1.05-.57,1.38s-1-.74-1-.73.22,1.6,1.19,1.08A1.29,1.29,0,0,0,49.14,29.61Z"/><path class="cls-24" d="M45.84,30.64c-.06,0,.27,1-.44,1.29s-.95-.76-1-.76.3,1.55,1.16,1.1S45.91,30.63,45.84,30.64Z"/><path class="cls-23" d="M49.68,29a2.76,2.76,0,0,0-1.61,0c-.78.32-1.11.43-1.11.43a1.75,1.75,0,0,1-.33-.44,10.58,10.58,0,0,1,1.59-.48A2.35,2.35,0,0,1,49.68,29Z"/><path class="cls-23" d="M44.22,31.19c.1,0-.06-.37.5-.68s.71-.43.71-.43a2.26,2.26,0,0,0-.21-.5,4.4,4.4,0,0,0-.94.68A.93.93,0,0,0,44.22,31.19Z"/><path class="cls-14" d="M47.2,33.64s.86-.77.9-.57-.33.69-.6.84a.68.68,0,0,1-.85-.23C46.42,33.37,47.2,33.64,47.2,33.64Z"/><path class="cls-14" d="M47.72,34.3l.34-.24a7.88,7.88,0,0,0,1.62-.78,8.66,8.66,0,0,1-1.07,1A2.7,2.7,0,0,1,47,34.8s.24-.37.31-.43A2.13,2.13,0,0,1,47.72,34.3Z"/><path class="cls-25" d="M48,38.46c-.58,1,.06,4.34,2.42,3.37,1.64-.67,9.2-6.55,9.2-6.55.73-.72-.52-2.63-1.81-2.18C57.77,33.1,48.77,37,48,38.46Z"/><path class="cls-7" d="M44.69,33.72a25.44,25.44,0,0,1-1.5-4.87c-1.29-3-4.41-4.17-8.52-1.88-1.12.62-2.16,1.86-2.31,4.56-.18,3.18.35,3.09-.19,5.51-.49,2.17-2.72,3.86-1.74,6.81,1.09,3.27,5.46,1.15,7.25-1.5a3.51,3.51,0,0,0,.43-1.15,4.12,4.12,0,0,0,1.84.34C47.09,41.39,45.55,35.49,44.69,33.72Z"/><path class="cls-12" d="M36.08,41s-3.42,1.51-3.85,3.69,1.18,6.11,3,8.51,1,4.22-.62,7S41.73,66,45.41,63.61c0,0,1.52-.28.93-2.25s-.89-8.32-.3-9.6,1.35-3.06,1.14-4.41S41.65,40.14,36.08,41Z"/><path class="cls-26" d="M35.69,42.9s-2.11,2.84-.06,7.2,2.68,7.14,1.23,13.28"/><path class="cls-21" d="M38.27,44.17c-1.47-.26-3.13-1.26-2.84-2.56a10.36,10.36,0,0,0,1-5c-.09-1.72,2-1.49,3-.05h0a3,3,0,0,1,.44,2.38c-.1.46-.16.88-.21,1.28A6.49,6.49,0,0,0,39.89,43C40.06,43.47,39.19,44.34,38.27,44.17Z"/><path class="cls-14" d="M39.87,38.93c-.1.46-.16.88-.21,1.28-3-1.56-2.78-3.46-2.78-3.46a3,3,0,0,1,2.55-.2h0A3,3,0,0,1,39.87,38.93Z"/><path class="cls-21" d="M42.57,39.34c-3.18,1-5.26-1.93-6.4-3.79s-2.54-5.18,1.29-7.36S43.32,30,43.32,30a26.43,26.43,0,0,1,.84,4.3c0,.23,0,.47.05.7C44.32,37,44,38.9,42.57,39.34Z"/><path class="cls-27" d="M41.31,37a1.16,1.16,0,0,0,1.21.61.81.81,0,0,0,.66-1Z"/><path class="cls-21" d="M36.24,34.71s1.23,1.49.5,2-1.41,0-1.84-.34-1.11-.93-.39-1.78S36.24,34.71,36.24,34.71Z"/><path class="cls-14" d="M36,35s.8,1,.33,1.31-.91,0-1.19-.22-.72-.6-.26-1.15S36,35,36,35Z"/><path class="cls-24" d="M39,34c.05,0,.41.88,1.16.69s.3-1.07.35-1.1.71,1.27-.26,1.43S38.93,34,39,34Z"/><path class="cls-24" d="M41.91,32.91c.05,0,.36.87,1,.68s.27-1.07.32-1.1.62,1.28-.24,1.43S41.86,32.93,41.91,32.91Z"/><path class="cls-7" d="M38.27,33.84c.13,0,.36-.71,1.14-.91s1-.3,1-.3a1.45,1.45,0,0,0,0-.49,9.46,9.46,0,0,0-1.4.52A2.09,2.09,0,0,0,38.27,33.84Z"/><path class="cls-7" d="M43.37,32.42c-.09,0-.15-.3-.72-.22s-.75.08-.75.08a2.37,2.37,0,0,1-.13-.47,4.23,4.23,0,0,1,1.06,0C43.24,31.85,43.39,32.41,43.37,32.42Z"/><path class="cls-22" d="M35.89,31.32A5.18,5.18,0,0,0,37,33.8l1.29,0s.47-.91.88-1.09,1.56-.14,2.1-.55.75-.57.75-.57l-.12-.74.41.72s1.17-.24,1.39-.52-.75-3.71-1.7-4.23S33.63,26.85,35.89,31.32Z"/><path class="cls-14" d="M42.57,35.8s-1-.08-1,.08a1.22,1.22,0,0,0,.89.28.59.59,0,0,0,.48-.63C43,35.18,42.57,35.8,42.57,35.8Z"/><path class="cls-28" d="M42.56,36.56a1.59,1.59,0,0,0-.33-.12,3.93,3.93,0,0,0-.56.26,2.2,2.2,0,0,1-.78.21,4.13,4.13,0,0,0,1,.13,2.47,2.47,0,0,0,1.41-.49s-.11,0-.2-.11a.71.71,0,0,0-.31-.12S42.56,36.56,42.56,36.56Z"/><path class="cls-7" d="M40.64,28a9.45,9.45,0,0,1,1,3.3l-1.87,1a7.88,7.88,0,0,1-1.16-3.06s-.25,1,.79,3.09a4.27,4.27,0,0,1-1.74.72,8.26,8.26,0,0,1-1.05-2.33,5.48,5.48,0,0,0,.84,2.52l-.49.28a4.46,4.46,0,0,1-1.08-2.21A8.29,8.29,0,0,0,36.8,34a8,8,0,0,1,.49,3.28,2.28,2.28,0,0,0,1.25,2.24s-1.69.28-2-2-.78-2.84-1.77-4-2.72-4.07.93-6.45,6.28-1.09,7-.36,1.14,3.42,1.14,3.42A2.47,2.47,0,0,1,42.2,31,10.74,10.74,0,0,0,40.64,28Z"/><path class="cls-21" d="M51.38,43.27a39.32,39.32,0,0,0-3,7.68s-12.12,4.32-12.06,4.49c-1.48.35-.52,3.26,1,2.92,5.91-.71,12.1-2.5,14.84-4.2,1.71-2.14,6-8.57,6.76-10.89Z"/><path class="cls-29" d="M49.43,47.35s2.27-9.52,5.51-10.3c2.38-.57,5.7.67,4.66,5.09a23.89,23.89,0,0,1-4.22,7.74C55.09,50.75,49.14,48.22,49.43,47.35Z"/><path class="cls-27" d="M50.53,41.89a3.9,3.9,0,0,1-1.74-1.25,6.59,6.59,0,0,1-.61-2.25s-.68-.79-1.29.65c-1.43.34-13,3.14-14,4.32C31.27,45.18,32,49,35.4,48.3a43.48,43.48,0,0,0,12.92-5C51.18,43.14,50.53,41.89,50.53,41.89Z"/><path class="cls-14" d="M49.4,33.39s.14-.09.19,0,.07.15.09.18,0-.18,0-.25S49.36,33.32,49.4,33.39Z"/><path class="cls-21" d="M36.49,55.89a8.32,8.32,0,0,1-.5-1.31A3.81,3.81,0,0,0,35.14,53,1.77,1.77,0,0,0,35,54.43c.16,1-1,1.42-1,1.68s.25.57.23.74-.33.35-.24.68.38.41.45.54,0,.46.07.59.35.2.42.28.13.24.34.27,1.19.54,1.85-.33S36.49,55.89,36.49,55.89Z"/><path class="cls-25" d="M57.62,33.74s-.79-.73-1-.94c-.59-.48-1-.76-1-.76s.35-.77,1.25-.25,1.68-.43,1.93-.36.44.45.61.49.45-.18.72,0,.25.5.35.62.43.14.52.27.06.4.11.5.18.2.13.4.07,1.31-1,1.61S57.62,33.74,57.62,33.74Z"/><path class="cls-6" d="M36.16,36.5c-.07,0-.16.07-.08.14a1.49,1.49,0,0,1,.38,1.12c0,.65-.26,1.19-.57,1.19s-.57-.54-.57-1.19a2,2,0,0,1,.23-1l-.15-.07a2.2,2.2,0,0,0-.25,1c0,.76.33,1.36.74,1.36s.74-.6.74-1.36A1.43,1.43,0,0,0,36.16,36.5Z"/><path class="cls-30" d="M41,35.81c0,.2-.43.36-1,.36s-1-.16-1-.36.43-.37,1-.37S41,35.61,41,35.81Z"/><path class="cls-30" d="M44.21,35l-.22.11c-.49.21-1,.22-1,0s.25-.5.74-.71a2.38,2.38,0,0,1,.46-.14C44.18,34.51,44.2,34.75,44.21,35Z"/><path class="cls-30" d="M45.74,33.5a1.83,1.83,0,0,1-.83.08h0l-.17-.29a1.43,1.43,0,0,1,.78-.49c.51-.16,1-.13,1,.06S46.25,33.34,45.74,33.5Z"/><path class="cls-30" d="M48.51,32.19c.1.18.56.12,1-.13s.78-.6.68-.78-.55-.11-1,.14S48.42,32,48.51,32.19Z"/><path class="cls-17" d="M46.58,39.85A3.06,3.06,0,0,0,48,42.48S45.58,42.44,46.58,39.85Z"/><path class="cls-17" d="M33.34,46.41a3.72,3.72,0,0,1-1.23-.15.08.08,0,1,1,.06-.15S35.43,47.33,47,42H47a2,2,0,0,0,2.13-.88l.12.1a2.23,2.23,0,0,1-2.27.94C39.1,45.8,35.12,46.41,33.34,46.41Z"/></g></g></svg>