<svg xmlns="http://www.w3.org/2000/svg" xmlns:xlink="http://www.w3.org/1999/xlink" viewBox="0 0 100 100"><defs><style>.cls-1{isolation:isolate;}.cls-2{opacity:0.5;}.cls-3{fill:url(#radial-gradient);}.cls-4{fill:#928cab;}.cls-5{fill:#464778;}.cls-6{fill:#6b678f;}.cls-7{fill:#68aed9;}.cls-8{fill:#f16163;}.cls-9{fill:#f9b7ad;}.cls-10{fill:#873334;}.cls-11{mix-blend-mode:multiply;}.cls-12{fill:#9c97b3;}.cls-13{fill:#f89747;}</style><radialGradient id="radial-gradient" cx="47.39" cy="43.41" r="37.72" gradientUnits="userSpaceOnUse"><stop offset="0" stop-color="#efa8b9"/><stop offset="1" stop-color="#f27594"/></radialGradient></defs><g class="cls-1"><g id="Layer_1" data-name="Layer 1"><g class="cls-2"><path class="cls-3" d="M85,33.12A43.53,43.53,0,0,0,68.62,12.44c-8.18-5.36-16.91-5.87-26.13-3.2a48.1,48.1,0,0,0-13.09,6C24.12,18.72,16,27.7,18.78,34.83c1,2.72,3.91,4.35,4.9,7,1.13,3.06-.86,5.83-2.83,8C16.2,55.07,8,58.63,7.8,66.59,7.48,78.47,21.94,79.16,30.57,79.16c12.55,0,25-.44,36.56-5.82,6.58-3.07,15-8.84,17.68-15.93C87.56,50.05,87.8,40.48,85,33.12Z"/></g><rect class="cls-4" x="47.87" y="15.65" width="0.51" height="37.87"/><path class="cls-4" d="M48,16.58a2.71,2.71,0,0,1-.27-1.52,2.44,2.44,0,0,1,.36-1.39c.15-.23.41-.41.54-.07a2.61,2.61,0,0,1,.07.92,7.87,7.87,0,0,1,0,1c0,.37-.1.74-.14,1.11A1.34,1.34,0,0,1,48,16.58Z"/><path class="cls-5" d="M26.69,27.1s4.18-7,10.58-9.29,19.69-3.18,25.3,1,6.3,7.77,6.3,7.77a5.15,5.15,0,0,0-5.49,0c-3.28,1.71-4.14,3.76-4.14,3.76s-3.3-4.19-7.66-3.45-4.76,2.8-4.76,2.8-1.51-3.9-5.56-3.36a9,9,0,0,0-6,3.36s-1.71-3.74-4.37-3.52A13.21,13.21,0,0,0,26.69,27.1Z"/><path class="cls-6" d="M35.26,29.77A5.79,5.79,0,0,1,36,27.33c.35-.73.67-1.46,1.06-2.16a20.91,20.91,0,0,1,2.75-3.85,17.29,17.29,0,0,1,3.56-3,16.29,16.29,0,0,1,2.06-1.1c.81-.37,1.68-.53,2.49-.88a.13.13,0,0,0-.07-.26,14.47,14.47,0,0,0-2,.63,12.19,12.19,0,0,0-1.75.73A16.75,16.75,0,0,0,41,19.62a18.16,18.16,0,0,0-2.62,2.85A17.7,17.7,0,0,0,36.23,26c-.51,1.15-1.35,2.54-1.15,3.84,0,.1.18.07.18,0Z"/><path class="cls-6" d="M46.82,30c0-2.44.35-4.88.62-7.3.13-1.19.25-2.39.39-3.59.06-.52.17-1,.27-1.55a3.42,3.42,0,0,0,.15-1.31.19.19,0,0,0-.36,0,13.52,13.52,0,0,0-.22,1.42c-.08.45-.16.89-.2,1.35-.12,1.22-.24,2.45-.37,3.67a57.48,57.48,0,0,0-.36,7.3,0,0,0,1,0,.08,0Z"/><path class="cls-6" d="M47.7,16.31c3.14.21,5.88,2.35,7.6,4.86a23.3,23.3,0,0,1,2.32,4.28,21,21,0,0,1,.8,2.31,25.52,25.52,0,0,0,.72,2.45.14.14,0,0,0,.27-.08,24.28,24.28,0,0,0-2.67-7.65,13.16,13.16,0,0,0-5.18-5.43,7.26,7.26,0,0,0-3.86-.92.09.09,0,0,0,0,.18Z"/><path class="cls-7" d="M49.41,67a60.35,60.35,0,0,0,.41,9.53c.63,4.26,1.76,10,1.76,10l2.42,0s-.56-6.48-.43-10.57a63.7,63.7,0,0,1,1-8.57S51.62,65.93,49.41,67Z"/><path class="cls-7" d="M54.79,67.81s-.2,4.55.05,10.06.54,8.64.54,8.64l2.17.17s1.13-9.23,1.63-12.94.58-6.06.58-6.06S55.42,66.35,54.79,67.81Z"/><path class="cls-5" d="M58.25,46.42s1.31,3.08,1.85,4.73a6.92,6.92,0,0,1,.07,4.47,13.13,13.13,0,0,1-1.42,2.5s-2.7-3.62-2.54-5.93a38.84,38.84,0,0,1,.73-4.73C56.94,47.27,58.25,46.42,58.25,46.42Z"/><path class="cls-5" d="M60.68,62.05c-.61-3.75-2-5.87-2.44-7.1s.1-7.23.25-8.05a3.89,3.89,0,0,0-3.38-3.75,13.17,13.17,0,0,0-4.52.41l-.21,0s-2.2,1.69-2.15,2.57,1.49,8.52,1.49,8.52a29.81,29.81,0,0,0-.93,5.79,55.51,55.51,0,0,0-.1,7,14.39,14.39,0,0,0,6.11,1.39,16.16,16.16,0,0,0,5.09-.36S61.08,64.47,60.68,62.05Z"/><path class="cls-8" d="M45,90c0,.08-.26,1.77.36,2.08a11.74,11.74,0,0,0,4.38-.18c.36-.23.39-.54-1.2-1.18s-.93-1.41-.93-1.41S45.07,89.41,45,90Z"/><path class="cls-8" d="M39.58,89.56s-.23,2,.34,2.47A3.09,3.09,0,0,0,42.61,92c.49-.36,0-1.56-.33-2.1a2.93,2.93,0,0,1-.39-.77Z"/><path class="cls-9" d="M41.07,39l-.31,2.75a8.8,8.8,0,0,0,2.24.44,3,3,0,0,0,1.3-.13l.49-2.57S41.61,38.63,41.07,39Z"/><path class="cls-9" d="M40.16,35.22a2.39,2.39,0,0,0-.22-1.35c-.34-.48-.64-.38-.78.14s-.48,2.28.31,2.33C40,36.37,40.05,35.4,40.16,35.22Z"/><path class="cls-5" d="M47.74,36.76s1-3.73,0-5.16-2.77-2.27-5.35-1.5-2.57,4.58-2.81,6a4.27,4.27,0,0,0,3.58,4.46c2.7.5,4-2.23,4.28-2.66A3.51,3.51,0,0,0,47.74,36.76Z"/><path class="cls-10" d="M35.81,62.39s.51,8.42,1.28,15.09A106.19,106.19,0,0,0,39.3,89.84a3.23,3.23,0,0,0,1.54.16c1.18,0,1.49-.41,1.49-.41a57.7,57.7,0,0,1-1.28-10.47c0-4.72.77-12.52.77-12.52S42.89,72.14,43.66,77s1.08,13.23,1.08,13.23a9.64,9.64,0,0,0,1.8.06A3.91,3.91,0,0,0,48,90.05s.21-15.45-.25-20.94S47,62.65,47,62.65,37.71,60.75,35.81,62.39Z"/><path class="cls-8" d="M48,59.75a35.77,35.77,0,0,1-.64,4.59,39.46,39.46,0,0,1-7.08-.13c-4.08-.41-5.06-.82-5.34-1.18a4.53,4.53,0,0,1-.3-1.56c0-.44,0-.8,0-.8l-.24-.2c-.66-.59-2.51-2.38-2.87-4.11C31,54.26,33,47.2,34.22,45.18c1.69-2.75,5.54-2.64,5.54-2.64s.21-1.21.21-1.21a4.7,4.7,0,0,1,2.92-.23c2.13.28,2.23.74,2.23.74l-.07,1.28s2.67,2,3.18,3.44S48.1,57.54,48,59.75Z"/><g class="cls-11"><path class="cls-12" d="M34.72,60.47c.19-2.38.15-4.77.35-7.14.1-1.21.23-2.42.4-3.61.09-.58.17-1.16.27-1.73a10.46,10.46,0,0,0,.33-1.53.11.11,0,0,0-.18-.07,2.63,2.63,0,0,0-.43,1.35c-.11.6-.19,1.2-.28,1.8-.16,1.17-.29,2.34-.39,3.52a45.85,45.85,0,0,0-.19,7.41.06.06,0,1,0,.12,0Z"/></g><path class="cls-9" d="M38.21,56c-.09,0-1.54-2-1.78-1.53s.51,1.18.51,1.18-2.34-.89-2.48-.56A2.23,2.23,0,0,0,35.25,57a9.54,9.54,0,0,0,3,.8l.48-1.57Z"/><path class="cls-5" d="M38.12,55.62a13.38,13.38,0,0,0,5.39-.82A19.22,19.22,0,0,0,48,51.57l1.65-1.8L51.31,53S49.19,56.72,46,57.77a14.9,14.9,0,0,1-8.57.44Z"/><path class="cls-9" d="M58.21,52.13a1.1,1.1,0,0,1,1.46.38,1.84,1.84,0,0,1-.46,2.24,1.71,1.71,0,0,1-.69.46S57.23,52.82,58.21,52.13Z"/><path class="cls-8" d="M44.59,43.19s3.11-.23,3.88,1.58,1.2,4.42,3.51,5.88a8.29,8.29,0,0,0,4.77,1.54l1.46-.06a5.58,5.58,0,0,1,.62,1.68,2.47,2.47,0,0,1,0,1.39s-2.31,1.8-6.43.73a9.87,9.87,0,0,1-6.58-6.47A44.31,44.31,0,0,1,44.59,43.19Z"/><g class="cls-11"><path class="cls-12" d="M45.14,49.24a9.09,9.09,0,0,0,.7,1.48c.13.23.27.46.41.68l.22.35a.49.49,0,0,0,.25.26c.06,0,.11,0,.11-.09a.48.48,0,0,0-.11-.32c-.07-.11-.14-.22-.2-.33s-.28-.45-.41-.68a9.57,9.57,0,0,1-.74-1.42c-.06-.13-.28-.08-.23.07Z"/></g><path class="cls-13" d="M47.47,34.61A6.71,6.71,0,0,0,48,40c.81,1.73.73,3.93,1.31,5.89a6.51,6.51,0,0,0,6.16,4.89,5.74,5.74,0,0,0,6.08-6.58,8,8,0,0,0-3.93-5.58c-1.84-1.16-2-1.73-2.27-3s-.69-3-2.54-3.58A4.92,4.92,0,0,0,47.47,34.61Z"/><path class="cls-5" d="M57.9,85a2.61,2.61,0,0,0-1.43-.23l-1.23,0s-.06,5-.08,5.62-.36,1.72-.13,1.87,2.59.28,2.75-.23-.11-3-.11-4.39A18.12,18.12,0,0,1,57.9,85Z"/><path class="cls-5" d="M53.94,85.23a5.48,5.48,0,0,1-1.32.24,2.26,2.26,0,0,1-1.37-.16s.85,4.77.62,4.84-1.95.59-1.69,1.08,3.39,1.31,4,1.1.64-.69.61-1.18S53.94,85.23,53.94,85.23Z"/><path class="cls-8" d="M36.06,33.55a1.27,1.27,0,0,0-.69.6,1.52,1.52,0,0,0-.26.67,1.9,1.9,0,0,0-.89-.62.55.55,0,0,0-.73.24,1.44,1.44,0,0,0,0,.94,1.73,1.73,0,0,0,.11.32,4.49,4.49,0,0,0,2.12,1.81h0c.35-1.11,1.14-2.23.88-3.45C36.54,33.78,36.38,33.48,36.06,33.55Z"/></g></g></svg>