<svg id="Layer_1" data-name="Layer 1" xmlns="http://www.w3.org/2000/svg" xmlns:xlink="http://www.w3.org/1999/xlink" viewBox="0 0 100 100"><defs><style>.cls-1{opacity:0.5;}.cls-2{fill:url(#radial-gradient);}.cls-3{fill:#8bbcdd;}.cls-4{fill:#371c0f;}.cls-5{fill:#e87679;}.cls-6{fill:#5381c2;}.cls-7{fill:#0a5685;}.cls-8{fill:#0f609b;}.cls-9{fill:#f58b6c;}.cls-10{fill:#c0325c;}.cls-11{fill:#10101c;}.cls-12{fill:#fff;}.cls-13{fill:#789ad0;}.cls-14{fill:#d94469;}</style><radialGradient id="radial-gradient" cx="50.72" cy="53.56" r="31.17" gradientUnits="userSpaceOnUse"><stop offset="0" stop-color="#efa8b9"/><stop offset="1" stop-color="#f27594"/></radialGradient></defs><g class="cls-1"><path class="cls-2" d="M75.84,24.64C60.91,11.49,54,32.58,51.45,36.77c-2.55-4.19-12.31-18.89-25.21-9.36C8,40.94,50.83,86.89,50.85,86.73H52C52.07,86.89,92.13,39,75.84,24.64Z"/></g><path class="cls-3" d="M68.41,86.15c0,.66-8.13,3.07-16.41,3.07s-16.4-2.41-16.38-3.07c0-.87,14-.89,16-.9C53,85.25,68.37,85.24,68.41,86.15Z"/><path class="cls-4" d="M48.84,25.33a6.37,6.37,0,0,0,1.61.84c1.23.43,1.86.22,2.29.72s-.11,1.26.3,2c.61,1.11,2.4.33,3.56,1.44a3.33,3.33,0,0,1,.18,4.35,3.15,3.15,0,0,1-2.53.78C48.36,35,47,34.35,47,33.88c0,0-.08-.59-.1-1.26s-.22-.8-.73-.82-.76,0-.86-.43-.09-4.78-.09-5.16"/><path class="cls-5" d="M42.94,43.87l7.74-3.64a1.21,1.21,0,0,1,1.53.76,1.23,1.23,0,0,1-.41,1.34h0l-.08.05-.07,0-7,4.6A1.8,1.8,0,0,1,42,46,1.77,1.77,0,0,1,42.94,43.87Z"/><path class="cls-6" d="M41.76,46.12a2,2,0,0,1,.1-1.52,2,2,0,0,1,1-1l3.22-1.52.06.08c.29.46.57.94.84,1.41a13,13,0,0,1,.84,1.67l-3,1.95a1.89,1.89,0,0,1-1.72.25A2.25,2.25,0,0,1,41.76,46.12Z"/><path class="cls-5" d="M53.21,33.5h0l.06-.12a.75.75,0,0,1,1-.19.76.76,0,0,1,.3.82h0l-2.35,7.7s0,0,0,.06v0h0a1.74,1.74,0,0,1-.14.27A1.21,1.21,0,0,1,50,41h0Z"/><path class="cls-5" d="M54.78,34.61s0,0,0,0a.33.33,0,0,1-.35.28.88.88,0,0,1-.46-.18,1.72,1.72,0,0,1-.49-.4,1.61,1.61,0,0,1-.26-.91c0-.39,0-.78,0-1.17a.26.26,0,0,1,0-.15.21.21,0,0,1,.19-.05.39.39,0,0,1,.3.34c0,.14,0,.28,0,.4a.43.43,0,0,0,.38.14c.14,0,.3,0,.36.17s0,.23.07.33.17.11.2.2-.09.25-.06.38.15.17.12.28-.09.09-.12.15A.32.32,0,0,0,54.78,34.61Z"/><path class="cls-7" d="M62.14,48.8a16.28,16.28,0,0,0-2.06,1.06,11,11,0,0,0-1.38,1A17.76,17.76,0,0,0,55,55.34a2.11,2.11,0,0,0,.46,1.18,1.54,1.54,0,0,0,1.19.67,1.16,1.16,0,0,0,.72-.37s5.12-4.94,7.81-7.34A10.61,10.61,0,0,0,63.91,48C63.48,48.2,62.91,48.45,62.14,48.8Z"/><path class="cls-5" d="M63.91,48a10.61,10.61,0,0,1,1.22,1.46,11.47,11.47,0,0,0,2.05-1.72,1,1,0,0,0,.08-1,.71.71,0,0,0-.92-.3c-.46.27-.57.75-1.09,1S64.36,47.83,63.91,48Z"/><path class="cls-7" d="M56.28,49.2s1.73-2.85-.2-4.11S54.82,49.73,56.28,49.2Z"/><path class="cls-7" d="M48.7,44s4.76,11.06,6.48,12.34,3.34-.82,2.8-1.79-3.62-12.28-3.62-12.28Z"/><path class="cls-8" d="M56,43.19c1,2.65.49,4.15,0,5.15-.34.69-.28.7-.87,1.76a5.79,5.79,0,0,0-.38.88c-.59,1.88.21,3.48-.23,3.71-.11.06-.34,0-.84-.41-.82-.78-4.94-3.38-3.52-6.78.06-.14.24-3.81.24-3.81Z"/><path class="cls-9" d="M47.83,33l-4.48,7.29a1.22,1.22,0,0,0,.6,1.6,1.2,1.2,0,0,0,1.37-.26h0l.06-.07,0-.06,5-6.61a1.57,1.57,0,0,0-.38-2.58A1.79,1.79,0,0,0,47.83,33Z"/><path class="cls-10" d="M48.24,37.24a9.63,9.63,0,0,1-1.1-1,8.92,8.92,0,0,1-.9-1.13l1.38-2.23a2,2,0,0,1,1.74-1,2.09,2.09,0,0,1,.85.18,1.83,1.83,0,0,1,1,1.2A2.05,2.05,0,0,1,50.69,35l-1.95,2.55A3.7,3.7,0,0,1,48.24,37.24Z"/><path class="cls-9" d="M36.61,40.18h0l-.13,0a.72.72,0,0,0-.51.87.71.71,0,0,0,.65.53h0l7.69.37h.09a.9.9,0,0,0,.28,0,1.15,1.15,0,0,0-.33-2.27h0Z"/><path class="cls-9" d="M36.61,40.18c-.44.08-1.78,1.7-1.51,2.28s1.35-.6,2.14-.94S36.61,40.18,36.61,40.18Z"/><path class="cls-9" d="M36.7,40.17s-.53,0-.8-.06-.17.58.35.56"/><path class="cls-7" d="M46.35,80.61a15.07,15.07,0,0,1,.34-2.29,9.91,9.91,0,0,1,.54-1.64,17.54,17.54,0,0,1,3-5,2.15,2.15,0,0,1,1.27,0,1.58,1.58,0,0,1,1,.92,1.14,1.14,0,0,1-.12.79s-3,6.45-4.42,9.77a10.09,10.09,0,0,1-1.78-.69C46.21,82.07,46.27,81.45,46.35,80.61Z"/><path class="cls-5" d="M46.18,82.53a10.09,10.09,0,0,0,1.78.69c-.31.73-.54,1.31-.64,1.64-.42,1.36-.19,1.54-.13,1.56-.73.12-1.68.19-1.92-.24s.26-.77.63-1.72A5.8,5.8,0,0,0,46.18,82.53Z"/><path class="cls-11" d="M48.34,85.94a2.06,2.06,0,0,1-.39-.67c-.08-.3-.14-1-.2-1a2.1,2.1,0,0,0-.66,0c-.07,0,.51,1.26.46,1.27s-.5.44-.38.57a2.74,2.74,0,0,0,.79.26l.33-.27Z"/><path class="cls-7" d="M49.42,87.07a.48.48,0,0,0-.07-.37c-.12-.12-.75-.43-.79-.47a4.35,4.35,0,0,0-.3-.35c-.06,0-.78.22-.9.14s.42-.27.38-.35a8.78,8.78,0,0,1-.42-.88A4.4,4.4,0,0,1,46,84.57a.3.3,0,0,0-.39.12l-.43.75-.11.27.27.2.87.29,1.08.63.56.31,1,.18.67-.19Z"/><path class="cls-12" d="M49.43,87.26s.07-.22,0-.26-.18.19-.22.18a3.48,3.48,0,0,1-1.72-.33c-1-.42-1-.73-1.49-.94s-1-.23-.9-.47c0,0-.37.38-.26.67s.22.23.48.33a3.41,3.41,0,0,0,1,.24c.15,0,.28.27.69.48S48.94,87.81,49.43,87.26Z"/><path class="cls-7" d="M47.67,85.71h0l.13,0a1.11,1.11,0,0,1,.29-.07,0,0,0,0,0,0,0s0,0,0,0a1.09,1.09,0,0,0-.3.07l-.13,0a.05.05,0,0,0,0,.05Z"/><path class="cls-7" d="M47.45,85.29h0a1.63,1.63,0,0,1,.44-.08,0,0,0,0,0,0-.08,1.85,1.85,0,0,0-.47.08,0,0,0,0,0,0,.05S47.44,85.29,47.45,85.29Z"/><path class="cls-7" d="M47.33,85h0l.07,0a1.76,1.76,0,0,1,.43-.16,0,0,0,0,0,0-.08,1.8,1.8,0,0,0-.46.16l-.07,0s0,0,0,0Z"/><path class="cls-7" d="M51.69,59.23s1.67,11.92.85,13.9-3.28,1-3.32-.07S46,60.68,46,60.68Z"/><path class="cls-8" d="M51.41,81.92a19.08,19.08,0,0,1-.11-2.32,10.34,10.34,0,0,1,.22-1.71,17.64,17.64,0,0,1,2-5.46,2.09,2.09,0,0,1,1.25-.2,1.57,1.57,0,0,1,1.18.7,1.16,1.16,0,0,1,0,.8s-1.73,6.91-2.46,10.44a10.72,10.72,0,0,1-1.88-.33C51.56,83.38,51.49,82.76,51.41,81.92Z"/><path class="cls-5" d="M51.62,83.84a10.72,10.72,0,0,0,1.88.33c-.17.78-.28,1.39-.32,1.73-.15,1.42.11,1.55.18,1.56-.7.26-1.61.51-1.94.13s.11-.8.29-1.81A5.65,5.65,0,0,0,51.62,83.84Z"/><path class="cls-11" d="M54.39,86.77a2.05,2.05,0,0,1-.51-.59c-.14-.28-.33-1-.39-1a2.44,2.44,0,0,0-.65.14c-.06.06.74,1.14.69,1.15s-.41.53-.26.64a2.76,2.76,0,0,0,.82.1l.28-.33Z"/><path class="cls-8" d="M55.67,87.67a.49.49,0,0,0-.14-.35c-.14-.09-.82-.28-.87-.31a3.57,3.57,0,0,0-.35-.28c-.08,0-.74.36-.87.31s.36-.35.31-.42-.57-.72-.58-.79a4.59,4.59,0,0,1-1.39,0,.31.31,0,0,0-.36.2l-.28.81,0,.29.31.14.91.12,1.17.41.61.2h1l.62-.33Z"/><path class="cls-12" d="M55.71,87.85s0-.23,0-.26-.13.22-.17.22a3.46,3.46,0,0,1-1.75,0,9,9,0,0,1-1.65-.64c-.49-.11-1,0-1-.29,0,0-.29.45-.12.71s.26.18.53.23a3.77,3.77,0,0,0,1,0c.16,0,.32.2.77.34S55.34,88.48,55.71,87.85Z"/><path class="cls-8" d="M53.69,86.67s0,0,0,0l.12-.06a1.07,1.07,0,0,1,.27-.12.05.05,0,0,0,0,0s0,0-.05,0a1.08,1.08,0,0,0-.29.13l-.11.06a0,0,0,0,0,0,.06Z"/><path class="cls-8" d="M53.4,86.3h0a2.41,2.41,0,0,1,.42-.16s0,0,0,0a0,0,0,0,0,0,0,2.35,2.35,0,0,0-.44.17s0,0,0,.06S53.38,86.3,53.4,86.3Z"/><path class="cls-8" d="M53.22,86.05h0l.06,0a1.92,1.92,0,0,1,.4-.24,0,0,0,0,0,0-.08,1.86,1.86,0,0,0-.42.25l-.07,0a0,0,0,0,0,0,0Z"/><path class="cls-8" d="M52.54,59.91s3.93,11.38,3.51,13.48S53,75,52.78,74s-5.59-11.52-5.59-11.52Z"/><path class="cls-4" d="M40.9,43.19a18,18,0,0,1-2.7-.12c-.67-.16,0-1.25,0-1.25l1.39-.68Z"/><polygon class="cls-5" points="39.53 42.3 42.52 44.61 43.41 43.68 41.42 42.03 39.53 42.3"/><path class="cls-4" d="M39.93,42.82a5.87,5.87,0,0,0,1.36.45,5.24,5.24,0,0,0,1.63,0L41.42,42l-1.94.5.4.27Z"/><path class="cls-5" d="M37.89,40.15A2.46,2.46,0,0,1,38,39c.17-.47.68-1.35,1.42-1.42.4,0,.87.37,1.83,1.16a5.82,5.82,0,0,1,1.12,1.13A2,2,0,0,1,43,41.15a1.58,1.58,0,0,1-.46,1,2.62,2.62,0,0,1-1.34.57,2,2,0,0,1-.59.07,2.12,2.12,0,0,1-.6-.14c-.23.51-1,.41-1.33,0a.55.55,0,0,1-.1-.51.41.41,0,0,1,.41-.28A3.08,3.08,0,0,1,38,40.56,1.91,1.91,0,0,1,37.89,40.15Z"/><path class="cls-4" d="M36.49,42.15a1.74,1.74,0,0,1-.39-1.29,2,2,0,0,1,.4-1,2.17,2.17,0,0,0,.57-1,6.68,6.68,0,0,0,0-1,1.62,1.62,0,0,1,3.2-.22c.19.71-1,1.47-1.44,1.88-.05,0-.48.42-.39.59s.1.06.2.17a.38.38,0,0,1,.17.29c0,.16-.2.31-.15.47a.5.5,0,0,0,.19.23c.06,0,.79.54.79.54l0,.12s-.75-.17-.78.3h0a.28.28,0,0,0,0,.09.65.65,0,0,0,.19.3.86.86,0,0,0,.46.29,3.14,3.14,0,0,1-2.14-.14A2.47,2.47,0,0,1,36.49,42.15Z"/><path class="cls-13" d="M42.38,43.87a4.51,4.51,0,0,0-1.12,1.62,3.48,3.48,0,0,0-.12,1.78,41.46,41.46,0,0,0,2.38,7.91c2.2,5.25,2.18,7.47,2.84,7.39,2-.26,6-.32,7-1.89.41-.62-6.88-15.38-7.78-16.61C44.94,43.13,42.7,43.52,42.38,43.87Z"/><path class="cls-8" d="M59.66,63a15.08,15.08,0,0,0-.94-2.12,9.18,9.18,0,0,0-.95-1.44,17.81,17.81,0,0,0-4.21-4,2.16,2.16,0,0,0-1.21.39A1.56,1.56,0,0,0,51.61,57a1.12,1.12,0,0,0,.32.74s4.64,5.41,6.88,8.23a10.48,10.48,0,0,0,1.53-1.14C60.18,64.37,60,63.79,59.66,63Z"/><path class="cls-5" d="M60.34,64.81A10.48,10.48,0,0,1,58.81,66a11.56,11.56,0,0,0,1.6,2.15,1,1,0,0,0,1,.14.71.71,0,0,0,.35-.9c-.24-.47-.71-.62-.92-1.15S60.5,65.28,60.34,64.81Z"/><path class="cls-8" d="M48.81,43.82s1.57,11.94,2.89,13.63,3.43.12,3.17-1-.15-12.8-.15-12.8Z"/><path class="cls-14" d="M47.86,32.87a2.82,2.82,0,0,1,2.28-1.63h0a3.34,3.34,0,0,1,4.07,2.53c.32,1.41.54,2.6.69,3.52a39,39,0,0,0,.76,4.06A32.68,32.68,0,0,0,56.9,45a6.32,6.32,0,0,1-8.07,1.11,2.62,2.62,0,0,1-.07-.64c-.07-.6-.14-1.2-.2-1.8A26.48,26.48,0,0,0,47.89,40c-.12-.46-.24-.91-.38-1.36a8.92,8.92,0,0,1-.35-1.11,3.25,3.25,0,0,1,.32-1.59C47.86,34.51,47.53,33.85,47.86,32.87Z"/><path class="cls-5" d="M44.56,44.14l6.66,5.38a1.21,1.21,0,0,1-1.41,1.92h0l-.08,0-.07,0-7.17-4.27a1.79,1.79,0,0,1-.29-2.84A1.76,1.76,0,0,1,44.56,44.14Z"/><path class="cls-13" d="M42,44.06a2,2,0,0,1,2.71-.12l2.76,2.24-.05.08c-.28.47-.59.92-.89,1.38a16.18,16.18,0,0,1-1.14,1.48l-3-1.82a1.86,1.86,0,0,1-1-1.44A2.22,2.22,0,0,1,42,44.06Z"/><path class="cls-6" d="M45.41,49.21h0l-3-1.81a2,2,0,0,1-1-1.52.09.09,0,0,1,.09-.1.08.08,0,0,1,.1.08,1.83,1.83,0,0,0,.93,1.37l3,1.77a14.9,14.9,0,0,0,1.08-1.41l0,0c.29-.44.6-.89.87-1.34h0L44.66,44a.11.11,0,0,1,0-.14.1.1,0,0,1,.14,0l2.76,2.23a.09.09,0,0,1,0,.13l0,.08c-.27.46-.57.91-.87,1.34l0,0a15,15,0,0,1-1.15,1.49A.09.09,0,0,1,45.41,49.21Z"/><path class="cls-5" d="M55.64,44.18h0l.1-.08a.76.76,0,0,1,1,.26.77.77,0,0,1-.08.87h0l-5.39,6,0,.05,0,0h0a1.12,1.12,0,0,1-.24.19,1.21,1.21,0,0,1-1.44-1.92h0Z"/><path class="cls-9" d="M50.67,34.56l-.51,8.54a1.21,1.21,0,0,0,2.37.25h0a.29.29,0,0,1,0-.09s0,0,0-.08L53.9,35a1.58,1.58,0,0,0-1.57-2.1A1.76,1.76,0,0,0,50.67,34.56Z"/><path class="cls-9" d="M43.51,42.26h-.12a.72.72,0,0,0,.1,1.41h0l7.67.55h.09a1.36,1.36,0,0,0,.29,0,1.16,1.16,0,0,0-.28-2.28h0Z"/><path class="cls-5" d="M56.59,45.85v0a.34.34,0,0,1-.44.11.88.88,0,0,1-.34-.35,2.12,2.12,0,0,1-.27-.57,1.62,1.62,0,0,1,.15-.94c.15-.36.35-.7.53-1a.26.26,0,0,1,.1-.13.22.22,0,0,1,.19,0,.41.41,0,0,1,.13.44c0,.13-.14.24-.13.37s.16.23.28.3.26.16.26.3-.09.21-.08.33.11.17.1.27-.19.18-.22.31.06.22,0,.3-.12,0-.17.1A.24.24,0,0,0,56.59,45.85Z"/><path class="cls-4" d="M45.22,26.22a1.59,1.59,0,0,0,.68,2.38c.36.17.58-2.06.48-2A6.09,6.09,0,0,1,45.22,26.22Z"/><polygon class="cls-9" points="49.75 31.86 50.93 31.48 50.04 28.69 49.01 29.52 49.75 31.86"/><path class="cls-4" d="M49.67,31.58l-.78-2L50,28.81A5.08,5.08,0,0,1,49.67,31.58Z"/><path class="cls-9" d="M50.1,28.82a4.77,4.77,0,0,1-.12.55c-.22.9-1,2.08-2.15,2.06-1.62,0-2.94-3.53-2.6-4.39C46,25,49.44,25.06,50.1,28.82Z"/><path class="cls-4" d="M50.49,27.88c-.14.18-.5.74-.8.7-.08,0-.08,0-.12-.11a2,2,0,0,0-.26-.32,1.53,1.53,0,0,0-.84-.37c-.49-.05-1,.1-1.47.06a2,2,0,0,1-1-.37,1.6,1.6,0,0,1-.72-.95c-.2-.93.83-1.29,1.55-1.43a3,3,0,0,1,3.68,2.79Z"/><path class="cls-9" d="M49.53,28.65a.6.6,0,0,0,.48.68c.28,0,.51-.28.53-.64s-.2-.68-.48-.69A.6.6,0,0,0,49.53,28.65Z"/><path class="cls-4" d="M49.69,28.15c-.16.26.12.81.22,1s-.24.14-.46-.46-.42-.8-.87-.88.78-1,.78-1"/><path class="cls-9" d="M50.16,31.43c.9-.24,1.4-.37.2,1.62S48.76,31.81,50.16,31.43Z"/><path class="cls-9" d="M43.51,42.27c-.45,0-2,1.36-1.88,2s1.43-.36,2.27-.56S43.51,42.27,43.51,42.27Z"/><path class="cls-9" d="M43.6,42.27l-.77-.19c-.23-.07-.27.54.25.6"/><path class="cls-14" d="M53.66,38a20,20,0,0,1-2-.11,6.29,6.29,0,0,1-1.38-.31l.18-3.07a2,2,0,0,1,1.91-1.93h.1a1.78,1.78,0,0,1,1.37.63A2,2,0,0,1,54.15,35Z"/><path class="cls-5" d="M53.26,33.57a.25.25,0,0,1,.06-.32c.1-.06.24,0,.36,0A.68.68,0,0,0,54.3,33s0,.14,0,.16,0,.2,0,.3.12.48.17.73.05.26.08.39,0,.26,0,.28a.87.87,0,0,1-.69.08.41.41,0,0,1-.25-.17.25.25,0,0,1,0-.15.42.42,0,0,1-.24-.23.24.24,0,0,1,.05-.27.44.44,0,0,1-.12-.15.26.26,0,0,1,.08-.3A.36.36,0,0,1,53.26,33.57Z"/><path class="cls-10" d="M53,38.16a7.39,7.39,0,0,1-2.78-.46.09.09,0,0,1-.06-.09c0-.17.15-4.33.86-5.18a.11.11,0,0,1,.14,0,.1.1,0,0,1,0,.14c-.63.74-.79,4.45-.81,5a8.6,8.6,0,0,0,3.24.4l.26-2.48a.08.08,0,0,1,.1-.08.09.09,0,0,1,.09.1l-.27,2.56a.09.09,0,0,1-.09.08A5.13,5.13,0,0,1,53,38.16Z"/><path class="cls-11" d="M60.19,68.94a2,2,0,0,0-.09-.78,2.85,2.85,0,0,1-.27-.67,2,2,0,0,1,.47-.32c.08,0,.22,1,.26,1s.67,0,.65.23-.47.68-.47.68l-.43,0Z"/><path class="cls-14" d="M60,70.49s-.19-.16-.17-.33.34-.81.35-.86a3.64,3.64,0,0,1,0-.45c0-.07.76-.31.81-.44s-.5,0-.52,0c0-.27-.39-.65-.2-1s.5-.17.61-.42-.12-.48,0-.67a.46.46,0,0,1,.16-.11l1.36.4.25.15-.1.33-.52.75L61.6,69l-.26.59-.65.72Z"/><path class="cls-12" d="M60.11,70.64s-.19-.12-.18-.19.26,0,.28,0a3.44,3.44,0,0,0,1.18-1.29A9.31,9.31,0,0,0,62,67.53c.25-.44.65-.77.44-.92,0,0,.53.08.61.38s0,.32-.19.55a3.79,3.79,0,0,1-.65.8c-.11.11-.07.38-.27.8S60.83,70.79,60.11,70.64Z"/><path class="cls-14" d="M60.42,68.33l.12,0a0,0,0,0,1,.05,0s0,0,0,0h0l-.13,0a1.28,1.28,0,0,0-.27.11s0,0-.05,0,0,0,0-.05"/><path class="cls-14" d="M60.51,67.89h0a2.22,2.22,0,0,0-.41.2s0,0,0,0,0,0,0,0a2.1,2.1,0,0,1,.42-.22,0,0,0,0,1,0,.07Z"/><path class="cls-14" d="M60.44,67.59h0l-.08,0a1.89,1.89,0,0,0-.44.14s0,0-.06,0a0,0,0,0,1,0,0,1.86,1.86,0,0,1,.47-.15h.07a0,0,0,0,1,.05,0A0,0,0,0,1,60.44,67.59Z"/><path class="cls-11" d="M68.37,47.58a2.28,2.28,0,0,0-.73.27,3.58,3.58,0,0,1-.59.44,1.69,1.69,0,0,1-.42-.38c0-.08.88-.45.85-.49s-.12-.66.06-.68a2.79,2.79,0,0,1,.78.29l.09.42Z"/><path class="cls-14" d="M69.91,47.38s-.11.22-.28.24-.86-.14-.91-.13a4.47,4.47,0,0,1-.45.09c-.08,0-.48-.66-.62-.68s.16.47.08.51c-.25.12-.54.54-.88.43s-.28-.45-.55-.48-.44.23-.66.14a.36.36,0,0,1-.14-.13c0-.47,0-.94,0-1.42l.08-.28.34,0,.86.32,1.24.19.63.11.86.45Z"/><path class="cls-12" d="M70,47.24s-.08.21-.14.22,0-.26-.05-.28a3.66,3.66,0,0,0-1.55-.82,10.47,10.47,0,0,0-1.75-.21c-.49-.12-.91-.43-1-.2,0,0,0-.53.22-.68s.31,0,.58,0a3.37,3.37,0,0,1,.93.43c.14.08.38,0,.84.06S70,46.5,70,47.24Z"/><path class="cls-14" d="M67.72,47.51l-.07-.11s0,0,0,0h0l0,0,.07.11a1,1,0,0,0,.18.23s0,0,0,.06a0,0,0,0,1-.06,0"/><path class="cls-14" d="M67.27,47.53l0,0a1.87,1.87,0,0,0,.29.34s0,0,0,.06h-.06a2.11,2.11,0,0,1-.31-.36,0,0,0,0,1,0-.06Z"/><path class="cls-14" d="M67,47.67l0,0,0,.07a1.84,1.84,0,0,0,.24.39,0,0,0,0,1,0,.06s0,0-.06,0a2.33,2.33,0,0,1-.25-.42l0-.07a0,0,0,0,1,0,0A0,0,0,0,1,67,47.67Z"/><path class="cls-14" d="M64.19,38.2c-.59-1.41-3,.55-3,.55s-.77-3-2.08-2.21,1.44,4.16,1.44,4.16S64.77,39.6,64.19,38.2Z"/><path class="cls-14" d="M45.52,21.49c-.89-1-2.39,1.31-2.39,1.31s-1.5-2.35-2.39-1.31,2.39,3.15,2.39,3.15S46.41,22.52,45.52,21.49Z"/><path class="cls-14" d="M40.07,25.88c-2.2-.3-.69,5.09-.69,5.09s-5.17-2.15-5.13.07,8.09,2.82,8.09,2.82S42.28,26.18,40.07,25.88Z"/></svg>