<svg xmlns="http://www.w3.org/2000/svg" xmlns:xlink="http://www.w3.org/1999/xlink" viewBox="0 0 100 100"><defs><style>.cls-1,.cls-30,.cls-31,.cls-33,.cls-34,.cls-45{fill:none;}.cls-2{isolation:isolate;}.cls-3{clip-path:url(#clip-path);}.cls-10,.cls-4,.cls-5,.cls-6,.cls-7,.cls-8,.cls-9{mix-blend-mode:multiply;}.cls-10,.cls-4,.cls-7{opacity:0.3;}.cls-4{fill:url(#radial-gradient);}.cls-5,.cls-6,.cls-8,.cls-9{opacity:0.15;}.cls-5{fill:url(#radial-gradient-2);}.cls-6{fill:url(#radial-gradient-3);}.cls-7{fill:url(#radial-gradient-4);}.cls-8{fill:url(#radial-gradient-5);}.cls-9{fill:url(#radial-gradient-6);}.cls-10{fill:url(#radial-gradient-7);}.cls-11{clip-path:url(#clip-path-2);}.cls-12{fill:#f7a8b7;}.cls-13{fill:url(#Degradado_sin_nombre_12);}.cls-14{fill:url(#Degradado_sin_nombre_44);}.cls-15{fill:#9790c6;stroke:#d8d3e9;}.cls-15,.cls-30,.cls-31,.cls-33,.cls-34,.cls-38,.cls-45{stroke-miterlimit:10;}.cls-15,.cls-31{stroke-width:0.11px;}.cls-16{fill:#a9dac4;}.cls-17{clip-path:url(#clip-path-3);}.cls-18{fill:#1e9a8b;}.cls-19{fill:#188578;}.cls-20{fill:#f26e86;}.cls-21{fill:#ce5d72;}.cls-22{fill:#27245e;}.cls-23{fill:#1e1c4d;}.cls-24{fill:#ed96b2;}.cls-25{fill:#d688a1;}.cls-26{fill:#db8ba4;}.cls-27{fill:#fff;}.cls-28{fill:#f1f0f0;}.cls-29{fill:#ae6e83;}.cls-30,.cls-31,.cls-38,.cls-45{stroke:#fff;}.cls-30,.cls-38{stroke-width:0.43px;}.cls-31,.cls-33,.cls-34,.cls-45{stroke-linecap:round;}.cls-32{fill:#c82f65;}.cls-33{stroke:#292c72;stroke-width:0.54px;}.cls-34{stroke:#9b448e;stroke-width:0.65px;}.cls-35{fill:#e499a6;}.cls-36{fill:url(#Degradado_sin_nombre_12-2);}.cls-37{fill:url(#Degradado_sin_nombre_71);}.cls-38{fill:#c8bede;}.cls-39{clip-path:url(#clip-path-4);}.cls-40{fill:#e490aa;}.cls-41{fill:#b270af;}.cls-42{fill:#ac6aac;}.cls-43{fill:#d587a0;}.cls-44{fill:#cd94bc;}.cls-45{stroke-width:0.22px;}.cls-46{clip-path:url(#clip-path-5);}</style><clipPath id="clip-path"><rect class="cls-1" x="4.49" y="19.97" width="91.45" height="54.03"/></clipPath><radialGradient id="radial-gradient" cx="20.11" cy="31.42" r="9.59" gradientUnits="userSpaceOnUse"><stop offset="0" stop-color="#efa8b9"/><stop offset="1" stop-color="#f27594"/></radialGradient><radialGradient id="radial-gradient-2" cx="36.56" cy="26.45" r="4.92" xlink:href="#radial-gradient"/><radialGradient id="radial-gradient-3" cx="82.22" cy="28.68" r="4.92" xlink:href="#radial-gradient"/><radialGradient id="radial-gradient-4" cx="48.84" cy="31.83" r="3.74" xlink:href="#radial-gradient"/><radialGradient id="radial-gradient-5" cx="11.48" cy="42.8" r="3.81" xlink:href="#radial-gradient"/><radialGradient id="radial-gradient-6" cx="52.27" cy="23.88" r="1.67" xlink:href="#radial-gradient"/><radialGradient id="radial-gradient-7" cx="85.18" cy="49.38" r="9.68" xlink:href="#radial-gradient"/><clipPath id="clip-path-2"><rect class="cls-1" x="8.32" y="19.97" width="81.04" height="54.03"/></clipPath><linearGradient id="Degradado_sin_nombre_12" x1="20.11" y1="78.38" x2="51.24" y2="88.53" gradientTransform="translate(-5.58 -33.98)" gradientUnits="userSpaceOnUse"><stop offset="0" stop-color="#595b5a"/><stop offset="0.07" stop-color="#4c4d4c"/><stop offset="0.19" stop-color="#3c3d3c"/><stop offset="0.32" stop-color="#333332"/><stop offset="0.49" stop-color="#30302f"/><stop offset="0.71" stop-color="#2d2d2c"/><stop offset="0.89" stop-color="#242422"/><stop offset="1" stop-color="#191917"/></linearGradient><linearGradient id="Degradado_sin_nombre_44" x1="35.39" y1="69.48" x2="35.39" y2="111.15" gradientTransform="translate(-5.58 -33.98)" gradientUnits="userSpaceOnUse"><stop offset="0" stop-color="#bfdce2"/><stop offset="0.53" stop-color="#6cb5c0"/><stop offset="1" stop-color="#4aa8b0"/></linearGradient><clipPath id="clip-path-3"><rect class="cls-1" x="18.28" y="36.71" width="23.09" height="18.2" rx="0.73" transform="translate(-16.18 75.35) rotate(-89.63)"/></clipPath><linearGradient id="Degradado_sin_nombre_12-2" x1="43.26" y1="238.23" x2="74.57" y2="248.43" gradientTransform="translate(8.89 -199.11)" xlink:href="#Degradado_sin_nombre_12"/><linearGradient id="Degradado_sin_nombre_71" x1="58.62" y1="230.74" x2="58.62" y2="267.98" gradientTransform="translate(8.89 -199.11)" gradientUnits="userSpaceOnUse"><stop offset="0" stop-color="#e7bed7"/><stop offset="0.5" stop-color="#d285af"/><stop offset="1" stop-color="#d07eae"/></linearGradient><clipPath id="clip-path-4"><rect class="cls-1" x="58.02" y="28.95" width="18.96" height="20.3" rx="0.7" transform="translate(-0.08 0.14) rotate(-0.12)"/></clipPath><clipPath id="clip-path-5"><rect class="cls-1" x="8.32" y="19.97" width="89.67" height="57.74"/></clipPath></defs><g class="cls-2"><g id="Layer_1" data-name="Layer 1"><g class="cls-3"><path class="cls-4" d="M21.38,22.55a5.32,5.32,0,0,0-2.67,5A5.32,5.32,0,0,0,13,27c-2.62,1.4-3.46,4.91-1.9,7.84,2.95,5.53,14.63,6,14.63,6s6.4-9.45,3.18-15.5C27.38,22.42,24,21.16,21.38,22.55Z"/><path class="cls-5" d="M39.43,22.55a2.68,2.68,0,0,0-2.63,1.17,2.69,2.69,0,0,0-2.08-2,2.9,2.9,0,0,0-3.19,2.54c-.55,3.12,4,6.94,4,6.94S41,29.43,41.58,26A2.89,2.89,0,0,0,39.43,22.55Z"/><path class="cls-6" d="M84.14,24A2.69,2.69,0,0,0,82,25.9a2.69,2.69,0,0,0-2.6-1.25,2.89,2.89,0,0,0-2.24,3.4c.45,3.13,5.93,5.37,5.93,5.37s4.66-3.4,4.16-6.83A2.9,2.9,0,0,0,84.14,24Z"/><path class="cls-7" d="M50.82,28.5a2.07,2.07,0,0,0-1.91,1.11,2.05,2.05,0,0,0-1.74-1.35A2.21,2.21,0,0,0,45,30.44c-.16,2.42,3.58,5,3.58,5s4-1.79,4.2-4.44A2.21,2.21,0,0,0,50.82,28.5Z"/><path class="cls-8" d="M13.85,40.05a2.1,2.1,0,0,0-2.1.76,2.1,2.1,0,0,0-1.49-1.66,2.24,2.24,0,0,0-2.61,1.78c-.6,2.37,2.67,5.58,2.67,5.58s4.33-1.06,5-3.66A2.25,2.25,0,0,0,13.85,40.05Z"/><path class="cls-9" d="M53.3,22.67a.92.92,0,0,0-.92.34.91.91,0,0,0-.65-.73,1,1,0,0,0-1.14.78c-.26,1,1.17,2.44,1.17,2.44s1.89-.46,2.18-1.6A1,1,0,0,0,53.3,22.67Z"/><path class="cls-10" d="M91.74,43.57a5.32,5.32,0,0,0-5.56,1.29,5.31,5.31,0,0,0-3.28-4.67c-2.76-1.06-6,.61-7.16,3.71-2.23,5.85,5.08,15,5.08,15s11.32-1.38,13.77-7.78C95.78,48,94.5,44.62,91.74,43.57Z"/></g><g class="cls-11"><path class="cls-12" d="M41.14,46.59a7.21,7.21,0,0,0-1,.07l-.75.12h-.12l-.09,0h0l-.15,0a5,5,0,0,1-.56.1h0l-.07,0c-1.13.21-2.28.39-3.39.57l-2.15.34c-1.26.21-2.29.41-3.26.64-.54.12-1.08.26-1.62.41s-.89.26-1.44.44a24.23,24.23,0,0,0-4.67,2,12.77,12.77,0,0,0-2,1.45,9.4,9.4,0,0,0-1.65,1.86,6.17,6.17,0,0,0-.32.53c-.09.15-.17.3-.25.45l-.12.22c-.22.42-.45.83-.67,1.24l-.08.14c-.48.88-1,1.82-1.47,2.78s-.94,2-1.29,2.85c-.19.48-.37,1-.52,1.45a12.25,12.25,0,0,0-.41,1.5,21.11,21.11,0,0,0-.35,2.73c0,.29,0,.58-.07.87,0,.62-.09,1.26-.15,1.89-.05.38-.1.77-.17,1.19l-.21,1.24c-.16.93-.32,1.76-.48,2.53a33.34,33.34,0,0,1-1.43,5,.69.69,0,0,1,0,.1.16.16,0,0,0,0,.1.18.18,0,0,0,.07.08l.06,0h0a.18.18,0,0,0,.09-.06v0a4.45,4.45,0,0,1,.53,0h.29c.37,0,.75.09,1.11.15a10.29,10.29,0,0,0,1.36.15H15.6a32.11,32.11,0,0,0,4.21-.31,16.36,16.36,0,0,0,1.64-.33,8.93,8.93,0,0,0,1.27-.45h0l.07,0a13.44,13.44,0,0,0,2.09-1.72l1-.92c.34-.31.67-.63,1-1a15.29,15.29,0,0,0,1.75-2.15,6.7,6.7,0,0,0,.36-.59,4.94,4.94,0,0,0,.3-.61,6.63,6.63,0,0,0,.35-1.21,11,11,0,0,0,.17-1.13v0c.05-.39.1-.8.17-1.2a13.29,13.29,0,0,1,.73-2.53h0v0a23,23,0,0,1,1.13-2.38l.69.25.75.32h0a24.83,24.83,0,0,1,4.26,2.51l.76.56.08.06c.18.15.37.3.57.44a6.37,6.37,0,0,0,1.58.92,2.21,2.21,0,0,0,.77.14h.05a1.38,1.38,0,0,0,.69-.19,1,1,0,0,0,.35-.31.84.84,0,0,0,.14-.42,1.16,1.16,0,0,0,0-.44,2.64,2.64,0,0,0-.19-.5,6.05,6.05,0,0,0-.69-1c-.26-.32-.55-.65-.92-1s-.59-.59-1-.91L39,64.84l-.38-.33-.76-.65c-1.53-1.32-2.66-2.36-3.67-3.37A33.38,33.38,0,0,1,31.89,58a8.33,8.33,0,0,1,1.21.15,12.78,12.78,0,0,1,3.11,1h0a21.8,21.8,0,0,1,2.06,1.14c.57.36,1.16.76,1.76,1.19.22.15.45.32.69.46a3.7,3.7,0,0,0,.81.39,1.6,1.6,0,0,0,.55.1,1,1,0,0,0,.25,0,1,1,0,0,0,.68-.49,1.71,1.71,0,0,0-.15-1.75,8.06,8.06,0,0,0-.46-.76c-.17-.26-.37-.56-.59-.87a16.69,16.69,0,0,0-3-3.23,11.89,11.89,0,0,0-1.83-1.22c-.34-.19-.7-.35-1-.5a7.58,7.58,0,0,0-1-.37l.74-.26c.75-.28,1.52-.61,2.3-1l1.1-.53,1-.54a9.85,9.85,0,0,0,1.53-1,5.52,5.52,0,0,0,.63-.65l.11-.13a2.82,2.82,0,0,0,.42-.56,1.45,1.45,0,0,0,.21-.67,1.17,1.17,0,0,0-.17-.66,1.53,1.53,0,0,0-1.09-.6,5,5,0,0,0-.57,0"/></g><rect class="cls-13" x="18.62" y="29.57" width="22.38" height="39.61" rx="1.4" transform="translate(0.32 -0.19) rotate(0.37)"/><rect class="cls-14" x="19.37" y="33.3" width="20.88" height="32.15" rx="0.92" transform="translate(0.32 -0.19) rotate(0.37)"/><path class="cls-15" d="M33.74,31.39a.44.44,0,0,1-.44.44.44.44,0,1,1,.44-.44Z"/><path class="cls-15" d="M30.75,67.33a1.06,1.06,0,1,1-2.12,0,1.06,1.06,0,0,1,2.12,0Z"/><path class="cls-15" d="M31.92,31.8l-4,0a.38.38,0,0,1-.39-.39h0a.38.38,0,0,1,.39-.38l4,0a.4.4,0,0,1,.39.39h0A.4.4,0,0,1,31.92,31.8Z"/><rect class="cls-16" x="18.28" y="36.71" width="23.09" height="18.2" rx="0.73" transform="translate(-16.18 75.35) rotate(-89.63)"/><g class="cls-17"><path class="cls-18" d="M26.07,46.12l-.05,0L25.88,46l-.13,0a.78.78,0,0,0-.52.15,2.28,2.28,0,0,0-.47.46,7.48,7.48,0,0,0-.85,1.5,27.59,27.59,0,0,0-1.27,3.38,4.82,4.82,0,0,0-.1-.57A2.49,2.49,0,0,0,22,49.69l-.15-.14a1,1,0,0,0-.32-.15,1,1,0,0,0-.54,0,2.06,2.06,0,0,0-.59.38,3.14,3.14,0,0,0-.49.59,4.61,4.61,0,0,0-.56,1.41,8.3,8.3,0,0,0-.2,1.73,11.14,11.14,0,0,0,.09,1.81,10.65,10.65,0,0,0,.28,1.47.41.41,0,0,0,.08.31c.29.33.6.66,1,1a9.75,9.75,0,0,0,1,.87l.08.06a3.32,3.32,0,0,0,1.12.53,1.76,1.76,0,0,0,1.16-.1,2.43,2.43,0,0,0,.89-.74,5.63,5.63,0,0,0,.5-.86,15.39,15.39,0,0,0,.91-2.55,26.62,26.62,0,0,0,.65-3.08,19.59,19.59,0,0,0,.22-2.93,8.13,8.13,0,0,0-.1-1.18,5.81,5.81,0,0,0-.28-1.09,2.94,2.94,0,0,0-.41-.78,1.57,1.57,0,0,0-.19-.18"/><path class="cls-19" d="M25.54,47.08c-.06,0-.12,0-.13.11a26.23,26.23,0,0,1-.53,3.69v-.05a80.14,80.14,0,0,1-2.25,8c-.08.24-.15.49-.23.74a.42.42,0,0,0,.12.42c.12.09.25,0,.3-.12.11-.31.22-.64.32-1s.21-.64.32-1c.2-.65.4-1.31.59-2,.38-1.33.72-2.7,1-4.1.14-.73.27-1.47.36-2.23s.17-1.55.22-2.33a.19.19,0,0,0-.07-.17h0"/><path class="cls-19" d="M21.36,51c-.06,0-.13,0-.14.13a15,15,0,0,0,0,1.89,16.48,16.48,0,0,0,.31,2c.13.65.29,1.28.47,1.91a13.76,13.76,0,0,0,.68,1.83c.06.14.2.18.28.1a.3.3,0,0,0,.08-.17v-.07a.33.33,0,0,0,0-.14c-.12-.33-.25-.66-.38-1s-.26-.71-.38-1.07a16.52,16.52,0,0,1-.57-2.2,14,14,0,0,1-.26-2.58v0c0-.14,0-.29,0-.44a.23.23,0,0,0-.07-.18l0,0m.34,3.15v0M23,58.43h0m-1.59-6.8v0"/><path class="cls-19" d="M23.78,49.88s-.07,0-.08.07a11.41,11.41,0,0,0,0,2.19c0,.36.08.72.14,1.08a7.15,7.15,0,0,0,.26,1.11.16.16,0,0,0,.06.08.08.08,0,0,0,.08,0,.1.1,0,0,0,.05-.06.21.21,0,0,0,0-.11l-.15-.61c0-.2-.09-.4-.12-.6a10.73,10.73,0,0,1-.19-2v0c0-.35,0-.7.05-1a.11.11,0,0,0,0-.11h0m0,1.15h0"/><path class="cls-19" d="M24.76,47.79s-.06.05-.06.1A15,15,0,0,0,25,50.2a.13.13,0,0,0,.05.07,0,0,0,0,0,.06,0,.07.07,0,0,0,0-.05.28.28,0,0,0,0-.09l-.09-.42v0c-.05-.3-.1-.6-.13-.9s-.07-.64-.08-1a.14.14,0,0,0-.05-.08h0"/><path class="cls-19" d="M26.32,48.43s0,0,0,0a.54.54,0,0,0-.05.11v0a9.81,9.81,0,0,1-1,1.64.12.12,0,0,0,0,.14.06.06,0,0,0,.1,0c.2-.28.38-.56.56-.86a10.12,10.12,0,0,0,.47-.93.06.06,0,0,0,0-.06.09.09,0,0,0,0-.05h0"/><path class="cls-19" d="M25.87,51.39c-.11.3-.23.59-.36.88v0a8.34,8.34,0,0,1-.47.89,5.92,5.92,0,0,1-.53.75h0l-.09.1a.2.2,0,0,0,0,.21.16.16,0,0,0,.07.07.11.11,0,0,0,.08,0A5.52,5.52,0,0,0,25.38,53a15.72,15.72,0,0,0,.64-1.5.14.14,0,0,0,0-.14.07.07,0,0,0-.11,0m-1.36,2.5h0"/><path class="cls-19" d="M25.1,56.38a11,11,0,0,1-.77,1.08,5.43,5.43,0,0,1-1.17,1l-.12.07a.12.12,0,0,0-.06.08.19.19,0,0,0,0,.13.17.17,0,0,0,.06.1l.07,0,.05,0a4,4,0,0,0,.57-.45,5.73,5.73,0,0,0,.54-.56,10.89,10.89,0,0,0,1-1.32.15.15,0,0,0,0-.17s0,0,0,0a.06.06,0,0,0-.09,0m-.76,1.06h0"/><path class="cls-18" d="M36.46,42.81a1.42,1.42,0,0,1,.35,0,2.5,2.5,0,0,1,.49.1,2.45,2.45,0,0,1,.81.47,3.49,3.49,0,0,1,.61.74,5.13,5.13,0,0,1,.45.94,9.85,9.85,0,0,1,.52,2.11c.08.54.14,1.13.19,1.89v.11a0,0,0,0,1,0,0h0v0a.07.07,0,0,1,0,.09h0s-.06,0-.07,0a2,2,0,0,0-.1-.26l-.12-.25a3.77,3.77,0,0,0-.26-.48h0a13.36,13.36,0,0,0-1.47-1.86l-.12-.14c-.4-.46-.72-.84-1-1.22a7,7,0,0,1-.5-.75,2.93,2.93,0,0,1-.32-.69,1.18,1.18,0,0,1,0-.31.66.66,0,0,1,0-.25A1,1,0,0,1,36,43L36,43l.07,0,.12-.06.17,0h.08"/><path class="cls-19" d="M37.17,43.69a11.22,11.22,0,0,1,.9,1.27c.29.46.54.93.78,1.41a16.11,16.11,0,0,1,.64,1.48q.15.38.27.75c.09.26.16.52.23.78a1.6,1.6,0,0,1,0,.21l0,.11a.5.5,0,0,0,0,.12.13.13,0,0,1,0,.06A.11.11,0,0,1,40,50H39.9a.12.12,0,0,1-.07-.07l0-.09,0-.09-.06-.19c0-.12-.07-.25-.11-.37s-.15-.51-.23-.76-.15-.52-.24-.77-.18-.51-.28-.76A12.65,12.65,0,0,0,38,45h0a10,10,0,0,0-.87-1.28,0,0,0,0,1,0,0h0l0,0"/><path class="cls-18" d="M35.08,46.12a.79.79,0,0,1,.33,0,2.14,2.14,0,0,1,.59.26,5.93,5.93,0,0,1,.64.45c.22.17.44.36.68.58.42.4.83.84,1.26,1.34.19.21.35.41.51.62l.38.5c.07.11.14.22.2.33v0l0,0h0s0,0-.06,0l0,0L39.16,50a1.91,1.91,0,0,0-.21-.14,2.53,2.53,0,0,0-.29-.14l-.37-.16-.57-.22-.34-.14c-.27-.1-.63-.25-1-.41a8,8,0,0,1-.93-.47,3.65,3.65,0,0,1-.71-.55,1.14,1.14,0,0,1-.33-.63.91.91,0,0,1,0-.17l0-.17a1.75,1.75,0,0,1,.1-.3.87.87,0,0,1,.17-.21.62.62,0,0,1,.19-.12l.18,0"/><path class="cls-19" d="M35.31,47.13h0l0,0s0,0,0,0c.46.26.91.51,1.36.78h0l.6.37.58.39a8.15,8.15,0,0,1,1.06.9l0,0c.1.1.2.21.29.32a2.78,2.78,0,0,1,.27.33,6.84,6.84,0,0,1,.47.72A.17.17,0,0,0,40,51a.19.19,0,0,0,.1,0,.13.13,0,0,0,0-.16,2.77,2.77,0,0,0-.26-.48,4.75,4.75,0,0,0-.43-.55l-.26-.27-.26-.23a8.35,8.35,0,0,0-1.13-.82c-.41-.25-.83-.48-1.25-.7l-.62-.32-.6-.33m1.34.84h0"/><path class="cls-20" d="M23,40.09h.07l.09,0a.24.24,0,0,1,.09.06.58.58,0,0,1,.12.14.71.71,0,0,1,.06.19,1.13,1.13,0,0,1,0,.42,3,3,0,0,1-.06.38,2.53,2.53,0,0,1-.15.47c-.07.17-.16.34-.25.51a5.4,5.4,0,0,1-.71.94,7,7,0,0,1-.88.81,9.49,9.49,0,0,1-1,.65l-.36.21H20s0,0,0,0a0,0,0,0,1,0,0,2,2,0,0,0,.13-.25l0,0,.15-.29.26-.6h0l.21-.53.15-.35v0a2.63,2.63,0,0,1,.15-.35,8.61,8.61,0,0,1,.59-1.18,4.27,4.27,0,0,1,.49-.68,1.91,1.91,0,0,1,.34-.31l.18-.1a.7.7,0,0,1,.19-.06H23"/><path class="cls-21" d="M23.05,40.46h0q-.18.44-.39.84h0c-.11.22-.24.44-.37.66s-.22.36-.34.54-.25.35-.37.52l-.2.26a2.43,2.43,0,0,0-.2.25l-.21.24-.2.22h0c-.17.19-.35.37-.54.55a3.45,3.45,0,0,1-.28.26,1.85,1.85,0,0,0-.14.14l-.08.07-.06.06a.09.09,0,0,0,0,.13.07.07,0,0,0,.06,0,.06.06,0,0,0,.07,0l.09-.06.09-.07.16-.14c.11-.09.21-.19.31-.29s.42-.43.61-.65l.39-.51c.13-.17.25-.35.37-.53a10.88,10.88,0,0,0,.64-1.1h0l.05-.09h0v0h0c.22-.41.41-.84.59-1.27,0,0,0,0,0,0m-.59,1.33h0M20.73,44h0m1.68-2.12h0m.06-.13h0"/><path class="cls-20" d="M21.72,38.76h.06a.37.37,0,0,1,.14.07.55.55,0,0,1,.18.31.67.67,0,0,1,0,.22,1,1,0,0,1,0,.25,2.19,2.19,0,0,1,0,.31,2.12,2.12,0,0,1-.09.31,3.74,3.74,0,0,1-.24.62,5.88,5.88,0,0,1-.57,1,10,10,0,0,1-.66.86h0v0a.07.07,0,0,1-.06,0h0l0,0a0,0,0,0,1,0,0,.77.77,0,0,1,0-.15h0l.09-.86,0-.39A7.16,7.16,0,0,1,20.74,40a3.43,3.43,0,0,1,.22-.59,1.75,1.75,0,0,1,.32-.47.7.7,0,0,1,.17-.13.52.52,0,0,1,.16-.06h.11"/><path class="cls-21" d="M21.73,39.09c0,.19-.07.38-.11.58s-.08.39-.13.58-.1.4-.15.6-.12.4-.19.59a8.52,8.52,0,0,1-.44,1c-.09.16-.18.32-.28.47a2.38,2.38,0,0,1-.34.43v0h0a.09.09,0,0,1-.07,0,.11.11,0,0,1,0-.12l.05-.06.05-.07.1-.15c.07-.09.13-.19.19-.28s.24-.4.35-.6h0l.13-.27c0-.1.09-.19.13-.29s.15-.38.22-.57a12.27,12.27,0,0,0,.35-1.18c0-.15.07-.3.11-.46h0l.06-.27a0,0,0,0,1,0,0h0s0,0,0,0"/><path class="cls-20" d="M21.86,44.79h0l.08,0a.46.46,0,0,1,.07.07l.05.11a1.3,1.3,0,0,1,0,.13,1.11,1.11,0,0,1,0,.19,1.33,1.33,0,0,1,0,.2,1.56,1.56,0,0,1-.08.42,2.69,2.69,0,0,1-.43.85,5.75,5.75,0,0,1-.67.79,6.18,6.18,0,0,1-.78.66,4.69,4.69,0,0,1-.77.47l-.08,0,0,0,0,0h0v0c.12-.19.24-.39.36-.61s.2-.37.32-.62.15-.3.22-.46l.08-.17.16-.32v0l.06-.13.25-.42c.13-.21.25-.39.38-.56l.21-.27.21-.21a1.5,1.5,0,0,1,.2-.14l.09,0h.09"/><path class="cls-21" d="M21.83,45.21h0l-.11.21-.18.34-.14.25-.15.25a2.13,2.13,0,0,0-.16.25l-.17.24-.18.24a2.35,2.35,0,0,1-.19.25l-.37.45h0a9.49,9.49,0,0,1-.72.7c-.12.11-.24.22-.37.32l-.18.16-.09.08,0,0,0,0a.1.1,0,0,0,0,.07.11.11,0,0,0,0,.08s0,0,.07,0h.06l.08,0,.07,0,.16-.11a4.94,4.94,0,0,0,.44-.36,5.92,5.92,0,0,0,.41-.45c.13-.15.25-.31.37-.47s.24-.32.35-.49l.17-.25.16-.26.3-.51.27-.5.25-.49s0,0,0,0m-.14.22h0M20.15,47.7h0"/><path class="cls-20" d="M36.16,50a1.38,1.38,0,0,1,.52.08,1.74,1.74,0,0,1,.53.26,3.81,3.81,0,0,1,.92.89,5.55,5.55,0,0,1,.41.59.61.61,0,0,1,.07.1h0a1.29,1.29,0,0,1,.11-.53.8.8,0,0,1,.13-.19.58.58,0,0,1,.2-.13l.14,0h.09a.8.8,0,0,1,.28.08,1.54,1.54,0,0,1,.49.35,2.35,2.35,0,0,1,.38.47,3.74,3.74,0,0,1,.31.57c.09.19.17.39.25.61a7.33,7.33,0,0,1,.3,1.23.09.09,0,0,1,0,.05,2.93,2.93,0,0,0,0,.37c0,.32-.05.65-.06,1v.18c0,.41,0,.85-.1,1.27a3.06,3.06,0,0,1-.13.56,2,2,0,0,1-.23.51,1.7,1.7,0,0,1-.17.23,1.88,1.88,0,0,1-.2.19,1.54,1.54,0,0,1-.58.27l-.28,0a2.45,2.45,0,0,1-1.13-.24,3.5,3.5,0,0,1-.62-.35,3.24,3.24,0,0,1-.51-.44,1.9,1.9,0,0,1-.31-.45,2.77,2.77,0,0,1-.1-.26,1,1,0,0,1-.06-.26,1.17,1.17,0,0,1,0-.46.77.77,0,0,1,.23-.38l.09-.06.1-.05h0l-.07,0-.21-.09a5,5,0,0,1-.49-.22,5.64,5.64,0,0,1-.55-.28,3.9,3.9,0,0,1-.54-.36,3,3,0,0,1-.45-.42,1.64,1.64,0,0,1-.37-.82,1.1,1.1,0,0,1,0-.31.8.8,0,0,1,.19-.46.78.78,0,0,1,.52-.22,1.94,1.94,0,0,1,.33,0,2.63,2.63,0,0,1,.49.14l.22.09c-.08-.1-.16-.19-.23-.29a4.24,4.24,0,0,1-.27-.44,3.62,3.62,0,0,1-.2-.44,3.16,3.16,0,0,1-.16-.46,3.2,3.2,0,0,1-.08-.48,2,2,0,0,1,0-.24,1.33,1.33,0,0,1,0-.19,1,1,0,0,1,0-.1l.07-.11a.72.72,0,0,1,.36-.24.86.86,0,0,1,.26,0h0"/><path class="cls-21" d="M36,50.54h0a0,0,0,0,0,0,0,9.35,9.35,0,0,1,1,.9h0a9.58,9.58,0,0,1,.67.76c.16.19.31.38.45.58s.29.4.42.61a14.16,14.16,0,0,1,.77,1.29v0q.24.44.45.9a14.81,14.81,0,0,1,1,2.74v0c0,.22.1.43.14.64l.06.31s0,.1,0,.16l0,.14a.14.14,0,0,0,.14.12.13.13,0,0,0,.11-.15,1.64,1.64,0,0,0,0-.22,1.8,1.8,0,0,0,0-.22c0-.14-.05-.29-.08-.44-.06-.31-.14-.61-.22-.91A15,15,0,0,0,39.67,55a14.31,14.31,0,0,0-.77-1.3A14.61,14.61,0,0,0,38,52.51c-.16-.19-.32-.37-.49-.55s-.32-.34-.5-.51c-.33-.32-.68-.62-1-.91m1,.94h0"/><path class="cls-21" d="M35,53.53l.4.26h0l.48.26.54.25.57.22.56.18h0a6.71,6.71,0,0,0,1,.21A3.91,3.91,0,0,0,39,55l.46,0h0a.13.13,0,0,1,.09,0,.12.12,0,0,1,0,.08.19.19,0,0,1,0,.08.12.12,0,0,1-.08,0h-.36l-.35,0-.36-.06c-.13,0-.25-.05-.37-.09a8.27,8.27,0,0,1-1.47-.52l-.45-.22-.42-.23c-.26-.16-.52-.32-.77-.49a0,0,0,0,1,0,0h0"/><path class="cls-21" d="M37.45,57h0a.05.05,0,0,0,0,0,0,0,0,0,0,0,.06l.31.14c.22.09.44.18.66.25s.48.14.72.19a5.87,5.87,0,0,0,.72.08,1.88,1.88,0,0,0,.34,0,.45.45,0,0,0,.16,0l.09,0,.07,0a.11.11,0,0,0,.07-.16.13.13,0,0,0-.06-.07h-.09l-.14,0-.32.06h-.37a4.66,4.66,0,0,1-1.23-.21h0a6.14,6.14,0,0,1-.9-.34m2.14.54h0"/><path class="cls-21" d="M36,51.57a3.28,3.28,0,0,0,.38.27h0a3.26,3.26,0,0,0,.72.31l.29.07.31,0a.05.05,0,0,1,.05,0,.11.11,0,0,1,0,0l0,.06H37.7a1.79,1.79,0,0,1-.46-.09,2.2,2.2,0,0,1-.45-.17,4,4,0,0,1-.41-.23,3.6,3.6,0,0,1-.4-.28s0,0,0-.05l0,0h0"/><path class="cls-21" d="M37.7,51.07s0,0,0,0h0s0,0,0,0,0,.15.05.23h0a3,3,0,0,1,0,.31,2.44,2.44,0,0,1,0,.27h0a.77.77,0,0,1,0,.15.51.51,0,0,1,0,.17.06.06,0,0,0,0,.06.06.06,0,0,0,.07,0,1.53,1.53,0,0,0,0-.3,1.38,1.38,0,0,0,0-.29,3.71,3.71,0,0,0-.11-.58m0,.83h0"/><path class="cls-21" d="M39.74,51.64l0,0h0a.05.05,0,0,0,0,.05c.06.19.1.38.14.57h0c0,.22.06.44.07.66s0,.22,0,.34,0,.21,0,.32a4,4,0,0,1-.23,1c0,.07,0,.14-.07.21a1.43,1.43,0,0,0-.08.22.09.09,0,0,0,.07.11.11.11,0,0,0,.08,0l0,0a1,1,0,0,0,.13-.28.76.76,0,0,0,.06-.2,1.05,1.05,0,0,0,0-.19c0-.13,0-.26.07-.39s0-.27,0-.4a1.48,1.48,0,0,0,0-.21v-.19a5.29,5.29,0,0,0-.09-.8,7.25,7.25,0,0,0-.17-.78m.11,1.93h0m-.05-1.33h0"/><path class="cls-21" d="M41,54.77a0,0,0,0,0,0,0s0,0,0,0c0,.17,0,.33,0,.5a2.44,2.44,0,0,1,0,.27c0,.08,0,.17,0,.25s0,.19,0,.29l-.06.3c0,.1,0,.2-.07.29l-.09.26c0,.09-.07.17-.1.25s-.07.18-.1.27a.14.14,0,0,0,0,.09.12.12,0,0,0,.07.07.09.09,0,0,0,.09,0,.13.13,0,0,0,.07-.06l.09-.13.06-.15c0-.1.06-.19.08-.29a4.58,4.58,0,0,0,.1-.63h0c0-.07,0-.14,0-.22a1.21,1.21,0,0,0,0-.19v-.41l0-.4c0-.13,0-.25,0-.38m.06,1.59h0"/><path class="cls-22" d="M32.15,35.84h0a2.53,2.53,0,0,0-.59.08.08.08,0,0,0,0,0s0,0,0,0l0,.05a1.11,1.11,0,0,0-.07.26,1.28,1.28,0,0,0,0,.34,1.68,1.68,0,0,0,.25.61,2.75,2.75,0,0,0,.23.33c.06.1.13.19.19.28a6.3,6.3,0,0,1,.37.69A11.26,11.26,0,0,1,33,39.8c.07.24.13.45.18.64s.1.46.14.71v0c0,.32.09.66.11,1a.08.08,0,0,0,.08.07l.06,0,0,0a3.17,3.17,0,0,0,.28-.36,2.72,2.72,0,0,0,.2-.35,4,4,0,0,0,.3-.73,5.05,5.05,0,0,0,.18-1.57,5.63,5.63,0,0,0-.09-.79,6,6,0,0,0-.19-.76,3.09,3.09,0,0,0-.67-1.13,2.08,2.08,0,0,0-.4-.32,2.26,2.26,0,0,0-.47-.22,2.19,2.19,0,0,0-.53-.07"/><path class="cls-22" d="M25.26,39.5l-.17,0a1.07,1.07,0,0,0-.24.12l-.13.09a.07.07,0,0,0,0-.08h0a.07.07,0,0,0-.07.06,2.66,2.66,0,0,0-.14.66,3.22,3.22,0,0,0,0,.68,3.28,3.28,0,0,0,.19.66,3.29,3.29,0,0,0,1.26,1.54h0a.08.08,0,0,0,.06,0v0l.05,0,0,0c0-.17,0-.34,0-.5s0-.51,0-.77,0-.61-.06-.87a3.58,3.58,0,0,0-.17-.8,1.93,1.93,0,0,0-.13-.32,1.06,1.06,0,0,0-.17-.23.59.59,0,0,0-.23-.13h-.11"/><path class="cls-23" d="M32.67,35.94a1,1,0,0,1,.19.12,1.93,1.93,0,0,1,.33.31,3.08,3.08,0,0,1,.49.84,6.14,6.14,0,0,1,.3,1,9,9,0,0,1,.14,1c0,.3,0,.6,0,.91v.06h0a.38.38,0,0,0,0,.1v0a3,3,0,0,1,0,.42,3.18,3.18,0,0,1-.06.43l-.06.22a.25.25,0,0,1,0,.07l0,.09.09-.16a4.83,4.83,0,0,0,.29-.73,4.77,4.77,0,0,0,.18-1.57,5.31,5.31,0,0,0-.09-.79,4.45,4.45,0,0,0-.19-.76,3,3,0,0,0-.67-1.13,2.6,2.6,0,0,0-.4-.33,1.82,1.82,0,0,0-.47-.21l-.13,0,.12.06"/><path class="cls-23" d="M25.09,39.52a.77.77,0,0,0-.24.12l-.13.09a.07.07,0,0,0,0-.08h0a.1.1,0,0,0-.08.05,2.94,2.94,0,0,0-.13.67v.05a.83.83,0,0,0,.22,0h0l.47,0,.45,0h0a2,2,0,0,0,.35-.08h0c0-.06,0-.11,0-.16a1.61,1.61,0,0,0-.14-.32.86.86,0,0,0-.17-.23.49.49,0,0,0-.23-.13h-.11a.5.5,0,0,0-.17,0"/><path class="cls-24" d="M30.71,46.35a2.1,2.1,0,0,0-.57.08l-.22.06-.06,0-.3.1a2.8,2.8,0,0,0-.52.24,1,1,0,0,0-.2.16,1.78,1.78,0,0,0-.06-.44s0-.06-.07-.06h0a.08.08,0,0,0-.05.09,1.48,1.48,0,0,1,0,.19,1.81,1.81,0,0,1,0,.4v0a2.17,2.17,0,0,1-.07.24.82.82,0,0,1-.12.2,1.21,1.21,0,0,1-.16.16,1.36,1.36,0,0,1-.24.13h0a1.29,1.29,0,0,1-.35.1l0,0a.08.08,0,0,0,0,.09,9.72,9.72,0,0,0,.83,2.47,4.59,4.59,0,0,0,.76,1,3.2,3.2,0,0,0,.51.4,2.38,2.38,0,0,0,.6.29,2.08,2.08,0,0,0,.74.15,1.23,1.23,0,0,0,.44-.07.92.92,0,0,0,.23-.09l.21-.14a1.52,1.52,0,0,0,.33-.37,3.39,3.39,0,0,0,.24-.47,4.14,4.14,0,0,0,.25-1.1l0-.29a1.93,1.93,0,0,0,0-.24v-.06a2.09,2.09,0,0,1,0-.25c0-.21,0-.42,0-.63a2.76,2.76,0,0,0-.09-.86v0a.1.1,0,0,0-.05-.06,2,2,0,0,1-.41-.12.93.93,0,0,1-.26-.15,1.06,1.06,0,0,1-.15-.15.78.78,0,0,1-.11-.2,1.32,1.32,0,0,1-.08-.3,2.75,2.75,0,0,1,0-.42,0,0,0,0,0,0,0l-.05,0a.07.07,0,0,0-.07.07,1,1,0,0,0,0,.25l0,0a1.07,1.07,0,0,0-.22-.2.89.89,0,0,0-.26-.11,1.21,1.21,0,0,0-.3,0h0"/><path class="cls-25" d="M30.14,46.43l-.22.06-.06,0-.3.1a2.8,2.8,0,0,0-.52.24,1.37,1.37,0,0,0-.21.15,1.83,1.83,0,0,0,0-.44.08.08,0,0,0-.08-.05h0a.07.07,0,0,0-.05.09l0,.19a1.81,1.81,0,0,1,0,.4v0a1.05,1.05,0,0,1-.06.24l-.06.11.11,0a1.72,1.72,0,0,0,.29.11,1.37,1.37,0,0,0,.29.07h0a3.31,3.31,0,0,0,.89,0h0a4,4,0,0,0,1-.23h0a3.52,3.52,0,0,0,.67-.34.05.05,0,0,1,0,0,1.32,1.32,0,0,1-.08-.3,2.84,2.84,0,0,1,0-.42.08.08,0,0,0,0,0,.09.09,0,0,0-.06,0s-.07,0-.08.08v.25s0,0,0,0a1,1,0,0,0-.21-.2,1.09,1.09,0,0,0-.27-.11.85.85,0,0,0-.29,0h-.05a1.77,1.77,0,0,0-.57.08m1,1.17Z"/><path class="cls-24" d="M22,53a.07.07,0,0,0-.06,0c-.11.13-.21.26-.32.41l0,0a0,0,0,0,0,0,0,8.37,8.37,0,0,0-.53.89c-.16.31-.31.63-.46.93s-.17.37-.26.56-.27.57-.38.82-.24.56-.35.86c-.21.56-.4,1.15-.56,1.75l-.15.59,0,0c0,.1,0,.2,0,.3a1.67,1.67,0,0,0,.06.29,2.08,2.08,0,0,0,.25.55,2.22,2.22,0,0,0,.4.47,1.87,1.87,0,0,0,.49.34,1.84,1.84,0,0,0,.74.19h.13a1.36,1.36,0,0,0,.44-.11,1.32,1.32,0,0,0,.2-.12,1.46,1.46,0,0,0,.21-.16.14.14,0,0,0,0-.06v0c.54-1,1.12-2,1.75-3,.15-.26.3-.48.44-.71.47-.71.92-1.34,1.39-1.92a.09.09,0,0,0,0-.11h-.05l-.06,0a.53.53,0,0,0,0-.21,1.2,1.2,0,0,0-.15-.37,2,2,0,0,0-.26-.38,5.24,5.24,0,0,0-.75-.73,7.23,7.23,0,0,0-.85-.6c-.13-.07-.24-.14-.36-.19a1.82,1.82,0,0,0-.3-.13l-.13,0a.76.76,0,0,0-.21,0h-.09l-.14,0,.06-.06a.07.07,0,0,0,0-.06A.08.08,0,0,0,22,53L22,53"/><path class="cls-24" d="M36.71,51.7h0a.08.08,0,0,0,0,.1,2.12,2.12,0,0,1,.11.21.33.33,0,0,0-.15,0l-.16,0-.16.05-.15.06-.25.14a2.11,2.11,0,0,0-.43.36,1.85,1.85,0,0,0-.32.44,3.52,3.52,0,0,0-.39,1.07,7.28,7.28,0,0,0-.16,1.21c0,.4,0,.8,0,1.2v.06c0,.33,0,.67,0,1v0c0,.51-.08,1-.08,1.56a6.85,6.85,0,0,0,.14,1.66,2.36,2.36,0,0,0,.1.38.64.64,0,0,0,.06.18,1.71,1.71,0,0,0,.07.18.87.87,0,0,0,.19.23.84.84,0,0,0,.25.13l.3.07h0l.28.05c.22,0,.45.06.67.08h.3a3.91,3.91,0,0,0,.61,0,2.24,2.24,0,0,0,.41-.1,1.28,1.28,0,0,0,.29-.13h0s0,0,.05,0,0,0,0,0a12.89,12.89,0,0,0,.05-1.94c0-.77-.06-1.39-.11-1.95s-.14-1.32-.24-2c0-.31-.11-.64-.18-1l0-.27c0-.17-.07-.35-.11-.52-.08-.36-.18-.84-.33-1.31a5.87,5.87,0,0,0-.49-1.2.08.08,0,0,0-.06,0"/><path class="cls-26" d="M21.92,53.05a4.88,4.88,0,0,0-.32.41l0,0,0,0a8.44,8.44,0,0,0-.52.89c-.16.3-.31.61-.45.92h0v0l0,0c-.07.17-.15.33-.23.5s-.27.57-.38.82-.24.57-.35.86c-.21.56-.4,1.15-.56,1.75-.05.18-.1.38-.15.59l0,0a1.5,1.5,0,0,0,0,.3,1.67,1.67,0,0,0,.06.29,1.8,1.8,0,0,0,.25.55.91.91,0,0,0,.11.16,12.3,12.3,0,0,1,.44-1.79,15.58,15.58,0,0,1,.69-1.83c.26-.58.55-1.15.86-1.7l.24-.4c.08-.12.15-.25.23-.38l.48-.77c.22-.34.46-.68.71-1l-.07,0a1.82,1.82,0,0,0-.3-.13l-.13,0a.76.76,0,0,0-.21,0h-.09l-.14,0,.06-.06a.07.07,0,0,0,0-.06A.08.08,0,0,0,22,53L22,53a.06.06,0,0,0-.06,0"/><path class="cls-26" d="M35.45,52.61a2.14,2.14,0,0,0-.32.45,3.52,3.52,0,0,0-.4,1.07,8.86,8.86,0,0,0-.15,1.21c0,.4,0,.82,0,1.19v.07c0,.28,0,.65,0,1v0c0,.48-.08,1-.08,1.56a7.5,7.5,0,0,0,.13,1.66c0,.13.07.26.1.38l.06.18a1.59,1.59,0,0,0,.08.18.71.71,0,0,0,.19.23.84.84,0,0,0,.25.13,1.82,1.82,0,0,0,.29.08h.07c0-.2.09-.4.13-.59s0-.26.08-.39,0-.28.08-.42.1-.56.14-.85h0a19.56,19.56,0,0,0,.18-2.42c0-.4,0-.81,0-1.21s-.06-.8-.11-1.21h0c0-.2,0-.39-.08-.58s0-.31-.08-.46-.11-.61-.18-.91-.09-.38-.14-.57l-.15.15"/><path class="cls-27" d="M32.31,47.58h0a.1.1,0,0,0-.06.1,1.42,1.42,0,0,1,.06.31c0,.16,0,.35,0,.57s0,.33,0,.47a6.71,6.71,0,0,1-.05,1.13v.06a3.76,3.76,0,0,1-.22.85,1.9,1.9,0,0,1-.2.35,1.84,1.84,0,0,1-.19.2l-.19.1a.9.9,0,0,1-.22.06H31a1.24,1.24,0,0,1-.35-.1,2.8,2.8,0,0,1-.58-.35,6.08,6.08,0,0,1-1-1h0a7.69,7.69,0,0,1-.91-1.61v0c-.1-.26-.19-.51-.26-.75a.1.1,0,0,0,0,0,.09.09,0,0,0-.06,0h-.22A2.62,2.62,0,0,0,27,48a4,4,0,0,0-.81.26c-.27.11-.53.24-.73.34s-.48.26-.72.4a9.75,9.75,0,0,0-1.31,1,7.7,7.7,0,0,0-.59.56c-.18.19-.36.4-.55.64a6.57,6.57,0,0,0-1,1.73.06.06,0,0,0,0,.06,4.26,4.26,0,0,0,.55,1.31,5.79,5.79,0,0,0,.43.58,5,5,0,0,0,.52.51,4.74,4.74,0,0,0,1.22.77,4.15,4.15,0,0,0,.68.22,2.29,2.29,0,0,0,.36.07,1.46,1.46,0,0,0,.3,0h0a30.28,30.28,0,0,1,.4,3.2,16.44,16.44,0,0,1,0,1.72.05.05,0,0,0,0,0,.07.07,0,0,0,0,.09,9.23,9.23,0,0,0,1.66.38,17,17,0,0,0,1.74.13H32.7A9.51,9.51,0,0,0,35,61.69a.07.07,0,0,0,0-.09,0,0,0,0,0,0,0,0,0,0,0,0,0,0c.14-.6.29-1.24.4-1.89s.17-1.23.22-1.88a21.81,21.81,0,0,0,0-3.78l-.06-.53a3.07,3.07,0,0,0,1-.62,4.44,4.44,0,0,0,.83-1,.08.08,0,0,0,0-.08v0A5.33,5.33,0,0,0,37,51c-.15-.22-.31-.44-.48-.65a9.7,9.7,0,0,0-1.06-1.15,7.24,7.24,0,0,0-1.27-1,4.78,4.78,0,0,0-1.43-.58l-.45-.07Z"/><path class="cls-28" d="M27.2,53.3q-.19.38-.36.75a8.21,8.21,0,0,0-.29.78,7.1,7.1,0,0,0-.22.79h0a6,6,0,0,0-.09.61h0a0,0,0,0,1,0,0v0l0,0h0l-.39.07-.3,0H25.4a28.41,28.41,0,0,1,.39,3.19,14.15,14.15,0,0,1,0,1.72l0,0a.08.08,0,0,0,.06.09,9.23,9.23,0,0,0,1.66.38c.48.06,1,.11,1.6.13a5.66,5.66,0,0,1-1.27-1.36,5.11,5.11,0,0,1-.34-.6A6.5,6.5,0,0,1,27,58.66a10.29,10.29,0,0,1-.22-1.46,10.44,10.44,0,0,1,0-1.48A11.9,11.9,0,0,1,27,54.26a9.85,9.85,0,0,1,.27-1.07.54.54,0,0,0-.05.11"/><path class="cls-28" d="M34.83,51.3a4.64,4.64,0,0,1,.32.72c.09.25.17.5.25.75s.07.25.1.37a1.8,1.8,0,0,1,0,.19.74.74,0,0,1,0,.14,1.58,1.58,0,0,0,.35-.16c-.06-.2-.12-.4-.19-.6a5.36,5.36,0,0,0-.63-1.24h0a2.34,2.34,0,0,0-.24-.31,2.06,2.06,0,0,0-.26-.25h0l-.08-.06a2.6,2.6,0,0,1,.28.45"/><polyline class="cls-28" points="35.13 51.47 35.12 51.47 35.13 51.47"/><path class="cls-28" d="M27,48a4.79,4.79,0,0,0-.81.27c-.27.11-.54.24-.73.34s-.48.26-.72.4a9,9,0,0,0-1.31,1,7.7,7.7,0,0,0-.59.56c-.19.19-.36.4-.55.63a6.5,6.5,0,0,0-1,1.74.09.09,0,0,0,0,.07,4.4,4.4,0,0,0,.43,1.1c0-.13.09-.25.13-.37a10.33,10.33,0,0,1,.6-1.31,9.82,9.82,0,0,1,.78-1.23A10,10,0,0,1,24.19,50a9.77,9.77,0,0,1,1.07-1,9.34,9.34,0,0,1,1.2-.76L27.1,48l.14-.05L27,48"/><path class="cls-24" d="M25,42a.62.62,0,0,0-.19,0,.66.66,0,0,0-.4.24,1,1,0,0,0-.15.57,1.75,1.75,0,0,0,.17.63,1.94,1.94,0,0,0,.4.55,1.77,1.77,0,0,0,.56.39,1.38,1.38,0,0,0,.56.12h.08l.17,0a.09.09,0,0,0,.05,0s.07-.05.06-.09c0-.22-.07-.45-.11-.65v0c0-.17-.07-.34-.1-.52h0c0-.16-.05-.33-.09-.48a1.06,1.06,0,0,0-.21-.44.05.05,0,0,0,0,0h-.05l-.13-.06a1.45,1.45,0,0,0-.25-.1,1,1,0,0,0-.26,0H25"/><path class="cls-24" d="M34.16,40.3a.58.58,0,0,1,.19,0,.64.64,0,0,1,.45.11.91.91,0,0,1,.31.49,1.59,1.59,0,0,1,0,.66,2,2,0,0,1-.22.65,1.79,1.79,0,0,1-.41.53A1.49,1.49,0,0,1,34,43l-.08,0-.17,0-.05,0a.1.1,0,0,1-.09-.06q-.06-.35-.09-.66v0c0-.17,0-.35-.07-.52h0a4.1,4.1,0,0,1-.06-.49,1.15,1.15,0,0,1,.06-.48.1.1,0,0,1,0,0h0a0,0,0,0,1,0,0l.1-.1a1.93,1.93,0,0,1,.21-.17l.23-.12h0"/><path class="cls-29" d="M25.28,42.52a1.11,1.11,0,0,0,0,.19.74.74,0,0,0,0,.21,1.34,1.34,0,0,0,.1.38,1.3,1.3,0,0,0,.08.17,1.74,1.74,0,0,1,.11.18,4,4,0,0,0,.26.32h.05a0,0,0,0,0,0,0,.53.53,0,0,1-.12-.14h0a1.7,1.7,0,0,1-.15-.22l-.12-.24h0a1.91,1.91,0,0,1-.11-.41,1,1,0,0,1,0-.17c0-.07,0-.13,0-.2h0v0s0,0,0,0l0,0h0a.07.07,0,0,0,0,0m.09.4h0m.37.86h0m-.26-.45h0"/><path class="cls-29" d="M24.91,42.36a.38.38,0,0,0-.21.07l-.08.08a.45.45,0,0,0-.06.12s0,0,0,0,0,0,0,0l0,0s0,0,0-.06h0l.05,0,.07,0,.08,0H25l.13,0,.11.06,0,0a.06.06,0,0,0,.08,0,.05.05,0,0,0,0,0l0,0a.33.33,0,0,0-.1-.06l-.11,0a.52.52,0,0,0-.18,0h-.05m-.12.1h0m.34,0h0m0,0h0m-.39,0h0"/><path class="cls-29" d="M34.08,40.71a.06.06,0,0,0,0,0s0,0,0,0h0a1,1,0,0,1,.1.17h0a1.34,1.34,0,0,1,.07.27,1.93,1.93,0,0,1,0,.48v0a2.73,2.73,0,0,1-.15.56h0a1.17,1.17,0,0,1-.15.27,0,0,0,0,0,0,0s0,0,0,0a1.87,1.87,0,0,0,.22-.39,1.84,1.84,0,0,0,.14-.51,1.74,1.74,0,0,0,0-.51,1.42,1.42,0,0,0-.07-.22.31.31,0,0,0,0-.1.86.86,0,0,0-.07-.1l0,0-.05,0m.18.53h0M34.19,41h0"/><path class="cls-29" d="M34.1,40.67a.07.07,0,0,0,.07.11l.06,0,.14,0h.13l.12,0,.1,0,.05.05a0,0,0,0,0,.07,0,.06.06,0,0,0,0-.08.63.63,0,0,0-.34-.18h-.09a.55.55,0,0,0-.31.08m.27,0h0"/><path class="cls-24" d="M31.46,36.59a.09.09,0,0,0-.07,0h0l-.19,0-.38.07-.43.08-.31.06c-.48.09-1,.18-1.47.32a6.83,6.83,0,0,0-1.39.55,4.94,4.94,0,0,0-1.23,1,2,2,0,0,0-.25.33,1.89,1.89,0,0,0-.17.35,2,2,0,0,0-.13.72,3.61,3.61,0,0,0,.06.76c0,.18.06.36.09.54s0,.16.05.23c0,.29.09.56.13.89s.09.62.15.91a5.84,5.84,0,0,0,.26.86,4.44,4.44,0,0,0,.34.65,3.29,3.29,0,0,0,1,1,2.63,2.63,0,0,0,.66.3,3.34,3.34,0,0,0,.58.11,3.48,3.48,0,0,0,.57,0l.56,0a6.16,6.16,0,0,0,1.2-.21,5.45,5.45,0,0,0,1.13-.46,3.33,3.33,0,0,0,1.25-1.14,2.2,2.2,0,0,0,.22-.52,4.23,4.23,0,0,0,.14-.68c0-.23,0-.48.05-.75A12.25,12.25,0,0,0,33.72,41a14.73,14.73,0,0,0-.3-1.53c-.05-.21-.12-.46-.2-.7a4.6,4.6,0,0,0-.31-.68A4.23,4.23,0,0,0,32,37c-.11-.1-.24-.2-.37-.3a.08.08,0,0,0-.07-.07h-.09"/><path class="cls-26" d="M31.46,36.58a.08.08,0,0,0-.07,0h0l-.19,0-.38.07-.44.08-.3,0c-.48.09-1,.19-1.47.33a6.6,6.6,0,0,0-1.39.54,4.94,4.94,0,0,0-1.23.95,2.78,2.78,0,0,0-.26.34,2.28,2.28,0,0,0-.17.35,2.25,2.25,0,0,0-.13.72v.22h.14a3.46,3.46,0,0,0,.83-.2,3.67,3.67,0,0,0,.73-.4,1.79,1.79,0,0,0,.25-.22,1.92,1.92,0,0,0,.45-.59v0h0l.14.06a.73.73,0,0,0,.19.07l.2,0a2.66,2.66,0,0,0,.28,0h0l.25,0a2.72,2.72,0,0,0,.84-.21,4.37,4.37,0,0,0,1-.54,3.63,3.63,0,0,0,.63-.6,1.34,1.34,0,0,0,.16-.22,1.71,1.71,0,0,0,.13-.23l.06-.18a1,1,0,0,0,0-.17.34.34,0,0,0,0-.1l-.15-.12a.14.14,0,0,0,0-.06l-.05,0H31.5l0,0"/><path class="cls-22" d="M33.64,40.5h0v.15a3.23,3.23,0,0,1,0,.44,8.89,8.89,0,0,1-.13.88q-.06.36-.15.72a3.61,3.61,0,0,1-.17.46l-.08.21h0c-.05.11-.1.22-.16.33a1.37,1.37,0,0,1-.13.2,1.89,1.89,0,0,1-.35.34,2.92,2.92,0,0,1-.57.33h0a2,2,0,0,1-.55.15.74.74,0,0,1-.21,0H31a.77.77,0,0,1-.26-.07l-.16-.09,0,0,0,0h-.12a.76.76,0,0,0-.21,0,.6.6,0,0,0-.28.12l0,0v0l0,0-.05.07a.81.81,0,0,1-.16.16,1.17,1.17,0,0,1-.25.14,1.8,1.8,0,0,1-.43.11h0a1.83,1.83,0,0,1-.33,0l-.4,0a2.47,2.47,0,0,1-.65-.17l-.18-.09-.25-.17a3.45,3.45,0,0,1-.5-.51,3.55,3.55,0,0,1-.46-.81v0q-.11-.27-.18-.54c-.06-.2-.12-.4-.17-.6a1.09,1.09,0,0,1,0-.17v0l0,0v0l0,0c0,.08,0,.16,0,.24A11.15,11.15,0,0,0,25.77,44c.06.32.13.59.2.84a4.91,4.91,0,0,0,.3.7,3.12,3.12,0,0,0,.43.64,3.09,3.09,0,0,0,.56.52,3,3,0,0,0,.65.34,4.33,4.33,0,0,0,.74.22,5.94,5.94,0,0,0,1.05.1h.45A5.27,5.27,0,0,0,31.64,47a4.43,4.43,0,0,0,1.31-.8,3.54,3.54,0,0,0,.51-.59,2.91,2.91,0,0,0,.35-.68,4.08,4.08,0,0,0,.25-1.51,13.2,13.2,0,0,0,0-1.56,4.39,4.39,0,0,0-.32-1.44l0,0,0,0s0,.07,0,.11m-3.57,6.71h0Z"/><path class="cls-22" d="M33.55,40.46h0v0"/><path class="cls-22" d="M33.55,40.46h0v0"/><path class="cls-23" d="M34,42a7.59,7.59,0,0,1-.15,1.57,6.25,6.25,0,0,1-.21.74,4.34,4.34,0,0,1-.3.7,4.81,4.81,0,0,1-.4.6,3.82,3.82,0,0,1-.48.51,4.1,4.1,0,0,1-1.16.72,4.72,4.72,0,0,1-1.38.33,5.09,5.09,0,0,1-.78,0,6.85,6.85,0,0,1-.78-.07l-.25-.05a4,4,0,0,0,.55.15,5.13,5.13,0,0,0,1.05.1h.45A5.27,5.27,0,0,0,31.64,47a4.43,4.43,0,0,0,1.31-.8,2.85,2.85,0,0,0,.51-.59,2.91,2.91,0,0,0,.35-.68,4.08,4.08,0,0,0,.25-1.51c0-.55,0-1,0-1.56,0-.14,0-.31-.06-.49,0,.21,0,.43,0,.65"/><path class="cls-22" d="M30,43.43h-.31l-.21,0a1.79,1.79,0,0,0-.46.16,1.4,1.4,0,0,0-.38.3.78.78,0,0,0-.14.2,1,1,0,0,0-.1.23v0a0,0,0,0,0,0,0l.11,0h.12a.85.85,0,0,0,.25,0,1,1,0,0,0,.24-.09l.24-.12a2.23,2.23,0,0,0,.4-.35,1.17,1.17,0,0,0,.2-.33h0l0-.07v0h0s0,0,0,0Z"/><path class="cls-22" d="M29.87,43.45s0,0,0,0a0,0,0,0,0,0,0H30a0,0,0,0,0,0,0h-.15"/><path class="cls-22" d="M29.77,43.45s0,0,0,0,0,0,0,0H30v0h0l-.26,0"/><path class="cls-22" d="M29.81,43.44h0l-.19,0s0,0,0,0a0,0,0,0,0,0,0l.18,0H30a0,0,0,0,0,0,0v0h-.19"/><path class="cls-22" d="M30,43.44h0l0,0h.08l0,0,.12,0,.21-.06a1.6,1.6,0,0,1,.49,0,1.41,1.41,0,0,1,.46.11l.21.13.19.17v0a0,0,0,0,1,0,.07l-.09.06-.09,0h0l-.24.07-.26,0a2.48,2.48,0,0,1-.27,0,1.63,1.63,0,0,1-.5-.16,1.11,1.11,0,0,1-.32-.21h0L30,43.48v0h0s0,0,0,0h0"/><path class="cls-22" d="M30.14,43.39h0s0,0,0,0l-.14.05h0s0,0,0,0l.14-.06"/><path class="cls-22" d="M30.23,43.35l0,0v0h0l-.07,0h0a.52.52,0,0,0-.16.06h0l0,0h0l.25-.1"/><path class="cls-22" d="M30.19,43.36h0l.19,0,0,0s0,0,0,0l-.18,0h0l-.17.07s0,0,0,0,0,0,0,0l.17-.07"/><path class="cls-22" d="M30.62,43.69a.93.93,0,0,1,0,.13.57.57,0,0,1-.08.13.52.52,0,0,1-.1.11l-.11.06h0l-.1,0h-.1l-.1,0,0,0s-.06,0-.07,0a0,0,0,0,0,0,.06.75.75,0,0,0,.13.06h.14a.58.58,0,0,0,.25-.09.65.65,0,0,0,.19-.18.81.81,0,0,0,.11-.27,0,0,0,0,0,0,0l0,0h0a.07.07,0,0,0-.05,0m0,.12h0m-.61.3h0m.31,0h0"/><path class="cls-22" d="M27.92,43c.14,0,.22-.26.18-.52s-.2-.46-.35-.44-.22.26-.18.53.2.46.35.43"/><path class="cls-22" d="M31.8,42.15c.15,0,.23-.26.18-.53s-.2-.46-.34-.43-.23.26-.18.52.2.47.34.44"/><path class="cls-22" d="M26.49,40.8c.12.16.51.08.88-.18s.57-.61.45-.77-.51-.08-.87.18-.57.6-.46.77"/><path class="cls-22" d="M30.81,39.23c0,.2.29.43.74.51s.83,0,.86-.2-.28-.42-.73-.51-.83,0-.87.2"/><path class="cls-29" d="M29.62,41h0s0,0,0,0l0,.11c.07.31.16.63.2,1v0l-.2,0h0a.59.59,0,0,0-.2,0,.3.3,0,0,0-.14.1.29.29,0,0,0-.08.14.57.57,0,0,0,0,.35.65.65,0,0,0,.1.15l.16.13a.92.92,0,0,0,.23.09H30l0,0a.06.06,0,0,0,0,0,.07.07,0,0,0,0,0L30,43h-.21l-.17,0-.12-.08-.11-.11a.41.41,0,0,1-.07-.11l0-.12v-.08a.64.64,0,0,0,0-.07l0,0,.05,0,.06,0a.53.53,0,0,1,.12,0h.2l.09,0h0s0,0,0,0,0-.19,0-.28,0-.19-.07-.3l-.09-.38v0l0-.16s0,0,0,0"/><path class="cls-22" d="M30.56,34.87H30.5l-.23,0a.59.59,0,0,0-.19.11.39.39,0,0,0-.12.19.62.62,0,0,0,0,.13,3.85,3.85,0,0,0-1.28-.22h0a6,6,0,0,0-1.46.2,5.74,5.74,0,0,0-1.35.52,6.33,6.33,0,0,0-1,.66c-.18.15-.34.3-.49.45a3.46,3.46,0,0,0-.39.51,1.74,1.74,0,0,0-.24.55,1.36,1.36,0,0,0,0,.29,1.59,1.59,0,0,0,0,.29,1,1,0,0,0,.28.48.92.92,0,0,0,.25.17l.16,0a.53.53,0,0,0-.15.19.36.36,0,0,0,0,.27l.07.11a.34.34,0,0,0,.13.1.71.71,0,0,0,.3.1,1.14,1.14,0,0,0,.27,0,1.34,1.34,0,0,0,.28,0,3.68,3.68,0,0,0,.6-.14,4.36,4.36,0,0,0,.59-.27A3.2,3.2,0,0,0,27,39.3a1.86,1.86,0,0,0,.62-.88,2.42,2.42,0,0,0,1.21.31h.26a3.33,3.33,0,0,0,2.12-1.11,2.83,2.83,0,0,0,.51-.86.51.51,0,0,0,.32-.1l0,0a.25.25,0,0,0,0-.07.16.16,0,0,0,0-.12.76.76,0,0,0-.18-.24,1.64,1.64,0,0,0-.25-.19,1.76,1.76,0,0,0-.07-.33,1.3,1.3,0,0,0-.14-.32,2,2,0,0,0-.24-.26A1.12,1.12,0,0,0,31,35a1.16,1.16,0,0,0-.42-.08m-3.26.57h0"/><path class="cls-23" d="M31.44,36.39s0,0,0,0h0a1.35,1.35,0,0,1-.14.3,1.1,1.1,0,0,1-.14.18,1.54,1.54,0,0,1-.17.19,3.4,3.4,0,0,1-.59.4,4.93,4.93,0,0,1-.53.22,5.15,5.15,0,0,1-.56.16,4.51,4.51,0,0,1-.53.09h-.62a.13.13,0,0,0-.16.11.13.13,0,0,0,.11.16l.12,0,.15,0h.32a3.38,3.38,0,0,0,.63-.07,4,4,0,0,0,1.27-.53,2.72,2.72,0,0,0,.32-.25,2.06,2.06,0,0,0,.29-.3L31.3,37l.1-.17a1.51,1.51,0,0,0,.14-.35.06.06,0,0,0-.05-.08h0m-.16.32h0"/><path class="cls-23" d="M30.34,37,30.2,37h0l-.25.11-.26.1-.26.08-.26.07a4.12,4.12,0,0,1-1.16.11,3.42,3.42,0,0,1-.45,0l-.23,0-.25,0a.13.13,0,0,0-.14.07.14.14,0,0,0,0,.11.12.12,0,0,0,.07.07,2.07,2.07,0,0,0,.43.1,3,3,0,0,0,.42,0,3.5,3.5,0,0,0,.85-.05,3.39,3.39,0,0,0,.81-.23l.18-.08.2-.1.36-.21.13-.08a0,0,0,0,0,0-.05s0,0,0,0h0M28,37.51h0"/><path class="cls-23" d="M27.1,38.45l0,.08a.93.93,0,0,1-.16.18,2.21,2.21,0,0,1-.4.28h0l-.17.08-.22.08-.22.07-.22.06h0l-.44.08H24.8l-.06,0a.14.14,0,0,0,0,.08.1.1,0,0,0,0,.09.12.12,0,0,0,.08,0h.26l.27,0a3.43,3.43,0,0,0,.61-.16c.1,0,.19-.08.29-.12l.29-.15a2,2,0,0,0,.46-.34,1.14,1.14,0,0,0,.22-.32s0-.05,0-.06h0a.05.05,0,0,0,0,0m-.19.26ZM26.5,39h0"/><path class="cls-23" d="M28.58,35.46a4.4,4.4,0,0,0-.73.07,5.26,5.26,0,0,0-.71.17,4.87,4.87,0,0,0-1.2.54,3.85,3.85,0,0,0-.52.38,2.31,2.31,0,0,0-.24.2l-.22.24a.18.18,0,0,0,0,.1.11.11,0,0,0,0,.09.13.13,0,0,0,.19,0,5.42,5.42,0,0,1,.67-.6A5.89,5.89,0,0,1,27,36a5.47,5.47,0,0,1,1.38-.34h0a3.62,3.62,0,0,1,.57,0,3.9,3.9,0,0,1,.59,0h0l.41.09s.05,0,.06,0,0-.05,0-.06a4.74,4.74,0,0,0-1.3-.18h-.11M27,36h0m-1.19.66,0,0,0,0m3.7-1h0"/><path class="cls-23" d="M32,36.41a.07.07,0,0,0,0,.08,1.37,1.37,0,0,1,.32.16h0a2,2,0,0,1,.41.36h0a2.9,2.9,0,0,1,.36.55v0c0,.11.1.22.14.33a.1.1,0,0,0,.13.07.11.11,0,0,0,.07-.14,2.39,2.39,0,0,0-.55-.86,2.43,2.43,0,0,0-.38-.33,1.75,1.75,0,0,0-.43-.22h0a.07.07,0,0,0,0,0"/></g><rect class="cls-30" x="18.28" y="36.71" width="23.09" height="18.2" rx="0.73" transform="translate(-16.18 75.35) rotate(-89.63)"/><line class="cls-31" x1="22.74" y1="58.86" x2="36.93" y2="58.9"/><circle class="cls-27" cx="35.21" cy="62.09" r="2.51"/><path class="cls-32" d="M36,60.73a.91.91,0,0,0-.83.53.93.93,0,0,0-.82-.55,1,1,0,0,0-1,1c0,1.05,1.74,2.07,1.74,2.07s1.78-.88,1.79-2A1,1,0,0,0,36,60.73Z"/><circle class="cls-27" cx="25.29" cy="62.12" r="2.51"/><line class="cls-33" x1="26.13" y1="61.41" x2="24.41" y2="63.14"/><line class="cls-33" x1="24.41" y1="61.41" x2="26.14" y2="63.14"/><line class="cls-34" x1="13.93" y1="53.76" x2="11.27" y2="51.1"/><line class="cls-34" x1="13.93" y1="48.42" x2="11.27" y2="51.08"/><line class="cls-34" x1="16.31" y1="53.76" x2="13.65" y2="51.1"/><line class="cls-34" x1="16.31" y1="48.42" x2="13.65" y2="51.08"/><line class="cls-34" x1="46.07" y1="53.76" x2="48.73" y2="51.1"/><line class="cls-34" x1="46.07" y1="48.42" x2="48.73" y2="51.08"/><line class="cls-34" x1="43.69" y1="53.76" x2="46.35" y2="51.1"/><line class="cls-34" x1="43.69" y1="48.42" x2="46.35" y2="51.08"/><path class="cls-12" d="M76.48,44.34h-.25a2.63,2.63,0,0,0-.45.11,4.2,4.2,0,0,0-.82.39c-.32.19-.64.42-.9.61s-.58.43-.92.71c-.53.44-1.06.91-1.57,1.37l-.19.17-.87.77-.91.75c-1.18,1-2.45,1.9-4,3-.6.44-1.25.9-2,1.45l-.08.05-.88.61-.84.56-.14.09a32.39,32.39,0,0,0-3.19,2.32A12.8,12.8,0,0,0,57,58.76a8.2,8.2,0,0,0-1,1.59,6.21,6.21,0,0,0-.5,1.47,6.84,6.84,0,0,0-.16,1.53,7.76,7.76,0,0,0,.63,3,7.37,7.37,0,0,0,1.73,2.45,6,6,0,0,0,1.22.88,5.83,5.83,0,0,0,1.41.55,5.91,5.91,0,0,0,1.49.18h.11a10,10,0,0,0,2.33-.31,11.67,11.67,0,0,0,1.31-.42c.24-.09.47-.18.68-.28h0L66,69.6c-.31.31-.63.62-1,1-.56.58-1.1,1.17-1.51,1.62a.1.1,0,0,0,0,.09.13.13,0,0,0,0,.09.13.13,0,0,0,.08,0,.14.14,0,0,0,.1-.05C64.42,71.6,65,71,65.5,70.48a.13.13,0,0,0,.06,0l.48-.49h0a.13.13,0,0,0,.09,0l.3-.31L67,69l.58-.52.41-.37,1.11-1c.82-.74,1.9-1.74,2.94-2.79a41.87,41.87,0,0,0,4.83-5.81,29.87,29.87,0,0,0,1.92-3.24c.14-.28.28-.56.41-.84l.23-.53a5.7,5.7,0,0,0,.31-1.07,2.75,2.75,0,0,0,.05-.57,1.71,1.71,0,0,0-.1-.51,1,1,0,0,0-.3-.41,1.22,1.22,0,0,0-.53-.23h-.18a1.64,1.64,0,0,0-.37,0l-.16.07a9.49,9.49,0,0,0,.67-1.1c.14-.27.26-.56.39-.88a7,7,0,0,0,.22-.7,3.22,3.22,0,0,0,.12-.76,1.63,1.63,0,0,0-.14-.74,1.09,1.09,0,0,0-.53-.49.87.87,0,0,0-.37-.07l-.25,0a1.88,1.88,0,0,0-.45.16,1.74,1.74,0,0,0,.08-.36,1.9,1.9,0,0,0,0-.42,2.06,2.06,0,0,0-.07-.46,1.69,1.69,0,0,0-.42-.74l-.17-.14-.18-.11a1.16,1.16,0,0,0-.42-.12h-.16"/><path class="cls-35" d="M77.65,46.83l-.85.86-.86.84-.43.42-.44.41-.87.83-.06.05a.17.17,0,0,0,0,.21.15.15,0,0,0,.21,0q.43-.41.87-.84c.28-.28.56-.57.83-.87l.81-.89c.28-.29.55-.59.82-.88l.06-.06a0,0,0,0,0,0-.07,0,0,0,0,0,0,0h0"/><path class="cls-35" d="M78,51.3c-.44.49-.9,1-1.36,1.44l-.72.69-.36.33-.36.34a.16.16,0,0,0,0,.22.15.15,0,0,0,.22,0,9.22,9.22,0,0,0,.71-.69c.23-.24.45-.49.67-.74.43-.5.86-1,1.3-1.5a.08.08,0,0,0,0-.1l-.05,0,0,0"/><rect class="cls-36" x="56.26" y="24.21" width="22.51" height="39.85" rx="1.4" transform="translate(-0.09 0.14) rotate(-0.12)"/><rect class="cls-37" x="57.01" y="27.96" width="21.01" height="32.34" rx="0.93" transform="translate(-0.09 0.14) rotate(-0.12)"/><path class="cls-15" d="M71.31,26a.44.44,0,1,1-.88,0,.45.45,0,0,1,.44-.45A.44.44,0,0,1,71.31,26Z"/><path class="cls-15" d="M68.62,62.19a1.07,1.07,0,1,1-1.07-1.07A1.07,1.07,0,0,1,68.62,62.19Z"/><path class="cls-15" d="M69.49,26.43h-4a.4.4,0,0,1-.39-.39h0a.39.39,0,0,1,.39-.4h4a.38.38,0,0,1,.39.39h0A.39.39,0,0,1,69.49,26.43Z"/><rect class="cls-38" x="58.02" y="28.95" width="18.96" height="20.3" rx="0.7" transform="translate(-0.08 0.14) rotate(-0.12)"/><g class="cls-39"><path class="cls-18" d="M77.82,44.11h-.11l-.07,0a.55.55,0,0,0-.23.19.94.94,0,0,0-.15.3,3.32,3.32,0,0,0-.2.78A11.06,11.06,0,0,0,77,47a1.33,1.33,0,0,0-.14-.19.88.88,0,0,0-.47-.3h-.1a.47.47,0,0,0-.17,0,.76.76,0,0,0-.26.15,1.24,1.24,0,0,0-.23.3,1.58,1.58,0,0,0-.16.35,1.87,1.87,0,0,0-.05.68,2.7,2.7,0,0,0,.16.7,3.56,3.56,0,0,0,.32.65,2.53,2.53,0,0,0,.36.47.13.13,0,0,0,.09.1,4.72,4.72,0,0,0,.63.12,5.32,5.32,0,0,0,.62.07h0a2.38,2.38,0,0,0,.63-.1,1.42,1.42,0,0,0,.87-.86,2.24,2.24,0,0,0,.12-.45,6.37,6.37,0,0,0,.06-1.2,8.49,8.49,0,0,0-.16-1.32,4.88,4.88,0,0,0-.34-1.15,2.33,2.33,0,0,0-.22-.42,1.62,1.62,0,0,0-.31-.33.77.77,0,0,0-.32-.18l-.12,0"/><path class="cls-19" d="M77.71,44.61s-.06,0,0,.07A10,10,0,0,1,78,46.2v0a26.57,26.57,0,0,1,.11,3.57v.33a.13.13,0,0,0,.26,0c0-.15,0-.3,0-.45V49.2c0-.3,0-.6,0-.9a15.24,15.24,0,0,0-.14-1.79c0-.31-.09-.62-.16-.93s-.16-.62-.25-.93a.05.05,0,0,0-.06,0h0"/><path class="cls-19" d="M76.25,47.17a.07.07,0,0,0,0,.08,3.64,3.64,0,0,0,.31.7,4.81,4.81,0,0,0,.45.66,7.31,7.31,0,0,0,.52.59,4.23,4.23,0,0,0,.61.51.13.13,0,0,0,.16,0,.14.14,0,0,0,0-.09v0l0,0-.34-.27c-.12-.1-.24-.19-.35-.3a4.29,4.29,0,0,1-.61-.67,4.19,4.19,0,0,1-.53-.89h0l-.06-.16a.08.08,0,0,0-.07,0h0m.65,1.08h0m1.31,1.26h0M76.4,47.39h0"/><path class="cls-19" d="M77.28,46.12s0,0,0,.05a3.54,3.54,0,0,0,.31.82,3.32,3.32,0,0,0,.23.37,2,2,0,0,0,.3.35h.08a.08.08,0,0,0,0,0,.05.05,0,0,0,0,0c0-.07-.11-.13-.16-.19s-.11-.13-.16-.19a3.32,3.32,0,0,1-.4-.71h0c0-.13-.09-.27-.13-.4s0,0,0,0h0m.17.43h0"/><path class="cls-19" d="M77.44,45.08a0,0,0,0,0,0,.05,4.54,4.54,0,0,0,.49.79l0,0,0,0s0,0,0,0v0l-.11-.14h0c-.08-.1-.14-.2-.21-.3a2.21,2.21,0,0,1-.18-.34h0"/><path class="cls-19" d="M78.3,44.91s0,0,0,0v0h0a4.31,4.31,0,0,1-.24.87s0,0,0,0,0,0,.05,0,.1-.31.14-.47a3.55,3.55,0,0,0,.09-.47s0,0,0,0h0"/><path class="cls-19" d="M78.53,46.13c0,.14,0,.28,0,.43v0c0,.16-.06.31-.1.46a3.52,3.52,0,0,1-.15.42h0l0,.06a.09.09,0,0,0,0,.05l0,0h.05s0,0,0,0a2.33,2.33,0,0,0,.21-.68,4.53,4.53,0,0,0,.08-.73s0,0,0,0a0,0,0,0,0,0,0m-.29,1.29h0"/><path class="cls-19" d="M78.91,48.2a6.26,6.26,0,0,1-.21.61,4.13,4.13,0,0,1-.41.7l-.05.05s0,0,0,0a.08.08,0,0,0,0,0l0,0h0l0,0a2.92,2.92,0,0,0,.21-.32,2,2,0,0,0,.18-.36,5.05,5.05,0,0,0,.27-.74,0,0,0,0,0,0-.06h0a0,0,0,0,0,0,0m-.21.6h0"/><path class="cls-18" d="M59.28,41l-.35,0a2.52,2.52,0,0,0-.49.13,2.33,2.33,0,0,0-.79.51,3.34,3.34,0,0,0-.59.77,6.6,6.6,0,0,0-.41,1,10.47,10.47,0,0,0-.42,2.16c-.06.55-.09,1.14-.11,1.91v.11a0,0,0,0,0,0,0v0h0a.07.07,0,0,0,0,.09h0a.07.07,0,0,0,.07,0c0-.09.06-.18.09-.27s.07-.17.11-.26.15-.33.24-.49h0a14.15,14.15,0,0,1,1.4-2l.11-.14c.39-.48.69-.88,1-1.27a8.5,8.5,0,0,0,.47-.78,3.33,3.33,0,0,0,.28-.71,1.15,1.15,0,0,0,0-.31.92.92,0,0,0-.06-.25,1,1,0,0,0-.08-.11l-.06,0-.07,0L59.53,41l-.17,0h-.08"/><path class="cls-19" d="M58.61,41.89a12.55,12.55,0,0,0-.86,1.33c-.26.47-.5,1-.71,1.45s-.41,1-.58,1.52c-.09.26-.17.51-.24.77s-.14.53-.2.8c0,.07,0,.14,0,.21s0,.07,0,.11,0,.08,0,.12a.17.17,0,0,0,0,.07.18.18,0,0,0,.08.07h.11a.18.18,0,0,0,.07-.08.29.29,0,0,0,0-.09l0-.09c0-.06,0-.13.05-.19s.06-.26.1-.39.12-.51.19-.77l.21-.79c.08-.26.16-.52.25-.77a13.41,13.41,0,0,1,.8-1.92v0a9.5,9.5,0,0,1,.82-1.33,0,0,0,0,0,0,0h0"/><path class="cls-18" d="M60.82,44.25a1,1,0,0,0-.33,0,2.41,2.41,0,0,0-.58.29,4.73,4.73,0,0,0-.63.49c-.21.18-.42.38-.65.62a15.86,15.86,0,0,0-1.21,1.4c-.18.22-.34.43-.49.64s-.26.37-.36.53a2.79,2.79,0,0,0-.18.34s0,0,0,0l0,0h0a.05.05,0,0,0,.05,0l0,0c.09-.09.21-.18.35-.3l.21-.15.28-.15.37-.18.57-.25.33-.15c.27-.12.63-.28,1-.46a8.16,8.16,0,0,0,.92-.52,3.82,3.82,0,0,0,.69-.58,1.17,1.17,0,0,0,.3-.65.54.54,0,0,0,0-.18l0-.16a1.44,1.44,0,0,0-.12-.3.91.91,0,0,0-.18-.21.55.55,0,0,0-.2-.11l-.18,0"/><path class="cls-19" d="M60.64,45.28l-.6.36-.61.35c-.41.24-.82.49-1.22.76a8.41,8.41,0,0,0-1.11.88l-.24.24c-.09.09-.17.19-.25.28a4,4,0,0,0-.41.58,2.82,2.82,0,0,0-.25.49.14.14,0,0,0,.06.16.12.12,0,0,0,.1,0,.1.1,0,0,0,.09-.06c.14-.25.28-.5.44-.74s.17-.24.26-.35.18-.22.28-.33l0,0a7.53,7.53,0,0,1,1-.94c.19-.15.37-.29.56-.42l.59-.4h0c.44-.29.89-.56,1.34-.84,0,0,0,0,0,0s0,0,0,0h0m-1.32.91h0"/><path class="cls-20" d="M75.59,31.5h-.1l-.12,0a.34.34,0,0,0-.12.06.51.51,0,0,0-.17.16A1,1,0,0,0,75,32a2,2,0,0,0-.09.53,2.75,2.75,0,0,0,0,.49,4.07,4.07,0,0,0,.12.63c.07.22.15.45.25.69A6.41,6.41,0,0,0,76,35.62a9.39,9.39,0,0,0,1,1.16,13.46,13.46,0,0,0,1.12,1l.43.32,0,0h0l0,0a0,0,0,0,0,0,0,0,0,0,0,0,0,0c0-.1-.09-.22-.13-.32l0-.06c0-.14-.09-.27-.14-.4s-.15-.49-.24-.79h0l-.19-.7c0-.16-.09-.31-.13-.47v0c0-.16-.09-.32-.14-.48a11.72,11.72,0,0,0-.57-1.58,5.83,5.83,0,0,0-.53-.94,2.08,2.08,0,0,0-.38-.44.83.83,0,0,0-.21-.16.82.82,0,0,0-.24-.1l-.14,0"/><path class="cls-21" d="M75.52,32s0,0,0,0c.16.58.34,1.15.55,1.71h0v0h0l0,.12h0a14.23,14.23,0,0,0,.66,1.5c.12.25.25.49.38.73s.27.47.42.7a10.31,10.31,0,0,0,.67.92l.35.42c.06.06.12.13.19.19l.1.11.1.09a.11.11,0,0,0,.09,0,.11.11,0,0,0,.08,0,.12.12,0,0,0,0-.17l-.07-.09a.39.39,0,0,1-.08-.1,1.54,1.54,0,0,1-.17-.19c-.11-.12-.21-.25-.32-.38s-.4-.51-.59-.78h0v0h0c-.08-.1-.15-.21-.22-.31l-.23-.34c-.08-.11-.15-.23-.22-.35L77,35.46c-.14-.24-.27-.48-.4-.72s-.24-.49-.35-.74a8.93,8.93,0,0,1-.37-.9h0c-.13-.37-.26-.74-.37-1.12a0,0,0,0,0,0,0h0m.54,1.78h0m1.86,3.07h0m-1.81-2.94v0m-.06-.17h0"/><path class="cls-20" d="M77.46,30h-.07a.43.43,0,0,0-.19.08.52.52,0,0,0-.16.14,2,2,0,0,0-.12.21,1,1,0,0,0-.09.28,2.79,2.79,0,0,0,0,.32,2.75,2.75,0,0,0,0,.39c0,.13,0,.27,0,.42a5.93,5.93,0,0,0,.22.82,8.32,8.32,0,0,0,.57,1.3c.2.37.44.76.72,1.19l0,0v0a.08.08,0,0,0,.08.07h0l0,0a.13.13,0,0,0,0-.06V35h0c0-.37,0-.74,0-1.11,0-.17,0-.34,0-.5a9.26,9.26,0,0,0-.08-1.65,4.56,4.56,0,0,0-.18-.77,2.2,2.2,0,0,0-.34-.65.85.85,0,0,0-.19-.19.62.62,0,0,0-.2-.1.34.34,0,0,0-.14,0"/><path class="cls-21" d="M77.39,30.43l.06.74c0,.26,0,.52.07.77s.07.52.11.78.09.52.15.78a9.47,9.47,0,0,0,.4,1.38c.09.22.18.44.29.65a3.21,3.21,0,0,0,.36.59l0,0a.05.05,0,0,0,0,0,.1.1,0,0,0,.09,0A.1.1,0,0,0,79,36l0-.09,0-.1c0-.06-.07-.13-.11-.2l-.2-.39a7.27,7.27,0,0,1-.34-.81h0c0-.12-.09-.24-.13-.37s-.08-.25-.12-.37-.14-.51-.2-.77c-.11-.51-.2-1-.26-1.54,0-.2,0-.4-.07-.6h0l0-.36s0,0,0,0h0a0,0,0,0,0,0,0"/><path class="cls-20" d="M76.37,37.64h0l-.11,0-.1.08a.52.52,0,0,0-.07.12A.67.67,0,0,0,76,38c0,.07,0,.14-.05.23a1.31,1.31,0,0,0,0,.27,2,2,0,0,0,0,.54,3.62,3.62,0,0,0,.15.56c.07.18.16.37.26.57a7.64,7.64,0,0,0,.74,1.11,9,9,0,0,0,.89,1,5.92,5.92,0,0,0,.9.71l.1.07,0,0a.05.05,0,0,0,0,0h0l0,0a0,0,0,0,0,0,0,8.81,8.81,0,0,1-.36-.82c-.1-.24-.2-.5-.31-.84s-.15-.41-.21-.62l-.08-.23L78,40.14v0a1.34,1.34,0,0,0-.07-.18c-.08-.22-.17-.42-.24-.58l-.4-.76-.23-.37c-.08-.12-.16-.21-.23-.3a2,2,0,0,0-.23-.21l-.12-.06-.11,0"/><path class="cls-21" d="M76.35,38.18s0,0,0,0l.24.65c.08.23.18.46.27.68s.2.47.31.7.1.23.16.35.11.23.17.34.25.45.38.68.25.44.39.65.3.43.46.63a4.18,4.18,0,0,0,.5.53l.19.15.08.06.09.06h0l.07,0a.13.13,0,0,0,.1,0,.13.13,0,0,0,0-.09.13.13,0,0,0,0-.1l0,0,0-.05-.1-.12-.21-.22-.42-.47a11.15,11.15,0,0,1-.8-1h0v0h0A6.81,6.81,0,0,1,77.7,41c-.07-.11-.14-.22-.2-.33s-.13-.22-.19-.34L77.13,40a3.54,3.54,0,0,1-.16-.34c-.06-.11-.11-.22-.16-.33s-.1-.23-.14-.34a3.66,3.66,0,0,1-.18-.46c0-.09-.07-.18-.11-.28s0,0,0,0h0m.14.3h0m1.62,3.11h0"/><path class="cls-20" d="M60.87,31.3a1.45,1.45,0,0,0-.52.1,2.21,2.21,0,0,0-.52.28,4.24,4.24,0,0,0-.88.94,5.3,5.3,0,0,0-.39.61l-.06.12v0h0a1.37,1.37,0,0,0-.14-.52.72.72,0,0,0-.14-.19.41.41,0,0,0-.2-.12.4.4,0,0,0-.15,0h-.09a.83.83,0,0,0-.28.09,1.72,1.72,0,0,0-.48.37,3.46,3.46,0,0,0-.36.49,4.08,4.08,0,0,0-.28.59,3.58,3.58,0,0,0-.22.63,6.44,6.44,0,0,0-.25,1.25s0,0,0,0c0,.15.05.27.07.38.05.32.07.65.1,1v.17a9.52,9.52,0,0,0,.16,1.28,4,4,0,0,0,.15.55,2.2,2.2,0,0,0,.25.51l.18.22.22.19a1.52,1.52,0,0,0,.6.24l.27,0a2.67,2.67,0,0,0,1.14-.29,3.13,3.13,0,0,0,.61-.39,3.63,3.63,0,0,0,.49-.46,2.13,2.13,0,0,0,.29-.47,1.14,1.14,0,0,0,.09-.26,1.86,1.86,0,0,0,0-.27,1.39,1.39,0,0,0,0-.46.68.68,0,0,0-.26-.37l-.09-.06-.1-.05h0l.07,0,.21-.09.49-.25.53-.3a5.17,5.17,0,0,0,.53-.39,2.59,2.59,0,0,0,.43-.45,1.55,1.55,0,0,0,.28-.54,1.33,1.33,0,0,0,.06-.3,1.78,1.78,0,0,0,0-.31.77.77,0,0,0-.22-.45.69.69,0,0,0-.53-.2l-.33,0a2,2,0,0,0-.49.16l-.22.1.23-.3a3.87,3.87,0,0,0,.24-.46,3.21,3.21,0,0,0,.19-.45,3,3,0,0,0,.13-.47,2.25,2.25,0,0,0,.06-.49,2,2,0,0,0,0-.23,1.05,1.05,0,0,0,0-.19l-.05-.11-.07-.1a1.14,1.14,0,0,0-.16-.14,1,1,0,0,0-.21-.09l-.27,0h0"/><path class="cls-21" d="M61.08,31.89a11.46,11.46,0,0,0-1,1c-.17.17-.33.35-.49.53s-.31.38-.46.58c-.3.4-.58.81-.84,1.24a13.18,13.18,0,0,0-.71,1.34,14.08,14.08,0,0,0-1,2.79c-.08.31-.14.62-.19.93,0,.15,0,.3-.05.45a1.5,1.5,0,0,0,0,.22,1.69,1.69,0,0,0,0,.23.12.12,0,0,0,.12.13.13.13,0,0,0,.14-.12c0-.05,0-.1,0-.15l0-.16c0-.1,0-.21,0-.31s.07-.43.11-.65v0a15.39,15.39,0,0,1,.84-2.81c.13-.31.26-.62.41-.92v0a13,13,0,0,1,.71-1.33c.13-.22.26-.43.4-.64l.43-.6a9.75,9.75,0,0,1,.64-.8h0a9.56,9.56,0,0,1,1-.95s0,0,0,0a0,0,0,0,0,0,0m-.93,1h0"/><path class="cls-21" d="M62.24,34.84a4,4,0,0,1-.39.29h0c-.15.1-.31.19-.47.28s-.35.19-.53.28a5.55,5.55,0,0,1-.56.24c-.19.08-.37.15-.56.21h0a6.54,6.54,0,0,1-1,.26l-.48.07-.46.05h0a.14.14,0,0,0-.09,0,.2.2,0,0,0,0,.08.11.11,0,0,0,0,.08.12.12,0,0,0,.08,0h.36a2.23,2.23,0,0,0,.36-.05l.36-.08.36-.1a7.47,7.47,0,0,0,1.46-.6,3.75,3.75,0,0,0,.44-.24l.42-.25a7.81,7.81,0,0,0,.75-.53,0,0,0,0,0,0,0h0"/><path class="cls-21" d="M59.89,38.47a5.38,5.38,0,0,1-.89.37h0a4.75,4.75,0,0,1-1.23.27H57.4l-.33,0-.14,0h-.09a.13.13,0,0,0-.06.07.14.14,0,0,0,.08.16l.07,0,.09,0,.17,0c.11,0,.23,0,.34,0a4.51,4.51,0,0,0,.72-.12A5.48,5.48,0,0,0,59,39c.22-.08.44-.18.65-.28l.31-.16a0,0,0,0,0,0-.06.05.05,0,0,0-.05,0h0m-2.13.64h0"/><path class="cls-21" d="M61.08,32.92a3.37,3.37,0,0,1-.37.29h0a3.61,3.61,0,0,1-.71.35l-.29.08-.31,0a.09.09,0,0,0,0,0,.07.07,0,0,0,0,.06.05.05,0,0,0,0,0h.06a1.92,1.92,0,0,0,.46-.11,4.32,4.32,0,0,0,.45-.19,4.37,4.37,0,0,0,.4-.25,3.57,3.57,0,0,0,.38-.3s0,0,0,0l0,0h0"/><path class="cls-21" d="M59.37,32.49a4,4,0,0,0-.08.59,1.4,1.4,0,0,0,0,.29,1.54,1.54,0,0,0,.05.31.06.06,0,1,0,.11,0l0-.17a.8.8,0,0,1,0-.15h0a2.83,2.83,0,0,1,0-.29c0-.1,0-.2,0-.3h0a1.85,1.85,0,0,1,0-.23s0,0,0,0h0s0,0,0,0m0,.84h0"/><path class="cls-21" d="M57.35,33.16a6.86,6.86,0,0,0-.14.79,5.51,5.51,0,0,0-.05.81V35c0,.07,0,.14,0,.21s0,.27,0,.41l.09.39.06.19a1.46,1.46,0,0,0,.07.19,1.22,1.22,0,0,0,.14.28.08.08,0,0,0,0,0,.09.09,0,0,0,.07,0,.09.09,0,0,0,.07-.12.85.85,0,0,0-.09-.22,1.67,1.67,0,0,1-.08-.2,4.14,4.14,0,0,1-.28-1,1.84,1.84,0,0,1,0-.33c0-.11,0-.22,0-.34a5.16,5.16,0,0,1,0-.67h0a4.08,4.08,0,0,1,.11-.59s0,0,0,0h0l0,0m0,2h0m0-1.35h0"/><path class="cls-21" d="M56.22,36.37l0,.38c0,.14,0,.27,0,.4s0,.28,0,.42,0,.13,0,.2a1.8,1.8,0,0,0,0,.22h0a4.26,4.26,0,0,0,.13.62,2.46,2.46,0,0,0,.09.29l.07.15a.64.64,0,0,0,.1.13.11.11,0,0,0,.07.06.13.13,0,0,0,.09,0,.11.11,0,0,0,.06-.07.1.1,0,0,0,0-.09c0-.09-.07-.18-.11-.27a2.56,2.56,0,0,1-.11-.24,2.77,2.77,0,0,1-.1-.26l-.09-.3a2.46,2.46,0,0,1-.07-.29c0-.1,0-.2,0-.29l0-.26a2.44,2.44,0,0,1,0-.27,2.79,2.79,0,0,1,0-.5l0,0,0,0m0,1.61h0"/><path class="cls-22" d="M70.14,30h-.37c-.29,0-.57.08-.85.13l-.62.1h0a10,10,0,0,1-1.22,0h-.14a10.44,10.44,0,0,0-1.35.07,4.3,4.3,0,0,0-1.93.8,4.38,4.38,0,0,0-.7.66,3.83,3.83,0,0,0-.5.82,3.42,3.42,0,0,0-.29.94,2.94,2.94,0,0,0,0,.51l0,.54c0,.17,0,.34-.06.5h0a4.34,4.34,0,0,1-.28,1,3.75,3.75,0,0,1-.45.74,5.17,5.17,0,0,1-.74.74c-.17.14-.31.27-.44.4s-.27.27-.4.41a4.53,4.53,0,0,0-.61.91,3,3,0,0,0-.2.49,3.33,3.33,0,0,0-.12.5,3,3,0,0,0,.06,1.07,3.56,3.56,0,0,0,.49,1.08,4,4,0,0,0,.73.85,5.3,5.3,0,0,0,.45.34A3.72,3.72,0,0,0,61,44l.17.07h0l0,0,.81.1h0a13.07,13.07,0,0,1,1.65.35l.81.27c.23.08.48.18.76.3h0c.46.2.92.43,1.37.65s.71.35,1.07.51a12.73,12.73,0,0,0,1.25.51,10.15,10.15,0,0,0,1.36.38,12.66,12.66,0,0,0,1.43.21l.55,0q.45,0,.9,0l.73-.1a3.34,3.34,0,0,0,.52-.14,3,3,0,0,0,.87-.45,3.49,3.49,0,0,0,.35-.32A4,4,0,0,0,76,46a3.26,3.26,0,0,0,.42-.88,3.76,3.76,0,0,0,.2-1.12,5,5,0,0,0-.13-1.31,5.17,5.17,0,0,0-.21-.63,2.17,2.17,0,0,0-.12-.26,1.53,1.53,0,0,0-.16-.26,5.08,5.08,0,0,0-.41-.51c-.11-.13-.23-.26-.33-.4a2.32,2.32,0,0,1-.29-.49l-.06-.18a.84.84,0,0,1,0-.18,1.35,1.35,0,0,1,0-.4h0a3.6,3.6,0,0,1,.18-.63l.08-.2.16-.46a3,3,0,0,0,.14-.65,2.9,2.9,0,0,0,0-.66,3.37,3.37,0,0,0-.14-.64,3.89,3.89,0,0,0-.21-.51,3,3,0,0,0-.64-.84,2.82,2.82,0,0,0-.3-.25c-.12-.09-.25-.17-.38-.25l-.1-.07a6.49,6.49,0,0,1-.7-.46,2.23,2.23,0,0,1-.38-.37,1,1,0,0,0,.15-.25,1.5,1.5,0,0,0,.09-.45,2.25,2.25,0,0,0-.06-.49,3.52,3.52,0,0,0-.16-.45,2.81,2.81,0,0,0-.61-.87,2.44,2.44,0,0,0-.43-.35,2.27,2.27,0,0,0-.49-.26,2.23,2.23,0,0,0-.56-.16,2,2,0,0,0-.35,0"/><path class="cls-23" d="M69.11,31.17h-.36l-.42.08a3,3,0,0,0-.39.14h0a3.78,3.78,0,0,0-.49.25l-.24.15L67,32h0a7.27,7.27,0,0,0-1.27,1.27,10.89,10.89,0,0,0-.86,1.27,10.74,10.74,0,0,0-.62,1.22h0l-.09.22a2.19,2.19,0,0,0-.12.33q-.12.36-.21.72l-.18.73a5.93,5.93,0,0,1-.24.71,2.2,2.2,0,0,1-.15.31l-.09.16a.86.86,0,0,1-.1.16,1.57,1.57,0,0,1-.2.25,1.75,1.75,0,0,1-.24.23l-.24.19-.27.19c-.18.12-.37.24-.54.37a2.43,2.43,0,0,0-.34.3l-.18.18-.16.18-.25.36-.11.2a1.3,1.3,0,0,0-.08.17h0c0,.12-.1.25-.14.38s0,.13,0,.2l0,.18h0a3,3,0,0,0,0,.42v.21a1.5,1.5,0,0,0,0,.2h0c0,.11,0,.22,0,.33l.24.17A3.36,3.36,0,0,0,61,44l.17.07h.06q.42,0,.81.09h0a12.56,12.56,0,0,1,1.64.35c.27.08.55.17.82.27l.76.31c.44.19.9.42,1.35.64h0l1.06.5c.45.21.86.38,1.25.52a12,12,0,0,0,1.36.37,12.66,12.66,0,0,0,1.43.21l.55,0h.43l.2-.14h0a5.59,5.59,0,0,0,.52-.45l.23-.23a2.52,2.52,0,0,0,.21-.25,4.14,4.14,0,0,0,.34-.48c0-.08.09-.16.13-.25l.12-.24h0a3.49,3.49,0,0,0,.2-.57c0-.1,0-.2.07-.3l.06-.29h0a5,5,0,0,0,.06-.77c0-.13,0-.25,0-.38s0-.24,0-.36h0a6.79,6.79,0,0,0-.22-1.09c0-.18-.1-.37-.17-.55s-.08-.24-.13-.36l-.09-.18c-.06-.12-.12-.24-.17-.36s-.11-.23-.17-.34a2.11,2.11,0,0,0-.21-.31,1.21,1.21,0,0,0-.21-.24L73.2,39a2.11,2.11,0,0,1-.23-.19,2.09,2.09,0,0,1-.22-.2l-.17-.24a1.78,1.78,0,0,1-.12-.29,2.32,2.32,0,0,1-.11-.64c0-.26,0-.52,0-.77a.66.66,0,0,0,0-.14c0-.15,0-.3-.05-.45s0-.28,0-.42,0-.27,0-.4a3.09,3.09,0,0,0,0-.43,1.33,1.33,0,0,0,0-.2c0-.06,0-.13,0-.19h0a2.47,2.47,0,0,0-.06-.29c0-.05,0-.1,0-.16a.3.3,0,0,1,0-.1h0a3.69,3.69,0,0,0-.33-.62c-.09-.15-.2-.29-.3-.44l-.12-.13,0-.06,0,0,0,0h0l-.26-.2v0h0s0,0,0,0a0,0,0,0,1,0,0h0s0,0,0,0h0l0,0h0l-.09-.1-.29-.39a0,0,0,0,1,0,0v0h0l.33.43-.06-.13-.06-.08L71,32a2.09,2.09,0,0,0-.14-.17l-.07-.06-.07-.06h0a1.31,1.31,0,0,0-.24-.17l-.14-.07-.12-.06h0l-.39-.14-.2-.05-.18,0h0l-.37,0h0"/><polyline class="cls-23" points="70.76 31.73 70.76 31.73 70.76 31.73"/><polyline class="cls-23" points="72.35 34.46 72.35 34.46 72.35 34.46"/><polyline class="cls-23" points="66.99 31.96 66.99 31.96 66.99 31.96 66.99 31.96"/><polyline class="cls-23" points="66.98 31.96 66.98 31.96 66.98 31.96"/><polyline class="cls-23" points="72.92 47.22 72.92 47.21 72.92 47.22"/><path class="cls-23" d="M73,36.75a4.19,4.19,0,0,0,.2,1.41,4.26,4.26,0,0,0,.26.62c.1.2.22.39.34.58.24.39.52.75.78,1.13.14.19.27.39.4.59s.14.22.2.33a2.53,2.53,0,0,1,.18.37l0,0a3.88,3.88,0,0,1,.23.89,3.22,3.22,0,0,1,0,.76,3.29,3.29,0,0,1-.19.7.11.11,0,0,0,0,.11.18.18,0,0,0,.08.07.14.14,0,0,0,.11,0l0,0a.21.21,0,0,0,0-.06,2.7,2.7,0,0,0,.14-.4,3.07,3.07,0,0,0,.07-.42,2.82,2.82,0,0,0,0-.82,3.76,3.76,0,0,0-.63-1.5c-.34-.5-.73-1-1.09-1.43h0a6.36,6.36,0,0,1-.84-1.39h0a3.82,3.82,0,0,1-.24-.94,4.16,4.16,0,0,1,0-.61s0,0,0,0,0,0,0,0m.09.61h0m.24.93h0m2.28,4.38h0"/><path class="cls-23" d="M72.59,33.78a3.52,3.52,0,0,0,.53.69l.31.33c0,.05.09.11.14.17a2.09,2.09,0,0,1,.14.17,2.58,2.58,0,0,1,.29.51c0,.12.08.24.12.37a2.66,2.66,0,0,1,.07.39,2.79,2.79,0,0,1,0,.58,3.43,3.43,0,0,1,0,.56v0h0l-.06.32-.06.36v0a.19.19,0,0,0,0,.07.15.15,0,0,0,.09.06.12.12,0,0,0,.1,0l0,0,0-.06a1.59,1.59,0,0,0,.07-.2,1.66,1.66,0,0,0,.06-.21,3.58,3.58,0,0,0,.09-.45,4,4,0,0,0,0-.85,3.36,3.36,0,0,0-.23-.88,1.57,1.57,0,0,0-.19-.33,3.15,3.15,0,0,0-.22-.29l-.28-.28-.3-.27A5,5,0,0,1,72.8,34h0a2.13,2.13,0,0,1-.16-.25h0s0,0,0,0m1.11,1.35h0m.3.52h0m.17,1.92h0v0"/><path class="cls-23" d="M63.16,37.4a1,1,0,0,1-.06.16,1.76,1.76,0,0,1-.29.44h0a3.9,3.9,0,0,1-.64.58l-.78.55h0c-.27.19-.54.38-.8.58a4,4,0,0,0-.65.65,2,2,0,0,0-.22.37,1.46,1.46,0,0,0-.07.19.8.8,0,0,0-.05.21,1.3,1.3,0,0,0,0,.44,1.45,1.45,0,0,0,.14.46l0,.08a.11.11,0,0,0,.14,0,.13.13,0,0,0,.06-.07A.25.25,0,0,0,60,42l0-.08a2.12,2.12,0,0,1-.11-.45,1.3,1.3,0,0,1,0-.34,1.42,1.42,0,0,1,.11-.35,2.13,2.13,0,0,1,.31-.47,5.51,5.51,0,0,1,.66-.62c.25-.21.52-.41.78-.61s.51-.39.75-.6a3.2,3.2,0,0,0,.58-.64,1.53,1.53,0,0,0,.19-.41,0,0,0,0,0,0-.05h0s0,0,0,0m-.06.16h0M60,40.75h0"/><path class="cls-23" d="M62.17,36.87l-.22.3a5.55,5.55,0,0,1-.49.48l-.56.44a6.06,6.06,0,0,0-.54.47,3.44,3.44,0,0,0-.46.55.09.09,0,0,0,0,.12.1.1,0,0,0,.12,0,2.42,2.42,0,0,1,.27-.36h0c.15-.17.31-.33.47-.48l.52-.45.5-.47a4.51,4.51,0,0,0,.44-.54,0,0,0,0,0,0,0h0l0,0m-1.87,2h0"/><path class="cls-24" d="M66,40.12h0a1.29,1.29,0,0,1-.1.35,1.74,1.74,0,0,1-.11.18l-.11.1-.11.06-.13,0H65.3a1.27,1.27,0,0,1-.24-.07h0a.1.1,0,0,0,0,0l0,0a2.33,2.33,0,0,0-.06.53,2.7,2.7,0,0,0,0,.56,4.48,4.48,0,0,0,.32,1.13,4.77,4.77,0,0,0,.62,1,4.06,4.06,0,0,0,.85.81,2.9,2.9,0,0,0,1,.46,2.4,2.4,0,0,0,.46,0,2.15,2.15,0,0,0,.68-.1,2.24,2.24,0,0,0,1.07-.72,3.08,3.08,0,0,0,.59-1.17,3.29,3.29,0,0,0,.07-.36c0-.06,0-.12,0-.18v-.15a.08.08,0,0,0,0-.09,4.18,4.18,0,0,0-.56-.28l-.21-.09a3.68,3.68,0,0,1-.85-.5,1.86,1.86,0,0,1-.31-.32h0a1.34,1.34,0,0,1-.17-.31,2.34,2.34,0,0,1-.09-.38,2.54,2.54,0,0,1,0-.39h-.23a3.76,3.76,0,0,1-.65-.09,5.16,5.16,0,0,1-1.31-.47L66,39.71a1.88,1.88,0,0,1,0,.41"/><path class="cls-25" d="M66,40.12h0l0,.14.17.14h0a2.9,2.9,0,0,0,.29.19l.31.15.35.11.36.06h0l.35,0a1.66,1.66,0,0,0,.32,0h0a1.27,1.27,0,0,0,.28-.06h0a.22.22,0,0,0,0-.08,2.54,2.54,0,0,1,0-.39h-.23a3.76,3.76,0,0,1-.65-.09,5.16,5.16,0,0,1-1.31-.47L66,39.71a2.82,2.82,0,0,1,0,.41"/><path class="cls-40" d="M72.68,46.15h0a6.37,6.37,0,0,0-.69.25,3.69,3.69,0,0,0-.66.35,1.43,1.43,0,0,0-.26.22,1.4,1.4,0,0,0-.23.29,3.32,3.32,0,0,0-.33.68l-.11.33-.08.29a1.59,1.59,0,0,0-.06.3,1.22,1.22,0,0,0,0,.27.51.51,0,0,0,0,.13.43.43,0,0,0,0,.13.57.57,0,0,0,.16.22,1.32,1.32,0,0,0,.63.3,4.29,4.29,0,0,0,.81.11h1.4a1.08,1.08,0,0,0,.27-.05l.11,0,.12-.07a.62.62,0,0,0,.15-.2.84.84,0,0,0,.07-.31,2.79,2.79,0,0,0,0-.64,4.37,4.37,0,0,0-.36-1.33,3.71,3.71,0,0,0-.4-.67,2.62,2.62,0,0,0-.52-.53.05.05,0,0,0,0,0"/><path class="cls-41" d="M65,40.62H65l-.11,0a.62.62,0,0,0-.2.12,1.37,1.37,0,0,0-.19.21,3.18,3.18,0,0,0-.36.6c-.11.24-.22.49-.34.8-.19.5-.36,1-.55,1.73-.12.43-.23.82-.32,1.21-.05.22-.09.44-.13.64v0l0,.11,0,.11v.05c-.11.59-.19,1.09-.23,1.55a10.12,10.12,0,0,0,0,1.65.09.09,0,0,0,0,.05h0a2,2,0,0,0,.59.36,6.53,6.53,0,0,0,.67.22l.39.1.43.07c.27,0,.56.05.88.06h.06a13.83,13.83,0,0,0,1.69-.1l.83-.09c.33,0,.59-.08.83-.13a3,3,0,0,0,.38-.1l.19,0,.09,0h0l.07,0a.08.08,0,0,0,0,0h0a1.54,1.54,0,0,0,.42-.26,2.22,2.22,0,0,0,.41-.49,2.66,2.66,0,0,0,.27-.59,2.27,2.27,0,0,0,.15-.61v-.06a2,2,0,0,0,.74-.2l.38-.2.12-.08.1-.06c.14-.08.32-.2.5-.33a2.31,2.31,0,0,0,.24-.2,1.9,1.9,0,0,0,.2-.22.64.64,0,0,0,.12-.25.6.6,0,0,0,0-.12.19.19,0,0,0,0-.08.3.3,0,0,0,0-.1l-.06-.09,0,0a1.33,1.33,0,0,0-.14-.19l0-.06a3.62,3.62,0,0,1-.22-.32c-.11-.15-.2-.3-.29-.44l0-.08-.1-.17c-.15-.23-.29-.44-.43-.62a6.32,6.32,0,0,0-.73-.85,3.69,3.69,0,0,0-.66-.52l-.13-.07-.15-.06-.07,0h0a.13.13,0,0,0,0,0,2.9,2.9,0,0,1,0,.34,3.08,3.08,0,0,1-.2.77,2.55,2.55,0,0,1-.24.39,1.79,1.79,0,0,1-.28.27,2.12,2.12,0,0,1-.36.21h0a2.31,2.31,0,0,1-.47.11l-.29,0-.31,0a2.46,2.46,0,0,1-.59-.16,2.78,2.78,0,0,1-.51-.31,3.77,3.77,0,0,1-.58-.61,5.09,5.09,0,0,1-.59-1,4.9,4.9,0,0,1-.32-1.19c0-.14,0-.27,0-.4s0,0,0,0l-.1,0-.19-.09h0"/><path class="cls-42" d="M70.39,45.56c.07.2.13.4.2.61s.14.42.2.63.06.21.08.32l0,.15,0,.14h0a1.06,1.06,0,0,1,0,.19s0,.11,0,.16a2,2,0,0,0,.73-.2l.16-.08-.21-.11a2.1,2.1,0,0,1-.3-.22,2.81,2.81,0,0,1-.48-.65c0-.06-.07-.12-.1-.19a1.42,1.42,0,0,1-.08-.18c-.07-.12-.13-.25-.19-.38s-.12-.26-.17-.4l0,0c0,.09.05.17.07.26"/><path class="cls-42" d="M63.23,44.1c-.12.43-.22.83-.31,1.22,0,.2-.08.39-.13.6V46l0,.11,0,.11v.05a13.58,13.58,0,0,0-.23,1.55,10.12,10.12,0,0,0,0,1.65.09.09,0,0,0,0,.05h0a1.26,1.26,0,0,0,.27.2,1.59,1.59,0,0,0,.32.16,5.25,5.25,0,0,0,.67.22l.39.1.43.07c.28,0,.56.05.88.06h.24l-.45-.21a3.48,3.48,0,0,1-.51-.34,2.91,2.91,0,0,1-.43-.43,2.67,2.67,0,0,1-.31-.51,2.31,2.31,0,0,1-.1-.28,2.74,2.74,0,0,1-.09-.39,4.1,4.1,0,0,1-.05-.86A14.68,14.68,0,0,1,64,45.58c0-.31.09-.62.12-.94l0-.47c0-.15,0-.31,0-.47h0a1.79,1.79,0,0,0,0-.23,1.77,1.77,0,0,0,0-.2c0-.07,0-.13,0-.2L64,42.9h0l-.16-.39,0-.11c-.19.49-.36,1-.55,1.7"/><path class="cls-24" d="M59.81,44.86h0a.1.1,0,0,0,0,0,7.72,7.72,0,0,0-.48,1.62,7.39,7.39,0,0,0-.11,1.69,7,7,0,0,0,.28,1.72l0,0a.72.72,0,0,0,.25.19l.32.12.29.07h0l.45.08a3.51,3.51,0,0,0,.55.05h.37a4.15,4.15,0,0,0,.72-.12,1.56,1.56,0,0,0,.53-.27A.09.09,0,0,0,63,50s0,0,0,0A.13.13,0,0,0,63,50l0-.15a8.2,8.2,0,0,1,0-2.16h0a9.61,9.61,0,0,1,.3-1.51,0,0,0,0,0,0-.05.1.1,0,0,0-.05,0h0a.08.08,0,0,0-.07.05c0,.1,0,.2-.08.3a1.41,1.41,0,0,0-.32-.34,4.13,4.13,0,0,0-.49-.32l0,0a5.69,5.69,0,0,0-.76-.36L61,45.23l-.34,0h0l-.45,0h-.08a1.59,1.59,0,0,0-.36.06l.06-.16,0,0v0a.11.11,0,0,0,0-.06l0,0h0"/><path class="cls-40" d="M59.79,44.86a.1.1,0,0,0,0,0,7.72,7.72,0,0,0-.48,1.62,8,8,0,0,0-.12,1.69,7.64,7.64,0,0,0,.29,1.72l0,0a.62.62,0,0,0,.25.19l.32.12.22.06-.06-.22a9.61,9.61,0,0,1-.3-1.51,10.3,10.3,0,0,1,0-1.57,10.15,10.15,0,0,1,.29-1.9,1.8,1.8,0,0,0-.36.06l0-.08,0-.08,0,0v0a.11.11,0,0,0,0-.06l0,0h-.05"/><path class="cls-41" d="M64.38,40.51a2.46,2.46,0,0,0-.64.07,3.74,3.74,0,0,0-.76.25,6,6,0,0,0-.7.38,6.15,6.15,0,0,0-1.2,1,6.71,6.71,0,0,0-.93,1.2.41.41,0,0,0,0,.09h0l-.06.09-.19.27,0,0a1.92,1.92,0,0,0-.23.31,1.21,1.21,0,0,0-.15.33,1.08,1.08,0,0,0,0,.19,1.23,1.23,0,0,0,0,.2,1.51,1.51,0,0,0,.15.37,1.75,1.75,0,0,0,.21.32l.25.29.27.25a2.52,2.52,0,0,0,.59.39,2.2,2.2,0,0,0,.67.22,2,2,0,0,0,.36,0h.38a2.27,2.27,0,0,0,.76-.12,1.27,1.27,0,0,0,.31-.2,1.21,1.21,0,0,0,.2-.24,1.75,1.75,0,0,0,.23-.58,6.09,6.09,0,0,0,.11-.64V44.9l0-.2a2.9,2.9,0,0,1,.07-.34,7,7,0,0,1,.25-1,4.65,4.65,0,0,1,.2-.52,5.34,5.34,0,0,1,.27-.53,5.44,5.44,0,0,0,.27-.54c.07-.16.14-.34.21-.55l0-.07a.88.88,0,0,0,.05-.15.63.63,0,0,0,0-.19l0,0a.08.08,0,0,0,0-.09,2.26,2.26,0,0,0-.78-.22h-.15"/><path class="cls-42" d="M63.74,40.57a4.57,4.57,0,0,0-.76.26,4.82,4.82,0,0,0-.7.38,6.48,6.48,0,0,0-1.2,1,7.78,7.78,0,0,0-.94,1.21.41.41,0,0,1,0,.09h0l-.06.09a2.69,2.69,0,0,1-.2.27l0,0-.22.32a1,1,0,0,0-.15.33.58.58,0,0,0,0,.19,1.23,1.23,0,0,0,0,.2,1.44,1.44,0,0,0,.14.37,3.77,3.77,0,0,0,.22.33c.07.09.16.18.25.28l.27.25a2.8,2.8,0,0,0,1.26.62l.36,0h.38a2,2,0,0,0,.76-.12h0a1.32,1.32,0,0,1-.28,0h-.37a4.41,4.41,0,0,1-.72-.16,4.34,4.34,0,0,1-.5-.2,3.25,3.25,0,0,1-.45-.25,2.22,2.22,0,0,1-.36-.32,1.47,1.47,0,0,1-.24-.37,1.94,1.94,0,0,1-.05-.2.81.81,0,0,1,0-.22,1.09,1.09,0,0,1,.15-.46l.17-.24a2.37,2.37,0,0,1,.27-.28l.29-.27.14-.15.06-.08.06-.08c.09-.14.18-.28.26-.43l.23-.42c.08-.15.17-.3.26-.44s.17-.24.27-.35a4.51,4.51,0,0,1,.54-.53,4.94,4.94,0,0,1,.65-.44,3.64,3.64,0,0,1,.57-.25l-.23,0"/><path class="cls-24" d="M71.87,38.62h-.06a1.67,1.67,0,0,0-.42.09,2.21,2.21,0,0,0-.4.21,2.65,2.65,0,0,0-.37.27l-.33.29,0,0-.07.07,0,.06a1.3,1.3,0,0,0-.1.15c-.09.13-.18.28-.27.43a3.21,3.21,0,0,0-.22.48,1.94,1.94,0,0,0,0,.2.26.26,0,0,0,0,.15.15.15,0,0,0,.06.09l.1,0h0l.11,0,.06,0,.08,0,0,0v0a.24.24,0,0,0,.12.14.19.19,0,0,0,.09,0h.1a.42.42,0,0,0,.14-.06l.12-.12a.76.76,0,0,0,.13-.17.19.19,0,0,0,.11.12l.12,0H71l.11,0,.11-.1a1.84,1.84,0,0,0,.17-.25l.12-.18.09-.1a1.83,1.83,0,0,1,.24-.13l.07,0,0,.56c-.07,1.26-.15,2.55-.18,3.83,0,.81,0,1.55,0,2.27,0,.28,0,.62.06,1a4.86,4.86,0,0,0,.13.78,2.34,2.34,0,0,0,.29.7,1.76,1.76,0,0,0,.24.3,1.83,1.83,0,0,0,.31.24,2.16,2.16,0,0,0,.34.16,2.61,2.61,0,0,0,.94.17h.24A2,2,0,0,0,75,50a1.54,1.54,0,0,0,.28-.19,1.44,1.44,0,0,0,.19-.22,1.79,1.79,0,0,0,.24-.52,3,3,0,0,0,.08-.64,4.49,4.49,0,0,0,0-.71,5.8,5.8,0,0,0-.12-.73c-.1-.5-.24-1-.35-1.36,0-.12-.07-.24-.1-.36L75.17,45l0-.12c0-.08,0-.16-.07-.24s-.11-.34-.17-.53c-.25-.76-.55-1.5-.78-2.07l-.18-.45v0l-.11-.27-.11-.28c0-.08-.07-.16-.1-.23a0,0,0,0,0,0,0h0l-.11-.26c0-.11-.08-.22-.13-.33a4.46,4.46,0,0,0-.41-.92,1.52,1.52,0,0,0-.46-.48,1.15,1.15,0,0,0-.61-.18"/><path class="cls-40" d="M71.09,38.9h0v0h0l-.07.05a2.65,2.65,0,0,0-.37.27,4,4,0,0,0-.33.29l0,0-.07.07,0,.06a1.3,1.3,0,0,0-.1.15c-.09.13-.18.27-.27.43a2.81,2.81,0,0,0-.22.48.73.73,0,0,0,0,.2.26.26,0,0,0,0,.15.15.15,0,0,0,.06.09.29.29,0,0,0,.1,0h.07a.12.12,0,0,1,0,0s0-.05,0-.08a.14.14,0,0,1,0-.07.55.55,0,0,1,0-.18,1.33,1.33,0,0,1,0-.19,2.1,2.1,0,0,1,.22-.42,4.56,4.56,0,0,1,.27-.39c.07-.1.15-.19.23-.29l.08-.08a2.43,2.43,0,0,1,.3-.26L71,39l.13-.09.12-.08h0l.1,0h0l-.33.18"/><path class="cls-40" d="M71.7,44.59c0,.82,0,1.56,0,2.27,0,.28,0,.62.06,1a5.06,5.06,0,0,0,.13.78,2,2,0,0,0,.29.7l.13.18h0a2.34,2.34,0,0,1-.23-.59,3.65,3.65,0,0,1-.12-.66c0-.22,0-.45,0-.67s0-.44,0-.66v-.79c0-.64,0-1.28,0-1.92q0-1.41,0-2.82c-.06,1.07-.12,2.16-.14,3.24"/><path class="cls-43" d="M71.73,43.44c0,.63-.06,1.26-.06,1.89,0,.31,0,.61,0,.92s0,.62,0,.93,0,.48.06.73.05.4.09.6a3.09,3.09,0,0,0,.18.59,1.17,1.17,0,0,0,.15.27.87.87,0,0,0,.19.23l0,0h0a0,0,0,0,0,0-.07l-.11-.13a2,2,0,0,1-.24-.51,5.64,5.64,0,0,1-.2-.81c-.05-.32-.08-.63-.1-1h0c0-.61,0-1.23,0-1.84s0-1.24.06-1.86a0,0,0,0,0,0,0h0a0,0,0,0,0,0,0"/><path class="cls-43" d="M71.09,38.9h0v0s0,0,0,0a1.64,1.64,0,0,0-.22.14,1.76,1.76,0,0,0-.3.24l-.26.24-.17.17a4.25,4.25,0,0,0-.37.47,1.68,1.68,0,0,0-.21.37.8.8,0,0,0-.08.37.47.47,0,0,0,0,.17l.06.1a.21.21,0,0,0,.08.06.25.25,0,0,0,.19,0,.3.3,0,0,0,.16-.13h0A.06.06,0,0,0,70,41s0,0-.06,0h0l-.06,0-.06,0-.06,0h-.09l0,0,0-.05a.29.29,0,0,1,0-.09.62.62,0,0,1,0-.13,1.17,1.17,0,0,1,0-.2,2.61,2.61,0,0,1,.31-.54h0c.11-.15.24-.3.36-.44l.21-.23.3-.27h0a2.29,2.29,0,0,1,.5-.3h0l.1,0h0l-.33.18m-1.53,1.88h0"/><polyline class="cls-43" points="70.79 39.12 70.79 39.11 70.79 39.12"/><polyline class="cls-43" points="70.78 39.12 70.79 39.12 70.78 39.12"/><path class="cls-43" d="M70.32,40.17c0,.07-.1.14-.14.21a1.28,1.28,0,0,0-.15.25,1.06,1.06,0,0,0-.09.25V41a.61.61,0,0,0,0,.13l.06.08a.16.16,0,0,0,.08.06l.09,0a.21.21,0,0,0,.11,0l.1,0,.1-.07.1-.1,0-.06,0-.08,0,0s0,0,0,0l0,.07,0,.06a.52.52,0,0,1-.11.1.53.53,0,0,1-.1.06l-.09,0h-.07l-.05,0,0,0,0,0,0-.06a.36.36,0,0,1,0-.1.41.41,0,0,1,0-.11.66.66,0,0,1,.06-.2,3.7,3.7,0,0,1,.29-.47s0,0,0,0h0m-.25.5h0m.11.55h0"/><path class="cls-43" d="M72.34,39.68l-.06.15h0l0,.06a.35.35,0,0,1,0,.08h0l0,.05-.05,0-.12.08-.15.06-.14.07-.12.1-.09.1-.09.12-.17.25L71.1,41,71,41l-.08,0h-.11l0,0s0,0,0,0l0-.05s0,0,0-.08a.34.34,0,0,1,0-.1.84.84,0,0,1,0-.17,2.2,2.2,0,0,1,.34-.5h0l0-.05v0a0,0,0,0,0,0,0h0a0,0,0,0,0,0,0h0a3.43,3.43,0,0,0-.36.49.42.42,0,0,0-.06.14.74.74,0,0,0,0,.14.57.57,0,0,0,0,.13.25.25,0,0,0,0,.07l0,0,0,0,0,0a.2.2,0,0,0,.11,0l.11,0,.12-.06.1-.09a1.13,1.13,0,0,0,.1-.13c.07-.1.13-.2.2-.29l.06-.07a.27.27,0,0,0,.08-.07,1.51,1.51,0,0,1,.22-.11L72,40.2l.11-.07a.69.69,0,0,0,.16-.18.61.61,0,0,0,0-.12l.06-.13s0,0,0,0h0m-.25.39h0m-.55.44h0m-.33.33h0m-.48.07h0m0,0h0m0,0h0m0,0Zm.32-.93h0M72.2,40h0"/><path class="cls-24" d="M66,39.23a.1.1,0,0,0,0,0,.11.11,0,0,0,0,0,1.08,1.08,0,0,1,.07.31h0s0,0,0,.06l.18.1a5.57,5.57,0,0,0,1.31.47,5,5,0,0,0,.65.08h.23c0-.09,0-.18,0-.28h0s0-.06,0-.08a.13.13,0,0,0,0-.06s0,0,0,0h-.06l0,0V40l0-.08-.16-.15-.19-.13a1.86,1.86,0,0,0-.47-.22,2.83,2.83,0,0,0-.5-.13h-.21a1.48,1.48,0,0,0-.31,0,.69.69,0,0,0-.27.14s0-.1,0-.15l0,0h0"/><path class="cls-25" d="M66,39.23a.1.1,0,0,0,0,0,.11.11,0,0,0,0,0,1.55,1.55,0,0,1,.07.31.19.19,0,0,0,0,.08h0l.18.1a5.57,5.57,0,0,0,1.31.47,5,5,0,0,0,.65.08h.23l0-.28V40a.13.13,0,0,0,0-.06.08.08,0,0,0,0,0h-.06s0,0,0,0V40a.35.35,0,0,0,0-.08,1.2,1.2,0,0,0-.16-.15l-.19-.13a2,2,0,0,0-.46-.22,3.18,3.18,0,0,0-.51-.13h-.21a1,1,0,0,0-.31,0,.69.69,0,0,0-.27.14,1.13,1.13,0,0,0,0-.15.1.1,0,0,0,0,0h0"/><path class="cls-25" d="M72.13,34.74H72l-.05,0h0a.35.35,0,0,0-.12.1.69.69,0,0,0-.16.28s0,0,0,0h0a1.41,1.41,0,0,0-.08.56,1.9,1.9,0,0,0,.1.57,2,2,0,0,0,.11.26,2,2,0,0,0,.14.22l-.12,0h-.07a.08.08,0,0,0,0,.15.58.58,0,0,0,.19,0,.77.77,0,0,0,.17-.07,1.1,1.1,0,0,0,.14-.11.68.68,0,0,0,.12-.12,1.32,1.32,0,0,0,.3-.59,1.83,1.83,0,0,0,0-.66,1.27,1.27,0,0,0-.08-.31.76.76,0,0,0-.15-.23.6.6,0,0,0-.21-.14l-.12,0"/><path class="cls-29" d="M72.37,35l-.09,0-.09,0a.43.43,0,0,0-.17.13l-.06.07-.06.1a.59.59,0,0,0-.05.19,0,0,0,0,0,0,0h0s0,0,0,0h0a.53.53,0,0,1,0-.12.71.71,0,0,1,.08-.15h0l.12-.11h0l.12-.07.09,0h0a0,0,0,0,0,0,0v0h0m-.1.09h0m.09,0h0"/><path class="cls-24" d="M67.61,31.54a5.64,5.64,0,0,0-1.19.67,6.45,6.45,0,0,0-1,.92,5.38,5.38,0,0,0-.76,1.07,4.8,4.8,0,0,0-.26.57l-.09.3a3.85,3.85,0,0,0-.09.41,1.71,1.71,0,0,0,0,.31l-.19-.1a1.42,1.42,0,0,0-.35-.11l-.2,0h-.17a.8.8,0,0,0-.32.13.83.83,0,0,0-.32.46,1.2,1.2,0,0,0,0,.6,1.14,1.14,0,0,0,.06.25,1.12,1.12,0,0,0,.1.22,1.46,1.46,0,0,0,.42.44,1.73,1.73,0,0,0,.57.25,1.6,1.6,0,0,0,.39,0h.16a2.44,2.44,0,0,0,.36.6,3.67,3.67,0,0,0,.43.47,4.62,4.62,0,0,0,1,.67h0l.18.1a5.57,5.57,0,0,0,1.31.47,5,5,0,0,0,.65.08h.23l.41,0a3.26,3.26,0,0,0,.65-.12,4.82,4.82,0,0,0,.61-.2,3.33,3.33,0,0,0,1.75-1.74,3.89,3.89,0,0,0,.25-.75,3.52,3.52,0,0,0,.12-.82A6.62,6.62,0,0,0,72.07,35a8.1,8.1,0,0,0-.47-1.55A6.37,6.37,0,0,0,71,32.33a7.62,7.62,0,0,0-.81-1h0l0,0a3.16,3.16,0,0,0-.76-.09,4.46,4.46,0,0,0-1.77.37"/><path class="cls-29" d="M63.6,36.08s0,0,0,0l0,.07a.36.36,0,0,0,0,.09,1.29,1.29,0,0,0,0,.19v.19a1.2,1.2,0,0,0,0,.2,1,1,0,0,0,.41.63s0,0,0,0a0,0,0,0,0,0,0h0a.47.47,0,0,1-.1-.1.71.71,0,0,1-.12-.18,1.58,1.58,0,0,1-.09-.31,1.9,1.9,0,0,1,0-.34.84.84,0,0,1,.07-.26l0,0a.05.05,0,0,0,0-.08h0m0,.15h0Zm0,.58h0"/><path class="cls-29" d="M63.24,35.94A.5.5,0,0,0,63,36a.6.6,0,0,0-.08.08.31.31,0,0,0-.05.1s0,0,0,0a0,0,0,0,0,0,0h0l0-.05,0,0,.06,0,.09,0h.11l.09,0,.08,0,.06.05,0,0h0a0,0,0,0,0,0,0,.07.07,0,0,0,0,0l0,0s0,0,0,0l0,0,0,0-.06,0-.12,0h-.11m.06.11h0m-.18,0h0m0,0h0"/><path class="cls-40" d="M67.61,31.54a6,6,0,0,0-1.2.67,6.84,6.84,0,0,0-1,.92,5.11,5.11,0,0,0-.76,1.07,4.8,4.8,0,0,0-.26.57l-.09.3a3.85,3.85,0,0,0-.09.41,1.71,1.71,0,0,0,0,.31l-.09-.06a1.33,1.33,0,0,0,.1.34h0a2,2,0,0,0,.13.25h0a.57.57,0,0,0,.11.11l.09.06a.19.19,0,0,0,.1,0h.1l.08,0,0,0,0,0h0l.09-.08a1,1,0,0,0,.1-.17,2.52,2.52,0,0,0,.12-.39l0,0,0,0a2.44,2.44,0,0,0,.38,0,3.78,3.78,0,0,0,.86-.23,4.93,4.93,0,0,0,1-.6h0l.24-.2a2.39,2.39,0,0,0,.23-.22c.16-.16.31-.33.45-.5h0c.12-.16.24-.33.35-.51A5.68,5.68,0,0,0,69,33h0c0-.14.1-.28.14-.43a3.15,3.15,0,0,0,.09-.42h0a2,2,0,0,0,0-.23,0,0,0,0,1,0,0s0,0,0,0h0c.22.06.44.13.65.21a4.6,4.6,0,0,1,.61.25,4.08,4.08,0,0,1,.57.34l.11.08c-.08-.14-.16-.28-.25-.42a6.9,6.9,0,0,0-.81-1h0l0,0a3.16,3.16,0,0,0-.76-.09,4.3,4.3,0,0,0-1.77.37m-3,5Z"/><polyline class="cls-40" points="64.4 36.43 64.39 36.43 64.4 36.43"/><polyline class="cls-40" points="69.25 32.09 69.25 32.09 69.25 32.09"/><polyline class="cls-40" points="67.47 34.93 67.47 34.93 67.47 34.93"/><path class="cls-26" d="M62.61,36.9h0a.38.38,0,0,0,0,.1,1.6,1.6,0,0,0,.1.23,1.43,1.43,0,0,0,.42.43,1.55,1.55,0,0,0,.57.25,1.6,1.6,0,0,0,.39,0h.16a2.34,2.34,0,0,0,.35.59,3.84,3.84,0,0,0,.44.47,5.31,5.31,0,0,0,1,.68l.08,0,0,0,.08,0a5.16,5.16,0,0,0,1.31.47,4.84,4.84,0,0,0,.65.09h.22l.42,0a5.8,5.8,0,0,0,.65-.12,3.39,3.39,0,0,0,.61-.21,3.4,3.4,0,0,0,1.58-1.39l-.31.3-.27.24-.3.25a3.78,3.78,0,0,1-.62.4,3.16,3.16,0,0,1-.7.27,3.69,3.69,0,0,1-.82.12h-.42a3,3,0,0,1-.42,0,5.08,5.08,0,0,1-1.5-.49,5,5,0,0,1-.6-.36,5.31,5.31,0,0,1-.55-.45,4.17,4.17,0,0,1-.44-.54,2.88,2.88,0,0,1-.16-.29,1.9,1.9,0,0,1-.1-.28l-.11,0-.21,0H64a1.13,1.13,0,0,1-.32-.05,1.46,1.46,0,0,1-.58-.3,2.61,2.61,0,0,1-.24-.22,2.22,2.22,0,0,1-.19-.27l0-.06Z"/><path class="cls-22" d="M69.23,30.69h0a5.37,5.37,0,0,0-1.41.19,6.24,6.24,0,0,0-2.53,1.36,5.27,5.27,0,0,0-.94,1.07A3.46,3.46,0,0,0,64,34a2.76,2.76,0,0,0-.15.81,2.9,2.9,0,0,0,0,.51,2.77,2.77,0,0,0,0,.39,1.7,1.7,0,0,0,.16.51.74.74,0,0,0,.16.19.38.38,0,0,0,.21.1h.08a.42.42,0,0,0,.35-.18,1.07,1.07,0,0,0,.17-.43,1.7,1.7,0,0,0,0-.4,4,4,0,0,0,.77-.1,3.17,3.17,0,0,0,.4-.14l.33-.16a5.32,5.32,0,0,0,1.16-.85,4.31,4.31,0,0,0,.88-1.14,3.61,3.61,0,0,0,.26-.66,3.39,3.39,0,0,0,.11-.71v-.15l.15,0h.4a2.46,2.46,0,0,1,.56.15,3.5,3.5,0,0,1,.7.4h0a3.16,3.16,0,0,1,.43.38l0,0,0,0a0,0,0,0,0,0,0,.9.9,0,0,0,.07-.27.77.77,0,0,0,0-.26,1.14,1.14,0,0,0-.21-.45,2,2,0,0,0-.4-.35,3.05,3.05,0,0,0-.51-.27,3.8,3.8,0,0,0-.51-.16l-.24,0-.27,0"/><path class="cls-23" d="M68.51,31.56a4.26,4.26,0,0,1-.35.75h0a7.06,7.06,0,0,1-.42.64,5,5,0,0,1-.51.6c-.16.16-.32.3-.49.44a4.11,4.11,0,0,1-.51.34,2.91,2.91,0,0,1-.35.18l-.36.13-.16,0h-.08l-.09,0c-.07,0-.12.08-.12.15a.15.15,0,0,0,.06.09.17.17,0,0,0,.1,0h0a1.75,1.75,0,0,0,.64-.14,3,3,0,0,0,.59-.3,4.71,4.71,0,0,0,1-.94,8,8,0,0,0,.7-1c.09-.16.18-.33.26-.51s.13-.32.19-.48a0,0,0,0,0,0-.06h0a.05.05,0,0,0,0,0m-1.28,2h0m-1.71,1.08h0m2.64-2.33h0"/><path class="cls-23" d="M68,31.4a4.34,4.34,0,0,1-.28.62h0a3.35,3.35,0,0,1-.29.44,4.55,4.55,0,0,1-.35.4h0a3.11,3.11,0,0,1-.33.29,3.37,3.37,0,0,1-.38.28.09.09,0,0,0,0,.12.08.08,0,0,0,.11,0,5.27,5.27,0,0,0,.51-.43,5.47,5.47,0,0,0,.45-.51,5.35,5.35,0,0,0,.36-.56,3.48,3.48,0,0,0,.26-.63s0,0,0,0h0a0,0,0,0,0,0,0"/><path class="cls-23" d="M68.51,30.51h0a2.53,2.53,0,0,1-.64.26h0a4.46,4.46,0,0,1-.73.13l-.76.07a7,7,0,0,0-1.51.26,3.45,3.45,0,0,0-1.21.71,3.81,3.81,0,0,0-.91,1.19,2.36,2.36,0,0,0-.21.65,3.16,3.16,0,0,0,0,.32c0,.06,0,.12,0,.18l0,.15h0v0a.14.14,0,0,0,.16.12.15.15,0,0,0,.12-.16.19.19,0,0,1,0-.08v-.07a2.18,2.18,0,0,1,0-.25c0-.08,0-.17,0-.26a2.73,2.73,0,0,1,.28-.66,3.92,3.92,0,0,1,.64-.83h0l0,0,0,0c.13-.12.27-.25.41-.36a3.6,3.6,0,0,1,.4-.28,3.08,3.08,0,0,1,.76-.3h0a13.2,13.2,0,0,1,1.51-.25c.25,0,.5-.08.74-.14a4,4,0,0,0,.69-.24l.26-.14s0,0,0,0h0m-3.14.8h0m-.76.29,0,0,0,0M62.8,34.25v0m0,0h0m-.26.18h0m1.24-2.19h0"/><path class="cls-23" d="M64.82,32.05l-.28.25a3.19,3.19,0,0,0-.26.26,5.17,5.17,0,0,0-.48.57,5.89,5.89,0,0,0-.37.64c0,.11-.09.23-.13.34s-.07.24-.1.37a2.57,2.57,0,0,0,0,.68.12.12,0,0,0,.13.1.12.12,0,0,0,.07,0,.08.08,0,0,0,0-.08V35a2.75,2.75,0,0,1,0-.41,2.57,2.57,0,0,1,.08-.4,2.16,2.16,0,0,1,.14-.43,3,3,0,0,1,.19-.41,5,5,0,0,1,.72-.93h0c.1-.11.21-.2.32-.3a0,0,0,0,0,0,0h0"/><path class="cls-23" d="M69.07,31.31s0,0,0,0a.05.05,0,0,0,0,0h0a3.84,3.84,0,0,1,1,.15,3.47,3.47,0,0,1,.45.17l.24.11.22.12.17.11.17.13a2.81,2.81,0,0,1,.31.29l0,0a1.71,1.71,0,0,1,.21.26A2.9,2.9,0,0,1,72,33h0l0,0h.09a.12.12,0,0,0,.06-.06.11.11,0,0,0,0-.08A1.75,1.75,0,0,0,72,32.6a1.78,1.78,0,0,0-.22-.26,2.61,2.61,0,0,0-.52-.41l-.3-.17-.3-.13a3.79,3.79,0,0,0-.65-.21,4.72,4.72,0,0,0-.92-.11h0m1,.21h0M72,33h0m-.39-.52h0"/><path class="cls-23" d="M70.19,31.21s0,0,0,0l.36.07.3.11a1.59,1.59,0,0,1,.29.15,1.1,1.1,0,0,1,.21.14,1.8,1.8,0,0,1,.2.19.07.07,0,0,0,.06,0,.06.06,0,0,0,.06,0,.11.11,0,0,0,0-.06l0,0a1.78,1.78,0,0,0-.32-.24,2,2,0,0,0-.36-.18,2.4,2.4,0,0,0-.38-.12,2.57,2.57,0,0,0-.4-.06h0s0,0,0,0m1,.37h0"/><path class="cls-44" d="M62.75,42.85a.5.5,0,0,0-.07.29.51.51,0,0,0,0,.21c0,.06.06.15.14.15a.14.14,0,0,0,.11-.07.48.48,0,0,0,.07-.29.39.39,0,0,0,0-.21c0-.06-.06-.14-.14-.15a.16.16,0,0,0-.11.07"/><path class="cls-44" d="M64.57,43.92a.51.51,0,0,0-.08.29.76.76,0,0,0,0,.21c0,.06.07.15.14.15a.14.14,0,0,0,.11-.07.46.46,0,0,0,.08-.28.54.54,0,0,0,0-.22c0-.06-.06-.14-.14-.14a.11.11,0,0,0-.1.06"/><path class="cls-44" d="M65,42.65a.49.49,0,0,0-.08.29.76.76,0,0,0,0,.21c0,.06.07.15.14.15a.16.16,0,0,0,.11-.07.49.49,0,0,0,.08-.29.52.52,0,0,0,0-.21c0-.06-.06-.15-.14-.15a.14.14,0,0,0-.1.07"/><path class="cls-44" d="M64.11,41a.48.48,0,0,0-.08.28.78.78,0,0,0,0,.22c0,.06.07.14.14.15a.14.14,0,0,0,.11-.07.51.51,0,0,0,.08-.29.76.76,0,0,0,0-.21c0-.06-.07-.15-.15-.15a.12.12,0,0,0-.1.07"/><path class="cls-44" d="M60.77,44.28a.57.57,0,0,0-.07.29.76.76,0,0,0,0,.21c0,.06.06.15.14.15a.16.16,0,0,0,.11-.07.57.57,0,0,0,.08-.29.52.52,0,0,0,0-.21c0-.06-.06-.15-.14-.15a.16.16,0,0,0-.11.07"/><path class="cls-44" d="M62.44,45.38a.48.48,0,0,0-.07.29.39.39,0,0,0,0,.21c0,.06.06.15.14.15a.16.16,0,0,0,.11-.07.5.5,0,0,0,.07-.29.76.76,0,0,0,0-.21c0-.06-.06-.15-.14-.15a.14.14,0,0,0-.11.07"/><path class="cls-44" d="M61.49,42.14a.51.51,0,0,0-.08.29.76.76,0,0,0,0,.21c0,.06.07.15.14.15a.12.12,0,0,0,.11-.07.46.46,0,0,0,.08-.28.78.78,0,0,0,0-.22c0-.06-.07-.14-.15-.14a.11.11,0,0,0-.1.06"/><path class="cls-44" d="M64.68,47.31a.48.48,0,0,0-.07.29.76.76,0,0,0,0,.21c0,.06.06.15.14.15a.16.16,0,0,0,.11-.07A.48.48,0,0,0,65,47.6a.39.39,0,0,0,0-.21c0-.06-.06-.15-.14-.15a.16.16,0,0,0-.11.07"/><path class="cls-44" d="M65.53,45.46a.48.48,0,0,0-.07.29.39.39,0,0,0,0,.21c0,.06.06.15.14.15a.16.16,0,0,0,.11-.07.48.48,0,0,0,.07-.29.51.51,0,0,0,0-.21c0-.06-.06-.15-.14-.15a.16.16,0,0,0-.11.07"/><path class="cls-44" d="M68,45.11a.49.49,0,0,0-.08.29.76.76,0,0,0,0,.21c0,.06.07.15.15.15a.14.14,0,0,0,.1-.07.49.49,0,0,0,.08-.29.76.76,0,0,0,0-.21c0-.06-.07-.15-.14-.15a.14.14,0,0,0-.11.07"/><path class="cls-44" d="M66.94,46.83a.6.6,0,0,0-.08.29.54.54,0,0,0,0,.22s.06.14.14.14a.13.13,0,0,0,.11-.06.59.59,0,0,0,.07-.29.71.71,0,0,0,0-.21c0-.06-.07-.15-.14-.15a.13.13,0,0,0-.11.06"/><path class="cls-44" d="M67.44,48.83a.48.48,0,0,0-.07.29.51.51,0,0,0,0,.21c0,.06.06.15.14.15a.16.16,0,0,0,.11-.07.48.48,0,0,0,.07-.29.39.39,0,0,0,0-.21c0-.06-.06-.15-.14-.15a.16.16,0,0,0-.11.07"/><path class="cls-44" d="M65.63,49.1a.49.49,0,0,0-.08.29.76.76,0,0,0,0,.21c0,.06.07.15.15.15a.14.14,0,0,0,.1-.07.49.49,0,0,0,.08-.29.76.76,0,0,0,0-.21c0-.06-.07-.15-.14-.15a.14.14,0,0,0-.11.07"/><path class="cls-44" d="M63.61,48.58a.49.49,0,0,0-.08.29.76.76,0,0,0,0,.21c0,.06.07.15.14.15a.14.14,0,0,0,.11-.07.49.49,0,0,0,.08-.29.52.52,0,0,0,0-.21c0-.06-.06-.15-.14-.15a.14.14,0,0,0-.1.07"/><path class="cls-44" d="M68.66,47.31a.57.57,0,0,0-.08.29.52.52,0,0,0,0,.21c0,.06.06.15.14.15a.14.14,0,0,0,.1-.07.49.49,0,0,0,.08-.29.76.76,0,0,0,0-.21c0-.06-.07-.15-.14-.15a.16.16,0,0,0-.11.07"/><path class="cls-44" d="M69.55,48.84a.49.49,0,0,0-.08.29.76.76,0,0,0,0,.21c0,.06.07.15.15.15a.14.14,0,0,0,.1-.07.49.49,0,0,0,.08-.29.76.76,0,0,0,0-.21c0-.06-.07-.15-.14-.15a.12.12,0,0,0-.11.07"/><path class="cls-44" d="M70.08,46.74A.57.57,0,0,0,70,47a.76.76,0,0,0,0,.21c0,.06.06.14.14.15a.16.16,0,0,0,.11-.07.6.6,0,0,0,.08-.29.52.52,0,0,0,0-.21c0-.06-.06-.15-.14-.15a.14.14,0,0,0-.11.07"/><path class="cls-44" d="M69.52,44.89a.51.51,0,0,0-.08.29.76.76,0,0,0,0,.21c0,.06.07.15.14.15a.14.14,0,0,0,.11-.07.57.57,0,0,0,.08-.28.54.54,0,0,0,0-.22c0-.06-.06-.14-.14-.15a.14.14,0,0,0-.1.07"/><path class="cls-44" d="M70.61,43a.59.59,0,0,0-.07.29.76.76,0,0,0,0,.21c0,.06.07.15.14.15a.14.14,0,0,0,.11-.07.57.57,0,0,0,.08-.29.52.52,0,0,0,0-.21c0-.06-.06-.14-.14-.15a.16.16,0,0,0-.11.07"/><path class="cls-44" d="M71.29,44.43a.57.57,0,0,0-.07.29.76.76,0,0,0,0,.21c0,.06.06.15.14.15A.16.16,0,0,0,71.5,45a.57.57,0,0,0,.08-.29.52.52,0,0,0,0-.21c0-.06-.06-.15-.14-.15a.16.16,0,0,0-.11.07"/><path class="cls-44" d="M71,45.7A.5.5,0,0,0,71,46a.49.49,0,0,0,0,.21c0,.06.06.15.14.15a.13.13,0,0,0,.11-.06.5.5,0,0,0,.07-.29.36.36,0,0,0,0-.21c0-.06-.06-.15-.14-.15a.13.13,0,0,0-.11.06"/><path class="cls-22" d="M68.66,37a.46.46,0,0,0,.09.3.43.43,0,0,0,.24.18.34.34,0,0,0,.26,0,.4.4,0,0,0,.17-.27v0l0,0s-.06,0-.06,0l0,.1a.09.09,0,0,1,0,.06l0,0,0,0h-.12l-.08,0-.08,0a.46.46,0,0,1-.07-.07h0l0-.09a.29.29,0,0,1,0-.09.11.11,0,0,1,0-.08.05.05,0,0,0-.05,0,0,0,0,0,0,0,0m.1.07h0m.46.29h0m-.16,0h0m-.23-.14h0"/><path class="cls-22" d="M66.91,35.73c-.14,0-.22.25-.18.51s.2.46.34.43.22-.25.18-.51-.19-.46-.34-.43"/><path class="cls-22" d="M70.68,35c-.15,0-.23.25-.19.51s.2.46.34.43.23-.25.18-.51-.19-.46-.33-.43"/><path class="cls-22" d="M71.18,33.7c0-.14-.25-.33-.63-.42s-.71-.05-.75.1.25.33.63.42.71,0,.75-.1"/><path class="cls-29" d="M69,34.69s0,0,0,0,0,0,0,0v.07h0c0,.15,0,.31,0,.47s0,.2,0,.28l0,.14a.14.14,0,0,0,0,.06v.07l0,0h0l0,0h0l0,0,.09-.1.07,0,.07,0h.06l.06,0,.06,0a.1.1,0,0,1,0,.06.18.18,0,0,1,0,.07s0,.06,0,.09V36a.41.41,0,0,1,0,.08.3.3,0,0,1,0,.08l-.09.09-.15.08-.14,0s0,0,0,0a.07.07,0,0,0,0,.05.07.07,0,0,0,.06,0h0a.86.86,0,0,0,.32-.15.44.44,0,0,0,.17-.19.31.31,0,0,0,0-.21.46.46,0,0,0,0-.2.37.37,0,0,0-.13-.15.48.48,0,0,0-.18-.06h-.09l-.1,0-.09.07a.71.71,0,0,0-.07.09v0l0-.08c0-.08,0-.15,0-.2a3.63,3.63,0,0,1-.06-.38c0-.11,0-.22,0-.33s0,0,0,0"/></g><rect class="cls-30" x="58.02" y="28.95" width="18.96" height="20.3" rx="0.7" transform="translate(-0.08 0.14) rotate(-0.12)"/><circle class="cls-27" cx="72.31" cy="56.48" r="2.42"/><path class="cls-32" d="M73.12,55.16a.91.91,0,0,0-.81.51.89.89,0,0,0-.79-.52,1,1,0,0,0-.92,1c0,1,1.69,2,1.69,2s1.71-.85,1.72-2A.94.94,0,0,0,73.12,55.16Z"/><circle class="cls-27" cx="62.75" cy="56.51" r="2.42"/><line class="cls-33" x1="63.56" y1="55.82" x2="61.9" y2="57.49"/><line class="cls-33" x1="61.89" y1="55.83" x2="63.57" y2="57.49"/><line class="cls-45" x1="60.47" y1="51.02" x2="74.14" y2="51.06"/><line class="cls-45" x1="60.46" y1="52.3" x2="74.14" y2="52.34"/><line class="cls-34" x1="51.62" y1="42.9" x2="48.96" y2="40.24"/><line class="cls-34" x1="51.62" y1="37.56" x2="48.96" y2="40.22"/><line class="cls-34" x1="53.99" y1="42.9" x2="51.33" y2="40.24"/><line class="cls-34" x1="53.99" y1="37.56" x2="51.33" y2="40.22"/><line class="cls-34" x1="83.75" y1="42.9" x2="86.41" y2="40.24"/><line class="cls-34" x1="83.75" y1="37.56" x2="86.41" y2="40.22"/><line class="cls-34" x1="81.37" y1="42.9" x2="84.03" y2="40.24"/><line class="cls-34" x1="81.37" y1="37.56" x2="84.03" y2="40.22"/><g class="cls-46"><path class="cls-12" d="M24.15,57.1a3.63,3.63,0,0,0-.73.08,4.13,4.13,0,0,0-.55.16l-.56.23a12,12,0,0,0-1.07.54l-.94.55c-.49.29-1,.6-1.53.86l0,0a2.66,2.66,0,0,0-.42.45c-.1.13-.2.27-.3.43a6,6,0,0,0-.49,1,10.77,10.77,0,0,0-.6,2.21c-.15.79-.23,1.57-.29,2.24,0,.21,0,.43-.05.64l0,.39c0,.37-.05.68-.07,1a15.22,15.22,0,0,0,0,2.16,7.63,7.63,0,0,0,.46,2.1,5.11,5.11,0,0,0,.48.93A4,4,0,0,0,19,74.49a4.17,4.17,0,0,0,1.07.39,2.76,2.76,0,0,0,.57.06,2.33,2.33,0,0,0,.53-.06,1.67,1.67,0,0,0,.93-.58,2.42,2.42,0,0,0,.41-1c0-.16.05-.33.08-.49V72.7a6.38,6.38,0,0,0,.07-.67,10,10,0,0,0-.24-2.83,15.76,15.76,0,0,0-.87-2.72v0l-.06-.12A4.92,4.92,0,0,0,23,65.1a9.77,9.77,0,0,0,1.14-1.73l.3-.59a20.36,20.36,0,0,0,2.23.27l.67,0A8.82,8.82,0,0,0,29,62.92l.45-.11.34-.12a4.27,4.27,0,0,0,.77-.39,2.36,2.36,0,0,0,.64-.55,1.26,1.26,0,0,0,.22-.33,1.3,1.3,0,0,0,.09-.39,1.05,1.05,0,0,0-.2-.64,2.26,2.26,0,0,0-.57-.52,4.86,4.86,0,0,0-.71-.4l-.72-.32c-.18-.08-.4-.18-.61-.29l-.74-.4-.23-.13a14.13,14.13,0,0,0-2.08-1,5.48,5.48,0,0,0-1.09-.24l-.38,0"/><path class="cls-35" d="M24.3,62.67a.08.08,0,0,0,0,0l0,.08h0A5.24,5.24,0,0,1,23.71,64a7.37,7.37,0,0,1-1.07,1.36h0v0h0c-.16.15-.33.29-.5.43a7.48,7.48,0,0,1-.66.43h0a.08.08,0,0,0-.05,0,.1.1,0,0,0,0,.09l.06,0a.14.14,0,0,0,.09,0c.18-.11.37-.21.54-.33a3.47,3.47,0,0,0,.42-.34,6.71,6.71,0,0,0,1.39-1.76,6.09,6.09,0,0,0,.45-1c0-.1.06-.2.08-.3a.08.08,0,0,0-.06-.09h0l-.05,0m-2.83,3.6h0m1.16-.86h0"/><path class="cls-35" d="M21.44,66.35a.09.09,0,0,0-.05.11A11,11,0,0,1,22,68.13v0a12.92,12.92,0,0,1,.43,3.39v0c0,.45,0,.9-.07,1.35a9.71,9.71,0,0,1-.23,1.31,4.73,4.73,0,0,1-.25.66A.21.21,0,0,0,22,75a.21.21,0,0,0,.27-.11,5,5,0,0,0,.34-1.2c.07-.4.12-.81.15-1.21a11.29,11.29,0,0,0,0-1.3c0-.43-.07-.86-.13-1.29a13.83,13.83,0,0,0-.42-1.8,14.77,14.77,0,0,0-.64-1.72.1.1,0,0,0-.08-.05h0"/><path class="cls-12" d="M53.47,46.06a1.34,1.34,0,0,0-.35,0,1.41,1.41,0,0,0-.52.26,1,1,0,0,0-.17.18.85.85,0,0,0-.13.22,1.93,1.93,0,0,0-.09.34,1.47,1.47,0,0,0,0,.37,3.71,3.71,0,0,0,.13.81c0,.16.09.32.13.49s.06.19.08.28.06.24.08.34.07.41.1.67v0a10.43,10.43,0,0,1,0,1.85c-.05.62-.15,1.25-.25,1.83l0,.11v0s0,.07,0,.1h0l0,.12,0,.1v.07c0,.14,0,.27-.07.41-.11.69-.19,1.31-.24,1.9a22.38,22.38,0,0,0,0,3.84c.06.62.14,1.26.24,1.9l0,.09c.09.57.19,1.15.31,1.72a10.93,10.93,0,0,0,.32,1.2c0,.07,0,.15,0,.23a3.7,3.7,0,0,1-.22.8,10.23,10.23,0,0,1-1.12,1.89l-.15.2c-.06.1-.13.2-.2.3l-.16.24-.42.58c-.25.37-.53.74-.85,1.16l-.17.23h0c-.62.82-1.25,1.61-1.77,2.27s-1.16,1.45-1.81,2.23c-1.18,1.43-2.46,2.89-3.79,4.33l-.31.34a.16.16,0,0,0,0,.07.1.1,0,0,0,0,.08.13.13,0,0,0,.1.15c.25.06.51.1.73.14l.73.12c.45.06.94.11,1.5.16,1,.09,1.93.13,3,.17l3.08.11,2.12,0,1,0h.29l.9,0,.63,0a6.1,6.1,0,0,0,1.73-.3h.09s0,0,.07-.07a1.76,1.76,0,0,0,.14-.23l.07-.11,0,0v0l0,0,0,0,.58-1c.39-.62.81-1.25,1.23-1.86.82-1.18,1.71-2.38,2.66-3.56s1.87-2.24,2.91-3.36c.5-.55,1-1.12,1.6-1.69a.14.14,0,0,0,0-.09.13.13,0,0,0,0-.09h0l0,0a.12.12,0,0,0-.09,0l-.46,0h0a12,12,0,0,1-3-.69h0a12.85,12.85,0,0,1-2.92-1.46h0a3.79,3.79,0,0,1-.4-.3h0a8.24,8.24,0,0,0,.08-.85c0-.29,0-.58,0-.9a13.33,13.33,0,0,0-.19-1.86,12.85,12.85,0,0,0-.47-1.85,12.38,12.38,0,0,0-.73-1.75,8.89,8.89,0,0,0-1.55-2.18l-.07,0A9.85,9.85,0,0,1,56.92,55v0c-.06-.61-.09-1.25-.11-1.87,0-.41,0-.83-.06-1.24a10.52,10.52,0,0,0-.57-3.06,6.22,6.22,0,0,0-.73-1.38,4,4,0,0,0-1-1,2,2,0,0,0-.64-.29,1.86,1.86,0,0,0-.33,0"/><path class="cls-35" d="M57.21,56.69a0,0,0,0,0,0,.06,5.49,5.49,0,0,1,.4.43c.13.15.25.31.37.47h0c.12.18.23.36.34.55a6.28,6.28,0,0,1,.31.57c.1.2.19.4.28.61l.25.63,0,0a13.74,13.74,0,0,1,.54,1.87A16.82,16.82,0,0,1,60,64.08v0c0,.53.05,1.07,0,1.6a10.73,10.73,0,0,1-.18,1.6v0c-.05.24-.1.48-.17.72a.17.17,0,0,0,0,.14.15.15,0,0,0,.1.09.17.17,0,0,0,.14,0,.18.18,0,0,0,.09-.1,12.39,12.39,0,0,0,.15-4.66c-.05-.39-.12-.77-.19-1.15s-.13-.64-.22-.95a12.2,12.2,0,0,0-.66-1.87L59,59l-.2-.37-.21-.36c-.08-.12-.15-.24-.23-.35s-.32-.44-.49-.65a8,8,0,0,0-.56-.6h-.06"/><path class="cls-12" d="M72.92,55h0a1.42,1.42,0,0,0-.54.13,1.8,1.8,0,0,0-.47.34,2.34,2.34,0,0,0-.58,1.09,3.91,3.91,0,0,0-.06,1.3,8,8,0,0,0,.29,1.35c.13.44.29.86.43,1.25s.37.93.54,1.37c.39,1,.8,1.92,1.25,3l.06.13c.4.94.81,1.9,1.2,2.86v0c.54,1.33,1,2.43,1.3,3.49l-.1-.11-.36-.41c-.38-.44-.73-.82-1.07-1.17s-.85-.82-1.25-1.15a8,8,0,0,0-1.33-.9,3.29,3.29,0,0,0-1.32-.41h-.15a1.91,1.91,0,0,0-.48.06,1.77,1.77,0,0,0-.6.26,1.7,1.7,0,0,0-.38.33.84.84,0,0,0-.13.17,1.13,1.13,0,0,0-.11.22,1.43,1.43,0,0,0-.07.38,1.46,1.46,0,0,0,.08.43,2.57,2.57,0,0,0,.45.78,3,3,0,0,0,.3.36l.43.48c.27.31.53.63.8,1v0c.25.33.49.68.72,1s.43.67.64,1v0l1.18,1.91A38.93,38.93,0,0,0,76.08,79a22.1,22.1,0,0,0,3,3.13A19.2,19.2,0,0,0,81,83.51,13.42,13.42,0,0,0,83,84.6a16,16,0,0,0,2.18.76,18.4,18.4,0,0,0,2.28.45,19.85,19.85,0,0,0,2.7.18c.64,0,1.3,0,2-.09.5,0,.92-.09,1.29-.15a7.54,7.54,0,0,0,1.18-.29,4.64,4.64,0,0,0,1-.51,4.32,4.32,0,0,0,.46-.35l.22-.21.13-.12.06-.09,0-.05a.12.12,0,0,0,0-.1.12.12,0,0,0-.06-.08,27.64,27.64,0,0,1-2.11-4.22c-.79-2-1.45-4-2.08-6l-.09-.3L92.1,73c-.09-.27-.18-.53-.26-.8l-.15-.48c0-.15-.09-.3-.13-.44-.19-.61-.42-1.32-.7-2a11.38,11.38,0,0,0-1-2,5,5,0,0,0-1.37-1.47,3.26,3.26,0,0,0-1-.46,3.1,3.1,0,0,0-.92-.13h-.16a5,5,0,0,0-1-1.11,2.89,2.89,0,0,0-.63-.4,2.65,2.65,0,0,0-.71-.22,2.42,2.42,0,0,0-.47,0l-.36,0a5.07,5.07,0,0,0-.94.22l-.12,0a4.61,4.61,0,0,0-.67-.66,3.36,3.36,0,0,0-.85-.52,2.33,2.33,0,0,0-.88-.16h-.21a4.07,4.07,0,0,0-1.06.26,10.55,10.55,0,0,0-1,.44L77.49,63c-.13-.26-.25-.52-.37-.79s-.36-.76-.53-1.15l-.36-.78-.45-1,0-.1-.13-.27-.12-.3,0,0L75.21,58a15,15,0,0,0-.66-1.55,4.17,4.17,0,0,0-.62-.93,1.53,1.53,0,0,0-.45-.37,1.12,1.12,0,0,0-.56-.15M96.28,84.08c-.26-.43-.52-.89-.77-1.36.25.47.51.93.78,1.35Zm-9,1.44h0l.12,0h-.09"/><path class="cls-35" d="M77.46,63l.29.81c.11.27.22.54.34.81l.18.39a3.65,3.65,0,0,0,.18.41c.06.14.13.27.2.4l.21.4a.1.1,0,0,0,.06,0,.17.17,0,0,0,.12,0,.16.16,0,0,0,.1-.2,4.73,4.73,0,0,0-.29-.6c-.1-.19-.22-.38-.34-.57l-.34-.57c-.11-.19-.21-.39-.31-.59a5.25,5.25,0,0,1-.33-.77l0,0a0,0,0,0,0,0,0"/><path class="cls-35" d="M82.26,63.75s-.06.06,0,.09l.21.41c.07.14.15.28.23.42s.31.56.45.85a.66.66,0,0,1,.09.19l0,0,.06.05a.14.14,0,0,0,.11,0s.07,0,.08-.08a.1.1,0,0,0,0-.07.13.13,0,0,0,0-.08,8.29,8.29,0,0,0-.56-.89,7.53,7.53,0,0,1-.56-.9.05.05,0,0,0,0,0h0"/><path class="cls-35" d="M86.45,65.21a.12.12,0,0,0,0,.07.24.24,0,0,0,0,.08l0,0h0c.13.24.24.5.35.75s.21.52.33.78a.18.18,0,0,0,.08.09.2.2,0,0,0,.13,0,.18.18,0,0,0,.1-.21,3.29,3.29,0,0,0-.17-.39c-.07-.14-.14-.27-.22-.4s-.31-.51-.44-.78a.08.08,0,0,0-.07,0h-.07"/></g></g></g></svg>