<svg xmlns="http://www.w3.org/2000/svg" xmlns:xlink="http://www.w3.org/1999/xlink" viewBox="0 0 100 100"><defs><style>.cls-1{isolation:isolate;}.cls-2{opacity:0.5;fill:url(#radial-gradient);}.cls-3{fill:#68aed9;}.cls-4{fill:#464778;}.cls-5{fill:#f8ada4;}.cls-13,.cls-6{mix-blend-mode:multiply;}.cls-13,.cls-7{fill:#9590ad;}.cls-8{fill:#9c97b3;}.cls-9{fill:#fff;}.cls-10{fill:#873334;}.cls-11{fill:#fbc6bd;}.cls-12{fill:#f16163;}</style><radialGradient id="radial-gradient" cx="54.73" cy="47.29" r="37.17" gradientUnits="userSpaceOnUse"><stop offset="0" stop-color="#efa8b9"/><stop offset="1" stop-color="#f27594"/></radialGradient></defs><g class="cls-1"><g id="Layer_1" data-name="Layer 1"><path class="cls-2" d="M81.58,14.74C71.14,6.67,53.11,7.11,41.64,11a27.67,27.67,0,0,0-15,11.9c-7.16,11.22-8.46,23.77-5.87,36.78C22.57,68.89,26.11,78.94,35,83.56c6.65,3.44,13.9,3.11,21.07,1.87,5.24-.91,11-1.57,15.43-4.75C75,78.2,78.4,74.42,79.32,70.14c.75-3.51-1.28-6.15-2.47-9.29-2.26-6,3.05-10.6,6.89-14.69,7.84-8.33,8.62-20.43.34-29.17A22.28,22.28,0,0,0,81.58,14.74Z"/><path class="cls-3" d="M54.7,85.07s-.73,2-.17,2.38,6.33.64,6.45.23c.38-1.26-2.71-1.66-2.89-2.3a5.26,5.26,0,0,1-.17-.71v-.29Z"/><path class="cls-3" d="M44.33,84.41s-1.17,1.74-.72,2.27,6,2.1,6.22,1.73c.66-1.13-2.25-2.25-2.27-2.91a4.81,4.81,0,0,1,0-.73l0-.29Z"/><path class="cls-4" d="M46.18,53.57A77.23,77.23,0,0,1,46,69.89c-1.08,8.7-2.64,15.34-2.64,15.34a13,13,0,0,0,2.93.3c1.76,0,2-.4,2-.4s2.54-9.86,3.72-15.83,1.46-8.6,1.46-8.6.69,6.26.69,12.81-.3,12.21-.3,12.21a21.11,21.11,0,0,0,2.84,0A22.47,22.47,0,0,0,59,85.53s1-21,.88-25.61a25.87,25.87,0,0,0-.58-6.15Z"/><path class="cls-4" d="M58,31.78s.19-4.54,1.8-7a12,12,0,0,1,4.11-3.69s10.26,4.86,10,6-1.34,3.64-.61,6,4.25,5.47,1.47,9.28-8.85,3-10.66.93S58,31.78,58,31.78Z"/><path class="cls-5" d="M51.62,25.59l0,2.78a7,7,0,0,0,2.27.48,1.42,1.42,0,0,0,1.28-.63l-.29-2S52.06,26.61,51.62,25.59Z"/><path class="cls-3" d="M51.29,28.92c0-.07,0-1.44,0-1.44a6.73,6.73,0,0,0,2.5.71,3.63,3.63,0,0,0,1.46-.25l.22,1.3s2.74-.2,3.91,1.1a17,17,0,0,1,2.25,3.88s3.59,8.21,3.86,9.26S66,46,64.92,46.19A2.73,2.73,0,0,1,63.06,46c-.07,0-2.37,1.59-2.37,1.59s-.07,6.64-.39,7.06-5,.68-8.62.58-6.35-.51-6.52-.88a40.82,40.82,0,0,1,0-4.59,2.23,2.23,0,0,1-2.56-1.59c-.88-2.05-.83-8.18-.13-11.41s1.89-6,3.74-6.72a21.44,21.44,0,0,1,4.59-.92A.74.74,0,0,0,51.29,28.92Z"/><path class="cls-5" d="M49.11,21s.49,4.5,3.45,6,6-1.35,5.28-5.82-1.92-4.88-2.65-5-5.33,1-5.9,2A5,5,0,0,0,49.11,21Z"/><g class="cls-6"><path class="cls-7" d="M46.88,34.32a3.31,3.31,0,0,0-.47,1.44c-.1.52-.2,1-.29,1.55s-.2,1.22-.25,1.84a6,6,0,0,0,0,2c0,.06.1.06.12,0a8.77,8.77,0,0,0,.11-1.85c0-.65.1-1.28.19-1.92s.08-1,.16-1.48a4.87,4.87,0,0,1,.59-1.46.1.1,0,1,0-.17-.1Z"/></g><path class="cls-5" d="M50,22.94s-1.73-1.21-1.7-.08.35,1.74,1,1.68a1.74,1.74,0,0,0,1.13-.63Z"/><path class="cls-4" d="M53.1,23h0l-.09,0,.11-.05.08-.07a.52.52,0,0,0,.07-.11s0,0,0,0l0,0a.47.47,0,0,0,.05-.28v-.13l0-.13-.06-.12a.55.55,0,0,0-.2-.17l-.12,0h-.13a.46.46,0,0,0-.23.09.33.33,0,0,0-.13.13.21.21,0,0,0,0,.06l0,.07a.44.44,0,0,0,0,.2v0a.31.31,0,0,0,0,.1v0l0,.12a.52.52,0,0,0,.06.13l0,0,0,0a.42.42,0,0,0,.3.2l-.1,0h0a.39.39,0,0,0,.39,0Z"/><path class="cls-4" d="M56.17,22.51h0l-.07,0a.33.33,0,0,0,.18-.08l-.08,0a.35.35,0,0,0,.09-.06.48.48,0,0,0,.12-.17l0-.06a.8.8,0,0,0,0-.15.51.51,0,0,0,0-.17V21.8a.66.66,0,0,0,0-.14.33.33,0,0,0,0-.13v0l-.06-.09-.08-.07a.33.33,0,0,0-.19-.08.45.45,0,0,0-.2,0,.55.55,0,0,0-.17.13l0,0a.58.58,0,0,0-.09.25v.08a1,1,0,0,0,0,.18c0,.05,0,.1,0,.14l0,.08a.46.46,0,0,0,.08.19l.09.07-.07-.06a.23.23,0,0,0,.07.07l.09.05-.07,0h0a.3.3,0,0,0,.29,0Z"/><g class="cls-6"><path class="cls-8" d="M54.33,21.8c.07.21.1.43.18.64a.51.51,0,0,0,.48.33c.12,0,.24,0,.31.11a.26.26,0,0,1,.05.24c0,.18-.22.31-.37.42l-.27.17c-.07,0-.17.09-.19.17a.06.06,0,0,0,0,.06c.07,0,.15,0,.22-.06a2.26,2.26,0,0,0,.26-.16,1.29,1.29,0,0,0,.44-.46.46.46,0,0,0-.09-.53.5.5,0,0,0-.32-.12c-.12,0-.27,0-.35-.11a.89.89,0,0,1-.15-.36c0-.13-.06-.27-.1-.39s-.16,0-.14.05Z"/></g><path class="cls-9" d="M56.24,24.48c-.21,0-3.07.46-3.07.46S54,26.16,55,26,56.24,24.48,56.24,24.48Z"/><path class="cls-10" d="M53.27,20.41a2.27,2.27,0,0,0-.45,0,1.13,1.13,0,0,0-.53.16c-.1.06-.22.13-.25.25a.24.24,0,0,0,.11.27.29.29,0,0,0,.24,0,.9.9,0,0,1,.22-.06l.22-.06.24-.05h.2a.28.28,0,0,0,.17-.07.21.21,0,0,0,.06-.17.25.25,0,0,0-.06-.17.36.36,0,0,0-.17-.07Z"/><path class="cls-10" d="M55.48,20.65l.11,0h.08l.18,0H56s-.05,0,0,0h.3c-.05,0,0,0,0,0l.18,0a.25.25,0,0,0,.17-.42.54.54,0,0,0-.39-.15,1.34,1.34,0,0,0-.35.05.88.88,0,0,0-.32.12c-.08.06-.16.11-.24.18a.17.17,0,0,0,0,.2.18.18,0,0,0,.19.08Z"/><path class="cls-10" d="M49.9,23.75a8.26,8.26,0,0,0,.48-2.58c0-1.51-.44-1.73.23-2.42s2.4.29,3.62-.4,1.63-1.18,2.25-.59a9.65,9.65,0,0,1,1.2,2.52,5.11,5.11,0,0,0-1.87-4.46c-1.83-1.32-5-.57-6.9,1.06s-1.13,4.16-.7,5A6.26,6.26,0,0,0,49.9,23.75Z"/><path class="cls-10" d="M58.4,53.18c-5.47.93-10.17-4.93-10.17-4.93l-1.71-.88c-1.71-.88-10,5.81-10,5.81l-1.71-2a90,90,0,0,1,6.49-6.45l0-.05L41,44.8c-3.8.75-8.89,2-8.89,2l-.58-2.4s5.47-2.68,8.55-4S44.33,39,48,40.33a58.65,58.65,0,0,0,9.72,2.1l.34-.44s3.43.54,3.92,1.22a.38.38,0,0,1,0,.25,8,8,0,0,1,1.54,1.12S63.87,52.25,58.4,53.18Z"/><path class="cls-11" d="M62.84,30a4.34,4.34,0,0,1-.22,1.74c-.31,1-.63,1.71-.63,1.71a15,15,0,0,0,2.49.34,3.55,3.55,0,0,0,1.15-.17,7.23,7.23,0,0,1,.1-2.23c.24-.92.51-1.83.51-1.83S63.65,30.44,62.84,30Z"/><path class="cls-11" d="M52.44,29.73c-1.25-1.4-1.22-2.18-1.22-2.18l.42.06V26.33a4.09,4.09,0,0,1-.46-.47,2,2,0,0,0-1,1.47,8,8,0,0,0,1.49,4.57,9.63,9.63,0,0,0,3.49,2.93c.85.37,1.49-2.39,1.49-2.39A15.69,15.69,0,0,1,52.44,29.73Z"/><path class="cls-11" d="M64,21.23S59.88,25,60.26,28c.31,2.51,3.29,4,6.6,1.59A7.64,7.64,0,0,0,70.32,23C70.21,22,65.61,20.37,64,21.23Z"/><path class="cls-4" d="M63.12,25.16l.07,0,.15-.13.12-.11.08-.11a.41.41,0,0,0,.05-.19.29.29,0,0,0,0-.13.32.32,0,0,0-.06-.18h0v.47h0l.05-.12v-.12l0-.12a.35.35,0,0,0-.08-.16.51.51,0,0,0-.32-.17.28.28,0,0,0-.18,0h0l.46.12h0l-.11-.08a.33.33,0,0,0-.19-.06A.24.24,0,0,0,63,24a.6.6,0,0,0-.19.06l0,0-.13.1,0,.06-.1.14,0,0h0l0,.12a.24.24,0,0,0,0,.08l0,.12,0,.12.05.11a.37.37,0,0,0,.12.13.24.24,0,0,0,.11.06.27.27,0,0,0,.12,0,.24.24,0,0,0,.12,0,.44.44,0,0,0,.16-.06Z"/><path class="cls-4" d="M66,26.4s0,0,0,0v-.07l0-.12a.47.47,0,0,0-.06-.09h0s0,0,0-.06a.23.23,0,0,0-.1-.07s0,0-.06,0h-.07l-.13,0a.27.27,0,0,0-.13,0,.38.38,0,0,0-.17.08l0,0-.12.11,0,.07a1.09,1.09,0,0,1-.08.15v0h0l0,.13a.19.19,0,0,0,0,.08v.12l0,.11.06.11a.28.28,0,0,0,.13.11.21.21,0,0,0,.12.05.37.37,0,0,0,.24,0,.37.37,0,0,0,.16-.07l0-.05a.5.5,0,0,0,.14-.15.53.53,0,0,0,.1-.12l.07-.12A.43.43,0,0,0,66,26.4Z"/><g class="cls-6"><path class="cls-8" d="M64.28,25.45c-.15.24-.19.57-.47.71a.18.18,0,0,1-.2,0,.87.87,0,0,0-.27-.14c-.19-.06-.53-.11-.67.08s0,.39.1.54a.91.91,0,0,0,.3.25c.09.06.3.17.4.08a.06.06,0,0,0,0-.08.26.26,0,0,0-.12-.11l-.14-.08a1.06,1.06,0,0,1-.23-.19l-.09-.11,0,0s0-.06,0-.05a.2.2,0,0,1,0-.07s0,0,0,0,0,0,0,0a.36.36,0,0,1,.25-.06.73.73,0,0,1,.32.09.58.58,0,0,0,.21.1.36.36,0,0,0,.26-.07.81.81,0,0,0,.29-.32c.07-.14.12-.29.2-.43s-.07-.17-.13-.09Z"/></g><path class="cls-9" d="M64.79,28.59l-3.32-1.81a2.11,2.11,0,0,0,.89,2A2.55,2.55,0,0,0,64.79,28.59Z"/><path class="cls-4" d="M66.5,25.57l0,0h0l0,0,.09.09h0l0,0,0,.06.07.12,0,.06s0-.06,0,0l0,0a.14.14,0,0,0,0,.06.19.19,0,0,0,0,.07v0s0,0,0,.06a.23.23,0,0,0,.11.16l.06,0h0l0,0c-.06-.05,0,0,0,0a.08.08,0,0,0,.11,0,.18.18,0,0,0,.07-.05l0,0h0a.23.23,0,0,0,.16-.16,1.21,1.21,0,0,0,0-.19.82.82,0,0,0-.15-.36,1,1,0,0,0-.57-.39.16.16,0,0,0-.19.1.16.16,0,0,0,.07.2Z"/><path class="cls-4" d="M64.44,23.52a3.07,3.07,0,0,0-.34-.29,1,1,0,0,0-.23-.12.36.36,0,0,0-.32,0,.2.2,0,0,0-.12.19.23.23,0,0,0,.14.19l0,0,0,0,.14.06.11,0-.05,0a2.07,2.07,0,0,1,.39.29.22.22,0,0,0,.16,0,.24.24,0,0,0,.13-.07.21.21,0,0,0,0-.29Z"/><path class="cls-11" d="M67.61,28.57s.93.29.66,1.1-1.62.47-1.75,0,.64-.94.64-.94Z"/><path class="cls-4" d="M67.68,22.5a5.57,5.57,0,0,0-3.1-.2,7.11,7.11,0,0,0-2.93,1.56s0-.92,1.54-2.29a4.61,4.61,0,0,1,4.22-1.15,2.14,2.14,0,0,1,1.42.78s5.89.93,5.08,5.86C73.57,29.18,69.78,34,69.78,34a28.43,28.43,0,0,1-1.63-5.89C67.85,24.6,67.61,22.62,67.68,22.5Z"/><path class="cls-12" d="M55.65,31.71a3.83,3.83,0,0,1-.44,1.68,6.63,6.63,0,0,1-.73,1.32,10.56,10.56,0,0,0,6.17,2.22c3.44,0,5.7-.5,6.18-1.45a1.52,1.52,0,0,0-1-2.31c-1.64-.66-3.59.07-5.9-.18A14.44,14.44,0,0,1,55.65,31.71Z"/><path class="cls-12" d="M66.72,40.06a29.83,29.83,0,0,1-3.25,5.48c0-.06-.14-.31-1.48-1.3-1.69-1.25-4.43-1.69-4.22-2.05a45.94,45.94,0,0,0,.49-5.26c0-.1,0-.19,0-.28,0-.47,0-.77,0-.77a17.83,17.83,0,0,1,1.33-1.53c.62-.63,5.93-1.77,7.18-.48S67.67,37.64,66.72,40.06Z"/><g class="cls-6"><path class="cls-7" d="M66.28,35.88c-.19.53-.8.77-1.31.95a8.6,8.6,0,0,1-2.25.42,15.86,15.86,0,0,1-2.58,0,7.48,7.48,0,0,1-1-.16c-.27-.06-.56-.08-.84-.13,0-.1,0-.19,0-.28a3.09,3.09,0,0,1,.62.1,6.83,6.83,0,0,0,1.09.16,20.13,20.13,0,0,0,2.19.08,9.21,9.21,0,0,0,2.22-.3,4.28,4.28,0,0,0,1-.39c.27-.14.49-.35.75-.5A.07.07,0,0,1,66.28,35.88Z"/></g><path class="cls-11" d="M35.68,45.78a9.09,9.09,0,0,1-.43-1.24,8.57,8.57,0,0,1-.3-1.8c-1.9.9-3.43,1.65-3.43,1.65l.59,2.39s1.58-.38,3.64-.85Z"/><path class="cls-11" d="M39.66,50.6A11.85,11.85,0,0,0,39,49.41a5.34,5.34,0,0,0-.87-1,2.43,2.43,0,0,0-.32-.24c-1.66,1.68-2.93,3.09-2.93,3.09l1.71,2S38,52,39.74,50.76Z"/><path class="cls-13" d="M58,46.21c-1.42-.5-2.88-.88-4.3-1.35s-2.92-1-4.41-1.44a10.25,10.25,0,0,0-4.49-.51,9.26,9.26,0,0,0-3.5,1.86l0-.05L41,44.8a9,9,0,0,1,3.64-2.08,9.6,9.6,0,0,1,4.29.31c1.6.41,3.16,1,4.72,1.5.79.26,1.57.51,2.37.73l.49.14a1.42,1.42,0,0,1-.21-.33,1.45,1.45,0,0,1-.13-.45c0-.08,0-.16,0-.24a2.06,2.06,0,0,1,0-.26s.08,0,.09,0a4.36,4.36,0,0,0,.2.85,1.38,1.38,0,0,0,.44.55,5.53,5.53,0,0,1,1.2.5C58.21,46.08,58.15,46.24,58,46.21Z"/><path class="cls-4" d="M35.71,50l2.06,2.67-5.28,5.35c-.44.44-1.11,1.4-1.58,2a2.51,2.51,0,0,1-.93.85l-.53-.35.64-1.72a4.06,4.06,0,0,1-2,.38c-1.59-.41-2.86-2.42-2.38-2.71s3.5.4,3.9.18S35.71,50,35.71,50Z"/><path class="cls-4" d="M33.19,43.42l.64,3.31-7.12,2.43c-.59.19-1.62.75-2.29,1.06a2.56,2.56,0,0,1-1.21.33L22.89,50l1.34-1.26a4,4,0,0,1-1.92-.53c-1.24-1.07-1.48-3.44-.92-3.49s2.95,1.92,3.41,1.91S33.19,43.42,33.19,43.42Z"/><path class="cls-5" d="M64.44,44s-.1-1.62-.63-1.69-.27.76-.27.76-1.63-1.72-2-1.66A1.52,1.52,0,0,0,61,43.18a3.64,3.64,0,0,0,1.71,1.93c.94.52,1.59.41,2,0S64.44,44,64.44,44Z"/><path class="cls-5" d="M45.23,48.37s-.34-1.59.15-1.81.46.66.46.66,1.1-2.1,1.44-2.13a1.51,1.51,0,0,1,1,1.52,3.56,3.56,0,0,1-1.12,2.32c-.76.76-1.42.83-1.93.54S45.23,48.37,45.23,48.37Z"/><path class="cls-12" d="M64.6,15.75a2.82,2.82,0,0,0-1.53.58,2.65,2.65,0,0,0-.14-1.22c-.11-.3-.28-.85-.66-.88s-.7.6-.81.94a3.41,3.41,0,0,0-.12,1.62,9.22,9.22,0,0,0,.62,2,1,1,0,0,0,.66-.09,6.36,6.36,0,0,0,.71-.31,9.36,9.36,0,0,0,1.55-.93c.33-.27.87-.8.71-1.28S64.94,15.73,64.6,15.75Z"/><path class="cls-12" d="M41.46,23.93a2.81,2.81,0,0,0-.26,1.61,2.66,2.66,0,0,0-1.13-.49c-.31-.05-.88-.18-1.09.14s.17.9.4,1.17a3.57,3.57,0,0,0,1.34.92,9.74,9.74,0,0,0,2,.44,1,1,0,0,0,.25-.61,5,5,0,0,0,.09-.77,9.12,9.12,0,0,0,0-1.81c-.07-.42-.26-1.15-.75-1.26S41.61,23.63,41.46,23.93Z"/><path class="cls-12" d="M42.49,17a1.7,1.7,0,0,0-.39.9,1.5,1.5,0,0,0-.59-.44c-.17-.08-.48-.24-.65-.08s0,.55.06.73a2.08,2.08,0,0,0,.65.73,6.28,6.28,0,0,0,1.1.55.56.56,0,0,0,.24-.32,3.16,3.16,0,0,0,.16-.43,5.63,5.63,0,0,0,.25-1.06c0-.25,0-.71-.25-.84S42.61,16.85,42.49,17Z"/><path class="cls-12" d="M78.29,31.22a1.81,1.81,0,0,0-1,.07,1.62,1.62,0,0,0,.13-.72c0-.19,0-.54-.24-.62s-.5.23-.62.4a2.16,2.16,0,0,0-.35.91,6.16,6.16,0,0,0,0,1.24.65.65,0,0,0,.39.06,3.4,3.4,0,0,0,.46-.06,5.4,5.4,0,0,0,1-.27c.24-.1.64-.31.63-.61S78.48,31.26,78.29,31.22Z"/></g></g></svg>