<svg id="Layer_1" data-name="Layer 1" xmlns="http://www.w3.org/2000/svg" xmlns:xlink="http://www.w3.org/1999/xlink" viewBox="0 0 100 100"><defs><style>.cls-1{opacity:0.5;}.cls-2{fill:url(#radial-gradient);}.cls-3{fill:#8bbcdd;}.cls-4{fill:#0a5685;}.cls-5{fill:#e87679;}.cls-6{fill:#10101c;}.cls-7{fill:#d94469;}.cls-8{fill:#fff;}.cls-9{fill:#0f609b;}.cls-10{fill:#371c0f;}.cls-11{fill:#f3776d;}.cls-12{fill:#c0325c;}.cls-13{fill:#f58b6c;}.cls-14{fill:#d26269;}.cls-15{fill:#5381c2;}.cls-16{fill:#789ad0;}</style><radialGradient id="radial-gradient" cx="49.28" cy="50.15" r="30.66" gradientUnits="userSpaceOnUse"><stop offset="0" stop-color="#efa8b9"/><stop offset="1" stop-color="#f27594"/></radialGradient></defs><g class="cls-1"><path class="cls-2" d="M75,23.12C60,10,52.08,27.78,49.53,32,47,27.78,37.22,13.08,24.33,22.62,6,36.14,48.92,82.09,48.94,81.94h1.19C50.15,82.09,91.25,37.46,75,23.12Z"/></g><path class="cls-3" d="M67.12,81.1c0,.67-8.12,3.07-16.41,3.07s-16.4-2.4-16.37-3.07c0-.86,14-.89,15.94-.89C51.71,80.2,67.09,80.19,67.12,81.1Z"/><path class="cls-4" d="M37.78,75.39a16.14,16.14,0,0,1-.46-2.27,10.05,10.05,0,0,1,0-1.73,17.78,17.78,0,0,1,1.11-5.7,2.06,2.06,0,0,1,1.21-.38,1.54,1.54,0,0,1,1.27.51,1.13,1.13,0,0,1,.16.79s-.65,7.09-.84,10.69a11.08,11.08,0,0,1-1.91,0C38.15,76.8,38,76.21,37.78,75.39Z"/><path class="cls-5" d="M38.27,77.26a11.08,11.08,0,0,0,1.91,0A11.86,11.86,0,0,1,40.12,80a1.05,1.05,0,0,1-.75.71.7.7,0,0,1-.81-.53c-.08-.53.22-.91.08-1.47S38.4,77.73,38.27,77.26Z"/><path class="cls-4" d="M42.34,53.63s0,12.05-1.06,13.9S37.89,68.1,38,67c.08-.75-.66-6.28-1.14-9.8-.24-1.69-.41-2.91-.41-2.91Z"/><path class="cls-6" d="M40.78,80.54a2.17,2.17,0,0,1-.38-.69,3.68,3.68,0,0,0-.16-.7,1.62,1.62,0,0,0-.58,0c-.06,0,.39.91.34.92s-.52.43-.4.56a2.87,2.87,0,0,0,.78.28l.34-.26Z"/><path class="cls-7" d="M41.83,81.69a.46.46,0,0,0-.06-.37c-.12-.12-.75-.45-.78-.49a4.16,4.16,0,0,0-.29-.36c-.06,0-.79.2-.91.12s.43-.26.39-.34c-.11-.25-.06-.76-.39-.89s-.5.15-.73,0-.18-.47-.41-.54a.29.29,0,0,0-.19,0L37.58,80l-.12.27.27.2.86.32,1.07.66.55.32.95.21Z"/><path class="cls-8" d="M41.83,81.88s.08-.21,0-.26-.18.19-.22.18a3.79,3.79,0,0,1-1.71-.37c-1-.45-1-.77-1.47-1s-1-.25-.89-.49c0,0-.38.37-.28.67s.22.23.47.33a3.65,3.65,0,0,0,1,.28c.15,0,.27.26.68.49S41.33,82.42,41.83,81.88Z"/><path class="cls-7" d="M40.24,80.17l-.12,0a0,0,0,0,0,0,.05l0,0h0l.13,0a.94.94,0,0,1,.28-.06s0,0,0,0a0,0,0,0,0,0,0"/><path class="cls-7" d="M39.91,79.86h0a1.76,1.76,0,0,1,.45-.07,0,0,0,1,0,0-.08,1.84,1.84,0,0,0-.47.07.05.05,0,0,0,0,0S39.9,79.86,39.91,79.86Z"/><path class="cls-7" d="M39.79,79.58h0l.07,0a1.76,1.76,0,0,1,.44-.15,0,0,0,0,0,0-.08,1.83,1.83,0,0,0-.47.15l-.07,0a0,0,0,0,0,0,.06A0,0,0,0,0,39.79,79.58Z"/><path class="cls-9" d="M40.71,76.89a15.46,15.46,0,0,1-.83-2.16A9.21,9.21,0,0,1,39.54,73a17.54,17.54,0,0,1,.13-5.82,2.29,2.29,0,0,1,1.13-.58,1.57,1.57,0,0,1,1.34.29,1.13,1.13,0,0,1,.29.75s.55,7.1,1,10.69a10.9,10.9,0,0,1-1.89.27Z"/><path class="cls-5" d="M41.51,78.64a10.9,10.9,0,0,0,1.89-.27A11,11,0,0,1,43.79,81a1,1,0,0,1-.62.83.71.71,0,0,1-.89-.39c-.16-.51.07-.94-.16-1.46S41.72,79.09,41.51,78.64Z"/><path class="cls-9" d="M41,54.42S43.48,66.2,42.8,68.24s-3.2,1.25-3.31.14c-.08-.74-1.92-6-3.11-9.35l-1-2.78Z"/><path class="cls-6" d="M44.54,81.46a2.14,2.14,0,0,1-.49-.61,3.33,3.33,0,0,0-.28-.67,1.59,1.59,0,0,0-.56.11c-.06,0,.53.83.48.85s-.43.51-.29.62a2.63,2.63,0,0,0,.81.14l.3-.31Z"/><path class="cls-7" d="M45.76,82.42s0-.25-.12-.35a6.65,6.65,0,0,0-.85-.36,2.59,2.59,0,0,0-.34-.3c-.07,0-.75.32-.87.27s.37-.33.32-.4c-.15-.24-.18-.75-.53-.82s-.47.24-.72.13-.26-.42-.5-.45a.36.36,0,0,0-.19,0l-.68,1.25-.06.28.3.16.9.16,1.16.47.59.23,1,0Z"/><path class="cls-8" d="M45.8,82.6s0-.22,0-.26-.14.22-.18.22a3.78,3.78,0,0,1-1.75-.08,9.67,9.67,0,0,1-1.62-.73c-.48-.14-1-.08-1-.33,0,0-.31.43-.15.7s.25.19.52.25a3.24,3.24,0,0,0,1,.1c.16,0,.32.22.76.38S45.39,83.22,45.8,82.6Z"/><path class="cls-7" d="M44,81.19l-.12,0a0,0,0,0,0,0,.06l0,0h0l.12-.06a.9.9,0,0,1,.28-.11.05.05,0,0,0,0-.05s0,0,0,0"/><path class="cls-7" d="M43.57,80.94h0a1.66,1.66,0,0,1,.43-.14s0,0,0-.05,0,0,0,0a1.7,1.7,0,0,0-.45.15,0,0,0,0,0,0,0S43.55,80.93,43.57,80.94Z"/><path class="cls-7" d="M43.4,80.68h0l.07,0a2.37,2.37,0,0,1,.41-.22s0,0,0,0a.05.05,0,0,0,0,0,1.86,1.86,0,0,0-.44.23l-.06,0s0,0,0,0A0,0,0,0,0,43.4,80.68Z"/><path class="cls-10" d="M45.94,42.52A19,19,0,0,0,46,38.19c0-.9.12-1.51-.56-2.22a3.66,3.66,0,0,0-2.56-1.06A6.72,6.72,0,0,0,39,36.36a3,3,0,0,0-1.4,1.86,10.94,10.94,0,0,0,.1,1.51c0,1.36-1.84,1.28-2.67,2.07a2.61,2.61,0,0,0-.85,2c0,.68.42,1.34.27,2a13.79,13.79,0,0,1-.75,1.42,2,2,0,0,0,.67,2.23,3.29,3.29,0,0,0,2.34.65,8.4,8.4,0,0,0,2.4-.66,12,12,0,0,0,3.29-1.75,5.14,5.14,0,0,0,2-4c0-.54.22-.8.73-.82S45.84,43,45.94,42.52Z"/><path class="cls-11" d="M45.27,44.2h0c0-.05,0-.09,0-.13a.72.72,0,0,1,.84-.57.71.71,0,0,1,.57.6h0l1,6.82s0,0,0,.07v0h0a1,1,0,0,1,0,.29,1.15,1.15,0,0,1-2.28-.18h0Z"/><path class="cls-11" d="M46,44.85l-.43,0c-.19,0-.84.09-.83-.23s.24-.32.46-.34a6.59,6.59,0,0,1-.21-.71,4.5,4.5,0,0,1-.19-1.6,11,11,0,0,1,.53,1.52c.28-.12-.68-1.51-.34-1.76.14-.1.81,1.55.95,1.5s-.79-1.12-.52-1.3.77,1.2.83,1.15-.46-.78-.31-.78.55.68.62.85a1.55,1.55,0,0,1,.06,1.42A.67.67,0,0,1,46,44.85Z"/><path class="cls-11" d="M43,43l4.4,7.34a1.21,1.21,0,0,1-2,1.32h0l-.06-.07,0-.06-5-6.67a1.58,1.58,0,0,1,.42-2.58A1.77,1.77,0,0,1,43,43Z"/><path class="cls-12" d="M41.87,47.33a18.61,18.61,0,0,0,1.77-1,6,6,0,0,0,1.08-.92L42.88,42.7a1.71,1.71,0,0,0-2.32-.79l-.1.05a1.79,1.79,0,0,0-.92,1.19,2.08,2.08,0,0,0,.5,1.73Z"/><path class="cls-7" d="M42.86,42.79a2.86,2.86,0,0,0-2.38-1.49h0a4.1,4.1,0,0,0-3.51,1.27c-.6.72-.39,1.27-.48,4.58,0,1-.07,2.79-.26,4.41a25.78,25.78,0,0,1-1,4.69c.35.34,1.36.95,3.78,1A6.32,6.32,0,0,0,42.71,56c.07,0,0-.56,0-.64,0-.6.06-1.21.1-1.81a27,27,0,0,1,.43-3.68c.09-.46.19-.92.29-1.38a8.51,8.51,0,0,0,.29-1.13,3.2,3.2,0,0,0-.42-1.56C43,44.43,43.25,43.74,42.86,42.79Z"/><path class="cls-10" d="M45.74,36.4A1.6,1.6,0,0,1,45,38.76c-.37.15-.5-2.09-.4-2A6.54,6.54,0,0,0,45.74,36.4Z"/><polygon class="cls-13" points="40.84 42.22 39.82 41.43 40.83 38.67 41.82 39.54 40.84 42.22"/><path class="cls-10" d="M41.08,41.58l.85-1.93-1-.86A5.06,5.06,0,0,0,41.08,41.58Z"/><path class="cls-13" d="M40.76,38.8a5.21,5.21,0,0,0,.09.55c.19.92.89,2.12,2.07,2.15,1.62,0,3.08-3.4,2.78-4.28C45,35.19,41.57,35.07,40.76,38.8Z"/><path class="cls-10" d="M40.41,37.84c.13.19.47.76.77.74.08,0,.08,0,.12-.11a1.93,1.93,0,0,1,.27-.3,1.51,1.51,0,0,1,.86-.34c.49,0,1,.14,1.46.12a2,2,0,0,0,1-.33,1.57,1.57,0,0,0,.76-.92c.24-.92-.78-1.32-1.49-1.49a3,3,0,0,0-3.79,2.63Z"/><path class="cls-13" d="M41.34,38.65a.61.61,0,0,1-.51.67c-.28,0-.5-.3-.5-.67s.22-.67.5-.67A.61.61,0,0,1,41.34,38.65Z"/><path class="cls-10" d="M41.2,38.15c.15.26-.15.8-.26,1s.23.15.48-.44.44-.79.9-.85-.74-1-.74-1"/><path class="cls-13" d="M40.46,41.32c-.91-.18-2.34.35-.09,1.63C42.4,44.09,41.89,41.61,40.46,41.32Z"/><path class="cls-13" d="M42.39,44.46h0s0-.08,0-.13a.72.72,0,0,1,.84-.56.69.69,0,0,1,.57.6h0l1,6.82a.13.13,0,0,0,0,.06v0h0a1.46,1.46,0,0,1,0,.29,1.15,1.15,0,0,1-1.34.92,1.14,1.14,0,0,1-.94-1.1h0Z"/><path class="cls-13" d="M42.54,44.7l-.32-.28c-.14-.12-.72-.45-.51-.7s.4-.1.58,0a6.25,6.25,0,0,1,.27-.68,4.37,4.37,0,0,1,.84-1.39,11,11,0,0,1-.53,1.53c.3.07.4-1.61.83-1.59.17,0-.32,1.71-.18,1.75s.07-1.36.39-1.33-.13,1.42-.06,1.41.12-.89.24-.8,0,.87,0,1c-.11.44-.36,1-.82,1.15A.66.66,0,0,1,42.54,44.7Z"/><path class="cls-13" d="M40.11,43.23l4.39,7.34a1.21,1.21,0,0,1-2,1.32h0l-.06-.07-.05-.07-5-6.66a1.57,1.57,0,0,1,.42-2.58A1.77,1.77,0,0,1,40.11,43.23Z"/><path class="cls-7" d="M39,47.6c.6-.33,1.2-.66,1.77-1a6.4,6.4,0,0,0,1.08-.92L40,43a1.71,1.71,0,0,0-2.32-.79l-.1,0a1.78,1.78,0,0,0-.92,1.19,2.1,2.1,0,0,0,.5,1.74Z"/><path class="cls-12" d="M39,47.69a.09.09,0,0,1-.08,0l-1.42-2.14a.11.11,0,0,1,0-.14.09.09,0,0,1,.13,0L39,47.48a8.67,8.67,0,0,0,2.69-1.85c-.22-.41-1.64-3-3-3.52a.1.1,0,0,1,0-.13.09.09,0,0,1,.12,0c1.51.64,3,3.54,3.1,3.67a.08.08,0,0,1,0,.1,8.82,8.82,0,0,1-2.88,2Z"/><path class="cls-5" d="M55.59,52.75a5.28,5.28,0,0,0-1.06,1.54c2.07-.62,2.52-1.44,2.62-1.71Z"/><path class="cls-14" d="M45.35,67.25s0,0,0,0a.34.34,0,0,0,.44.11.91.91,0,0,0,.34-.36,2.09,2.09,0,0,0,.26-.57,1.63,1.63,0,0,0-.16-.94c-.15-.36-.36-.69-.54-1a.23.23,0,0,0-.1-.12.2.2,0,0,0-.18,0,.42.42,0,0,0-.14.44c0,.13.15.24.14.38s-.15.22-.28.29-.25.17-.25.31.09.21.07.32-.1.17-.09.27.2.18.22.31S45,67,45.1,67s.13,0,.18.09A.24.24,0,0,1,45.35,67.25Z"/><path class="cls-14" d="M54,54.73,51.79,63a1.2,1.2,0,0,0,2.26.73h0l0-.08,0-.08,3.31-7.65A1.8,1.8,0,1,0,54,54.73Z"/><path class="cls-15" d="M56.05,53.17a2.07,2.07,0,0,0-1.49.37,2,2,0,0,0-.78,1.13l-.93,3.43.09,0c.5.21,1,.4,1.53.59a12.65,12.65,0,0,0,1.79.53L57.67,56a1.92,1.92,0,0,0-.05-1.74A2.33,2.33,0,0,0,56.05,53.17Z"/><path class="cls-14" d="M45.41,65.63h0l-.12.07A.75.75,0,0,0,46,67h0l7.6-2.68.06,0h0a1.43,1.43,0,0,0,.27-.15,1.21,1.21,0,0,0-1.23-2.07h0Z"/><path class="cls-4" d="M49,74.71a16,16,0,0,0,.47-2.27,9.78,9.78,0,0,0,.06-1.72A17.35,17.35,0,0,0,48.43,65a2.13,2.13,0,0,0-1.21-.39,1.57,1.57,0,0,0-1.27.5,1.14,1.14,0,0,0-.16.79s.61,7.09.78,10.7a10.16,10.16,0,0,0,1.91,0C48.6,76.12,48.77,75.53,49,74.71Z"/><path class="cls-5" d="M48.48,76.57a10.16,10.16,0,0,1-1.91,0c0,.79,0,1.41,0,1.75-.07,1.42-.35,1.51-.42,1.51.65.37,1.51.76,1.89.44s0-.81,0-1.84A5.77,5.77,0,0,1,48.48,76.57Z"/><path class="cls-6" d="M45.27,79a2.07,2.07,0,0,0,.6-.5c.18-.26.48-.9.54-.91a2.48,2.48,0,0,1,.62.24c0,.07-.91,1-.87,1s.32.59.16.67a2.64,2.64,0,0,1-.83,0l-.22-.37Z"/><path class="cls-4" d="M43.87,79.71a.46.46,0,0,1,.19-.32c.16-.07.86-.14.91-.17a2.36,2.36,0,0,1,.39-.22c.08,0,.67.47.81.44s-.3-.4-.24-.46.67-.62.69-.68a4.87,4.87,0,0,0,1.37.27.3.3,0,0,1,.33.24l.14.85V80l-.33.09-.92,0L46,80.24l-.63.1-1-.16-.56-.42Z"/><path class="cls-8" d="M43.8,79.88s0-.22.06-.25.1.24.13.25a3.63,3.63,0,0,0,1.73.28,10.19,10.19,0,0,0,1.73-.36c.5,0,1,.11,1-.14,0,0,.22.49,0,.73s-.29.13-.56.13a3.77,3.77,0,0,1-1-.11c-.15,0-.35.15-.81.21S44.07,80.57,43.8,79.88Z"/><path class="cls-4" d="M46,79h0L45.85,79a1.18,1.18,0,0,0-.24-.17,0,0,0,1,1,0-.07,1.45,1.45,0,0,1,.26.17L46,79s0,0,0,.06S46,79,46,79Z"/><path class="cls-4" d="M46.33,78.72h0a1.9,1.9,0,0,0-.39-.23,0,0,0,1,1,0-.07,1.52,1.52,0,0,1,.41.24,0,0,0,0,1,0,0S46.34,78.72,46.33,78.72Z"/><path class="cls-4" d="M46.54,78.5h0l0,0a1.91,1.91,0,0,0-.36-.3s0,0,0-.06a0,0,0,0,1,0,0,2.58,2.58,0,0,1,.38.32l0,.05a0,0,0,0,1,0,.06Z"/><path class="cls-4" d="M60.16,70s-10.3-6.25-12.44-6.28-2.25,2.6-1.24,3.08c.66.31,5.38,4,8.5,6.47a2.72,2.72,0,0,0,4.18-1Z"/><path class="cls-9" d="M57.05,77.48a17.39,17.39,0,0,0-2.31,0,9.91,9.91,0,0,0-1.7.32,17.67,17.67,0,0,0-5.34,2.3,2.18,2.18,0,0,0-.12,1.26,1.57,1.57,0,0,0,.77,1.13,1.12,1.12,0,0,0,.81,0S56,80.37,59.43,79.43A10.73,10.73,0,0,0,59,77.57Z"/><path class="cls-5" d="M59,77.57a10.73,10.73,0,0,1,.45,1.86c.77-.21,1.37-.36,1.71-.42,1.4-.24,1.55,0,1.56.08.22-.71.41-1.64,0-1.94s-.8.16-1.8.4A5.63,5.63,0,0,1,59,77.57Z"/><path class="cls-6" d="M62.08,80.16a2.29,2.29,0,0,0-.62-.48,9.59,9.59,0,0,1-1-.33,2.1,2.1,0,0,1,.1-.65c0-.07,1.17.67,1.19.62s.5-.44.61-.3a2.52,2.52,0,0,1,.16.82l-.32.29Z"/><path class="cls-9" d="M63.05,81.38s-.25,0-.35-.11a8.49,8.49,0,0,1-.37-.85,2.51,2.51,0,0,1-.3-.34c0-.07.31-.75.25-.88s-.32.38-.39.33-.76-.52-.82-.53a4.68,4.68,0,0,0,0-1.39.31.31,0,0,1,.17-.37l.8-.33.29-.07.16.3.17.9.48,1.15.23.6.06,1-.29.64Z"/><path class="cls-8" d="M63.23,81.42s-.22,0-.26,0,.21-.15.21-.19a3.67,3.67,0,0,0-.09-1.74,9.27,9.27,0,0,0-.74-1.61c-.15-.48-.1-1-.35-1,0,0,.43-.31.71-.16s.19.25.25.52a3.62,3.62,0,0,1,.11,1c0,.15.23.31.39.75S63.84,81,63.23,81.42Z"/><path class="cls-9" d="M61.93,79.47v0l-.06.12a2,2,0,0,0-.11.28s0,0,0,0,0,0,0,0a1,1,0,0,1,.12-.29.61.61,0,0,0,.05-.12,0,0,0,0,1,.06,0S61.93,79.46,61.93,79.47Z"/><path class="cls-9" d="M61.55,79.2s0,0,0,0a1.8,1.8,0,0,0-.14.43,0,0,0,0,1,0,0,.05.05,0,0,1,0,0,2.38,2.38,0,0,1,.15-.45,0,0,0,0,1,.05,0Z"/><path class="cls-9" d="M61.29,79a0,0,0,0,1,0,0l0,.06a1.45,1.45,0,0,0-.21.41s0,0-.05,0,0,0,0,0a2,2,0,0,1,.22-.43l0-.07s0,0,.06,0Z"/><path class="cls-9" d="M55.57,69.6s-8.38,8.65-8.89,10.74,2,2.76,2.73,1.89c.54-.69,7-5.92,9.75-8.11a2.92,2.92,0,0,0,.17-4.45,2.61,2.61,0,0,0-.75-.46A3.39,3.39,0,0,0,55.57,69.6Z"/><path class="cls-10" d="M57.29,52a18.09,18.09,0,0,0,2.41-1.24c.53-.43-.54-1.14-.54-1.14l-1.54,0Z"/><polygon class="cls-5" points="58.15 50.63 56.42 53.99 55.23 53.52 56.33 51.18 58.15 50.63"/><path class="cls-10" d="M58.26,50.83l-1.93.35-.63,1.33A4.94,4.94,0,0,0,58.26,50.83Z"/><path class="cls-5" d="M58.75,48a2.61,2.61,0,0,0-.6-1,2.06,2.06,0,0,0-1.89-.68c-.37.13-.64.69-1.17,1.82a6.13,6.13,0,0,0-.54,1.49,2,2,0,0,0,0,1.43,1.61,1.61,0,0,0,.84.7,2.59,2.59,0,0,0,1.45,0,2,2,0,0,0,.56-.19,1.77,1.77,0,0,0,.49-.38c.42.37,1.11-.06,1.22-.53a.57.57,0,0,0-.12-.5.41.41,0,0,0-.5-.08,3.09,3.09,0,0,0,.31-1.58A3,3,0,0,0,58.75,48Z"/><path class="cls-10" d="M60.85,49.22a1.74,1.74,0,0,0-.18-1.33,1.94,1.94,0,0,0-.79-.74,2.24,2.24,0,0,1-.92-.62,9.37,9.37,0,0,1-.44-.9,1.67,1.67,0,0,0-2-.69,1.7,1.7,0,0,0-.95,1.84c.13.72,1.51.91,2.1,1.09.06,0,.61.18.6.38s-.07.09-.11.23a.46.46,0,0,0,0,.34c.08.14.31.2.34.36a.51.51,0,0,1-.09.29c0,.05-.48.82-.48.82l.09.09s.61-.47.84-.06h0l0,.09a.65.65,0,0,1,0,.35.92.92,0,0,1-.3.45,3,3,0,0,0,1.88-1A2.45,2.45,0,0,0,60.85,49.22Z"/><path class="cls-16" d="M57,52.73c.51.24,1.06,0,1.56.61a5.19,5.19,0,0,1,.83,2.11,65.12,65.12,0,0,1,1.05,8.75c-.13,5.69.29,7.24-.35,7.4-2,.5-5.72,1.88-7.26.8-.61-.43.82-16.83,1.21-18.3C54.36,53,56.58,52.52,57,52.73Z"/><path class="cls-5" d="M55.32,54.5,54,63a1.21,1.21,0,0,0,2.33.47h0l0-.09a.19.19,0,0,0,0-.08l2.41-8a1.8,1.8,0,1,0-3.51-.78Z"/><path class="cls-16" d="M57.14,52.72a2.08,2.08,0,0,0-1.43.53,2,2,0,0,0-.64,1.21L54.53,58l.1,0c.52.15,1.06.28,1.59.41a12.75,12.75,0,0,0,1.83.32l1-3.39a1.92,1.92,0,0,0-.25-1.72A2.29,2.29,0,0,0,57.14,52.72Z"/><path class="cls-15" d="M58.05,58.84h0a13.14,13.14,0,0,1-1.85-.33h0c-.51-.12-1-.25-1.55-.4l-.09,0a.09.09,0,0,1-.07-.1l.38-2.55a2.06,2.06,0,0,1,.54-1.32A2.84,2.84,0,0,1,57,53.25a.11.11,0,0,1,.11.09.1.1,0,0,1-.08.11,2.57,2.57,0,0,0-1.56.78A1.86,1.86,0,0,0,55,55.44l-.37,2.47c.52.16,1,.28,1.56.41h0a14.33,14.33,0,0,0,1.75.31l1-3.32a.09.09,0,1,1,.18.06l-1,3.39A.11.11,0,0,1,58.05,58.84Z"/><path class="cls-5" d="M48.16,59h0L48,59a.75.75,0,0,0-.47,1.4h0L54.76,64l.06,0,0,0h0a1.4,1.4,0,0,0,.29.09,1.21,1.21,0,0,0,.65-2.31h0Z"/><path class="cls-5" d="M46.67,57.36c-.11-.2-.58.58-.89,1.23a.72.72,0,0,0,.08.7c1.94,1.76,3.07.9,3.07.9s-1.48-2.46-2-2.59-.09,1-.11,1.14-.16.34-.35.21S46.89,57.76,46.67,57.36Z"/><path class="cls-8" d="M46.88,57.82a.66.66,0,0,1-.27-.06.72.72,0,0,1-.42-.49.52.52,0,0,1,.12-.48.69.69,0,0,1,.81-.18.67.67,0,0,1,.38.75h0a.6.6,0,0,1-.3.38A.72.72,0,0,1,46.88,57.82Zm0-1a.47.47,0,0,0-.35.15.28.28,0,0,0-.06.25.48.48,0,0,0,.27.32.47.47,0,0,0,.37,0,.31.31,0,0,0,.17-.21.42.42,0,0,0-.23-.46A.47.47,0,0,0,46.85,56.81Z"/><path class="cls-5" d="M46.85,58.68l.17-.09c.21-.11.42-.21.64-.3A2.15,2.15,0,0,0,47,57.6a.15.15,0,0,0-.22.11.77.77,0,0,1,0,.15,3.8,3.8,0,0,0,.13.82Z"/><polyline class="cls-8" points="46.75 56.68 46.51 56.27 46.71 56.04 46.97 56.04 47.18 56.27 46.93 56.68"/><path class="cls-14" d="M46.27,65.65a.24.24,0,0,0-.19-.26c-.12,0-.22.09-.33.17a.68.68,0,0,1-.65.06s0,.13.06.16a1.33,1.33,0,0,1,.1.28c.05.24.1.48.16.73s.07.25.11.38.06.26.09.26a.91.91,0,0,0,.67-.22.45.45,0,0,0,.14-.26.2.2,0,0,0,0-.15.45.45,0,0,0,.12-.31.26.26,0,0,0-.17-.22.41.41,0,0,0,0-.19.25.25,0,0,0-.2-.23A.5.5,0,0,0,46.27,65.65Z"/></svg>