<svg xmlns="http://www.w3.org/2000/svg" xmlns:xlink="http://www.w3.org/1999/xlink" viewBox="0 0 100 100"><defs><style>.cls-1{fill:none;}.cls-2{isolation:isolate;}.cls-3{fill:#f8b4ba;}.cls-4{fill:#f04f50;}.cls-13,.cls-22,.cls-23,.cls-24,.cls-25,.cls-29,.cls-4{mix-blend-mode:multiply;}.cls-13,.cls-32,.cls-4{opacity:0.4;}.cls-5{fill:#f5949c;}.cls-6{fill:#feeff0;}.cls-13,.cls-7{fill:#f7a2a6;}.cls-8{fill:#cb2459;}.cls-9{fill:#fde5dc;}.cls-10{fill:#fff;}.cls-11{fill:#f8961d;}.cls-12{clip-path:url(#clip-path);}.cls-14{fill:#2b3b7b;}.cls-15,.cls-23,.cls-24{fill:#f79e83;}.cls-16,.cls-25{fill:#5868b0;}.cls-17{fill:#3c1028;}.cls-18{fill:#540e2d;}.cls-19{fill:#6f0d32;}.cls-20{fill:#5060a6;}.cls-21,.cls-22,.cls-29{fill:#590d39;}.cls-22{opacity:0.2;}.cls-23{opacity:0.5;}.cls-24,.cls-25,.cls-29{opacity:0.3;}.cls-26{fill:#d04b57;}.cls-27{fill:#341222;}.cls-28,.cls-32{fill:#feedef;}.cls-30{fill:#f6906e;}.cls-31{fill:#fbbe95;}.cls-32{mix-blend-mode:soft-light;}.cls-33{fill:#171818;}.cls-34{fill:#f47d72;}.cls-35{fill:#f15c69;}.cls-36{fill:#434343;}.cls-37{fill:#595a5a;}.cls-38{fill:#252727;}</style><clipPath id="clip-path"><path class="cls-1" d="M93,29.89C88.28,12.4,56.7,7.38,49.3,26.24c-7.4-18.86-39-13.84-43.7,3.65S10.51,59.94,21.12,73.5,41.33,89.2,49.3,89.2s19.38-3.51,30-17.07S97.71,47.38,93,29.89Z"/></clipPath></defs><g class="cls-2"><g id="Layer_1" data-name="Layer 1"><path class="cls-3" d="M93,29.89C88.28,12.4,56.7,7.38,49.3,26.24c-7.4-18.86-39-13.84-43.7,3.65S10.51,59.94,21.12,73.5,41.33,89.2,49.3,89.2s19.38-3.51,30-17.07S97.71,47.38,93,29.89Z"/><path class="cls-4" d="M36.9,76.08a55.74,55.74,0,0,1-7.39-6.52,1.07,1.07,0,0,0,.37-.39c.18-.3.23-.66.42-1,.39-.6,1.21-.69,1.87-1a2.7,2.7,0,0,0,1.57-2.95A2.3,2.3,0,0,0,31,62.61a3.25,3.25,0,0,0-1.85,2,7.71,7.71,0,0,0-.56,3.58,2.64,2.64,0,0,0,.11.53c-1.09-1.19-2.08-2.38-3-3.54a3.52,3.52,0,0,1,1-2.55c.56-.53,1.31-.82,1.82-1.39a2.41,2.41,0,0,0-1.71-4,3,3,0,0,0-2.58,1.62,4.61,4.61,0,0,0-.38,3.12,7.45,7.45,0,0,0,.36,1.25c-1.18-1.66-2.18-3.24-3-4.68a3.49,3.49,0,0,1,1-2.67c.56-.52,1.31-.82,1.82-1.39a2.41,2.41,0,0,0-1.72-4,2.91,2.91,0,0,0-2.57,1.62,4.55,4.55,0,0,0-.41,3,50.74,50.74,0,0,1-2.23-5.29,3.6,3.6,0,0,1,1-2.3c.56-.52,1.31-.82,1.82-1.39a2.4,2.4,0,0,0-1.72-4,2.92,2.92,0,0,0-2.57,1.61,4.7,4.7,0,0,0-.39,3.13,6.63,6.63,0,0,0,1.46,3.12c.31.89.75,2,1.34,3.37a13.48,13.48,0,0,0-2.37-2.06,3.73,3.73,0,0,0-1.48-.41,2,2,0,0,0-1.43.48,3.18,3.18,0,0,0-.77,1.62,1.64,1.64,0,0,0,.1,1.53,1.51,1.51,0,0,0,1.13.35c1.38,0,2.81-.48,4.09,0A2.78,2.78,0,0,0,19,55c.4.83.84,1.71,1.34,2.62s.9,1.59,1.43,2.45a5.46,5.46,0,0,0-1.88-1.21,3.27,3.27,0,0,0-2.69,0,2.31,2.31,0,0,0-.63,3.17,2.7,2.7,0,0,0,3.24.84c.66-.29,1.47-1.06,2.15-.83a2.91,2.91,0,0,0,1.24.22c.9,1.33,1.93,2.73,3.08,4.15a10.94,10.94,0,0,0-2-1.24A3.76,3.76,0,0,0,22.74,65a2,2,0,0,0-1.35.67,3.15,3.15,0,0,0-.55,1.7,1.66,1.66,0,0,0,.31,1.51,1.46,1.46,0,0,0,1.16.19c1.36-.2,2.72-.84,4.06-.52.41.09,1.39.28,1.63,0a56.49,56.49,0,0,0,8.67,7.9.25.25,0,0,0,.17,0,.25.25,0,0,0,.1-.08A.19.19,0,0,0,36.9,76.08Z"/><path class="cls-5" d="M37,76a.26.26,0,0,0,.11-.07.2.2,0,0,0,0-.27A57.65,57.65,0,0,1,20.87,57a46.68,46.68,0,0,1-4.11-9.7.19.19,0,1,0-.37.09,46.61,46.61,0,0,0,4.13,9.79A58.1,58.1,0,0,0,36.88,76,.16.16,0,0,0,37,76Z"/><path class="cls-5" d="M29.34,64.15a3.28,3.28,0,0,1,1.84-2A2.31,2.31,0,0,1,34,63.87a2.72,2.72,0,0,1-1.58,3c-.65.28-1.48.37-1.87,1-.19.29-.23.66-.41,1-.73,1.19-1.27-.44-1.31-1A7.53,7.53,0,0,1,29.34,64.15Z"/><path class="cls-5" d="M20.07,58.45a3.23,3.23,0,0,0-2.69,0,2.29,2.29,0,0,0-.63,3.17A2.71,2.71,0,0,0,20,62.5c.65-.29,1.47-1.06,2.15-.84,2.33.76,1.23-.52.83-.95A7.94,7.94,0,0,0,20.07,58.45Z"/><path class="cls-5" d="M24.47,64.8a3.79,3.79,0,0,0-1.53-.22,2,2,0,0,0-1.35.67A3.33,3.33,0,0,0,21,67a1.64,1.64,0,0,0,.31,1.51,1.5,1.5,0,0,0,1.16.2c1.37-.21,2.72-.84,4.06-.53.43.1,1.51.31,1.67-.11C28.52,67.32,25.17,65,24.47,64.8Z"/><path class="cls-5" d="M16,50.78a3.65,3.65,0,0,0-1.48-.42,2,2,0,0,0-1.43.49,3.32,3.32,0,0,0-.77,1.61A1.66,1.66,0,0,0,12.42,54a1.44,1.44,0,0,0,1.13.34c1.37,0,2.8-.47,4.09,0,.41.16,1.46.5,1.67.11C19.67,53.81,16.66,51.1,16,50.78Z"/><path class="cls-5" d="M24.09,61.51a4.76,4.76,0,0,1,.38-3.13,2.94,2.94,0,0,1,2.58-1.61,2.4,2.4,0,0,1,1.72,4c-.51.57-1.26.87-1.82,1.39a3.47,3.47,0,0,0-1,2.71C26,65.1,24.6,64,24.09,61.51Z"/><path class="cls-5" d="M19.63,54.75A4.67,4.67,0,0,1,20,51.63,3,3,0,0,1,22.59,50a2.41,2.41,0,0,1,1.71,4c-.51.57-1.26.86-1.82,1.39a3.47,3.47,0,0,0-1,2.7C21.48,58.35,20.14,57.23,19.63,54.75Z"/><path class="cls-5" d="M15.57,46.34A4.66,4.66,0,0,1,16,43.22a3,3,0,0,1,2.58-1.62,2.41,2.41,0,0,1,1.71,4c-.51.57-1.26.86-1.81,1.39a3.44,3.44,0,0,0-1,2.7C17.42,49.93,16.08,48.82,15.57,46.34Z"/><path class="cls-6" d="M17,47.6a.1.1,0,0,0,.09-.11,5,5,0,0,1,2-4.18.11.11,0,0,0-.12-.19,5.21,5.21,0,0,0-2.12,4.38.12.12,0,0,0,.12.1Z"/><path class="cls-6" d="M21.13,55.87a.1.1,0,0,0,.08-.09,8,8,0,0,1,1.9-4.21.12.12,0,0,0,0-.16.11.11,0,0,0-.15,0A8.17,8.17,0,0,0,21,55.75a.1.1,0,0,0,.09.12S21.11,55.88,21.13,55.87Z"/><path class="cls-6" d="M18.12,53.59l.06,0a.11.11,0,0,0,0-.15,5.77,5.77,0,0,0-4.56-1.54.1.1,0,0,0-.1.12.1.1,0,0,0,.12.09A5.56,5.56,0,0,1,18,53.56.19.19,0,0,0,18.12,53.59Z"/><path class="cls-6" d="M25.19,63.21a.1.1,0,0,0,.08-.12,5.34,5.34,0,0,1,2.39-5,.1.1,0,0,0,0-.15.11.11,0,0,0-.15,0,5.54,5.54,0,0,0-2.48,5.25.1.1,0,0,0,.12.09Z"/><path class="cls-6" d="M21.71,60.86a.05.05,0,0,0,.05,0,.11.11,0,0,0,0-.15,3.37,3.37,0,0,0-2.05-.92,3.41,3.41,0,0,0-2.16.61.1.1,0,0,0,0,.15.11.11,0,0,0,.15,0,3.16,3.16,0,0,1,2-.57,3.09,3.09,0,0,1,1.91.86A.12.12,0,0,0,21.71,60.86Z"/><path class="cls-6" d="M29.58,68a.12.12,0,0,0,.09-.12,4.48,4.48,0,0,1,.64-2.7,4.65,4.65,0,0,1,2.11-1.81.1.1,0,0,0,.06-.14.11.11,0,0,0-.14-.06,4.74,4.74,0,0,0-2.89,4.73.11.11,0,0,0,.12.1Z"/><path class="cls-6" d="M27.48,67.77a.09.09,0,0,0,.06,0,.11.11,0,0,0,0-.15,5.19,5.19,0,0,0-5.06-1,.1.1,0,0,0-.07.13.1.1,0,0,0,.13.07,5,5,0,0,1,4.85,1A.11.11,0,0,0,27.48,67.77Z"/><path class="cls-4" d="M91.66,51.83a3.94,3.94,0,0,0-.86-2,2.43,2.43,0,0,0-1.71-.66,4.58,4.58,0,0,0-1.81.43,15.9,15.9,0,0,0-3,2.39c.77-1.6,1.36-3,1.78-4A8,8,0,0,0,88,44.26a5.64,5.64,0,0,0-.32-3.8,3.58,3.58,0,0,0-3-2.09,2.92,2.92,0,0,0-2.27,4.78c.59.71,1.48,1.11,2.13,1.77a4.25,4.25,0,0,1,1.16,2.82,62.1,62.1,0,0,1-2.94,6.32,5.66,5.66,0,0,0-.36-3.61,3.59,3.59,0,0,0-3-2.08,2.91,2.91,0,0,0-2.27,4.77c.59.72,1.48,1.11,2.13,1.77a4.2,4.2,0,0,1,1.13,3.28c-1.07,1.7-2.35,3.57-3.86,5.53a8.8,8.8,0,0,0,.49-1.5,5.59,5.59,0,0,0-.31-3.8,3.59,3.59,0,0,0-3-2.08,2.91,2.91,0,0,0-2.27,4.77c.59.71,1.48,1.11,2.13,1.77A4.21,4.21,0,0,1,74.61,66q-1.73,2.05-3.78,4.16a3.55,3.55,0,0,0,.15-.64,9.12,9.12,0,0,0-.51-4.36,3.91,3.91,0,0,0-2.14-2.45,2.77,2.77,0,0,0-3.42,1.9,3.27,3.27,0,0,0,1.76,3.65c.78.38,1.77.52,2.22,1.27.21.36.25.8.46,1.17a1.13,1.13,0,0,0,.43.49,66.82,66.82,0,0,1-9.27,7.55.25.25,0,0,0-.06.33.18.18,0,0,0,.12.09.23.23,0,0,0,.21,0A69,69,0,0,0,71.66,70c.27.4,1.47.23,2,.13,1.64-.32,3.26.52,4.9.83a1.77,1.77,0,0,0,1.41-.18A2,2,0,0,0,80.39,69a3.94,3.94,0,0,0-.58-2.09A2.45,2.45,0,0,0,78.2,66a4.69,4.69,0,0,0-1.86.19,13.22,13.22,0,0,0-2.47,1.4c1.47-1.66,2.78-3.3,3.94-4.88a3.36,3.36,0,0,0,1.5-.21c.84-.23,1.79.74,2.57,1.12a3.29,3.29,0,0,0,4-.86,2.78,2.78,0,0,0-.61-3.87A3.91,3.91,0,0,0,82,58.71a6.69,6.69,0,0,0-2.33,1.39c.68-1,1.29-2,1.84-2.9.65-1.09,1.23-2.13,1.76-3.12.42.23,1.43-.06,1.86-.21,1.58-.53,3.3.09,5,.18a1.75,1.75,0,0,0,1.38-.37A2,2,0,0,0,91.66,51.83Z"/><path class="cls-5" d="M60.45,78.55a.27.27,0,0,1-.12-.09.24.24,0,0,1,.06-.33A69.9,69.9,0,0,0,81,56.34a56.41,56.41,0,0,0,5.44-11.55.23.23,0,0,1,.29-.16.24.24,0,0,1,.16.29,56.26,56.26,0,0,1-5.47,11.65A70.45,70.45,0,0,1,60.66,78.52.26.26,0,0,1,60.45,78.55Z"/><path class="cls-5" d="M70.35,64.55a3.93,3.93,0,0,0-2.14-2.46A2.8,2.8,0,0,0,64.78,64a3.3,3.3,0,0,0,1.77,3.66c.78.38,1.77.52,2.22,1.27.21.36.25.8.46,1.17.82,1.48,1.55-.48,1.63-1.18A9.11,9.11,0,0,0,70.35,64.55Z"/><path class="cls-5" d="M81.86,58.09a4,4,0,0,1,3.25.17,2.79,2.79,0,0,1,.61,3.88,3.29,3.29,0,0,1-4,.86c-.78-.39-1.73-1.36-2.57-1.12-2.86.81-1.47-.69-1-1.19A9.47,9.47,0,0,1,81.86,58.09Z"/><path class="cls-5" d="M76.22,65.57a4.36,4.36,0,0,1,1.86-.19,2.43,2.43,0,0,1,1.6.88,3.82,3.82,0,0,1,.59,2.08c0,.65.06,1.42-.45,1.81a1.71,1.71,0,0,1-1.42.18c-1.64-.31-3.25-1.14-4.89-.82-.53.1-1.84.29-2-.22C71.2,68.42,75.36,65.82,76.22,65.57Z"/><path class="cls-5" d="M87.16,49A4.41,4.41,0,0,1,89,48.56a2.39,2.39,0,0,1,1.71.66,3.9,3.9,0,0,1,.86,2,2,2,0,0,1-.21,1.85,1.79,1.79,0,0,1-1.38.37c-1.67-.1-3.38-.71-5-.18-.51.17-1.79.54-2,.06C82.55,52.48,86.33,49.35,87.16,49Z"/><path class="cls-5" d="M76.83,61.6a5.64,5.64,0,0,0-.31-3.8,3.58,3.58,0,0,0-3-2.09,2.92,2.92,0,0,0-2.26,4.78c.59.71,1.48,1.11,2.13,1.77a4.17,4.17,0,0,1,1.12,3.32C74.42,65.86,76.1,64.57,76.83,61.6Z"/><path class="cls-5" d="M82.56,53.63a5.64,5.64,0,0,0-.31-3.8,3.59,3.59,0,0,0-3-2.08,2.91,2.91,0,0,0-2.27,4.77c.59.71,1.48,1.11,2.13,1.77a4.2,4.2,0,0,1,1.13,3.33C80.15,57.9,81.83,56.61,82.56,53.63Z"/><path class="cls-5" d="M87.88,43.64a5.67,5.67,0,0,0-.31-3.81,3.59,3.59,0,0,0-3-2.08,2.91,2.91,0,0,0-2.26,4.77c.59.72,1.48,1.11,2.13,1.77a4.2,4.2,0,0,1,1.12,3.33C85.47,47.9,87.15,46.61,87.88,43.64Z"/><path class="cls-6" d="M86.06,45.09A.12.12,0,0,1,86,45a6.06,6.06,0,0,0-2.24-5.17.13.13,0,0,1,0-.18.14.14,0,0,1,.19,0A6.32,6.32,0,0,1,86.22,45a.13.13,0,0,1-.14.13Z"/><path class="cls-6" d="M80.7,54.92a.13.13,0,0,1-.1-.12,9.68,9.68,0,0,0-2.1-5.19.14.14,0,1,1,.21-.17,10,10,0,0,1,2.15,5.34.13.13,0,0,1-.12.14Z"/><path class="cls-6" d="M84.44,52.29s0,0-.06,0a.13.13,0,0,1,0-.19A7,7,0,0,1,90,50.41a.13.13,0,0,1,0,.26,6.78,6.78,0,0,0-5.39,1.59A.13.13,0,0,1,84.44,52.29Z"/><path class="cls-6" d="M75.42,63.61a.14.14,0,0,1-.1-.15,6.45,6.45,0,0,0-2.64-6.21.13.13,0,0,1,0-.18.14.14,0,0,1,.19,0,6.75,6.75,0,0,1,2.76,6.48.14.14,0,0,1-.16.11Z"/><path class="cls-6" d="M79.75,60.94l-.06,0a.13.13,0,0,1,0-.19,4,4,0,0,1,5.11-.17.12.12,0,0,1,0,.18.13.13,0,0,1-.18,0,3.72,3.72,0,0,0-4.78.16A.12.12,0,0,1,79.75,60.94Z"/><path class="cls-6" d="M69.87,69.22a.13.13,0,0,1-.1-.14,5.42,5.42,0,0,0-.65-3.3,5.48,5.48,0,0,0-2.47-2.29.14.14,0,0,1-.06-.18.12.12,0,0,1,.17-.06,5.68,5.68,0,0,1,2.59,2.4A5.78,5.78,0,0,1,70,69.11a.13.13,0,0,1-.15.11Z"/><path class="cls-6" d="M72.43,69l-.08,0a.15.15,0,0,1,0-.19,6.31,6.31,0,0,1,6.18-1,.13.13,0,0,1,.08.17.12.12,0,0,1-.17.07,6.08,6.08,0,0,0-5.92,1A.11.11,0,0,1,72.43,69Z"/><rect class="cls-7" x="67.59" y="34" width="11.31" height="4.39" rx="0.58"/><rect class="cls-7" x="24.58" y="20.82" width="9.41" height="3.66" rx="0.49"/><rect class="cls-7" x="56.62" y="25.3" width="8.52" height="3.31" rx="0.44"/><rect class="cls-7" x="16.3" y="27.93" width="9.41" height="3.66" rx="0.49"/><path class="cls-8" d="M86.73,25.7s2.61-2.24,2.84-.42-4.43,3.82-4.43,3.82-2-4.21-1-5.26S86.8,24,86.73,25.7Z"/><path class="cls-8" d="M15.51,34.16s4.49-4,5-.84-7.62,6.87-7.62,6.87S9.13,32.88,10.92,31,15.57,31.13,15.51,34.16Z"/><path class="cls-8" d="M12.59,61.92s-3.1-2.43-3.28-.34,5.27,4.17,5.27,4.17,2.12-4.93.87-6.09S12.42,59.94,12.59,61.92Z"/><path class="cls-9" d="M69.19,18.63s0-2.14,1-1.51,0,3.65,0,3.65-2.82-.75-2.9-1.68S68.41,17.89,69.19,18.63Z"/><path class="cls-8" d="M93.6,45.89s2.87-.92,2.44.63-4.89,1.58-4.89,1.58-.21-4.1,1-4.6S94.24,44.51,93.6,45.89Z"/><path class="cls-8" d="M75.9,76.27s3.94-1.25,3.34.87-6.69,2.17-6.69,2.17-.28-5.62,1.37-6.29S76.79,74.39,75.9,76.27Z"/><path class="cls-8" d="M11,20.48s.35-3,1.58-2S12,23.63,12,23.63s-3.82-1.51-3.77-2.81S10.05,19.32,11,20.48Z"/><path class="cls-9" d="M11.15,46.36s0-2.21,1-1.56,0,3.76,0,3.76-2.91-.78-3-1.73S10.34,45.6,11.15,46.36Z"/><path class="cls-10" d="M79.42,43.29l.1-.29.09.29a1.28,1.28,0,0,0,.61.74h0a1.28,1.28,0,0,0-.61.74l-.09.29-.1-.29a1.26,1.26,0,0,0-.6-.74h0A1.26,1.26,0,0,0,79.42,43.29Z"/><path class="cls-10" d="M20.08,20.77l.16-.52.17.52A2.32,2.32,0,0,0,21.5,22.1h0a2.29,2.29,0,0,0-1.09,1.33l-.17.52-.16-.52A2.29,2.29,0,0,0,19,22.1h0A2.32,2.32,0,0,0,20.08,20.77Z"/><path class="cls-10" d="M21.32,39.24l.09-.29.1.29a1.26,1.26,0,0,0,.6.74h0a1.3,1.3,0,0,0-.6.74l-.1.29-.09-.29a1.27,1.27,0,0,0-.61-.74h0A1.25,1.25,0,0,0,21.32,39.24Z"/><path class="cls-10" d="M88,34.13l.14-.43.14.43a1.92,1.92,0,0,0,.91,1.11h0a1.89,1.89,0,0,0-.91,1.11l-.14.43L88,36.35a1.89,1.89,0,0,0-.91-1.11h0A1.92,1.92,0,0,0,88,34.13Z"/><path class="cls-10" d="M8.17,30.31l.1-.29.09.29a1.31,1.31,0,0,0,.61.74H9a1.28,1.28,0,0,0-.61.74l-.09.29-.1-.29a1.26,1.26,0,0,0-.6-.74h0A1.3,1.3,0,0,0,8.17,30.31Z"/><path class="cls-7" d="M76.46,23c-2.56-.12-5,2.2-5.11,4.28a3.09,3.09,0,0,0,.24,1.35l-1.73,1.13,2.62.15a3.84,3.84,0,0,0,3.42,2,4.68,4.68,0,0,0,4.71-4.24A4.59,4.59,0,0,0,76.46,23Z"/><path class="cls-11" d="M68.87,29l1.72-1.13a3.06,3.06,0,0,1-.24-1.35c.09-2.08,2.55-4.4,5.11-4.28A4.6,4.6,0,0,1,79.62,27a4.68,4.68,0,0,1-4.71,4.24,3.86,3.86,0,0,1-3.43-2Z"/><path class="cls-9" d="M75.13,26.26s-1.9-2.33-2.38-.81,3.21,4,3.21,4,2.4-3.3,1.67-4.36S75.33,24.76,75.13,26.26Z"/><g class="cls-12"><path class="cls-13" d="M25.47,35.46c-.77-2.71-.25-5.81,2.17-7.5a8,8,0,0,1,4.14-1.29c0,.06,0,.11,0,.17a9.05,9.05,0,0,0-3.76,3.09,10.21,10.21,0,0,0-1.57,7.61c0,.17.07.33.11.5A11.88,11.88,0,0,1,25.47,35.46Z"/><path class="cls-14" d="M64.33,31.85s2.81,4.1-.25,10.51A9.12,9.12,0,0,1,64.33,31.85Z"/><path class="cls-15" d="M68.51,36.49l-3.84.74L51.25,39.79l.21-4.62s11.33-3,16.48-2.72a3.91,3.91,0,0,1,2.14.59C72.27,34.86,68.51,36.49,68.51,36.49Z"/><path class="cls-16" d="M64.08,42.36c.09.73-1,1.12-2.46,1.32a45.38,45.38,0,0,1-7.93,0L49.43,35l11.84-2.48,3.06-.64S63,33.79,64.08,42.36Z"/><path class="cls-17" d="M36.81,42.37C36,41,35,39.82,34.06,38.54l-.33-.49c-.34-1.21-.62-2.44-.84-3.68A14.56,14.56,0,0,1,33.21,27c.2-.23.4-.45.58-.69a.28.28,0,0,0,.1-.44.26.26,0,0,0-.13-.1,7.71,7.71,0,0,0-1.16-.24l-.2,0h-.07l-.48,0A8.89,8.89,0,0,0,28,26.1a8.83,8.83,0,0,0-2,1.17,6.69,6.69,0,0,0-.58.5,7.11,7.11,0,0,0-2.28,5.29,12.63,12.63,0,0,0,3,7.34l.26.33c.48,1.1,1,2.19,1.55,3.28a14.46,14.46,0,0,1,1.8,6.78c-.13,2.36-1.56,4.8-3.84,5.41l.34,0,.89,0a20.17,20.17,0,0,0,3.11,0,9.71,9.71,0,0,0,6-1.07,6.9,6.9,0,0,0,2.94-5.47A12.25,12.25,0,0,0,36.81,42.37Zm-12.48-7c-.78-2.7-.25-5.81,2.16-7.5a8.78,8.78,0,0,1,4.7-1.33,9.18,9.18,0,0,0-4.28,3.3,10.25,10.25,0,0,0-1.56,7.61c0,.17.07.34.11.5A11,11,0,0,1,24.33,35.35ZM36.44,54a6.21,6.21,0,0,1-3,1.34,6.39,6.39,0,0,0,2.52-2,7.77,7.77,0,0,0,.91-6,38.58,38.58,0,0,0-2-5.85c-.2-.53-.39-1.07-.57-1.61l.34.47a19.51,19.51,0,0,1,3.59,6.76C38.75,49.46,38.37,52.32,36.44,54Z"/><path class="cls-18" d="M33.49,45.2c-1-2.08-2.38-3.93-3.47-6a10.33,10.33,0,0,1-1.47-6.6,9.36,9.36,0,0,1,4-5.65,7.05,7.05,0,0,0,1.37-1.17.26.26,0,0,0-.13-.1,7.71,7.71,0,0,0-1.16-.24l-.2,0h-.07l-.48,0A8.89,8.89,0,0,0,28,26.1a8.83,8.83,0,0,0-2,1.17,6.69,6.69,0,0,0-.58.5,7.11,7.11,0,0,0-2.28,5.29,12.63,12.63,0,0,0,3,7.34l.26.33c.48,1.1,1,2.19,1.55,3.28a14.46,14.46,0,0,1,1.8,6.78c-.13,2.36-1.56,4.8-3.84,5.41l.34,0,.89,0a6.24,6.24,0,0,0,3.6-1.57,6.36,6.36,0,0,0,2-5.34,6.69,6.69,0,0,1,1.41,2.54A8.91,8.91,0,0,0,33.49,45.2Zm-9.16-9.85c-.78-2.7-.25-5.81,2.16-7.5a8.78,8.78,0,0,1,4.7-1.33,9.18,9.18,0,0,0-4.28,3.3,10.25,10.25,0,0,0-1.56,7.61c0,.17.07.34.11.5A11,11,0,0,1,24.33,35.35Z"/><path class="cls-19" d="M30.49,42.13a21.89,21.89,0,0,1-3.76-4.94,7.5,7.5,0,0,1-.55-6c1-2.6,3.81-4,6.35-5.18-.22-.2-.44-.4-.68-.59A8.89,8.89,0,0,0,28,26.1a8.83,8.83,0,0,0-2,1.17,6.69,6.69,0,0,0-.58.5,7.11,7.11,0,0,0-2.28,5.29,12.63,12.63,0,0,0,3,7.34l.26.33c.48,1.1,1,2.19,1.55,3.28a14.46,14.46,0,0,1,1.8,6.78c-.13,2.36-1.56,4.8-3.84,5.41l.34,0A7.65,7.65,0,0,0,30.83,50a13.87,13.87,0,0,0-2.31-8.63Zm-6.16-6.78c-.78-2.7-.25-5.81,2.16-7.5a8.78,8.78,0,0,1,4.7-1.33,9.18,9.18,0,0,0-4.28,3.3,10.25,10.25,0,0,0-1.56,7.61c0,.17.07.34.11.5A11,11,0,0,1,24.33,35.35Z"/><path class="cls-20" d="M55.28,65.11c.09.28.17.54.26.79l-7.26.95-1.67.22-1,.13-1.3.16L39,68.07l-1.75.23-.45,0h-.07c0-.23.07-.48.11-.75.08-.65.17-1.4.26-2.19s.14-1.35.2-2.06c.16-1.73.28-3.52.32-5,0-.72,0-1.38,0-1.94a12.18,12.18,0,0,0-.11-1.31h0A42.84,42.84,0,0,0,36,48.56c-.25-.84-.5-1.67-.76-2.48-.14-.24-.27-.5-.4-.76a39.63,39.63,0,0,1-2.62-7.79l2-.51h0l.13,0,.24-.05,8.14-.79c.73-.06,1.45-.17,2.17-.3l.12,0c.47-.08,1-.17,1.42-.27.73-.14,1.41-.27,1.93-.39l1-.2s.82.9,1.87,2.29a32,32,0,0,1,2.55,3.91h0A14.8,14.8,0,0,1,55.59,46a9.57,9.57,0,0,1-2.33,6l-.14.16s0,0,0,0h0s.06.72.19,1.86a83.62,83.62,0,0,0,1.64,9.86h0C55,64.28,55.16,64.71,55.28,65.11Z"/><path class="cls-15" d="M50.62,40.47a4,4,0,0,0-5.47,2.31c-3.8-1.75-6.59,2.24-6.95,2S34.46,37,34.46,37v0l.24-.05,8.14-.79c.73-.06,1.45-.17,2.17-.3l.12,0,1.42-.27c.73-.14,1.41-.27,1.93-.39l0,0Z"/><path class="cls-21" d="M61.51,95.94H28.85a37.16,37.16,0,0,1-.47-8.43,29.41,29.41,0,0,1,.46-3.93,29.94,29.94,0,0,1,.74-3.16l.21-.67c.12-.4.25-.78.39-1.15s.32-.87.49-1.28A29,29,0,0,1,32.29,74a22.62,22.62,0,0,1,4.4-5.66l18.59-3.25s.42.7,1,2a51.07,51.07,0,0,1,2.08,5c.35,1,.7,2.08,1,3.25a1.05,1.05,0,0,1,0,.19c.12.39.23.8.34,1.21s.2.78.29,1.19c.26,1.06.49,2.18.7,3.35.24,1.33.44,2.73.58,4.19A55.43,55.43,0,0,1,61.51,95.94Z"/><path class="cls-22" d="M56.33,67.11c-3.79,1.71-14.41,6.35-17.68,6.06-3.74-.32-6.82,16.83-4.47,22.77H28.85a37.16,37.16,0,0,1-.47-8.43,31.15,31.15,0,0,1,.46-3.93,30.2,30.2,0,0,1,.95-3.83c.12-.4.25-.78.39-1.15s.32-.87.49-1.28A29,29,0,0,1,32.29,74a22.43,22.43,0,0,1,4.4-5.65l18.59-3.26S55.7,65.81,56.33,67.11Z"/><path class="cls-23" d="M53.1,52.1s.06.72.19,1.86l-15.84,1.1h0A42.84,42.84,0,0,0,36,48.56c.89-3.64,3.6-15.25,15.28-11.3a32,32,0,0,1,2.55,3.91h0A14.8,14.8,0,0,1,55.59,46a9.57,9.57,0,0,1-2.33,6l-.14.16s0,0,0,0Z"/><path class="cls-11" d="M64.08,42.36c.09.73-1,1.12-2.46,1.32-1.87-3.75-.87-9.09-.35-11.19l3.06-.64S63,33.79,64.08,42.36Z"/><path class="cls-24" d="M68.51,36.49l-6.66,1.27a8.11,8.11,0,0,1,6.09-5.31,3.91,3.91,0,0,1,2.14.59C72.27,34.86,68.51,36.49,68.51,36.49Z"/><path class="cls-22" d="M59.45,75.38a6.24,6.24,0,0,0-4.2,1.15c-4.57,2.7-10.86,3.36-13.38,2.33C39.66,78,33.49,82,29.58,80.42l.21-.67c.12-.4.25-.78.39-1.15s.32-.87.49-1.28A29,29,0,0,1,32.29,74a22.62,22.62,0,0,1,4.4-5.66l18.59-3.25s.42.7,1,2a51.07,51.07,0,0,1,2.08,5C58.76,73.12,59.11,74.21,59.45,75.38Z"/><path class="cls-20" d="M60.86,74s-6-.65-7.08,1.05-5.69,3.09-9.44,1.77-5.17,0-9.18,1-5.59-3.56-5.59-3.56c2-3.88,7.49-8.79,7.49-8.79l1.66-.15,16.21-1.45h0c2.57,2.31,4.59,6.76,5.46,8.91C60.69,73.49,60.86,74,60.86,74Z"/><path class="cls-25" d="M60.86,74s-6-.65-7.08,1.05-5.69,3.09-9.44,1.77-5.17,0-9.18,1-5.59-3.56-5.59-3.56c2-3.88,7.49-8.79,7.49-8.79.07-.66.14-1.35.2-2.06.16-1.73.28-3.52.32-5a26.89,26.89,0,0,1,1.14,7,3,3,0,0,1-.28,1.22c-.26.45-.7,1.09-1.23,1.81-1.83,2.5-4.69,6.08-4.24,7.08.57,1.29,7.46-2,10.61-.37s6.31,1.95,8.28-.72c1.36-1.83,5.86-1.77,8.53-1.56C60.69,73.49,60.86,74,60.86,74Z"/><path class="cls-11" d="M31.28,24.79a.94.94,0,0,0-.8,1.12c.31,1.43,1,3.88,2.41,3.69,1.94-.25,1.4-4.51.78-4.82A6.75,6.75,0,0,0,31.28,24.79Z"/><path class="cls-15" d="M37,81.55l.35,1.77,1.67,2s.5-.13,1.1-.33l.22-.07c.36-.13.73-.27,1-.42l.09,0a2.84,2.84,0,0,0,.4-.23.75.75,0,0,0,.25-.26l-.93-1.82a18.52,18.52,0,0,0,1.1-3,6.4,6.4,0,0,0-1-1.41C41,77.43,40,76.22,39.7,75.92l-1.82.41Z"/><path class="cls-26" d="M41.33,84.53l.09,0-.19-.27-.64-1a6.47,6.47,0,0,1-.54-1c0-.07,0-.14-.08-.2a1.55,1.55,0,0,0,0-.15l0-.13s0,0,0,.14,0,.1,0,.17a1.93,1.93,0,0,0,0,.23,2.69,2.69,0,0,0,.4,1.21,3.23,3.23,0,0,0,.83.88A1.79,1.79,0,0,0,41.33,84.53Z"/><path class="cls-26" d="M40.07,85l.22-.07,0,0-.64-1a6.47,6.47,0,0,1-.54-1c0-.07,0-.14-.07-.19l0-.16,0-.13s0,0,0,.14,0,.11,0,.17a1.85,1.85,0,0,0,0,.23,2.65,2.65,0,0,0,.4,1.21A3.06,3.06,0,0,0,40.07,85Z"/><polygon class="cls-27" points="37.23 73.17 37.7 76.78 42.08 76.78 42.32 72.57 37.23 73.17"/><path class="cls-16" d="M66.39,95.94h-13l-1.7-9.66-.25-1.56-.08,1.57h0l-.47,9.65H39.11c.23-3.71.48-7.54.7-10.89.37-5.57.66-9.79.66-9.79h25.7l-.08,8.55Z"/><path class="cls-25" d="M66.17,75.25l-.08,8.56a56.39,56.39,0,0,1-14.41,2.47l-.24-1.56-.08,1.57a40.36,40.36,0,0,1-11.55-1.24c.37-5.58.66-9.8.66-9.8Z"/><polygon class="cls-25" points="51.44 84.72 51.36 86.29 51.36 86.29 50.89 95.94 49.76 95.94 50.98 81.42 51.44 84.72"/><polygon class="cls-25" points="66.39 95.94 64.86 95.94 64.66 75.26 66.17 75.26 66.09 83.81 66.39 95.94"/><path class="cls-28" d="M40.25,75.92l-.65,3s7.53,3.13,8.83,3.19l1.33-2.43.45,2.7s10.87.79,17.15-2.51L67,74.67Z"/><path class="cls-21" d="M40.77,40a14.88,14.88,0,0,0-2.13,7.11c-.21,4.31-4.36,16.68-2,26.09.42,1.71,6.58.8,6.58.8S47.67,37,40.77,40Z"/><path class="cls-21" d="M69.86,60.06c-1.19,8.75-2.57,16.77-2.57,16.77s-10.87,3.31-16.61,2.4a60.74,60.74,0,0,1-11.37-3s.23-1.12.56-2.78c.69-3.46,1.87-9.27,2.55-12.35,1.9-8.55-2.24-19.88-1.65-21.18,1.77-3.89,11.5-4.8,11.5-4.8H60s9.11.33,11,3.24C72.21,40.21,71.15,50.56,69.86,60.06Z"/><path class="cls-27" d="M43.77,43.2l.34,4.2s-3,5.16-2.11,7.09,2.43,5,2.43,5-4.36,8.24-4.85,12c0,0,3.49-8.25,6.2-11.82,0,0-3.48-5.53-3.36-6.39s2.22-6.12,2.22-6.12Z"/><path class="cls-27" d="M64.08,52.51l-.3-8.35s-.9,8.56-.75,10.13,1.3.62,1.3.62Z"/><path class="cls-21" d="M75.52,63.74a5.18,5.18,0,0,1-.13.68c-.44,1.52-4.41,2.33-6.73,2a4,4,0,0,1-1-.27c-.57-.25-1.55-2.81-2.36-6.31A55.18,55.18,0,0,1,64.17,53c-.06-.6-.11-1.19-.15-1.79l0-.44c0-.29,0-.59,0-.88,0-.59,0-1.17,0-1.73.07-5.59,1.56-10.4,6-10.79a2.63,2.63,0,0,1,.88.37c1.21.74,3.32,2.91,3.93,9.19,0,.37.08.74.11,1.11.06.62.12,1.23.17,1.83L75.12,51c.06.63.11,1.25.15,1.84.2,2.64.32,5,.36,6.81A31,31,0,0,1,75.52,63.74Z"/><path class="cls-22" d="M69.86,60.06c-1.19,8.75-2.57,16.77-2.57,16.77s-10.87,3.31-16.61,2.4a60.74,60.74,0,0,1-11.37-3s.23-1.12.56-2.78c7.45,5.16,19.19,2.6,20.52-.33C63,67.4,54.75,57.28,54.75,57.28Z"/><path class="cls-29" d="M75.39,64.42c-.44,1.52-4.41,2.33-6.73,2l-3.35-6.58a39.43,39.43,0,0,1-1.23-7.74c1.31.58,8.34,2.61,11.55,7.57A20.89,20.89,0,0,1,75.39,64.42Z"/><path class="cls-30" d="M70.24,37.24c-3.6,2.63-11.7,6.34-14,7.33l0,0-.53-.92-1-1.81s5.95-4.37,7.9-5.88c5.8-4.49,8.07-3.29,8.48-1.47A2.9,2.9,0,0,1,70.24,37.24Z"/><path class="cls-30" d="M56.27,44.57l-1.11.63-.1.06h0l-.37.81c-.34.54-5.55,3.64-5.85,3.37a2.85,2.85,0,0,1-.23-.26L48.47,49l0,0a.1.1,0,0,0,0,0l-.06-.09,0,0-.08-.11a3.73,3.73,0,0,1-.42-.23l-.1-.06-.1-.07a.86.86,0,0,1-.18-.14.44.44,0,0,1-.19-.33,3.07,3.07,0,0,1,.6-.76A23.11,23.11,0,0,0,50,44.84c-.2-.05-4,2-4,2a.85.85,0,0,1-.27-.16.9.9,0,0,1-.22-.3c-.17-.35,4.77-4,4.92-4.11a4.44,4.44,0,0,1-2.7-1.21h0a.26.26,0,0,1-.1-.24.23.23,0,0,1,.07-.1,1.28,1.28,0,0,1,1-.28,9.39,9.39,0,0,1,1.05.24,5.15,5.15,0,0,0,2-.09c1.14-.19,2.57,1.36,2.57,1.36l.36-.17,1,1.81.53.92Z"/><path class="cls-26" d="M47.82,48.48l.27-.21a8.89,8.89,0,0,0,1.27-1.21c.28-.32.44-.54.46-.57s-.26.16-.61.4-.88.6-1.4,1l-.37.3A1.84,1.84,0,0,0,47.82,48.48Z"/><path class="cls-26" d="M50.08,47.81a5.93,5.93,0,0,1-.5.53,10.34,10.34,0,0,1-1,.85h0L48.47,49l0,0a.1.1,0,0,0,0,0l-.06-.09,0,0h0A10.6,10.6,0,0,1,50.08,47.81Z"/><path class="cls-23" d="M70.24,37.24c-3.6,2.63-11.7,6.34-14,7.33h0l-1.11.63-.1.06h0l-.37.81c-.34.54-5.55,3.64-5.85,3.37a2.85,2.85,0,0,1-.23-.26h0L48.47,49l0,0a12,12,0,0,0,1.14-.66,25.8,25.8,0,0,0,4.57-4l1.57-.72c2.46-1.12,7.28-3.33,10.56-4.86s4.37-3.33,4.77-4.3A2.9,2.9,0,0,1,70.24,37.24Z"/><path class="cls-15" d="M54.87,53.4q-.09.2-.18.36C53.8,53,53,52.39,52.41,51.84l0,0,1.76-2.57,1.34.62A13.71,13.71,0,0,1,54.87,53.4Z"/><path class="cls-15" d="M54.19,49.25l-1.76,2.57,0,0-1-.72-.09-.06h-.9c-.63-.07-5.58-3.41-5.46-3.79a2,2,0,0,1,.13-.31l.21-.4a.86.86,0,0,1,.07-.12,2.59,2.59,0,0,1,0-.47,2.21,2.21,0,0,1,.08-.46c0-.15.11-.26.21-.3a2.65,2.65,0,0,1,.93.21,24.44,24.44,0,0,0,2.94,1c0-.2-3.51-2.74-3.51-2.74a.76.76,0,0,1,0-.3.8.8,0,0,1,.17-.33c.24-.29,5.57,2.57,5.73,2.65a4.4,4.4,0,0,1-.06-2.91v0a.25.25,0,0,1,.17-.19.17.17,0,0,1,.12,0,1.23,1.23,0,0,1,.67.77,9.52,9.52,0,0,1,.23,1A5.15,5.15,0,0,0,54,46.15c.65.94-.12,2.85-.12,2.85Z"/><path class="cls-26" d="M45.37,46a2.11,2.11,0,0,0,.3.16,9.22,9.22,0,0,0,1.61.62c.4.11.67.16.7.17s-.25-.17-.61-.38-.9-.52-1.5-.82l-.42-.2A2.23,2.23,0,0,0,45.37,46Z"/><path class="cls-26" d="M45.06,47a11.11,11.11,0,0,0,1.85.74,9.54,9.54,0,0,0-1.64-1.14C45.22,46.65,45.13,46.8,45.06,47Z"/><path class="cls-31" d="M54.87,53.4q-.09.2-.18.36C53.8,53,53,52.39,52.41,51.84l-1-.72,1,.7C53.05,52.23,53.88,52.77,54.87,53.4Z"/><path class="cls-21" d="M74.86,67.79a4.17,4.17,0,0,1-2.26,2.72c-7.47,2.9-21.92-17.46-21.92-17.46l3.83-5.78.74-1.12s1.61,1,3.92,2.5c3.83,2.56,9.59,6.73,13.17,10.8h0a13.54,13.54,0,0,1,3,5A10.88,10.88,0,0,1,74.86,67.79Z"/><path class="cls-29" d="M74.86,67.79a4.17,4.17,0,0,1-2.26,2.72c-7.47,2.9-21.92-17.46-21.92-17.46l4.57-6.91s1.61,1,3.92,2.51l-4.06,6.69S67.08,70.82,74.86,67.79Z"/><path class="cls-32" d="M72.34,59.45C70,57.7,59.09,49.53,54.51,47.27l.74-1.12s1.61,1,3.92,2.5C63,51.21,68.76,55.38,72.34,59.45Z"/><path class="cls-14" d="M29.82,65.9S39,65,40.94,55.65C40.94,55.65,31.85,52.45,29.82,65.9Z"/><path class="cls-15" d="M53.78,56.22h0C50.11,59.59,41.09,66.93,39.18,67a1.51,1.51,0,0,1-.64-.14c-1.2-.52-2.64-2.43-4.08-4.84-2.07-3.46-4.12-7.94-5.39-10.66-.42-.9-.75-1.6-1-2l.09,0,7.07-2.08c1,2.86,2.88,7.95,4,11,.57,1.55,1,2.59,1,2.59l4.37-2.76,7-4.39.51.58,1.14,1.29Z"/><path class="cls-15" d="M60.85,51.12c.15.38-4.67,4.08-5.31,4.19l-.89,0-.87.86-.56-.64h0l-1.14-1.29h0l-.51-.58.18-.17a.48.48,0,0,0,.1-.09h0a5.91,5.91,0,0,1-.5-1.74c0-.09,0-.19,0-.29v0a1.72,1.72,0,0,1,.21-.82l.25-.41c.08-.14.16-.28.23-.43l.1-.21c0-.12.09-.23.13-.35l0-.09c0-.1.05-.2.07-.3s0,0,0-.07l0-.22,0-.24a3.16,3.16,0,0,1,.11-.6.14.14,0,0,1,0-.06,1.59,1.59,0,0,1,.07-.2l.06-.12c0-.07.1-.15.16-.22l.13-.12.06,0,.06,0,.07,0,.05,0h.11l0,0,0,0,0,0,0,0,0,0s0,0,0,0h0v0a4.52,4.52,0,0,1,.12,3s5.38-3.35,5.65-3.06a.94.94,0,0,1,.2.32.85.85,0,0,1,.05.31s-3.36,2.79-3.4,3a21.66,21.66,0,0,0,2.93-1.17,2.87,2.87,0,0,1,.93-.27.45.45,0,0,1,.24.29.14.14,0,0,0,0,.06,2.46,2.46,0,0,1,.09.39h0a.11.11,0,0,0,0,0c0,.13,0,.26,0,.34v.09l.08.11h0a0,0,0,0,1,0,0s.07.1.1.16l.07.11,0,0,0,.07A3,3,0,0,1,60.85,51.12Z"/><path class="cls-31" d="M52.42,53.87a.67.67,0,0,1-.12.2l-.21.21h0l-.51-.58.28-.26h0a5.71,5.71,0,0,1-.49-1.74,2.64,2.64,0,0,1,0-.29v0a1.72,1.72,0,0,1,.21-.82c.09-.13.17-.27.25-.41s.16-.28.23-.43l.1-.21a3.8,3.8,0,0,0,.25-.81l0-.22,0-.24a4.21,4.21,0,0,1,.11-.6,1.06,1.06,0,0,1,.09-.25l.06-.13c0-.07.1-.15.16-.22a1,1,0,0,1,.32-.23l.12,0a.21.21,0,0,1,.13.09l0,0,0,0s0,0,0,0l-.13.18a5.43,5.43,0,0,0-.54,1.71A13.6,13.6,0,0,0,52,51.18a5.41,5.41,0,0,0,.39,2A1.09,1.09,0,0,1,52.42,53.87Z"/><path class="cls-23" d="M39.28,58.27c-1.75,1.22-3.82,2.92-4.82,3.75-2.07-3.46-4.12-7.94-5.39-10.66l-.88-2,7.07-2.08C36.26,50.1,38.14,55.19,39.28,58.27Z"/><path class="cls-23" d="M60.85,51.12c.15.38-4.67,4.08-5.3,4.19l-.9,0-.87.86h0C50.11,59.59,41.09,66.93,39.18,67a1.51,1.51,0,0,1-.64-.14C42.21,65.5,50,58.22,53.22,55.58h0a4.54,4.54,0,0,1,1.37-.95c.73.1,4.86-3.58,5.79-4.43v.1a.56.56,0,0,1,.08.11h0a.83.83,0,0,1,.11.17l.07.11.06.11A3,3,0,0,1,60.85,51.12Z"/><polygon class="cls-31" points="52.08 54.29 44.61 58.1 51.57 53.72 52.08 54.29"/><path class="cls-26" d="M60.34,49.87l-2.72,1.46,2.62-1.91a2.46,2.46,0,0,1,.09.39h0A.11.11,0,0,0,60.34,49.87Z"/><path class="cls-26" d="M60.66,50.73,58.3,52l2.17-1.59s.07.1.1.16l.07.11Z"/><path class="cls-16" d="M40.94,55.65l-1.24.46a23.48,23.48,0,0,0-4.84,2.36,12.75,12.75,0,0,0-1.74,2.09c-1.59,2.28-3.3,5.34-3.3,5.34s-.77-2.84-1.63-6.69c-1.53-6.92-3.3-17.06-1.22-19.64l.21-.26c3.14-3.66,5.62-1.52,5.62-1.52.53.83,1.06,1.74,1.58,2.71a110.13,110.13,0,0,1,5.08,11.24C40.38,54.06,40.94,55.65,40.94,55.65Z"/><path class="cls-11" d="M40.94,55.65s-4.77,1.71-6.08,2.82c-1.71,1.45-5,7.43-5,7.43s-.77-2.84-1.63-6.69c2.5-3.09,6.83-7.49,11.27-7.47C40.38,54.06,40.94,55.65,40.94,55.65Z"/><path class="cls-25" d="M33.12,60.56c-1.59,2.28-3.3,5.34-3.3,5.34s-.77-2.84-1.63-6.69C26.66,52.3,24.89,42.15,27,39.57l.21-.26C27.25,42.36,27.83,55.13,33.12,60.56Z"/><path class="cls-32" d="M40.94,55.65l-1.24.46c-.81-2.5-3.61-11-5.32-15.61a110.13,110.13,0,0,1,5.08,11.24C40.38,54.06,40.94,55.65,40.94,55.65Z"/><path class="cls-32" d="M75.52,63.74c-1.8-23.66-4.63-25.71-4.7-26,1.21.74,3.32,2.91,3.93,9.19.51,5.15.81,9.56.88,12.71A31,31,0,0,1,75.52,63.74Z"/><path class="cls-22" d="M49.2,62.5A8.7,8.7,0,0,0,54.51,69S49.58,63.24,49.2,62.5Z"/></g><path class="cls-33" d="M68.55,22.35a68,68,0,0,1-6.82,6.88,13.26,13.26,0,0,1-3.91,2.49c-3,1-10.26-.35-13.28-1-.84-.17-1.35-.29-1.35-.29s2-7.92,2-8.43a12.07,12.07,0,0,1,.9-2.28c.29-.62.54-1.11.54-1.11l2.28-2.41.55-.58.44-.14,8.76-2.72,0,0Z"/><path class="cls-15" d="M59,33.34c-.1.15-4.29,3.51-4.29,3.51a8.71,8.71,0,0,1-.6-2.63c0-.44,0-.76,0-.83-.05-.56-.68-3-.68-3l4.76-3.23s.2,1.24.4,2.6C58.75,31.43,59,33.26,59,33.34Z"/><path class="cls-34" d="M58.5,29.78c-1.28,1.35-4.1,4.3-4.4,4.43h0c0-.44,0-.76,0-.83-.05-.56-.68-3-.68-3l4.76-3.23S58.3,28.42,58.5,29.78Z"/><path class="cls-31" d="M57.26,15.8a7,7,0,0,0-8.86.33,3.52,3.52,0,0,0-1.12,1.58c-.51,2.07-.32,9.22,1.84,12.2s4.29,2,5,1.63,4.15-2.8,4.74-4.21,1.06-8.13.28-9.69A6.87,6.87,0,0,0,57.26,15.8Z"/><path class="cls-15" d="M57.41,15.25a7,7,0,0,0-8.87.33,3.57,3.57,0,0,0-1.11,1.58c-.52,2.07-.32,9.22,1.83,12.2s4.29,2,5,1.63,4.15-2.8,4.74-4.22,1.06-8.13.28-9.68A6.87,6.87,0,0,0,57.41,15.25Z"/><path class="cls-34" d="M52.14,25.44a1.14,1.14,0,0,1,.5-.14,1.67,1.67,0,0,1-.9.91.17.17,0,0,1-.1,0,.21.21,0,0,1-.11,0,2,2,0,0,1-.6-.51.25.25,0,0,1-.08-.14c-.05-.17.07-.13.18-.09a1.53,1.53,0,0,0,.37.08A1.57,1.57,0,0,0,52.14,25.44Z"/><path class="cls-35" d="M51.7,26.12c-.11-.1-.23-.17-.33-.26A2.6,2.6,0,0,1,51,25.5c.55-.4.53-1,.49-1.64a2,2,0,0,0-.27-.85,1.72,1.72,0,0,0-.28-.37l-.18-.16a.47.47,0,0,0-.2-.1s.06.08.1.12a3.65,3.65,0,0,1,.24.31,2,2,0,0,1,.19.36,2.56,2.56,0,0,1,.19.77,2.05,2.05,0,0,1-.11.78,1.51,1.51,0,0,1-.54.73s.39.44.43.47a1.78,1.78,0,0,0,.32.24.71.71,0,0,0,.38.14.21.21,0,0,0,.12,0l-.06-.06,0,0A.27.27,0,0,0,51.7,26.12Z"/><path class="cls-15" d="M58.5,23.83c.18-.14.9-1.68,1.79-1a2.34,2.34,0,0,1,.85,2.83,2.71,2.71,0,0,1-2.25,1.7Z"/><path class="cls-34" d="M60.48,23.82a1.14,1.14,0,0,1,.08.55,4.41,4.41,0,0,1-1.22,2.17,2.08,2.08,0,0,0,0-1.21c0-.14-.1-.27-.13-.41C59.08,24.36,60,22.83,60.48,23.82Z"/><path class="cls-26" d="M59,26.82l0,0,.09-.09a1.46,1.46,0,0,0,.41-1,1.34,1.34,0,0,0-.24-.77l-.07-.09,0,0h0v-.07l0-.1a3.65,3.65,0,0,1,.14-.35,2.85,2.85,0,0,1,.16-.3,1.3,1.3,0,0,1,.17-.26.37.37,0,0,1,.19-.14.32.32,0,0,1,.19,0,.21.21,0,0,1,.1.06.06.06,0,0,1,0,0,.1.1,0,0,0,0,0,.19.19,0,0,0-.09-.09.4.4,0,0,0-.23,0,.48.48,0,0,0-.26.14,1.38,1.38,0,0,0-.22.26,2.77,2.77,0,0,0-.21.31,3,3,0,0,0-.17.36.69.69,0,0,1,0,.1v.05l0,.07,0,.05,0,0,0,.06.06.08a1.35,1.35,0,0,1,.25.67,1.63,1.63,0,0,1-.06.6,1.43,1.43,0,0,1-.18.39l-.07.11Z"/><path class="cls-36" d="M47.44,21.25s.82-1,1.45-1.06.94.45.72.62A14.37,14.37,0,0,1,47.44,21.25Z"/><path class="cls-36" d="M56.37,20.3a7.31,7.31,0,0,0-2.69-.91c-1,0-1.24.66-.83.81A32,32,0,0,0,56.37,20.3Z"/><path class="cls-34" d="M54.82,25.23c.1.28.79.29,1.55,0s1.28-.72,1.17-1-.79-.3-1.55,0S54.71,24.94,54.82,25.23Z"/><path class="cls-33" d="M47.77,23.5a1.53,1.53,0,0,1,2.46.51A4.05,4.05,0,0,0,47.77,23.5Z"/><path class="cls-33" d="M56.59,22.17a2.5,2.5,0,0,0-3.29,1.66A6.94,6.94,0,0,1,56.59,22.17Z"/><path class="cls-34" d="M46.93,25.37c0,.23.45.53,1.13.69s1.26.1,1.31-.13-.45-.53-1.13-.68S47,25.15,46.93,25.37Z"/><path class="cls-35" d="M50.47,27.64a4.33,4.33,0,0,0,4.82-1.37A9.18,9.18,0,0,1,50.47,27.64Z"/><path class="cls-34" d="M51.77,28.72A2,2,0,0,0,54,28.1,4.26,4.26,0,0,1,51.77,28.72Z"/><path class="cls-33" d="M60.8,16.89a24.56,24.56,0,0,1-.21,3.18c-.15,1.41-.31,2.73-.31,2.73l-1.78,1-.65-3.95A8.35,8.35,0,0,0,52.21,19,3.79,3.79,0,0,1,50,16.8l-2.94,4.25s-.27-.34-.6-.79l-.36-.51a4.36,4.36,0,0,1-.69-1.34c-.13-1.05,1.08-3.34,2.75-4.94s7.62-1.13,7.62-1.13,2.43.05,2.89.45l0,0A17.43,17.43,0,0,1,60.8,16.89Z"/><path class="cls-36" d="M68.55,22.35s-.44.53-1.17,1.33a61.37,61.37,0,0,1-5.65,5.55l3.34-4.7-3.52-3.61-1-.85a18.39,18.39,0,0,0-3-2.3c-.55-.12-4.29-.24-4.84-.29a14.4,14.4,0,0,1-2.89-2l-.37-.3-.62,1-2.46,4L44.54,30.75,44,30.63l-.8-.17s2-7.92,2-8.43a12.07,12.07,0,0,1,.9-2.28,4.36,4.36,0,0,1-.69-1.34c-.13-1.05,1.08-3.34,2.75-4.94s7.62-1.13,7.62-1.13,2.43.05,2.89.45l0,0Z"/><path class="cls-19" d="M45.19,22c0,.51-2,8.43-2,8.43l.8.17h0l2.1-10.88A12.07,12.07,0,0,0,45.19,22Z"/><path class="cls-37" d="M58.7,12.83l0,0c-.46-.4-2.89-.45-2.89-.45s-6-.47-7.62,1.13-2.88,3.89-2.75,4.94a4.36,4.36,0,0,0,.69,1.34,10,10,0,0,1,.68-2.39c.27-.21,2.59-3.42,2.59-3.42s3.55,1.74,4.12,1.58a25.88,25.88,0,0,1,4-.83c.16.1,7,6.32,9.94,9,.73-.8,1.17-1.33,1.17-1.33Z"/><path class="cls-21" d="M52.14,33.06s-.08-.5.93-.3,5.57-.84,6.09-1.35,1.48.65,1.37,2.17.34,3,0,3.4-7.62,1.1-8.45.59S52.14,33.06,52.14,33.06Z"/><path class="cls-29" d="M52.37,36.54s4.81,1.05,7.9-.44A6.9,6.9,0,0,1,52.37,36.54Z"/><path class="cls-29" d="M58.91,32.51a27.29,27.29,0,0,0,.25,3.38C59.34,36.46,59.27,33,58.91,32.51Z"/><path class="cls-29" d="M53.18,33.18a10.93,10.93,0,0,0-.11,3.06A6.68,6.68,0,0,0,53.18,33.18Z"/><path class="cls-29" d="M55,33a6.6,6.6,0,0,0,.15,3.25A4.47,4.47,0,0,0,55,33Z"/><path class="cls-29" d="M57,33a5.87,5.87,0,0,0,.19,3.11A6,6,0,0,0,57,33Z"/><path class="cls-15" d="M43.77,36.15l-5.62.42a10.61,10.61,0,0,0,.67-3.08C38.91,32.65,39,32,39,32h4.4a11.42,11.42,0,0,0,.19,2.85C43.66,35.57,43.77,36.15,43.77,36.15Z"/><path class="cls-34" d="M43.55,34.83a21.72,21.72,0,0,1-4.73-1.34C38.91,32.65,39,32,39,32h4.4A11.42,11.42,0,0,0,43.55,34.83Z"/><path class="cls-31" d="M36.44,16.07c.15,0,6,.08,7.29,1.8s4,8.45,3.25,12.1-3.17,3.63-4,3.55-5-.92-6.12-2-4.28-7.14-4.19-8.9S36.44,16.07,36.44,16.07Z"/><path class="cls-15" d="M36.08,15.62c.15,0,6,.08,7.29,1.79s4,8.46,3.25,12.1-3.17,3.64-4,3.56-5-.92-6.12-2-4.28-7.13-4.19-8.89S36.08,15.62,36.08,15.62Z"/><path class="cls-35" d="M39.58,29.91a6.58,6.58,0,0,1,5.26-1.36s-.63,2.42-2,2.74C41.17,31.67,39.58,29.91,39.58,29.91Z"/><path class="cls-10" d="M39.75,29.94a13.4,13.4,0,0,1,4.94-1.31,2.83,2.83,0,0,1-2.1,2.27A2.92,2.92,0,0,1,39.75,29.94Z"/><path class="cls-38" d="M40.54,25.48A1.64,1.64,0,0,0,38.67,25a2.36,2.36,0,0,0-1.34,1.5A3.8,3.8,0,0,1,40.54,25.48Z"/><path class="cls-38" d="M45.78,23.82a.93.93,0,0,0-1.19-.45,1.76,1.76,0,0,0-.82,1.22A2,2,0,0,1,45.78,23.82Z"/><path class="cls-34" d="M42.35,27a1.34,1.34,0,0,0-.53.07,1.73,1.73,0,0,0,1.21.49.22.22,0,0,0,.11,0s.06-.05.09-.08a2.14,2.14,0,0,0,.35-.71.47.47,0,0,0,0-.16c0-.18-.13-.1-.21,0a2.49,2.49,0,0,1-.31.23A1.54,1.54,0,0,1,42.35,27Z"/><path class="cls-35" d="M43,27.48c.06-.12.14-.24.21-.37a3,3,0,0,0,.2-.49c-.67-.15-.89-.7-1.12-1.33a2.08,2.08,0,0,1-.1-.89,1.91,1.91,0,0,1,.12-.47,2.14,2.14,0,0,1,.1-.22.58.58,0,0,1,.14-.17.8.8,0,0,0,0,.15c0,.13-.08.26-.11.39a2.73,2.73,0,0,0,0,.41,2.45,2.45,0,0,0,.14.8A2,2,0,0,0,43,26a1.53,1.53,0,0,0,.8.47l-.21.61a2.08,2.08,0,0,1-.2.36.73.73,0,0,1-.3.28.2.2,0,0,1-.13,0,.25.25,0,0,0,0-.07l0,0A.69.69,0,0,1,43,27.48Z"/><path class="cls-15" d="M35.78,28.12c-.23-.06-1.52-1.2-2.08-.24a2.37,2.37,0,0,0,.35,3,2.73,2.73,0,0,0,2.78.67Z"/><path class="cls-34" d="M33.93,28.91a1,1,0,0,0,.15.54,4.52,4.52,0,0,0,2,1.53,2.16,2.16,0,0,1-.49-1.14,3.13,3.13,0,0,0,0-.43C35.45,28.85,34,27.79,33.93,28.91Z"/><path class="cls-26" d="M36.48,31.12l0,0-.12,0a2.25,2.25,0,0,1-.41-.25,1.6,1.6,0,0,1-.4-.55,1.44,1.44,0,0,1-.08-.81l0-.11v0h0l0,0,0,0-.06-.07a3.44,3.44,0,0,0-.27-.27c-.1-.08-.19-.16-.28-.22a1.28,1.28,0,0,0-.26-.17.53.53,0,0,0-.24-.06.33.33,0,0,0-.18.08.14.14,0,0,0-.06.09.16.16,0,0,0,0,0,.06.06,0,0,1,0,0,.17.17,0,0,1,.05-.11.36.36,0,0,1,.2-.12.55.55,0,0,1,.31,0,2.12,2.12,0,0,1,.31.14,2.82,2.82,0,0,1,.31.21,2.61,2.61,0,0,1,.31.27l.08.07,0,0,.05.06,0,0s0,0,0,0l0,.07,0,.1a1.45,1.45,0,0,0,0,.72,1.55,1.55,0,0,0,.3.54,1.94,1.94,0,0,0,.33.29l.11.07Z"/><path class="cls-17" d="M45,21.22a3.44,3.44,0,0,0-1.77-.39c-.62.19-.7.8-.43.87A14.2,14.2,0,0,0,45,21.22Z"/><path class="cls-17" d="M36.16,23.66a7.55,7.55,0,0,1,2.46-1.52c1-.2,1.37.38,1,.62A32.69,32.69,0,0,1,36.16,23.66Z"/><path class="cls-34" d="M39.77,27.92c0,.31-.62.6-1.43.65s-1.49-.15-1.51-.46.63-.6,1.44-.65S39.75,27.61,39.77,27.92Z"/><path class="cls-34" d="M47.17,24.86c.14.18-.21.67-.77,1.09s-1.14.6-1.28.42.21-.68.78-1.1S47,24.67,47.17,24.86Z"/><path class="cls-17" d="M45.46,18.69c-.55,1.25-3.2,2.29-3.2,2.29l-.14-1.69c-.19,1.36-2.23,2-2.23,2l.45-2c-.68,2-6.08,4.74-6.08,4.74l1.41,3.77a3.88,3.88,0,0,0-1.32-.26c-.53,0-1,1.67-1,1.67a20.6,20.6,0,0,1-2.84-4.79,5.7,5.7,0,0,1-.36-3.79c1.76-5.49,9-6.47,11.4-5.89A6.24,6.24,0,0,1,45.2,17.2,1.59,1.59,0,0,1,45.46,18.69Z"/><path class="cls-18" d="M43.17,18.81A2.49,2.49,0,0,0,42.64,17,4.86,4.86,0,0,1,41,18.8a3.54,3.54,0,0,0-.32-1.69,19.34,19.34,0,0,1-10.22,7.35A6.67,6.67,0,0,1,30,22a4.11,4.11,0,0,1,.18-1.31c1.76-5.49,9-6.47,11.4-5.89a6.65,6.65,0,0,1,2.74,1.39,4.41,4.41,0,0,1,.93,1A10.07,10.07,0,0,1,43.17,18.81Z"/><path class="cls-19" d="M44.27,16.17a1.74,1.74,0,0,1-.62.67,3.21,3.21,0,0,0-1.35-1.33,2.83,2.83,0,0,1-1,1.52,3.26,3.26,0,0,0-.45-1.29,8.44,8.44,0,0,1-3.65,2.83,2.9,2.9,0,0,0,.94-2A18.84,18.84,0,0,1,30,22a4.11,4.11,0,0,1,.18-1.31c1.76-5.49,9-6.47,11.4-5.89A6.65,6.65,0,0,1,44.27,16.17Z"/><path class="cls-17" d="M37.81,28.45a2.35,2.35,0,0,0-1.6-1.54,2.33,2.33,0,0,0-2.16.52A3.73,3.73,0,0,1,37.81,28.45Z"/><path class="cls-17" d="M37.12,30a2.31,2.31,0,0,0-2.94-2.55A3.75,3.75,0,0,1,37.12,30Z"/></g></g></svg>