<svg id="Layer_1" data-name="Layer 1" xmlns="http://www.w3.org/2000/svg" xmlns:xlink="http://www.w3.org/1999/xlink" viewBox="0 0 100 100"><defs><style>.cls-1{opacity:0.5;}.cls-2{fill:url(#radial-gradient);}.cls-3{fill:#8bbcdd;}.cls-4{fill:#f58b6c;}.cls-5{fill:#0a5685;}.cls-6{fill:#e87679;}.cls-7{fill:#10101c;}.cls-8{fill:#d94469;}.cls-9{fill:#fff;}.cls-10{fill:#0f609b;}.cls-11{fill:#371c0f;}.cls-12{fill:#c0325c;}.cls-13{fill:#789ad0;}.cls-14{fill:#5381c2;}</style><radialGradient id="radial-gradient" cx="44.64" cy="54.13" r="31.17" gradientUnits="userSpaceOnUse"><stop offset="0" stop-color="#efa8b9"/><stop offset="1" stop-color="#f27594"/></radialGradient></defs><g class="cls-1"><path class="cls-2" d="M69.76,25.21C54.83,12.06,47.92,33.15,45.37,37.33,42.82,33.15,33.06,18.44,20.17,28,1.88,41.51,44.75,87.46,44.78,87.3H46C46,87.46,86.06,39.55,69.76,25.21Z"/></g><path class="cls-3" d="M60.19,86.72c0,.66-8.12,3.06-16.41,3.06s-16.4-2.4-16.37-3.06c0-.87,14-.9,15.94-.9C44.78,85.82,60.15,85.8,60.19,86.72Z"/><path class="cls-4" d="M52.05,43.21v0a.34.34,0,0,1-.32.32.92.92,0,0,1-.47-.14,1.73,1.73,0,0,1-.52-.36,1.63,1.63,0,0,1-.35-.88c0-.38,0-.78-.07-1.17a.25.25,0,0,1,0-.15.17.17,0,0,1,.18-.06.42.42,0,0,1,.34.31c0,.13,0,.28.07.39a.48.48,0,0,0,.39.11.4.4,0,0,1,.38.13c.06.1,0,.23.1.32s.18.09.22.18-.08.26,0,.38.16.17.15.27-.09.1-.11.17A.2.2,0,0,0,52.05,43.21Z"/><path class="cls-5" d="M40.3,81.12a16.1,16.1,0,0,1-.78-2.18,10.7,10.7,0,0,1-.3-1.7,17.61,17.61,0,0,1,.29-5.8,2.11,2.11,0,0,1,1.14-.56,1.58,1.58,0,0,1,1.33.33,1.11,1.11,0,0,1,.27.76s.37,7.11.7,10.7a11,11,0,0,1-1.9.23C40.87,82.47,40.62,81.91,40.3,81.12Z"/><path class="cls-6" d="M41.05,82.9a11,11,0,0,0,1.9-.23,12.22,12.22,0,0,1,.32,2.65,1,1,0,0,1-.64.81.69.69,0,0,1-.88-.41c-.15-.51.09-.93-.13-1.46S41.25,83.35,41.05,82.9Z"/><path class="cls-5" d="M45.38,59.58s-1.66,11.93-3,13.61-3.44.1-3.17-1c.18-.72.22-6.3.23-9.85,0-1.71,0-3,0-3Z"/><path class="cls-7" d="M44,85.79a2.13,2.13,0,0,1-.47-.62,3.05,3.05,0,0,0-.26-.68,1.58,1.58,0,0,0-.56.1c-.07,0,.51.85.46.86s-.45.5-.31.61a2.54,2.54,0,0,0,.81.17l.3-.31Z"/><path class="cls-8" d="M45.21,86.78a.47.47,0,0,0-.11-.35,8.89,8.89,0,0,0-.85-.38,3.33,3.33,0,0,0-.33-.31c-.07,0-.76.3-.88.24s.38-.32.33-.39c-.15-.23-.16-.75-.51-.83s-.48.23-.72.12-.25-.43-.49-.47a.38.38,0,0,0-.19,0l-.71,1.22-.07.29.29.16.9.19,1.15.5.59.24,1,.07Z"/><path class="cls-9" d="M45.24,87s0-.23,0-.26-.16.21-.2.21a3.71,3.71,0,0,1-1.74-.13A9.84,9.84,0,0,1,41.7,86c-.48-.15-1-.12-1-.37,0,0-.32.43-.17.71s.24.19.51.26a3.73,3.73,0,0,0,1,.13c.16,0,.31.23.75.39S44.81,87.57,45.24,87Z"/><path class="cls-8" d="M43.42,85.5l-.12.06a0,0,0,0,0,0,0l0,0s0,0,0,0l.13,0a1,1,0,0,1,.27-.11s0,0,0,0a0,0,0,0,0,0,0"/><path class="cls-8" d="M43.05,85.24s0,0,0,0a2.35,2.35,0,0,1,.43-.13.05.05,0,0,0,0,0,.05.05,0,0,0,0,0,1.81,1.81,0,0,0-.45.14,0,0,0,0,0,0,0S43,85.24,43.05,85.24Z"/><path class="cls-8" d="M42.89,85h0l.07,0a1.45,1.45,0,0,1,.41-.21s0,0,0,0,0,0,0,0a2.25,2.25,0,0,0-.44.22l-.06,0s0,0,0,0Z"/><path class="cls-10" d="M32.84,79.91a17,17,0,0,1,.34-2.3A9.42,9.42,0,0,1,33.73,76a17.28,17.28,0,0,1,3-5,2.11,2.11,0,0,1,1.26,0A1.56,1.56,0,0,1,39,72a1.16,1.16,0,0,1-.12.8s-3,6.44-4.45,9.75a10.73,10.73,0,0,1-1.78-.69C32.7,81.36,32.75,80.75,32.84,79.91Z"/><path class="cls-6" d="M32.66,81.83a10.73,10.73,0,0,0,1.78.69,11.33,11.33,0,0,1-1,2.49,1,1,0,0,1-.94.41.69.69,0,0,1-.58-.77c.11-.53.52-.79.58-1.35S32.62,82.32,32.66,81.83Z"/><path class="cls-10" d="M44.24,60.54S40.54,72,38.94,73.43s-3.4-.5-2.95-1.51c.31-.69,1.32-6.18,1.94-9.67.31-1.68.52-2.9.52-2.9Z"/><path class="cls-7" d="M33.89,85.77a2.15,2.15,0,0,1-.12-.77,3.52,3.52,0,0,0,.09-.72,1.38,1.38,0,0,0-.54-.18c-.08,0,0,1,0,1s-.64.23-.57.4a2.89,2.89,0,0,0,.64.53l.41-.13Z"/><path class="cls-8" d="M34.48,87.21a.43.43,0,0,0,.07-.36c-.07-.16-.54-.68-.56-.73a4.43,4.43,0,0,0-.15-.43c-.05-.06-.81-.09-.89-.21s.49-.1.48-.18c0-.28.21-.74-.06-1s-.52,0-.69-.24,0-.49-.21-.64a.35.35,0,0,0-.18-.06l-1.2.74-.2.22.18.28.7.59.77,1,.41.5.82.52Z"/><path class="cls-9" d="M34.42,87.39s.15-.17.12-.23-.23.12-.26.1a3.7,3.7,0,0,1-1.48-.94c-.76-.76-.7-1.07-1-1.43s-.82-.57-.66-.77c0,0-.49.22-.49.54,0,.16.13.29.33.47a3.8,3.8,0,0,0,.84.6c.13.08.16.35.47.7S33.76,87.72,34.42,87.39Z"/><path class="cls-8" d="M33.51,85.24h-.12a0,0,0,0,0,0,0,.08.08,0,0,0,0,0h.15a1.27,1.27,0,0,1,.29,0s.05,0,.05,0,0,0,0,0"/><path class="cls-8" d="M33.31,84.84h0a1.63,1.63,0,0,1,.44.08,0,0,0,0,0,.06,0,.05.05,0,0,0,0,0,1.51,1.51,0,0,0-.47-.09s0,0,0,0A.05.05,0,0,0,33.31,84.84Z"/><path class="cls-8" d="M33.29,84.53h.11a1.74,1.74,0,0,1,.46,0s0,0,0,0,0,0,0,0a2,2,0,0,0-.49,0h-.07a0,0,0,0,0,0,0S33.28,84.53,33.29,84.53Z"/><path class="cls-11" d="M40.14,40a6.2,6.2,0,0,1-.76,1.65c-.53.82-2.05,1.65-1,2.69.32.33.74.62.81,1.07s-.3.92-.61,1.31a4.43,4.43,0,0,0-1,2,2.61,2.61,0,0,0,.59,2.14c.46.5,1.16.8,1.44,1.41a10.32,10.32,0,0,1,.28,1.57A2,2,0,0,0,41.8,55.2,3.23,3.23,0,0,0,44,54.27a8.29,8.29,0,0,0,1.49-2A12,12,0,0,0,47,48.87a5.12,5.12,0,0,0-.91-4.33.7.7,0,0,1,.08-1.1c.28-.24.61-.44.42-.86s-2.86-3.84-3.09-4.13"/><path class="cls-12" d="M46.22,50.76a9.32,9.32,0,0,0,.65-1.35A8.44,8.44,0,0,0,47.29,48L45.2,46.45a2.09,2.09,0,0,0-2-.27,2.05,2.05,0,0,0-.72.49A1.78,1.78,0,0,0,42,48.14a2,2,0,0,0,1.13,1.47l2.74,1.65A3.39,3.39,0,0,0,46.22,50.76Z"/><path class="cls-8" d="M45.39,47.15A2.79,2.79,0,0,0,43,45.66h0a4.06,4.06,0,0,0-3.51,1.27c-.6.71-.39,1.26-.47,4.57,0,1-.07,2.79-.27,4.42a25.29,25.29,0,0,1-1,4.69c.35.33,1.36.94,3.78,1a6.44,6.44,0,0,0,3.8-1.2c.06-.05,0-.57,0-.65l.09-1.81a25.18,25.18,0,0,1,.44-3.67c.08-.47.18-.92.29-1.38s.25-.75.29-1.13c.07-.65-.23-1-.42-1.56C45.49,48.78,45.79,48.09,45.39,47.15Z"/><path class="cls-11" d="M43.54,38.45a1.59,1.59,0,0,1,.93,2.3c-.18.35-1.73-1.28-1.61-1.3A5.54,5.54,0,0,0,43.54,38.45Z"/><polygon class="cls-4" points="43.55 46.06 42.25 46.1 41.24 43.35 42.57 43.38 43.55 46.06"/><path class="cls-11" d="M43.31,45.41l-.59-2H41.38A5,5,0,0,0,43.31,45.41Z"/><path class="cls-4" d="M41.27,43.49l.43.36a2.48,2.48,0,0,0,3,.32c1.27-1,.17-4.59-.63-5.07C42.19,38,39.49,40.11,41.27,43.49Z"/><path class="cls-11" d="M40.39,43c.22.06.85.28,1.06.08.06-.06,0-.1,0-.17a1.88,1.88,0,0,1,0-.41,1.58,1.58,0,0,1,.44-.81c.36-.34.84-.51,1.2-.84a2.29,2.29,0,0,0,.58-.92,1.61,1.61,0,0,0,0-1.2c-.41-.86-1.44-.51-2.1-.19a3.16,3.16,0,0,0-1.68,2.1A3.08,3.08,0,0,0,40.39,43Z"/><path class="cls-4" d="M41.63,43a.62.62,0,0,1,0,.84.6.6,0,0,1-.82-.19.59.59,0,0,1,0-.83A.61.61,0,0,1,41.63,43Z"/><path class="cls-11" d="M41.19,42.71c.29.1.4.71.44.92s.27,0,.08-.65-.17-.89.14-1.22-1.21-.3-1.21-.3"/><path class="cls-4" d="M43,45.67c-.91-.18-2.35.36-.1,1.63C44.93,48.45,44.42,46,43,45.67Z"/><path class="cls-5" d="M50.93,82.1a16.34,16.34,0,0,0,.55-2.25,8.9,8.9,0,0,0,.12-1.72,17.61,17.61,0,0,0-.87-5.74A2.06,2.06,0,0,0,49.54,72a1.56,1.56,0,0,0-1.29.46,1.09,1.09,0,0,0-.19.78s.35,7.12.39,10.72a10.13,10.13,0,0,0,1.91,0C50.5,83.5,50.69,82.91,50.93,82.1Z"/><path class="cls-6" d="M50.36,84a10.13,10.13,0,0,1-1.91,0c0,.79,0,1.42,0,1.76-.13,1.42-.41,1.5-.48,1.49.64.39,1.49.81,1.88.5s0-.8.06-1.83A5.57,5.57,0,0,1,50.36,84Z"/><path class="cls-7" d="M47.06,86.29a2.17,2.17,0,0,0,.62-.48c.19-.25.51-.88.57-.89a2.13,2.13,0,0,1,.62.27c.05.06-.95,1-.91,1s.3.6.13.67a2.78,2.78,0,0,1-.82,0l-.21-.38Z"/><path class="cls-5" d="M45.64,86.92s0-.25.2-.31a8.57,8.57,0,0,1,.91-.14,3.13,3.13,0,0,1,.41-.21c.07,0,.64.49.78.47s-.28-.41-.22-.47a7.73,7.73,0,0,0,.72-.66,4.28,4.28,0,0,0,1.36.32.3.3,0,0,1,.31.26l.12.85v.3l-.33.08L49,87.35l-1.24.17-.63.08-1-.2L45.6,87Z"/><path class="cls-9" d="M45.56,87.09s0-.23.07-.25.09.24.13.25a3.71,3.71,0,0,0,1.71.35,10.22,10.22,0,0,0,1.75-.31c.5,0,1,.16,1-.1,0,0,.2.5,0,.73s-.29.12-.57.12a4,4,0,0,1-1-.16c-.15,0-.35.14-.82.19S45.8,87.78,45.56,87.09Z"/><path class="cls-5" d="M47.77,86.32h0l-.1-.08a1.25,1.25,0,0,0-.24-.18,0,0,0,1,1,0-.07,1.1,1.1,0,0,1,.26.18l.1.09a0,0,0,0,1,0,0Z"/><path class="cls-5" d="M48.13,86h0a1.92,1.92,0,0,0-.38-.25,0,0,0,1,1,0-.07,2.06,2.06,0,0,1,.4.25,0,0,0,0,1,0,.06S48.14,86,48.13,86Z"/><path class="cls-5" d="M48.35,85.81l0,0-.06-.05a1.68,1.68,0,0,0-.34-.32,0,0,0,0,1,0,0,0,0,0,0,1,.06,0,2.16,2.16,0,0,1,.36.33l.05.06a0,0,0,0,1,0,.05Z"/><path class="cls-5" d="M45.51,59.89s1.19,12,2.45,13.72,3.43.23,3.21-.86.16-14.2.16-14.2Z"/><path class="cls-4" d="M50.22,42.35h0a.56.56,0,0,1,0-.12.7.7,0,0,1,.94-.35.71.71,0,0,1,.42.72h0l-.93,7.63s0,0,0,.06v0h0a1.52,1.52,0,0,1-.09.28,1.16,1.16,0,0,1-2.18-.72h0Z"/><path class="cls-10" d="M54.17,81.68a16,16,0,0,0,.31-2.3,9.75,9.75,0,0,0-.06-1.72A17.56,17.56,0,0,0,52.94,72a2.07,2.07,0,0,0-1.23-.3,1.51,1.51,0,0,0-1.23.59,1.14,1.14,0,0,0-.11.8s1.1,7,1.52,10.61a11.11,11.11,0,0,0,1.91-.16C53.89,83.12,54,82.51,54.17,81.68Z"/><path class="cls-6" d="M53.8,83.58a11.11,11.11,0,0,1-1.91.16,16.91,16.91,0,0,1,.16,1.75c0,1.43-.24,1.53-.31,1.54.67.32,1.56.65,1.91.3s0-.81-.12-1.83A5.47,5.47,0,0,1,53.8,83.58Z"/><path class="cls-7" d="M50.77,86.25a2.21,2.21,0,0,0,.57-.54c.16-.27.41-.93.47-.94a2.25,2.25,0,0,1,.64.2s-.84,1.06-.8,1.08.36.56.21.65a2.75,2.75,0,0,1-.83,0l-.25-.36Z"/><path class="cls-10" d="M49.42,87s0-.25.17-.33a9.13,9.13,0,0,1,.89-.23,2.81,2.81,0,0,1,.38-.26c.08,0,.7.43.83.39s-.32-.38-.27-.44.63-.67.65-.74a4.23,4.23,0,0,0,1.38.18.3.3,0,0,1,.34.22l.21.84L54,87l-.32.11-.92,0-1.21.31-.62.14-1-.09-.59-.38Z"/><path class="cls-9" d="M49.36,87.21s0-.23,0-.26.12.23.16.24a3.78,3.78,0,0,0,1.74.16,10.14,10.14,0,0,0,1.7-.49c.5-.07,1,0,1-.2,0,0,.25.47.06.72s-.28.15-.55.18a3.72,3.72,0,0,1-1,0c-.15,0-.33.18-.79.27S49.68,87.87,49.36,87.21Z"/><path class="cls-10" d="M51.48,86.21h0l-.11-.07a1.16,1.16,0,0,0-.26-.15,0,0,0,0,1,0,0s0,0,0,0a1.91,1.91,0,0,1,.27.16l.11.07a0,0,0,0,1,0,.06S51.49,86.21,51.48,86.21Z"/><path class="cls-10" d="M51.8,85.87h0a2.14,2.14,0,0,0-.4-.2s0,0,0,0,0,0,0,0a2.44,2.44,0,0,1,.43.21.07.07,0,0,1,0,.06A.05.05,0,0,1,51.8,85.87Z"/><path class="cls-10" d="M52,85.64h0l-.06,0a1.54,1.54,0,0,0-.38-.28,0,0,0,1,1,0-.07,1.62,1.62,0,0,1,.4.28l.06,0s0,0,0,.06Z"/><path class="cls-10" d="M46.43,60.17S48.89,72,50.32,73.55s3.44-.14,3.1-1.2-1.35-14.14-1.35-14.14Z"/><path class="cls-11" d="M49,40.22a18.24,18.24,0,0,0,.68-2.62c0-.69-1.2-.36-1.2-.36l-1,1.13Z"/><polygon class="cls-6" points="48.49 38.65 49.84 42.18 48.7 42.76 47.69 40.38 48.49 38.65"/><path class="cls-11" d="M48.88,39.19a5.7,5.7,0,0,1,0,1.43,5.37,5.37,0,0,1-.47,1.56l-.76-1.8,1.05-1.71.14.46Z"/><path class="cls-6" d="M46.92,36.45a2.54,2.54,0,0,0-1.16-.23c-.5,0-1.49.25-1.77,1-.15.37.1.94.58,2.08a6.2,6.2,0,0,0,.75,1.41c.36.47.62.81,1.09.93a1.54,1.54,0,0,0,1.07-.16c.38-.2.56-.51.93-1.12a1.65,1.65,0,0,0,.24-.54,2,2,0,0,0,0-.61c.55-.07.69-.88.42-1.27a.55.55,0,0,0-.46-.24.41.41,0,0,0-.4.31,3.06,3.06,0,0,0-1-1.28A2.85,2.85,0,0,0,46.92,36.45Z"/><path class="cls-11" d="M49.24,35.7A1.73,1.73,0,0,0,48.12,35a1.9,1.9,0,0,0-1.08.1,2.49,2.49,0,0,1-1.07.27c-.33,0-.64-.21-1-.28a1.68,1.68,0,0,0-1.88,1.07A1.71,1.71,0,0,0,43.87,38c.62.38,1.69-.51,2.21-.84.06,0,.54-.33.69-.19s0,.11.09.24.1.21.24.24.35-.1.49,0a.51.51,0,0,1,.16.26c0,.06.29.9.29.9h.13s0-.77.51-.66h0l.08,0a.68.68,0,0,1,.24.27.91.91,0,0,1,.13.52,3.09,3.09,0,0,0,.49-2.08A2.51,2.51,0,0,0,49.24,35.7Z"/><path class="cls-13" d="M49.71,41.44a4.52,4.52,0,0,1,1.63,1.1,3.61,3.61,0,0,1,.76,1.62,41,41,0,0,1,.65,8.23c-.13,5.69.69,7.76,0,7.92-2,.5-5.72,1.88-7.26.8-.61-.43.82-16.83,1.21-18.3C47.06,41.68,49.28,41.23,49.71,41.44Z"/><path class="cls-4" d="M42.85,49.27l.85,8.51a1.21,1.21,0,0,1-2.36.35h0a.24.24,0,0,1,0-.08s0-.06,0-.08l-1.66-8.15a1.57,1.57,0,0,1,1.47-2.16A1.78,1.78,0,0,1,42.85,49.27Z"/><path class="cls-4" d="M48.25,53.88h0l.12,0a.71.71,0,0,1,.86.52.72.72,0,0,1-.32.78h0l-5.82,3.71a.1.1,0,0,1,0,0h0a1.48,1.48,0,0,1-.27.1,1.16,1.16,0,0,1-1.4-.85A1.18,1.18,0,0,1,42,56.85h0Z"/><path class="cls-4" d="M48.15,53.87c.52-.31,1-.81,1.17-.54s0,.41-.17.55a1.59,1.59,0,0,1,.48.15c.58.32,1.42,1.4,1.2,1.48s-1.23-1.08-1.32-.92,1.43.82,1.3,1.22c-.05.17-1.56-.77-1.64-.65s1.29.45,1.18.75S49,55.39,49,55.47s.82.35.7.45a2.36,2.36,0,0,1-1.52-.75,2.85,2.85,0,0,0-.86-.71v-.09A1.32,1.32,0,0,1,48.15,53.87Z"/><path class="cls-6" d="M39.65,52.52c-.6.06-1.27-.07-1.25.26s.25.32.46.34a1.7,1.7,0,0,0-.3.41c-.27.6-.29,2-.06,1.91s.33-1.61.5-1.53-.66,1.51-.31,1.76c.14.1.78-1.56.92-1.51s-.76,1.13-.49,1.3.75-1.21.81-1.15-.45.78-.29.78a2.45,2.45,0,0,0,.77-1.51,2.65,2.65,0,0,1,.25-1.08l0-.08A1.28,1.28,0,0,0,39.65,52.52Z"/><path class="cls-8" d="M40,52.75a19.57,19.57,0,0,0,2-.19,6.74,6.74,0,0,0,1.37-.37l-.3-3.06a2.05,2.05,0,0,0-2-1.85H41a1.78,1.78,0,0,0-1.34.69,2,2,0,0,0-.29,1.78Z"/><path class="cls-12" d="M40.22,52.85H40a.08.08,0,0,1-.09-.08l-.37-2.54a.1.1,0,1,1,.19,0l.36,2.46a8.58,8.58,0,0,0,3.22-.52c0-.47-.22-3.37-1.19-4.45a.1.1,0,0,1,0-.14.09.09,0,0,1,.13,0c1.1,1.22,1.24,4.5,1.25,4.64a.11.11,0,0,1-.06.09A8.34,8.34,0,0,1,40.22,52.85Z"/><path class="cls-6" d="M48,43.21l-1.28,8.46a1.21,1.21,0,0,0,2.33.47h0l0-.09a.19.19,0,0,0,0-.08l2.41-8A1.8,1.8,0,1,0,48,43.21Z"/><path class="cls-13" d="M49.84,41.43a2,2,0,0,0-1.43.54,2,2,0,0,0-.64,1.21l-.54,3.51.1,0c.52.15,1.06.28,1.59.41a14.33,14.33,0,0,0,1.83.33l1-3.4a1.92,1.92,0,0,0-.25-1.72A2.29,2.29,0,0,0,49.84,41.43Z"/><path class="cls-14" d="M50.75,47.55h0a14.66,14.66,0,0,1-1.85-.32h0c-.51-.13-1-.26-1.55-.41l-.09,0a.1.1,0,0,1-.07-.11l.53-3.52a.1.1,0,1,1,.19,0l-.52,3.43h0c.51.15,1,.27,1.55.4h0a12.64,12.64,0,0,0,1.75.31l1-3.32a.1.1,0,0,1,.12-.06.09.09,0,0,1,.06.12l-1,3.39A.1.1,0,0,1,50.75,47.55Z"/><path class="cls-6" d="M39.64,52.44h0l-.12,0a.75.75,0,0,0-.37,1,.74.74,0,0,0,.76.43h0l8-1H48a1.11,1.11,0,0,0,.29-.1,1.21,1.21,0,0,0,.59-1.6,1.22,1.22,0,0,0-1.36-.67h0Z"/><path class="cls-4" d="M50.43,42.32c0-.18,0-.28,0-.32s.24,0,.37,0a.67.67,0,0,0,.59-.28s0,.07,0,.17.19.23.31.42,0,.34.17.65c.07.15.14.21.13.33a.36.36,0,0,1-.15.25.77.77,0,0,1-.68.15.42.42,0,0,1-.26-.14.21.21,0,0,1,0-.15.46.46,0,0,1-.26-.21.23.23,0,0,1,0-.27l-.14-.14A.89.89,0,0,1,50.43,42.32Z"/></svg>