<svg id="Layer_1" data-name="Layer 1" xmlns="http://www.w3.org/2000/svg" xmlns:xlink="http://www.w3.org/1999/xlink" viewBox="0 0 100 100"><defs><style>.cls-1{fill:none;}.cls-2{opacity:0.5;fill:url(#radial-gradient);}.cls-3{fill:#4c2657;}.cls-4{fill:#653b85;}.cls-5{fill:#c9e8e5;}.cls-6{fill:#11103d;}.cls-7{fill:#6f59a6;}.cls-8{fill:#76cedb;}.cls-9{fill:#e86365;}.cls-10{clip-path:url(#clip-path);}.cls-11{fill:#fccaaf;}.cls-12{fill:#793449;}.cls-13{fill:#f8a58f;}.cls-14{fill:#fff;}.cls-15{fill:#9f5a62;}.cls-16{fill:#49ade2;}.cls-17{fill:#3483c5;}.cls-18{fill:#00b3b3;}.cls-19{fill:#feeff1;}.cls-20{fill:#fac6c9;}.cls-21{fill:#d56d67;}.cls-22{fill:#f48885;}.cls-23{fill:#f16c88;}.cls-24{fill:#e15272;}.cls-25{fill:#f2999d;}</style><radialGradient id="radial-gradient" cx="49.71" cy="54.49" r="32.82" gradientUnits="userSpaceOnUse"><stop offset="0" stop-color="#efa8b9"/><stop offset="1" stop-color="#f27594"/></radialGradient><clipPath id="clip-path"><polygon class="cls-1" points="19.86 37.49 38.3 37.49 38.3 61.79 42.88 54.66 44.49 56.05 47.28 54.91 48.76 60.07 43.31 62.12 38.3 69.01 35.59 67.39 19.86 67.39 19.86 37.49"/></clipPath></defs><path class="cls-2" d="M79.21,47.71a13.4,13.4,0,0,0-2.36-.13,13,13,0,0,1-11.21-5.94,17.74,17.74,0,0,0-22.3-6.36,18.81,18.81,0,0,1-12.16,1.27c-.5-.12-1-.21-1.53-.29a18.66,18.66,0,1,0,8.46,33.38,8.43,8.43,0,0,1,7.51-1.28,17.76,17.76,0,0,0,11.65-.45,8.31,8.31,0,0,1,9.36,2.47A13.89,13.89,0,1,0,79.21,47.71Z"/><rect class="cls-3" x="14.98" y="33.86" width="24.45" height="42.81" rx="3.04"/><rect class="cls-4" x="17.29" y="33.86" width="24.45" height="42.81" rx="3.04"/><path class="cls-5" d="M38.7,34.83H36.51a1.71,1.71,0,0,0-1.53,1l-.27.55a1.83,1.83,0,0,1-1.64,1H27a1.83,1.83,0,0,1-1.64-1l-.27-.55a1.71,1.71,0,0,0-1.53-1H20.33a2.07,2.07,0,0,0-2.06,2.07V73.63a2.06,2.06,0,0,0,2.06,2.06H38.7a2.07,2.07,0,0,0,2.07-2.06V36.9A2.07,2.07,0,0,0,38.7,34.83Z"/><path class="cls-6" d="M31.19,35.35H27.51a.31.31,0,0,0,0,.61h3.68a.31.31,0,0,0,0-.61Z"/><circle class="cls-6" cx="32.52" cy="35.66" r="0.3"/><path class="cls-4" d="M16.05,41.8h-.28v.08a.51.51,0,0,0-.23.43v4.32a.51.51,0,0,0,.23.43v.08h.28a.51.51,0,0,0,.52-.51V42.31A.51.51,0,0,0,16.05,41.8Z"/><path class="cls-7" d="M15.77,47.14h0a.51.51,0,0,1-.51-.51V42.31a.51.51,0,0,1,.51-.51h0a.51.51,0,0,1,.52.51v4.32A.51.51,0,0,1,15.77,47.14Z"/><path class="cls-4" d="M16.05,47.92h-.28V48a.49.49,0,0,0-.23.42v4.33a.51.51,0,0,0,.23.43v.08h.28a.51.51,0,0,0,.52-.51V48.43A.51.51,0,0,0,16.05,47.92Z"/><path class="cls-7" d="M15.77,53.27h0a.51.51,0,0,1-.51-.51V48.43a.51.51,0,0,1,.51-.51h0a.51.51,0,0,1,.52.51v4.33A.51.51,0,0,1,15.77,53.27Z"/><path class="cls-8" d="M40.1,58.07c-.91-.71-2-1.36-2.39-2.46-.68-2,1.34-4.29.29-6.1a3.47,3.47,0,0,0-3-1.38,11.57,11.57,0,0,1-3.38-.26,6.41,6.41,0,0,1-2.72-2.21,12.62,12.62,0,0,0-2.43-2.57,3.25,3.25,0,0,0-3.35-.37,3.46,3.46,0,0,0-1.35,3.39c.14,1.28.66,2.49.91,3.75A4.06,4.06,0,0,1,22,53.49,11.84,11.84,0,0,1,19.2,55a4.25,4.25,0,0,0-.93.71V73.63a2.06,2.06,0,0,0,2.06,2.06H38.7a2.07,2.07,0,0,0,2.07-2.06V58.69A5.53,5.53,0,0,0,40.1,58.07Z"/><path class="cls-8" d="M22.85,37c-1.47-.57-3,1.51-3,2.79a1.86,1.86,0,0,0,.88,1.65,1.77,1.77,0,0,0,1.39.13,2.81,2.81,0,0,0,1.2-.75C24.42,39.66,24.53,37.61,22.85,37Z"/><path class="cls-8" d="M36.77,41.13a16.45,16.45,0,0,0-4.49-2.05c-.79-.22-1.85-.26-2.1.73a2.28,2.28,0,0,0,.49,1.82c.37.44.88.74,1.27,1.16.63.68,1.17,1.43,1.84,2.09a5.65,5.65,0,0,0,2.29,1.52,2.21,2.21,0,0,0,2.7-3.28A5.53,5.53,0,0,0,36.77,41.13Z"/><path class="cls-9" d="M23.31,48.87h0a.85.85,0,0,0-1.12.44l-.23.51-.51-.22a.85.85,0,0,0-1.12.43h0a.85.85,0,0,0,.43,1.12l.52.23,1.55.69L23.75,50A.85.85,0,0,0,23.31,48.87Z"/><path class="cls-9" d="M25,45.35h0a.64.64,0,0,0-.9.15l-.25.35-.35-.25a.64.64,0,0,0-.9.15h0a.64.64,0,0,0,.14.9l.35.25,1.05.75,1-1.4A.64.64,0,0,0,25,45.35Z"/><g class="cls-10"><path class="cls-11" d="M29.05,47.21l-.45,3.5.89.5a2,2,0,0,0,2.14-.1h0l.06-2.65Z"/><path class="cls-3" d="M29.8,49.2a2.6,2.6,0,0,0,1.86.73l0-1.47-2.63-1.25A2.57,2.57,0,0,0,29.8,49.2Z"/><rect class="cls-11" x="28.03" y="40.22" width="7.2" height="9.1" rx="3.6"/><path class="cls-12" d="M29.25,46.53l.21-.21a.58.58,0,0,0,.16-.4v-1A1.26,1.26,0,0,1,30,44a1.25,1.25,0,0,0,.36-.88V42l1.47-.29a5.92,5.92,0,0,1,2.14,0h0a1.17,1.17,0,0,0,1.23-.56A2.18,2.18,0,0,0,35.31,39a2.39,2.39,0,0,0-2.73-1.07c-.73.24-1.3.82-2,1.07a8.68,8.68,0,0,1-2.34.19,2.09,2.09,0,0,0-1.94,1.09,2.46,2.46,0,0,0,.32,1.9,3.16,3.16,0,0,1,.52,1.88c-.05.31-.21.6-.26.92a1.48,1.48,0,0,0,.59,1.42A2,2,0,0,0,29.25,46.53Z"/><circle class="cls-11" cx="28.03" cy="46.53" r="1.22"/><path class="cls-13" d="M28.71,46.53a.68.68,0,0,1-1.36,0,.68.68,0,0,1,1.36,0Z"/><path class="cls-12" d="M32,43.25a1.32,1.32,0,0,0-1,.6L33,43.68A1.34,1.34,0,0,0,32,43.25Z"/><path class="cls-3" d="M32.32,44.51a.33.33,0,0,1-.32.32.32.32,0,0,1-.31-.32A.31.31,0,0,1,32,44.2.32.32,0,0,1,32.32,44.51Z"/><path class="cls-12" d="M34.69,43.25c.23,0,.42.27.54.6l-1.12-.17C34.25,43.39,34.46,43.22,34.69,43.25Z"/><ellipse class="cls-3" cx="34.67" cy="44.51" rx="0.17" ry="0.31"/><path class="cls-13" d="M34.59,45.63l-1.13.1a.87.87,0,0,0,.32.34.52.52,0,0,0,.81-.44Z"/><path class="cls-14" d="M34.41,46.63a9.77,9.77,0,0,1-2.85.3,1.36,1.36,0,0,0,.36.85,1.22,1.22,0,0,0,.81.35,1.46,1.46,0,0,0,1.05-.41A2.89,2.89,0,0,0,34.41,46.63Z"/><path class="cls-15" d="M29.54,40.86a11.46,11.46,0,0,0-2.87-1.14,1.35,1.35,0,0,0-.39.55.6.6,0,0,0-.06.19A9.8,9.8,0,0,1,30.35,42l.58-.11A6.2,6.2,0,0,0,29.54,40.86Z"/><path class="cls-15" d="M26.31,41.47a19.35,19.35,0,0,1,4,1.54v-.38a13.32,13.32,0,0,0-4.14-1.57A2,2,0,0,0,26.31,41.47Z"/><path class="cls-15" d="M34.78,40.88a2.62,2.62,0,0,0,.45-1.35,1.84,1.84,0,0,0-.26-1,2.07,2.07,0,0,0-.61-.44,1.6,1.6,0,0,1,.47.84,2.46,2.46,0,0,1-.11,1.29,3.32,3.32,0,0,1-1,1.44l.21,0H34A4.26,4.26,0,0,0,34.78,40.88Z"/><path class="cls-15" d="M33.87,40.73a2.38,2.38,0,0,0,.36-1.45,2.05,2.05,0,0,0-.89-1.46,2.48,2.48,0,0,0-.38,0,2.54,2.54,0,0,1,.72,1.83,2.61,2.61,0,0,1-1,2h.37A3.57,3.57,0,0,0,33.87,40.73Z"/><path class="cls-11" d="M37.26,60.51l.24,3.18,4.16-4.34L43,61l-3.65,4.76a4.31,4.31,0,0,1-3.74,1.66h0l-.36-6Z"/><polygon class="cls-3" points="37.26 60.51 35.23 61.44 35.29 62.48 37.29 60.96 37.26 60.51"/><path class="cls-13" d="M37.5,63.69l-1.58,1.68,0-.16a5.28,5.28,0,0,1,1.46-2.4h0Z"/><path class="cls-11" d="M41.66,59.35l.21-1.28.74-2h0a.62.62,0,0,1,.44.69L42.84,58l1.59-.62,1.67,2.37L43,61Z"/><path class="cls-11" d="M44.43,57.37l1.71-1.16a.28.28,0,0,1,.39.07h0a.28.28,0,0,1-.05.35l-1.55,1.45Z"/><path class="cls-11" d="M44.93,58.08l1.86-1.21a.31.31,0,0,1,.43.08h0a.31.31,0,0,1-.06.43l-1.73,1.4Z"/><path class="cls-11" d="M45.43,58.78l1.74-1a.25.25,0,0,1,.35.1h0a.25.25,0,0,1-.09.33L45.79,59.3Z"/><path class="cls-11" d="M46.1,59.74l1.18-.83a.2.2,0,0,0,0-.29h0a.18.18,0,0,0-.23,0l-1.29.71Z"/><path class="cls-13" d="M43,60h0a0,0,0,0,1,0-.06l.11-.19a1.47,1.47,0,0,0-.17-1.64s0,0,0,0,0,0,.05,0a1.51,1.51,0,0,1,.17,1.72L43,60A.05.05,0,0,1,43,60Z"/><path class="cls-13" d="M45.79,59.66l0,0-1.49-2.11a0,0,0,0,1,0-.06,0,0,0,0,1,0,0l1.49,2.12a0,0,0,0,1,0,0Z"/><path class="cls-13" d="M44.45,59.66s0,0,0,0a11.79,11.79,0,0,0-.34-1.85s0,0,0,0,0,0,0,0a10.79,10.79,0,0,1,.34,1.87s0,0,0,0Z"/><path class="cls-16" d="M28.6,50.71l-3.15.89a4.75,4.75,0,0,0-3.32,3.49L21,59.92l4.08,1.19-.44,7.1h11l-.41-6.77,2.27-1-.93-5.16a4.75,4.75,0,0,0-3.48-3.75l-1.46-.38h0a2,2,0,0,1-2.14.1Z"/><path class="cls-17" d="M21,59.92l4.81,1.4.32-6.66h0a1,1,0,0,0-.53.78l-.52,4.63-4-.61Z"/><path class="cls-17" d="M35.23,61.44l.15-6.53h0a2.77,2.77,0,0,1,.38,1.29l.16,4,1.52-.12.06.33Z"/><path class="cls-17" d="M31.94,51.71a2,2,0,0,1-.83.42,2.5,2.5,0,0,1-1,0,8.3,8.3,0,0,1-1.85-.76A5,5,0,0,0,29,52a3.13,3.13,0,0,0,1,.43,2.05,2.05,0,0,0,1.13-.08A1.42,1.42,0,0,0,31.94,51.71Z"/><path class="cls-17" d="M34.09,58.22c-.56-.15-1.18-.34-1.82-.58a15.12,15.12,0,0,1-1.94-.88,16.06,16.06,0,0,1-1.79-1.14c-.55-.41-1.05-.83-1.48-1.21a6.84,6.84,0,0,0,1.22,1.52A8.29,8.29,0,0,0,32.15,58,7.15,7.15,0,0,0,34.09,58.22Z"/><path class="cls-17" d="M34.59,56.12a10.87,10.87,0,0,1-2.12.26,10.49,10.49,0,0,1-2.13-.2,3.62,3.62,0,0,0,1,.36,4.52,4.52,0,0,0,1.17.13,5.59,5.59,0,0,0,1.17-.16A4.38,4.38,0,0,0,34.59,56.12Z"/><path class="cls-17" d="M34.63,65.91a16.57,16.57,0,0,1-2.1.15,13.42,13.42,0,0,1-2.33-.23A12.38,12.38,0,0,1,28,65.16a14.48,14.48,0,0,1-1.89-.93,6.71,6.71,0,0,0,1.69,1.34,7.81,7.81,0,0,0,2.33.85,7.93,7.93,0,0,0,2.47.09A6.92,6.92,0,0,0,34.63,65.91Z"/><path class="cls-17" d="M34.23,62.12A11.38,11.38,0,0,1,32.9,63a10.91,10.91,0,0,1-1.61.78,11.22,11.22,0,0,1-1.73.49,12.47,12.47,0,0,1-1.6.2,5.31,5.31,0,0,0,1.64.14,6.33,6.33,0,0,0,3.5-1.33A5.21,5.21,0,0,0,34.23,62.12Z"/><path class="cls-17" d="M34.29,61.05l-2.08.05c-.75,0-1.5,0-2.08,0a6.84,6.84,0,0,0,2.08.26A7.08,7.08,0,0,0,34.29,61.05Z"/><path class="cls-11" d="M25.09,61.11l-3.6-1-.19,5.07a3.39,3.39,0,0,0,.14,1.1l.57,2h3L24.8,65.7Z"/><polygon class="cls-3" points="21.49 60.07 25.09 61.11 25.01 62.3 21.48 60.49 21.49 60.07"/></g><ellipse class="cls-18" cx="27.11" cy="71.97" rx="2.84" ry="2.96"/><ellipse class="cls-5" cx="27.11" cy="71.97" rx="2.32" ry="2.42"/><path class="cls-18" d="M27.55,72l.78-.82a.33.33,0,0,0,0-.45h0a.3.3,0,0,0-.44,0l-.78.81-.78-.81a.29.29,0,0,0-.43,0h0a.33.33,0,0,0,0,.45l.78.82-.78.81a.33.33,0,0,0,0,.45.29.29,0,0,0,.43,0l.78-.81.78.81a.3.3,0,0,0,.44,0,.33.33,0,0,0,0-.45Z"/><ellipse class="cls-18" cx="34.05" cy="71.97" rx="2.84" ry="2.96"/><ellipse class="cls-5" cx="34.05" cy="71.97" rx="2.32" ry="2.42"/><path class="cls-9" d="M35.42,70.9h0a.93.93,0,0,0-1.35,0l0,0,0,0a.93.93,0,0,0-1.35,0h0a1,1,0,0,0,0,1.4l1.37,1.43,1.37-1.43A1,1,0,0,0,35.42,70.9Z"/><path class="cls-9" d="M49.07,53.33h0a.91.91,0,0,1,1.21.47l.25.56.56-.25a.93.93,0,0,1,1.22.47h0a.93.93,0,0,1-.48,1.22l-.56.24-1.68.75-1-2.25A.9.9,0,0,1,49.07,53.33Z"/><path class="cls-9" d="M50.27,46.73h0a.64.64,0,0,1,.8.42l.12.41.4-.12a.64.64,0,0,1,.8.42h0a.64.64,0,0,1-.43.8l-.41.12-1.22.37-.49-1.63A.63.63,0,0,1,50.27,46.73Z"/><path class="cls-9" d="M45.05,50.81h0a.7.7,0,0,1,.88-.45l.45.14.14-.44a.71.71,0,0,1,.89-.45h0a.71.71,0,0,1,.44.89l-.14.44-.44,1.33-1.77-.58A.7.7,0,0,1,45.05,50.81Z"/><path class="cls-9" d="M53.22,51h0a.47.47,0,0,1,.45.49l0,.31.31,0a.46.46,0,0,1,.44.49h0a.47.47,0,0,1-.49.44l-.31,0-.93-.05.06-1.24A.47.47,0,0,1,53.22,51Z"/><rect class="cls-3" x="59.98" y="33.86" width="24.45" height="42.81" rx="3.04" transform="translate(144.42 110.53) rotate(180)"/><rect class="cls-4" x="57.67" y="33.86" width="24.45" height="42.81" rx="3.04" transform="translate(139.79 110.53) rotate(180)"/><path class="cls-19" d="M60.71,34.83h2.2a1.69,1.69,0,0,1,1.52,1l.28.55a1.82,1.82,0,0,0,1.63,1h6.08a1.82,1.82,0,0,0,1.63-1l.28-.55a1.69,1.69,0,0,1,1.52-1h3.23a2.07,2.07,0,0,1,2.07,2.07V73.63a2.07,2.07,0,0,1-2.07,2.06H60.71a2.06,2.06,0,0,1-2.06-2.06V36.9A2.07,2.07,0,0,1,60.71,34.83Z"/><path class="cls-6" d="M68.22,35.35H71.9a.31.31,0,1,1,0,.61H68.22a.31.31,0,0,1,0-.61Z"/><circle class="cls-6" cx="66.9" cy="35.66" r="0.3"/><path class="cls-4" d="M83.36,41.8h.28v.08a.51.51,0,0,1,.23.43v4.32a.51.51,0,0,1-.23.43v.08h-.28a.51.51,0,0,1-.51-.51V42.31A.51.51,0,0,1,83.36,41.8Z"/><path class="cls-7" d="M83.64,47.14h0a.51.51,0,0,0,.51-.51V42.31a.51.51,0,0,0-.51-.51h0a.51.51,0,0,0-.51.51v4.32A.51.51,0,0,0,83.64,47.14Z"/><path class="cls-4" d="M83.36,47.92h.28V48a.49.49,0,0,1,.23.42v4.33a.51.51,0,0,1-.23.43v.08h-.28a.51.51,0,0,1-.51-.51V48.43A.51.51,0,0,1,83.36,47.92Z"/><path class="cls-7" d="M83.64,53.27h0a.51.51,0,0,0,.51-.51V48.43a.51.51,0,0,0-.51-.51h0a.51.51,0,0,0-.51.51v4.33A.51.51,0,0,0,83.64,53.27Z"/><path class="cls-20" d="M59.32,58.07c.91-.71,2-1.36,2.38-2.46.68-2-1.33-4.29-.29-6.1a3.49,3.49,0,0,1,3-1.38,11.52,11.52,0,0,0,3.38-.26,6.5,6.5,0,0,0,2.73-2.21,12.62,12.62,0,0,1,2.43-2.57,3.23,3.23,0,0,1,3.34-.37,3.44,3.44,0,0,1,1.35,3.39c-.13,1.28-.66,2.49-.91,3.75a4.06,4.06,0,0,0,.76,3.63A11.77,11.77,0,0,0,80.21,55a4.08,4.08,0,0,1,.94.71V73.63a2.07,2.07,0,0,1-2.07,2.06H60.71a2.06,2.06,0,0,1-2.06-2.06V58.69A4.36,4.36,0,0,1,59.32,58.07Z"/><path class="cls-20" d="M76.57,37c1.47-.57,3,1.51,3,2.79a1.88,1.88,0,0,1-.88,1.65,1.77,1.77,0,0,1-1.39.13,2.75,2.75,0,0,1-1.2-.75C75,39.66,74.88,37.61,76.57,37Z"/><path class="cls-20" d="M62.65,41.13a16.52,16.52,0,0,1,4.48-2.05c.79-.22,1.85-.26,2.11.73a2.29,2.29,0,0,1-.5,1.82c-.37.44-.88.74-1.27,1.16-.63.68-1.17,1.43-1.83,2.09a5.65,5.65,0,0,1-2.29,1.52,2.22,2.22,0,0,1-2.71-3.28A5.56,5.56,0,0,1,62.65,41.13Z"/><path class="cls-21" d="M72.08,51.35h0a7.5,7.5,0,0,0,1.1-3.91V44.35a4.55,4.55,0,0,0-4.55-4.54h0a4,4,0,0,0-4,4.35l.23,2.67a21.1,21.1,0,0,1-.52,6.81l-.43,1.8Z"/><polygon class="cls-13" points="70.81 47.71 71.23 51.02 69.36 52.06 68.38 51.39 68.32 48.9 70.81 47.71"/><path class="cls-3" d="M70.1,49.59a2.41,2.41,0,0,1-1.75.69l0-1.38,2.48-1.18A2.45,2.45,0,0,1,70.1,49.59Z"/><rect class="cls-13" x="64.99" y="41.13" width="6.78" height="8.57" rx="3.39"/><path class="cls-21" d="M68.07,44a1.21,1.21,0,0,1,.93.56l-2-.15A1.24,1.24,0,0,1,68.07,44Z"/><path class="cls-21" d="M65.5,44c-.22,0-.4.25-.51.56L66,44.4C65.91,44.12,65.71,44,65.5,44Z"/><path class="cls-3" d="M68.59,45.57a.77.77,0,0,0-.25-.26.84.84,0,0,0-.39-.15.82.82,0,0,0-.41.05.7.7,0,0,0-.3.19,2.62,2.62,0,0,1,.69,0A2.8,2.8,0,0,1,68.59,45.57Z"/><path class="cls-3" d="M65.18,45.57a.77.77,0,0,1,.12-.26.36.36,0,0,1,.2-.15.21.21,0,0,1,.2.05.36.36,0,0,1,.15.19.64.64,0,0,0-.34,0A.92.92,0,0,0,65.18,45.57Z"/><path class="cls-22" d="M66.93,46.94a4.24,4.24,0,0,0-.94,0,.58.58,0,0,0,.43.33A.68.68,0,0,0,66.93,46.94Z"/><path class="cls-14" d="M68.19,47.59A4.48,4.48,0,0,1,66,47.8a1.3,1.3,0,0,0,1.16.64A1.26,1.26,0,0,0,68.19,47.59Z"/><path class="cls-21" d="M64.87,43.91c.82-.15,3.36-.56,4-1.56a2.07,2.07,0,0,0,1.35,1.88v2a1.23,1.23,0,0,0,.67,1.09l.23.11h.8v-3.5A2.93,2.93,0,0,0,69,41H67.76a2.89,2.89,0,0,0-2.89,2.89Z"/><circle class="cls-13" cx="71.77" cy="47.07" r="1.15" transform="translate(-6.63 12.14) rotate(-9.25)"/><path class="cls-22" d="M71.13,47.07a.64.64,0,0,0,1.28,0,.64.64,0,0,0-1.28,0Z"/><circle class="cls-14" cx="71.77" cy="48.26" r="0.3"/><path class="cls-13" d="M65.18,52.65h0a5,5,0,0,0-2.66,3.45l-1.31,6.3v5.09h2.24l-.12-4.55,1.54-5.56Z"/><path class="cls-23" d="M65.18,52.65h0a5.24,5.24,0,0,0-2.9,3.29l-.11.36,3,.75Z"/><path class="cls-24" d="M63.62,56.66l1.56.39-.13-3.42-.56,1.47a6.08,6.08,0,0,1-.76,1.42Z"/><polygon class="cls-3" points="62.47 56.37 64.89 56.98 64.86 57.38 64.7 57.96 62.41 56.66 62.47 56.37"/><path class="cls-13" d="M68.28,53.63h2a2.15,2.15,0,0,0,2.06-1.53l.16-.56L71.23,51l-1.87,1.05-1-.67-1.25.49,0,.4A1.21,1.21,0,0,0,68.28,53.63Z"/><path class="cls-23" d="M65.45,67.49H76.24a11,11,0,0,1-1.35-6.63l.9-8-3.24-1.28-.16.56a2.15,2.15,0,0,1-2.06,1.53h-2a1.21,1.21,0,0,1-1.2-1.35l0-.4-1.95.77-.4,3.08a10.91,10.91,0,0,1-.66,2.57l-.07.18a1.78,1.78,0,0,0,.61,2.09,1.63,1.63,0,0,1,.65,1l.35,2a6.65,6.65,0,0,1,0,1.89Z"/><path class="cls-24" d="M71.94,60.92a10.08,10.08,0,0,0-1.37-.43,7.81,7.81,0,0,0-1.63-.24,5.61,5.61,0,0,0-1.65.18A4.93,4.93,0,0,0,66,61a11.92,11.92,0,0,1,1.39-.26,9,9,0,0,1,1.57-.07C70,60.69,71.08,60.87,71.94,60.92Z"/><path class="cls-24" d="M72.67,55.17c-1,.13-2.19.39-3.42.46a10.73,10.73,0,0,1-1.8,0,9.54,9.54,0,0,1-1.58-.33,4.67,4.67,0,0,0,1.51.67,6.3,6.3,0,0,0,1.9.16,8.42,8.42,0,0,0,1.85-.33A10.36,10.36,0,0,0,72.67,55.17Z"/><path class="cls-24" d="M68.86,54.39c.35.06.74.1,1.17.13l.65,0a2.46,2.46,0,0,0,.71-.08,2.17,2.17,0,0,0,1.14-.81,1.81,1.81,0,0,0,.29-.57c.07-.18.12-.36.17-.53-.1.15-.2.3-.3.47a2.68,2.68,0,0,1-.35.48,2.37,2.37,0,0,1-1,.64,3.09,3.09,0,0,1-.62.09c-.22,0-.44,0-.65,0C69.6,54.29,69.21,54.34,68.86,54.39Z"/><path class="cls-24" d="M72.67,66a5.74,5.74,0,0,0-1-.8,7.61,7.61,0,0,0-1.3-.68,7.5,7.5,0,0,0-1.4-.43,6.09,6.09,0,0,0-1.28-.14c.72.24,1.65.53,2.54.9S72,65.63,72.67,66Z"/><path class="cls-24" d="M71.77,66.14a5.37,5.37,0,0,0-1.22-.34,6.33,6.33,0,0,0-1.45-.08,6.47,6.47,0,0,0-1.43.24,5.18,5.18,0,0,0-1.18.47c.36-.07.78-.15,1.23-.21a12.52,12.52,0,0,1,1.4-.14c.47,0,.95,0,1.4,0Z"/><path class="cls-24" d="M72.5,63.32a8.05,8.05,0,0,0-1.23-1.12,4.46,4.46,0,0,0-.83-.47,3.16,3.16,0,0,0-1-.26,2.92,2.92,0,0,0-1.91.48,2.6,2.6,0,0,0-1,1.33,3.3,3.3,0,0,1,1.2-1,3.11,3.11,0,0,1,1.68-.32,4.8,4.8,0,0,1,1.67.57C71.6,62.77,72.07,63.08,72.5,63.32Z"/><path class="cls-24" d="M74.48,57.61a11.57,11.57,0,0,0,.43,6.64l.39,1h0a11,11,0,0,1-.41-4.43l.75-6.78-.47.57Z"/><path class="cls-23" d="M75.79,52.82h0a5,5,0,0,1,2.58,3.11l.21.74-3.52.38V55.88a6.79,6.79,0,0,1,.73-3.06Z"/><polygon class="cls-13" points="75.32 57.02 76.24 62.39 72.67 67.49 75.46 67.49 78.58 63.32 78.58 59.52 78.25 56.71 75.32 57.02"/><polygon class="cls-3" points="78.25 56.71 75.32 57.02 75.55 58.36 78.29 57.05 78.25 56.71"/><path class="cls-9" d="M76.41,48.79h0a.85.85,0,0,1,1.12.43l.22.52.52-.23a.85.85,0,0,1,1.12.44h0A.85.85,0,0,1,79,51.07l-.52.23L76.88,52,76,49.91A.85.85,0,0,1,76.41,48.79Z"/><path class="cls-9" d="M74.75,45.27h0a.64.64,0,0,1,.9.15l.25.34.35-.25a.65.65,0,0,1,.9.15h0a.65.65,0,0,1-.15.91l-.35.25-1.05.75-1-1.4A.64.64,0,0,1,74.75,45.27Z"/><ellipse class="cls-25" cx="65.66" cy="71.97" rx="2.84" ry="2.96"/><ellipse class="cls-19" cx="65.66" cy="71.97" rx="2.32" ry="2.42"/><path class="cls-18" d="M66.09,72l.78-.82a.33.33,0,0,0,0-.45h0a.29.29,0,0,0-.43,0l-.78.81-.78-.81a.29.29,0,0,0-.43,0h0a.33.33,0,0,0,0,.45l.78.82-.78.81a.33.33,0,0,0,0,.45.29.29,0,0,0,.43,0l.78-.81.78.81a.29.29,0,0,0,.43,0,.33.33,0,0,0,0-.45Z"/><ellipse class="cls-25" cx="72.6" cy="71.97" rx="2.84" ry="2.96"/><ellipse class="cls-19" cx="72.6" cy="71.97" rx="2.32" ry="2.42"/><path class="cls-9" d="M74,70.9h0a.93.93,0,0,0-1.35,0l0,0,0,0a.93.93,0,0,0-1.35,0h0a1,1,0,0,0,0,1.4l1.37,1.43L74,72.3A1,1,0,0,0,74,70.9Z"/><path class="cls-9" d="M44.66,43.42h0v-.14h0l0-.2s0,0,0,0a.08.08,0,0,1,0,0l0-.24c0-.08,0-.16,0-.24v0s0,0,0,0v-.16h0v-.09h0V42a.13.13,0,0,0,0-.06.13.13,0,0,1,0-.06v-.23s0-.07,0-.11h0v-.07h0v-.05h0v0h0l0-.28V41h.48l.05.16a.88.88,0,0,0,0,.15h0l.21.55v0h0l.17.43h0v0h0v0l0,0,0,.06s0,0,0,0h0v0h0l.08-.17v0l0-.06,0-.05v0l0-.09h0v0c0-.11.09-.22.13-.33l.13-.34h0v0h0v0l0-.07,0-.07s0,0,0,0h0V41h.48v0h0v.15s0,0,0,0v.2a.25.25,0,0,1,0,.08.28.28,0,0,1,0,.09s0,0,0,.07v.09s0,0,0,0l.06.56a0,0,0,0,1,0,0v0l.07.56V43l0,.38-.35.07h-.15a.17.17,0,0,0,0-.07V43.3h0v-.23h0v-.31l-.07-.7v0h0v.06l-.06.15-.18.49v.09l-.18.49v0h-.45l0,0v0a.56.56,0,0,1,0-.12l-.05-.12v0a0,0,0,0,0,0,0l-.07-.2h0v-.06l0,0,0-.06v0h0l0-.08,0-.09v0h0v0h0l0,0a.43.43,0,0,1,0,0l0,0,0,0h0s0,0,0,0v0h0V42h0v.22h0v.05h0v0s0,0,0,0l0,.27s0,0,0,0v.12s0,0,0,.08h0v0l-.06.58Zm0,0,0,0,0,0,0,0,0,0h0v0l0,0h0l-.15.15h0Zm0,0,.05-.06,0,0h0l-.12.11Zm0-.05,0,0h0Zm0-.07Zm0,0h0l.47-.48h0v0h0l-.51.52h0Zm0-.05.4-.43,0,0-.42.44Zm0,.1.06-.06.42-.43v0s0,0,0,0l-.18.19-.19.19,0,0,0,0,0,0,0,0Zm0-.14.05,0,0-.05-.09.09Zm0,.28h.05l0,0,0,0,0,0h0l0,0,0,0,0,0,0,0,0,0,0,0,0,0,0,0-.05,0Zm0-.36L45,42.7,44.7,43h0Zm0-.08.08-.08h0l0,0,0,0,0,0h0Zm0-.05.48-.47h0l0,0v0h0l-.45.47h0l0,0h0Zm0-.08h0Zm0,0h0l.45-.44v0h0l-.47.48Zm0,.64h0l.4-.4,0,0v0h0Zm0-.67h0l0,0,0-.06.06-.06,0,0-.19.19Zm0-.05.3-.32,0,0-.32.33Zm0,.11,0,0,0,0,0,0,0,0,0,0h0l0-.05.06-.06.06-.07,0-.05Zm0,.23.46-.46v0l-.44.45Zm0-.38h0Zm0,0h0v0Zm0,0,.3-.29v0l0,0,0,0,0,0,0,0,0,0,0,0,0,0,0,0v0l0,0-.47.48Zm0-.1Zm0,0h0l0,0,0,0,0,0h0l.4-.41h0l.31-.33h0l-.47.47,0,0,0,0,0,0,0,0,0,0,0,0,0,0,0,0,0,0,0,0,0,0,0,0Zm0,1h0v0h0l0,0Zm0-1h0Zm0,0h0l0,0,0,0,0,0h0l0,0,.06-.06.07-.08.07-.07.06-.06,0-.05h0l0,0v0h0l-.45.43a0,0,0,0,1,0,0l0,0h0Zm0,0h0Zm0,0h0Zm0,0h0l.73-.76h0l-.72.71h0v0h0Zm0,.22.31-.32-.25.25Zm0,.08.07-.06.06-.06h0Zm0-.41h0l.05,0,0,0Zm0,1.27h0l0,0,0,0,.05,0,0-.06,0,0,0,0,0,0,0,0,0,0h0l0,0,0,0Zm0-1.35,0,0,0,0,0,0v0h0l-.11.1Zm0,0,.6-.6h0l0,0,0,0v0h0l-.58.6,0,0,0,0h0Zm0,.09,0,0,0,0h0Zm0-.14.1-.1h0l0,0,0,0,0,0,0,0Zm0,0h0Zm0,0h0l.38-.37.14-.17h0l-.43.41h0l0,0,0,0,0,0h0v0h0Zm0,0h0v0h0Zm0-.06h0l0,0h0Zm0,0,.1-.1h0l0,0h0l0,0v0Zm0,1.66h0Zm0-1.7.56-.56h0l-.57.57Zm0,0,.45-.47-.39.38-.06.07h0Zm0-.11h0l0,0v0h0l0,0v0Zm0,0,.05-.05.46-.5h0l-.07.07-.43.46h0Zm0-.06h0Zm0,0,.09-.1.1-.1-.16.14v0l0,0h0Zm0,1.93h0l.22-.23,0,0Zm0-2h0l0,0v0h0l.36-.35h0l0,0,0,0,0,0-.06.06-.06.05,0,0,0,0,0,0,0,0,0,0,0,0,0,0,0,0Zm0,.5,0,0,.56-.57v0Zm0-.5h0l0,0h0l0,0v0h0l0,0Zm0-.14.24-.28-.12.13-.12.14Zm0,.5Zm0,1.58Zm0-2,.32-.33h0l0,0-.05.06,0,0,0,0s0,0,0,0l0,0,0,0,0,0Zm0,2.13h0l0,0v0h0l-.06.06Zm0-2.23.17-.2h0l0,0,0,0,0,0-.05,0Zm0-.14,0,0,0,0,0,0,0,0h0Zm0,2.06L45,43l.11-.11,0,0v0h0Zm.13,0,0,0,0,0,0,.05,0,0h0l0,0,0,0,0-.06,0,0h0v0Zm-.12-.08h0l.16-.17,0,0,0,0,0,0,0,0h0v0Zm0-2.09v0h0Zm0,2.44h0l0,0,0,0h0Zm0-.39.23-.23v0h0l0,0,0,0h0l0,0,0,0,0,0,0,0Zm0-1.12v0h0l0,0,0,0,0,0,0,0h0l0,0,0,0S45,41.94,45,41.94ZM45,41h0Zm0,2,.2-.19v0h0Zm0-1.29h0Zm.07,1.67,0,0,0,0,0,0v0h0l0,0,0,0v0h0l0,0,0,0v0h0l0,0,0,0Zm0,0h0v0h0l0,0,0,0,0,0,0,0h0v0l0,0,0,0Zm0-2.32h0l0,0,0,0h0v0l0,0Zm.06.79.45-.47h0L45,41.9ZM45,41h0Zm0,.29v0h0l.1-.1.09-.1h0l0,0,0,.05s0,0-.05,0Zm0-.3,0,0h0Zm0,.63h0v0l.24-.23-.11.1Zm0,1.56h0Zm0,.26h0Zm0-2.3Zm.12,2,0,0,0,0,0,0,0,0,.12-.12h0Zm-.1-2h0Zm.05.24h0l0,0,0,0v0l.29-.28h0l0,0h0v0h0l0,0,0,0,0,0-.07.07-.06.08Zm.06-.38,0,0,0,0,0,0,0,0,.12-.12h0v0h0ZM45,43.47h0v0h0l0,0Zm.13-1,0,0,0,0,0,0,0,0,.17-.17h0l0,0Zm0-.19,0,0,0,0,0,0,0,0,.18-.18h0l0,0,0,0Zm-.09,0h0v0h0Zm.16-.62,0,0-.05.06-.06.07,0,0,.31-.32h0l0,0,0,0,0,0h0Zm-.17,1.71h0l0,0h0l0,0Zm.06-.71v0h0l0,0v0l.11-.12h0v0h0Zm0,.78h0Zm0-1h0Zm0,.19h0l0,0,0,0,0,0h0Zm0-1.34h0Zm.11.91,0,0,0,0,0,0,0,0,.15-.14h0Zm-.12,1.22h0Zm0-2.14h0Zm0,1.77h0s0,0,0,0h0Zm0,.23Zm0-1.14,0,0,0,0,0,0,0,0,0,0h0Zm.06-.93h0l0,0,0,0s0,0,0,0h0l0,0v0Zm0,1.88h0Zm.11-1.23,0,0,0,0,0,0h0l0,0,0-.05.06,0,.05,0,0,0,0,0,0,0,0,0,0,0h0l0,0,0,0-.05,0,0,.05,0,0Zm-.08,1.09h0Zm0-.77h0v0h0v0l0,0,0,0h0l0,0Zm0-1h0l.18-.18h-.07v0l0,0,0,0Zm0,1.44Zm0-1.42h0Zm0,.65h0Zm0-.82,0,0,0,0,.06-.06h0Zm0,1.33h0Zm0-1.19h0Zm0,.25h0v0h0l0,0Zm0,.58,0,0,0,0,0,0Zm0-.59Zm0,.61h0l.09-.09.08-.07.06-.07h0v0l0,0,0,0,0,0,0,0,0,0,0,.05,0,0-.06.06,0,0,0,0Zm0-.65h0v0h0Zm0,.69h0v0l0,0,0,0v0l-.07.08Zm0-.91,0,0,0,0h0l0,0,0,0,0,0Zm.09.12,0,0,0,0,0,0,0,0h0l0,0,0,0,0,0h0Zm-.09.82h0l.29-.33h0v0h0l0,0,0,0-.05.05,0,0,0,0,0,0h0Zm0,0h0Zm0-.74Zm0,.79h0l.3-.34h0l-.14.14,0,.05-.05,0,0,.05v0Zm0-.79,0,0,0,0,0,0v0h0Zm0,.54,0,0,.07-.07.06-.06,0,0h0v0h0Zm0,.27.32-.32h0l-.3.3h0Zm0,0,.26-.27,0,0-.28.3Zm.08-.7h0l0,0,0,0h0l0,0,0,0h0Zm-.07.74h0l.13-.14h0l-.14.14Zm0-1,0,0v0l0,0v0Zm0,.36.15-.14h0Zm0,.65h0l0,0,0,0,0,0,0,0h0v0l0,0,0,0Zm0-1.1,0,0h0Zm0,.21.07-.07h0Zm0-.27Zm0,1.19h0v0l.24-.26,0,0,0,0,0,0,0,0s0,0,0,0l-.05.05,0,0,0,0h0Zm0,0h0l.06-.06.26-.27h0l-.05.06a.6.6,0,0,0-.08.08l-.08.07-.05.06h0v0Zm0,.06h0l0,0,0-.06.06-.06,0,0v0h0l0,.06-.06.06-.07.07Zm0,0,.15-.15a.67.67,0,0,0,.14-.15l0,0v0l0,0-.29.3Zm0-1.19h0Zm.09.33,0,0,0,0,0,0,0,0,.12-.12h0Zm-.08.17,0,0,0,0,0,0,0,0h0v0l-.13.14Zm0,.75h0l.3-.34h0v0h0l-.25.29Zm0-1h0l0,0h0s0,0,0,0Zm0,1.09h0l0,0,0,0,0,0,0,0,.06-.06.06-.07,0,0h0v0h0v0l0,0,0,0h0l-.22.27Zm0,0h0l0,0,0,0,0,0,0,0-.11.12,0,0h0Zm0,0h0l0,0,0-.05.05,0,0,0,0,0,0,0,0,0,0,0h0l-.29.29Zm.17-.65,0,0,0,0,0,.05,0,0,.18-.18h0s0,0,0,0Zm-.15.72h0l0,0,0,0,0,0,0,0-.12.13Zm.11-.87,0,0,0,0,0,0,0,0,.13-.13h0Zm-.1.9,0,0,0,0Zm0-1.09h0Zm0,1.12h0v0l0,0Zm0,0h0l.32-.32h0l0,0h0l0,.05-.06.06-.06.06,0,0h0l0,0v0h0Zm0,.08h0l0,0,0,0,.05-.05,0,0,0,0,0,0,0,0,0,0,0,0s0,0,0,0h0l0,0h0l-.23.27h0Zm0,0h0l0,0v0l0,0,0,0,0,0,0,0Zm.07-.91v0l0,0,0,0,0,0h0l0,0h0v0h0Zm0,1h0l.34-.33h0l0,0h0l-.14.14Zm0,.05,0,0h0l0,0,0,0,0,0,0,0,0,0,0,0,0,0,0,0,0,0,0,0,0,0ZM45.7,42v0l0,0,0,0,0,0,.11-.12h0Zm-.08.91h0Zm0-1.17Zm.2.63,0,.05-.06.06-.06.07,0,0h0l0,0v0h0l0,0,.06-.06.06-.06,0,0h0Zm-.2.55h0l0,0,0,0,.28-.32h0l-.29.31,0,0Zm0,0Zm0,0Zm.2-.65,0,0-.06.06-.05.06,0,0,.21-.23h0Zm-.19.67h0l1.38-1.4.06-.07v0h0l-.63.63,0,0-.06.08-.07.07,0,0a.23.23,0,0,1-.07.07l-.08.07h0l0,0h0v.06h0l0,0,0,0,0,0,0,0,0,0-.07.07-.06.07,0,0h0Zm0,0h0Zm0,.06h0l0,0,0,0,0,0,0,0h0l-.06.06h0l0,0,0,0Zm0,0h0L45.8,43l.06-.06.06-.05v0l0,0,0,0h0l.43-.51-.7.7h0v0Zm0-.47h0Zm0,.5h0Zm0-1.19s0,0,0,0h0Zm0,1.24h0Zm0-1.13h0Zm0,1.16,0,0,0,0,0,0,0,0h0l.68-.71,0,0h0v0h0l0,0-.07.06-.07.08-.08.08-.06.06,0,0h0l0,0,0,0h0l0,0,0,0,0,.05,0,0-.05,0,0,0,0,0,0,0,0,0Zm0-.7.09-.08h0Zm0,.71h0Zm0-1h0v0h0Zm0,1.08h0v0h0l0,0Zm0,0,0,0L46,43h0l0,0,0,0,0,0,0,0-.06.07-.05.06,0,0h0Zm0-.24h0l0,0h0v0h0Zm0-1h0Zm0,1.24v0l0,0Zm0-1.22Zm0,1.09h0l0,0,.06-.06A.46.46,0,0,1,46,43l.06-.07.06-.07,0,0h0l-.29.29s0,0,0,0l0,0Zm0,.16h0v0l0,0,0,0v0a.08.08,0,0,1,0,0l0,.05h0Zm0-1.19h0Zm0,1.2a0,0,0,0,0,0,0h0Zm0-1.15h0Zm0,.31h0l0,0,.05-.05h-.06S45.85,42.49,45.85,42.5Zm0,.84h0v0h0l0,0,0,0,0,0,0,0,0,0,.05,0,0,0,0,0,0,0,0,0,.05,0,0,0,0,0,0-.05,0,0v0l0,0,0,0-.06.05,0,0,0,0-.05.05-.07.06-.06.06-.05.06,0,0v0l0,0,0,0h0l0,0,0,0Zm0-1.12Zm0,.38h0l.1-.11h0l0,0,0,0,0,0Zm0,.73H46v0l0,0,0,0,0,0,0,0L46,43.2l-.09.1h0v0Zm.13-.66,0,0,0,0,0,0,0,0,0,0,0,0,.06,0,.07-.07.08-.08.08-.08.06-.06v0l0,0,0,0h0l0,0-.06.06-.07.07-.07.06-.06.06Zm-.11.54h0Zm0-.41v0h0l.1-.11,0,0Zm0-.47Zm0,.05h0Zm0,0Zm0,.92h0l0,0,.06-.06.05-.06,0,0Zm0-.72,0,0h0l0,0h0Zm.26.18,0,0,0,0,0,.06L46,43l0,.05,0,0,.46-.49h0v0h0l0,0-.05,0,0,0Zm-.22.54h0Zm0,0,.13-.14-.07.06-.06.08Zm.2-.2,0,0,0,0,0,0,0,0,0,0,0,0h0l0,0,.05,0,0-.06.06-.06,0-.05,0,0h0v0l0,0,0,0Zm-.14-.66Zm0,0h0l.5-.52,0-.06h0l0,0,0,0,0,0h0l-.36.38h0v0h0v0Zm0,.9,0,0h0Zm0-1h0l.14-.14h0l0,0,0,0,0,0,0,0Zm0,.1h0l0,0,.12-.12v0l0,0,0,0h0Zm0-.17h0Zm0,.7.06-.06a.71.71,0,0,1,.09-.07l.08-.08.06-.06h0l0,0,0,0,0,0v0l0,0,0,.05,0,0,0,0Zm.12.17,0,0,0,0,0,0,0,0h0l0,0,0,0h0s0,0,0,0l0,0,0,0h0l0,0Zm-.09-.25h0l0,0h0l0,0,.05,0,0,0,0,0v0h0l0,0v0h0l0,0,0,0,0,0Zm0-.67h0Zm0,1.13h0v0h0l0,0Zm0-.54.21-.21v0l0,0Zm0-.62h0l.13-.12.75-.8v0l0,0,0,0-.83.86Zm0,0,.53-.55-.11.09-.31.31-.1.12h0Zm0,.34h0l.07-.08h0Zm0,.86h0Zm0-.12h0v0h0l.06-.06h0Zm0-.67h0v0l0,0h0l.15-.15h0l0,0,0,0Zm0-.5Zm0,0,.25-.26-.25.25Zm0-.06,0,0,0,0h0v0Zm0,1.07.09-.08v0h0l-.1.1Zm0,.14h0Zm0-1.28h0v0l0,0h0l0,0h0v0Zm0,.61,0,0,0,0,0,0,0,0h0v0l0,0,0,0,0,0h0l0,0v0l0,0,0,0h0l0,.05-.05.06,0,.05,0,0Zm0-.67h0Zm0,1.23h0Zm0-.45h0v0h0l0,0,0,0,0,0,0,0,0,0,0,0h0l0,0,0,0,0,0,0,0v0l0,0,0,0Zm0,.39h0Zm0-.66.3-.3,0-.05,0,0-.29.3Zm0-.48.11-.09.61-.64H47l-.56.58Zm0-.1h0l0,0,0,0,0,0A0,0,0,0,0,46.34,41.74Zm0,0h0Zm0-.07h.09l.05-.06.07-.07.07-.06s0,0,0,0l.06-.07.08-.09.08-.09.08-.08L47,41l0,0h0Zm0,0L47,41h0l-.6.64Zm0,1h0l0,0,0,0h0l0,0Zm0,.14Zm0,0Zm0-.15h0l0,0h0v0h0Zm0-.24,0,0a0,0,0,0,0,0,0l.09-.09h0v0Zm0-.85h0l0,0h0l0,0Zm0,0h0Zm0,1h.05l0,0,0,0h0Zm0-1.08h0v0h0l0,0,0,0,0,0,0,0h0l0,0,0,0h0l0,0s0,0,0,0Zm0,1.17h0Zm.19-.62,0,0-.05.06,0,0,0,0h0l.22-.2h0v0h0l0,0,0,0,0,0Zm-.17.56h0Zm.07-.19,0,0v0l0,0h0v0s0,0,0,0Zm0-1h0l0,0,0,0,0,0,0,0,.06-.07.05-.07,0,0,0,0,0,0,0,0-.06.06-.07.07Zm0,0h0Zm0,1.19h0Zm0-.64Zm0,.59h0Zm.25-.85a.23.23,0,0,0,0,0,.46.46,0,0,0-.07.07l-.07.08-.05.05,0,0,0,0,0,0v0l0,0,.06-.06.05-.06,0,0h0Zm-.21-.36Zm0,.45h0l.39-.4h0l-.41.41Zm0,.57h0l0,0s0,0,0,0v0l-.07.07Zm0-1.11,0,0,0,0,0,0,0,0Zm.05,1h0l0,0v0h.06l0,0h0l0,0h0l0,0,0,0Zm-.05.22h0Zm.05-.16h0l0,0h0Zm0,.08h0Zm0-1.21h0Zm0,.78h0l0,0h0l0,0h0l0,0,0,0,0,0,0,0,0,0,0,0,0,.05Zm0-.75h0l.12-.12h0v0l0,0,0,0Zm0,.42Zm0,0Zm0-.07h0l0,0h0v0Zm0-.44,0,0h0Zm.2.06,0,0-.05.06-.06.06,0,0h0v0h0l0,0,0,0,0,0,0,0,0,0,0,0,0,0Zm-.18,1.07h0Zm0-1.13,0,0h0Zm.06.38h0v0l0,0h0l0,0h0Zm0-.38h0l0,0v0h0l.08-.08h0Zm0,.11h0l.1-.1h0Zm0,.24h0Zm0,.61h0l0,0,0,0,0,0a.13.13,0,0,1,0-.06l.08-.09.08-.09.05-.06h-.05l0,0,0,0,0,.05-.06,0,0,.06,0,0,0,0,0,0,0,0h0Zm.11-.28h0l0,0,0,0h0l0,0,0,0,0,0Zm-.1,0,.29-.29v0h0v0l0,0h0v0h0v0h0l-.25.29Zm0,.34h0l.32-.32v0l0,0h0s0,0,0,0,0,0,0,0h-.06l0,0,0,0-.05.06-.06.06,0,0,0,0h0l0,0,0,0h0Zm0,0,.06-.07,0,0s0,0,0,0h0Zm.14-.83h0l0,0,0,0,0,0,0,0h0l0,0,0,0,0,0Zm-.13.88,0,0,0-.06L46.9,42l.06-.06.06-.06,0,0,0,0,0,0h0v0h0l0,0,0,0,0,0,0,0,0,0h0l0,0,0,.05,0,0,0,0h0Zm0-.37,0,0,.29-.29,0,0H47l0,0h0v0h0l0,0v0h0l0,.05,0,.06,0,.05,0,0Zm0,.46h0l0,0,.06-.06,0-.07,0,0,.14-.14,0,0h0l0,0h0l0,0,0,.05-.05,0,0,0-.06.07-.06.07-.06.06,0,0Zm0-1.21,0,0h0l0,0Zm0,1.24,0,0h0Zm0-.7h.06l.06-.06.07-.07.06-.07,0,0,0,0h0Zm0,.72h0L47,42l0,0,0,0,0,0v0h0l-.37.38h0Zm0-.21Zm0,.29.36-.36,0,0-.38.38Zm0,0,.31-.33,0,0-.33.34Zm0,.07h0v0l0,0,0,0,0,0-.1.1Zm0,0h0Zm0,.08,0,0,0,0h0l0,0,0,0h0l0,0h0Zm0,0h0v0l.36-.4h0l-.36.39Zm0,.06,0,0h0Zm0,.06.38-.39h0l0,0-.05.05,0,0,0,0-.06.06-.06.07-.08.09Zm0,.1h0l.35-.38,0,0h0l0,0,0,0,0,0,0,0,0,0a.23.23,0,0,0,0,.05l-.07.07-.07.08,0,0h0Zm0,0h0l.39-.39v0l-.39.39h0Zm0,0,0,0h0Zm0,0Zm0-.16h0v0l0,0,.05-.05,0-.06,0,0h0a.94.94,0,0,1-.1.1Zm0,.18h0l0,0,0,0,.06-.06,0-.06,0,0-.1.09-.1.09v0Zm0-1.45.19-.19h0Zm0,1.52,0,0,0,0,.05,0,0,0,0,0,0,0,.05-.05,0,0,0,0,0,0h0v0h-.09l0,0,0,0,0,0,0,0,0,0-.06.06-.05.06,0,.05,0,0h0Zm0-.77L47,42l.15-.16h-.05l0,0,0,0,0,0,0,0,0,0,0,0,0,.05,0,0Zm0,.84.17-.19-.17.17Zm0,.06h0v0h0l0,0,.06-.06.06-.07,0,0h0l-.22.22h0Zm0,.09Zm0-2.1,0,0h0Zm0,2.08h0l0,0L47,43l.06-.07,0,0,0,0,0,0,0,0,0,0h0l0,0,0,0v0h0l-.38.37s0,0,0,0l0,0Zm0,.06.41-.41h0l-.41.4h0Zm0,0,.31-.32h0l0,0,0,0,0,0h0l0,0,0,0-.05.06,0,0v0h0Zm0,0,0,0,0,0,0,0h-.06Zm0,0,.41-.42h0l-.4.4h0Zm0,0h0l0,0,0,0,0,0v0l-.09.09Zm0,.05h0l.27-.29-.23.23,0,0Zm0,.07.08-.09-.08.08Zm0,0h0l0,0,0,0h0l0,0v0l-.1.09Zm0,0Zm.17-1.34a.09.09,0,0,1,0,0l-.05.05-.06.06,0,0h0l0,0,0,0,0,0,0,0h0l0,0v0h0v0l0,0h0l0,0Zm-.17-.25,0,0,0,0,0,0,0,0v0l0,0-.16.17Zm0,1.48.4-.4h0l-.38.4Zm0-2.38h0Zm0,2.47h0l0,0,0,0,0,0,0,0-.09.09h0Zm.16-.15,0,0,0,0,0,0,0,0h0v0h0l0,0,0,0,.06-.05,0-.06,0-.05,0,0,0,0,0,0,0,.05ZM47,41h0l0,0,0,0h0ZM47,41l0,0,0,0,0,0h0l0,0,0,0v0h0ZM47,42.67l.22-.21h0v0h0Zm0-1.16h0l0,0,0,0h0v0h0v0Zm.08,1.22,0,0,0,0,0,0,0,0,.23-.22h0l0,0,0,0-.05,0Zm.12.23-.05,0-.06.07-.07.08-.05.05h0l.27-.27h0l-.05,0Zm0,.3,0,0,0,.06-.06.07,0,0h0l0,0h0v0l0,0,.05,0,0,0,0,0,0,0a.1.1,0,0,0,0-.05v0h0l0,0,0,0,0,0Zm-.15-2h0l0,0h0Zm.14,1,0,0,0,0,0,0,0,0,.17-.18h0ZM47,41.09h0Zm.1.93,0,0,0,0,0,0,0,0,.13-.13h0Zm-.09.25Zm0-1.21Zm0,1.19h0Zm.12-.14,0,0,0,0,0,0,0,0,0,0,0,0v0l0,0,0,0,0,0h0Zm-.11,1.34h0v0h0Zm0-2.26h0Zm0,.08Zm.08,1.87h0l0,0,0,0h0l0,0,0,0,0,0Zm-.08-1.79h0Zm0,0h0Zm0,1.07h0l.12-.11h0Zm0-.9h0Zm0,.4Zm0,1.48h0l.2-.21v0l0,0,0,.05-.05,0,0,0,0,0Zm0-1.58h0v0h0l0,0h0Zm0-.26Zm0,1.86h0v0l0,0,0,0,0,0v0Zm0-1.72h0Zm.07,1v0l0,0,0,0h0l0,0,.05-.06h0v0h0Zm.07.3,0,0,0,0s0,0,0,0l0,0,0,0,0,0,0,0,0,0h0v0h0Zm-.08-.64v0h0v0h0l.06-.07h0Zm0-.43h0Zm0,.31h0Zm0-.06,0,0h0Zm0,0h0Zm0-.22Zm0,1.08Zm0-.41h0l0,0h0l0,0v0l0,0Zm0-.1.05-.05h0Zm0-.16h0Zm0,1h0Zm.09-.12,0,0,0,0,0,0v0h0l0,0h0l0,0h0Zm-.07,0Zm0-.51h0l0,0h0Zm0,.48h0Zm0-.38h0Zm0-.15Zm0,.63a0,0,0,0,0,0,0v0h0Zm0-.53Zm0,.37,0,0,0,0,0,0v0Zm0-.15h0Zm0,0h0Zm0,.28,0,0h0Zm0,0,0,0a0,0,0,0,0,0,0h0Zm0,0h0Z"/><path class="cls-9" d="M49.07,43.52l0-.07s0,0,0-.06a.56.56,0,0,0,0-.12l0-.12h0l0-.06,0-.06v-.09h-.79V43l0,.07s0,0,0,.06h0v0l0,.09,0,.11a.46.46,0,0,1,0,.09v0h-.1l0,0,0,0-.06,0-.07,0,0,0h-.08v-.09l0-.05v0h0v0h0v0h0v0h0v0h0v0h0v0l0,0,0-.05v0a0,0,0,0,1,0,0l0,0v0h0l0-.1.06-.2h0l.06-.19.13-.36v0h0v0h0v0a314698590945.13,314698590945.13,0,0,1,0-.08v0h0v0h0l0-.08a.19.19,0,0,0,0-.08h0v0l0-.05,0,0v0s0,0,0,0,0,0,0,0h.47l.8,2.35s0,0,0,0l-.26.1h0l0,0h0l0,0Zm-1.59-.18.75-.75h0v0l0,0h0l0,0v0l-.83.84Zm0-.07h0l.24-.26,0,0-.26.27Zm0,.07h0l0,0,0,0,0,0,0,0h0v0l0,0,0,0,0,0Zm0-.11.62-.66-.62.65Zm0,0v0h0Zm0-.06h0v0h0l0,0,0,0h-.06Zm0,.23h0l.08-.08h0l0,0,0,0h0Zm0-.29.36-.34,0,0,0-.06,0-.06,0,0h0l0,0,0,0,0,0h0l0,0s0,0,0,0h0v0h0l-.65.67h0Zm.07,0h0l0,0,0,0h.06v0h0l0,0,0,0h0v0l0,0v0h0l0,0-.05.05,0,0Zm0,.35,0,0h0l0,0,0,0Zm0-.37.26-.28-.23.23Zm0-.06Zm0,0h0l0,0,.64-.65h0v0h0l-.44.44a1.59,1.59,0,0,1-.13.13l-.14.14h0Zm0,.48.09-.09.07-.09-.15.16h0Zm0,0Zm0-.57Zm0,0h0l.41-.44-.36.35h0l0,0v0h0Zm0,.56h0L48,43h0v0h0l-.37.37Zm0-.18h0v0h0l0,0h0l0,0,0,0h0l0,0,0,0Zm0,.21h0v0Zm0-.66h0Zm0,0h0Zm0,.72h.06v0h0Zm0-.74h0l.67-.71h0v0l-.67.67h0v0h0v0Zm0,.75h0l0,0,0,0,0,0,0,0h0l-.17.18Zm0-.88,0,0h0a0,0,0,0,0,0,0Zm0,.89h0l0,0,0,0,.05-.05,0,0,0,0,0,0Zm.06-1,0,0h0Zm0,.86.25-.26h0Zm0,.13h0v0h0l0,0Zm0-1,.12-.11h0v0h0l0,0,0,0,0,0Zm0,0,.07-.06,0,0,0,0Zm0,1.1s0,0,0,0,0,0,0,0l-.08.07Zm0-1.17,0,0,0-.05h0l-.07.07h0Zm0,1.17h0v0h0l0,0Zm0-1.24Zm0,.93.22-.22h0Zm0,.24.11-.11h0l0,0,0,0,0,0v0ZM48,42.12l0,0,0,.05,0,0,0,0h0l0,0h0v0h0l.86-.88h0s0,0,0,0l0,0,0,.06-.07.06-.06.07,0,0,0,0,0,0-.05.06s0,0,0,0l0,0,0,0,0,0-.06.06-.05,0,0,.05,0,0h0l0,0,0,0Zm-.16.07h0l.71-.71.13-.15h0l-.55.5-.25.28,0,0,0,0Zm0,1.28h0Zm0-.7h0l0,0h0Zm0,.71Zm0-.26h0Zm.05-.93h0v0l0,0h0l0,0,0,0,0,0,0,0v0l0,0,0,0,0,0Zm-.05-.23Zm0,0L48,42l0,0a0,0,0,0,0,0,0l0,0s0,0,0,0Zm0,1.36h0Zm0-1.41.81-.82s0,0,0,0l-.81.81h0Zm0,1,.49-.49h0v0h0Zm0-.08Zm0-1h0l.51-.5,0,0-.46.45-.07.08Zm0,.25,0,0,.23-.24Zm.05,1h0l0,0h0Zm.07-.35h0l0,0,0,0,0,0,0,0h0l0,0,0,0,0,0Zm-.08-1h0l0,0,0,0v0l0,0,.06-.07.08-.08.07-.08.07-.07,0,0h0l0,0,0,0,0,0,0,0v0l0,0,0,0,0,0,0,0h0l-.69.72h0Zm0,.4v0h0L48.2,42h0l0,0,0,0,0,0-.05,0Zm0,0h0l0,0,0,0h0l.32-.33-.14.13Zm-.06.56.31-.31h0Zm0-.36.18-.17.17-.18h0l-.32.32Zm0-.7h0Zm0,1.37Zm0-.47h0l0,0,0,0,0,0,0,0,0,0,0,0,0,0v0h0l0,0,0,0,0,0h0l0,0,0,0,0,0Zm0-.93v0l0,0,0,0,0,0h0v0h0s0,0,0,0l0,0,0,0a.08.08,0,0,0,0,0Zm0-.1h0l0,0,0,0,0,0,0,0,0,0,0,0,0,0,0,0h0v0h0Zm0,1.1.22-.22h0Zm0,.21h0l.08-.08h0l0,0,0,0Zm0-1.45h0l.08-.08h0l0,0h0Zm0,.37v0l0,0h0l0,0h0v0Zm0,1.09h0v0Zm0-1.15h0l0,0h0v0Zm0-.11.49-.46v0l0,0h0v0h0l-.54.55Zm0-.28h0l.3-.33,0,0,0,0,0,0,0,0-.06.07-.06.07,0,0h0l0,0,0,0h0Zm0,1.35h0Zm0-1.22h0v0h0v0h0l0,0,0,0v0h0v0h0Zm0-.2h0l.06-.07.08-.09.06-.06,0,0v0l-.12.12-.12.13v0Zm0,1.61h0l.35-.35h0l0,0,0,0,0,0,0,0v0Zm0-1.34Zm0,1.12Zm0-1.13.34-.36h0l0,0,0,0,0,0h0v0h0l0,.06-.07.07,0,.06,0,0Zm.06-.2h0l0,0,0,0h0l.26-.25h0l0,0,0,0,0,0h0l0,0h0Zm0,1.55h0l0,0,0,0h0Zm0-.43h0l0,0h0v0l0,0Zm0-1.2h0v0l0,0h0l0,0,0,0,0,0,0,0h0v0l0,0,0,0Zm0-.16h0l0,0,0,0h0v0h0l0,0v0h0Zm0,.33,0,0,0,0,0,0,0,0v0h0l0,0,0-.05,0,0,0,0-.09.08a.6.6,0,0,1-.08.08l0,0,0,0,0,0,0,0Zm0,.81,0,0,0,0,0,0,0,0,0,0,0,0Zm0,.65h0l.37-.41h-.05Zm0-1.88,0,0h0Zm0,1.3,0,0,0,0Zm0-.06,0,0h0l.07-.07h0Zm0,.18h.42s0,0,0,0a.11.11,0,0,0,0,0l0-.05s0,0,0,0l0-.09a.41.41,0,0,0,0-.08V42s0,0,0,0,0,0,0-.07a.14.14,0,0,1,0-.06h0V41.8l0,0-.17.54v0s0,0,0,0h0v0h0Zm0,.46h0Zm0-1.9h0a0,0,0,0,0,0,0Zm.09.54v0l0,0,0,0,0,0,.36-.36h0l0,0-.05,0-.07.07a.46.46,0,0,1-.07.07Zm0-.33h0v0h0v0Zm0,.78h0l0,0,0,0,0,0h0Zm.09,0,0,0,0,0,0,0,0,0,.09-.09v0h0Zm-.09.71a.94.94,0,0,1,.1-.1l.1-.1ZM48.35,41h0l0,0v0l.06-.07h0Zm-.05,1.53h0Zm0-1.5,0,0h0Zm0,.9,0,0,0,0h0Zm0,1h0v0h0v0l.08-.1.09-.09,0,0,0,0,0,0,0,0,0,0,0,0,0,0Zm.06-1.73s0,0,0,0h0v0h0v0h0Zm0,1.51h0Zm0-.21Zm.07.15h0l0,0,0,0h0l0,0Zm.05-1.6,0,0,0,0,0,0,0,0,.13-.13h0Zm-.1,1.88.34-.35,0,0-.38.39ZM48.51,41s0,0,0,0l0,.05-.05,0,0,0,.16-.15h0Zm-.12,1.9h0v0h0l.59-.59h0v0h0l-.6.62Zm0-1.08h0Zm0,1v0h0l.33-.35h0l0,0-.06.06-.06.06,0,0h0v0l0,0,0,0h0Zm0-.29v0h0l.08-.08h-.05Zm0,.08Zm0-1.45h0l0,0,0,0,0,0h0Zm0,1.76h0l0-.06,0-.05.05,0h0v0l0,0h0Zm0-.44Zm0,.4.4-.4-.37.37Zm0-1.17.33-.33v0s0,0,0,0Zm0,.07s0,0,0,0Zm0,1.13h0Zm0-1.17.14-.16-.15.15h0Zm0-.26,0,0h0l.08-.08.07-.09Zm0,.29h0l.28-.28,0,0h0l-.32.31Zm0,1.15h0l.56-.6h0l0,0Zm0-1.13h0Zm0,0h0l0,0,0,0,0,0,0,0-.13.13Zm0-.06h0Zm0-.71,0,0a0,0,0,0,0,0,0h0v0Zm0,.85,0,0,0,0,0,0Zm.08-.11h0l0,0,0,0h0v0l0,0,0,0Zm0-.74,0,0,0,0h0l0,0,0,0h0Zm0,.63v0l0,0,0,0h0l.29-.29h0l-.05,0-.07.07-.06.08Zm-.06,1.23h0v0l0,0,0,0h0l.45-.47h0l-.57.59Zm0-.94h0l0,0,0,0,0,0,0,0h0l0,0,0,0,0,0,0,0h0Zm0,.64,0,0,0,0,.06-.06.06,0,0,0,0,0,0,0,0,0A.46.46,0,0,1,49,42.2l0-.05h0l-.31.31h0Zm0-.7h0l0,0h0l0,0,0-.06.05-.05,0,0h0l-.05.05,0,.06-.07.07Zm0,.06h0v0Zm0,.5Zm0-.43h0l.3-.34h0v0l0,0h0l0,.05-.07.07-.07.08,0,0Zm0-1v0h0Zm0,1.07.16-.16.15-.16h0l0,0h0l0,0,0,0,0,0,0,0,0,0,0,0-.05,0,0,0v0h0Zm0,.41s0,0,0,0l0,0,.06-.07h0Zm0-.39Zm.17.61,0,0,0,.06-.06,0,0,0h0v0h0l0,0,.07-.07.07-.07,0,0,0,0,0,0,0,0Zm-.16-.58h0l0,0,.06-.07L48.8,42l0,0h0l0,0,0,0h0l0,0h0l0,0,0,0,0,0,0,0,0,.06-.06.07-.06.07Zm.28-.41,0,0,0,0,0,.06-.06.07-.05,0,0,0h0l0,0,0,0h0l0,0,0,0,.05,0,0,0,0,0,0,0h0l0,0Zm-.28.44,0,0s0,0,0,0l0,0Zm0,0h0l0,0,0,0,0,0,0,0-.11.12Zm.06-1.14h0l0,0h0l0,0h0v0Zm-.05,1.85h0l0,0,0,0,0,0,0,0,.06-.05.07-.07.06-.07,0,0,0,0,0,0s0,0,0,0H49.1Zm0-.64h0l0,0,0,0,.05,0,0,0,0-.05,0,0,0,0,0,0,0,0,0,0,0,0,0,0,0,0,0,0h0Zm0,0h0Zm0,0,.14-.14.13-.14-.27.27Zm.11-.91,0,0,0,0,0,0,0,0,.14-.14h0l0,0Zm-.1.94,0,0h0l0,0,0,0,0,0,0,0h0l0,0,0,0,0,0,0,0h0Zm0,.09h0s0,0,0,0Zm0-1.17h0v0l0,0h0v0Zm0,1h0l0,0h0v0l0,0,0,0,.07-.08L49,42l0-.05h0Zm0,.13h0l0,0,0,0,0,0,0,0h0v0h0l0,0,0,0,0,0v0l0,0,0,0h0Zm0,.51h0Zm.08-1.63h0l0,0,0,0,0,0,.08-.07v0Zm-.05-.15h0Zm0,.94,0,0,0-.05.05,0,0,0h0v0h0v0h0l0,0,0,0,0,0,0,0,0,0,0,0,0,0h0Zm0-.87h0s0,0,0,0h0Zm0,.09h.05Zm0,.13h0v0h0l.09-.09h0v0Zm.08.08,0,0,0,0,0,.05,0,0,.13-.13h0Zm-.11.18h.06l0,0,0,0h0v0h0Zm0,1.23h0l.05,0h0l0,0,0,0,0,0,0,0,0,0,0-.05,0,0,0,0,.05,0,0-.05,0,0h0l0,0,0,0,0,0,0,0,0,0,0,0-.05.05,0,0,0,0,0,0,0,0Zm.08-1.17,0,0,0,0,0,0v0l.07-.08a.27.27,0,0,0,.07-.08h0l0,0h0Zm-.08-.53Zm.07,1.22h0l0,0,0,0h0v0l0,0Zm0,.42Zm0-.77.2-.21h0l0,0-.06.07-.07.07Zm0,.84Zm0-.1h0Zm0,.09h0v0h0l0,0,0,0,0,0v0l-.12.13h0Zm0-1.25h0l0,0h0Zm0,.05.07-.07v0Zm0,1.21h0l0,0,0,0,0,0,0,0,0,0,0,0,.05-.05,0,0,0,0v0l0,0h0v0h0v0h0Zm0-.45h0v0h0l0,0,.05,0,0,0,0,0h0v0h0l0,0,0,0,0,0Zm0-1h0Zm0,.06Zm0,.35h0l.1-.11h0l0,0Zm0,1h0l.27-.27v0l0,0-.31.32Zm0-.74A.46.46,0,0,0,49,42.1.46.46,0,0,1,49,42h0l-.13.13Zm0,.79h0v0h0l0,0,0,0,0,0,0,0L48.9,43Zm0,0Zm0-1.33h0Zm0,1.36,0,0,0,0Zm0-1.27h0Zm0,1.3.33-.34h0l-.05,0-.07.07-.07.07L49,43h0v0h0v0l0,0,0,0Zm0-.81h0v0h0v0Zm0,.88h0l0,0,0,0h0l0,0,0,0,0-.06,0-.06,0,0,0,0v0h0l0,0,0,0,0,0h0l0,0,0,0,0,.05,0,.06,0,0,0,0Zm0,0h0l0,0,0,0,0,0,0,0A.17.17,0,0,0,49,43l-.06.07Zm0,.06v0h0l.34-.34h0l0,0-.06.05,0,0,0,0-.05.05Zm0,.07h0l0,0,0-.05,0,0,0,0,0,0,0,0,0,0,0,0h0Zm0,0h0Zm0-1.12h0v0h0l0,0v0h0v0h0Zm0,.09h0v0h0l0,0,0,0h0v0h0Zm0,.73.26-.27h0Zm0,.31h0l0,0s0,0,0,0l.26-.29h0l-.31.32h0Zm0,0Zm0-1.06h0l0,0,0,0H49Zm0,.19.12-.12h0ZM49,42h0v0Zm0,1.31h0ZM49,42Zm0,1.38h0l0,0v0h0l-.07.08Zm0,0h0l0,0,0,0,0,0,0,0,0,0,.05,0,0-.06,0,0h0l-.3.32h0Zm0-.46.21-.22h0v0h0l0,0-.06.06,0,.05,0,0Zm0,.55,0,0,0,0,0-.06.08-.08.07-.08,0,0h0l0,0,0,0-.05,0,0,.06-.05.06,0,0h0v0Zm0-1.3h0Zm0,1.34h0l0,0,0,0,0,0,0,0,0,0,0-.06.06-.06,0,0a0,0,0,0,0,0,0l-.16.16a1.22,1.22,0,0,0-.15.17s0,0,0,0v0Zm0,0h0a0,0,0,0,0,0,0Zm0-1.27v0h0l0,0Zm.12.51,0,0,0,0,0,0,0,0h0l0,0,0,0,0,0h0l0,0Zm-.11.55Zm0,.21h0v0h0v0Zm0-1.23h0Zm0,.13h0Zm0,.13h0s0,0,0,0Zm0,.93h0l0,0,.19-.23h0l0,0,0,0h0v0h0l0,0,0,0,0,0Zm0-1h0Zm0,.12h0s0,0,0,0l0,0Zm0,0h0Zm0,.38h0s0,0,0,0l0,0s0,0,0,0h0Zm.09,0,0,0,0,0,0,0,0,0,.11-.12h0Zm0,.42.15-.16h0l0,0,0,.05,0,0h0Zm0-.63h0Zm0,.74h0v0h0Zm0-.67h0Zm0,0Zm0,.16h0v0h0l.05-.05h0Zm0,.46h0l0,0h0Zm.06-.39h0v0h0l0,0h0Zm0,.1.06-.06h0Zm.05.27,0,0h0v0h0l0,0h0Zm0-.08.06-.06h0Zm0-.1h0l0,0Zm0,0h0Zm0,.12h0Zm0,.07h0a0,0,0,0,0,0,0Z"/><path class="cls-9" d="M50.26,41.55v1.19s0,.07,0,.08v.62h-.5v0h0v-1.9h-.46v0h0V41h1.41v.47h-.46v.06Zm-.93-.41h0Zm0,.26h0l0,0,0,0L49.7,41h0l-.08.09-.1.08-.09.09-.08.09Zm0-.18h0l0,0,0,0,0,0h0l0,0,0,0,0,0h0Zm0,.25h0v0h0Zm0-.42h0Zm0,.23.19-.23h0v0h0l0,0,0,.05,0,0v0Zm0-.16h0v0h0l0,0Zm0,.2.28-.28h0l0,0s0,0-.06.06l-.08.08-.06.07s0,0,0,0Zm0,0h0Zm0,.13h0v0h0s0,0,0,0Zm0,.06h0l0,0,0,0,0,0,0,0-.13.13h0Zm0-.42h0Zm0,0h0Zm.06,0v0l0,0h0l0,0,0,0h0l0,0h0Zm-.05.42h0v0l0,0Zm0-.24h0a0,0,0,0,0,0,0Zm0-.19v0h0l0,0h0Zm0,.31Zm0,.12.39-.43h0s0,0,0,0l-.36.39Zm0-.25,0,0,0,0,0,0,0,0,0,0,0,0h0Zm.08.22s0,0,0,0h0l0,0,0-.05h0l0,0,0,0Zm0-.14h0Zm0,.16h0l0,0,0,0,.05,0,0-.06.06-.06.06-.07.13-.14h0v0l0,0-.31.31,0,0h0Zm0-.21h0Zm0,.22h0l.36-.36h0v0h0l-.42.42Zm0-.25,0,0,0,0,0,0,0,0,0,0,0,0h0Zm0,.25h0l.39-.39h0l-.06,0-.05.06Zm0,0h0v0h0l0,0Zm0-.39,0,0v0s0,0,0,0l0,0h0Zm0,.4h0Zm0-.22h0l0,0,.05,0,0,0,0,0h0v0h0l0,0,0,0,0,0,0,0h0v0Zm0,.23h.06v0h0l0,0h0l0,0,0,0,0,0v0l0,0,0,0,0-.05.05,0,0,0,0,0h0l-.32.31h0v0h0l0,0S49.68,41.46,49.67,41.47Zm.14-.4h0l0,0,0,0v0l.12-.12h0Zm-.07.36h0l0,0,0,0,.05-.05,0,0,0,0,.05,0,0-.05,0,0h0l0,0-.06.05-.06.07-.06.06h0l0,0,0,0,0,0h0Zm0,0h0l.18-.2-.2.2Zm.06,1.6h0l0,0,0,0,0,0,0,0-.14.14Zm0-.33Zm0-.22h0Zm0-1,.33-.34.05-.06-.38.39h0Zm0,1h0l.42-.43h0v0h0l-.45.45h0Zm0,.28.45-.46h0l-.44.46Zm0-.15,0,0,0,0,0,0,0,0,0,0h-.06l0,0v0h0Zm0,0h0l0,0,0,0,0,0h0l0,0v0h0l-.13.14Zm0,.2h0l0,0,.05-.06,0-.06.06-.06,0-.06,0,0,0,0,0,0,0,.06-.05.05,0,0,0,0v0h0v0Zm0-.3h0l0,0h0Zm0,.25,0,0h0v0Zm0,.49.45-.46v0h0l0,0,0,0-.06.06L50,43l-.05,0,0,.06-.06.08,0,.06s0,0,0,0Zm0-.4h0Zm0,.49h0l0,0,0,0v0s0,0,.05,0l.06-.06.06-.06.06-.07.14-.15h0l-.45.45h0Zm0-.41v0h0v0h0l-.05,0Zm0,0,0,0h0Zm0,.11h0l0,0,0,0,0,0,0,0-.08.08Zm0,.08h0l0,0,0,0,0,0,0,0h0l-.15.15h0Zm0,0h0l0,0,0,0Zm0,.09h0Zm0,.07h0Zm0-1.63Zm0,.16Zm0,.08h0l0,0,0,0h0l0,0,.06-.06.06-.06,0,0v0l0,0,0,0h0l0,0,0,0,0,0,0,0h0l0,0,0,0,.34-.35,0,0h-.06l0,0,0,0,0,0h0l-.73.75v0h0Zm0-.1h0l0,0h0l.75-.76h0l-.5.5,0,0,0,0,0,0,0,0,0,0,0,0,0,0h0l-.06,0-.05.06h0Zm0-.17h.05l.58-.61h0l-.55.55h0v0h0v0Zm0,.09h0l0,0h0l0,0,0,0h0l0,0,.06-.06.07-.07.07-.07.06-.06,0,0h0l-.41.39,0,0v0Zm0-.26h0l0,0,0,0,0,0,0,0-.14.14Zm0,.09.05-.05-.05,0Zm0,.14h0v0h0l-.05,0Zm0,.4.05-.06.09-.08.08-.08.05-.05,0,0,0,0,0,0,0,0h0l-.42.42Zm0,.11.4-.4,0,0h0v0h0l-.41.43Zm0-.19,0,0,0,0,0,0,.06-.07.06-.06,0,0,0,0-.24.25h0Zm0-.26h0Zm0,.3h0l0,0h0l0,0,0,0,0,0,0,0-.15.15Zm0-.1,0,0,0,0H49.8v0Zm0,0h0Zm0,.44h0l0,0,0-.06,0,0,.05-.06.13-.14,0,0-.35.37Zm0-.29h0Zm0,.1s0,0,0,0l.05-.05h0l0,0,0,0h0Zm0,.15.06-.06,0,0-.11.11Zm0,.5s0,0,0,0l.06,0,0,0,0,0,.06-.05.08-.07.07-.08.06,0v0h0Zm0-.21h0l.11-.1,0,0,0,0,0,0h0l-.11.1a.47.47,0,0,0-.1.1h0Zm0-.37h0l.44-.45h0l-.43.43h0Zm0,.74h0l.19-.19-.18.16h0Zm0-1.22v0h0l.28-.3-.24.25h0Zm0,.28h.05l0,0,0,0h0l0,0h0l0,0,.05-.05,0-.06,0,0Zm0,1.25h0l.17-.18,0,0,0,0,0,0,0,0h0Zm0-1.1Zm0-.78h0l.46-.48h0Zm.12.89,0,0,0,0,0,0,0,0h0l.41-.43h0l0,0,0,0h0l0,0,0,0-.06.05,0,.06,0,0Zm-.12.57h0l0,0,.05,0,0,0,0,0,0,0,.05,0,0-.06,0-.06.05,0,0,0s0,0,0,0l-.41.44Zm0-.14h0v0l0,0,0,0h0l0,0v0h0Zm0-1.32h0Zm0-.13.31-.31,0,0h0Zm0,.54,0,0,0,0h0Zm0,.41.39-.39h0l-.38.38ZM50,43l0,0,0,0,0,0,0,0,0,0,.24-.25,0,0h0l0,0L50,43Zm-.09.42h0Zm.09-2.3v0l0,0,0,0,0,0h0l.16-.17H50Zm0-.07,0,0,0,0,0-.05Zm0,1.72h0Zm0,.63h0l0,0,0,0,0,0v0l0,0,0,0,0,0,0,0h0l0,0h0l-.07.08ZM50,41.05h0Zm.13,1.73h0l0,0,0,0,0,0,0,0h0l0,0,0,0,0,0ZM50,43Zm.13-.51,0,0,0,0,0,0s0,0,0,0h0l0,0,.06,0,.06-.07,0-.06,0,0h0l0,0,0,0h0l0,0v0Zm-.13.33Zm0,.54h0l.16-.19h0l0,0h0l0,0,0,0,0,0Zm.1-2.15,0,0,0,0,0,0,0,0,.24-.25h0l0,0,0,0h0l0,0Zm0,1.81,0,0,0,0,0,.05,0,0h0l0,0,0,0,0,0,0,0,0-.05,0,0,0,0h-.06ZM50,41h0Zm0,2Zm0-.2Zm0-.36.11-.09a.52.52,0,0,0,.1-.11h0l0,.06-.07.07-.05.06,0,0Zm.18,0,0,0,0,0,0,0s0,0,0,0l0,0,0,0,.22-.22v0h0Zm0,.33,0,0,0,.06,0,.06,0,0,.22-.23h0Zm-.1-1.75v0l0,0,0,0h0l.11-.1h0ZM50,43.42h0Zm.2-.68,0,0-.06.06-.06.07,0,0,.2-.21v0h0Zm-.15-.44,0,0,0,0,.17-.17v0h0l0,0-.05,0,0,.05Zm.16-.13,0,0-.06.07-.06.06,0,0,.2-.2v0Zm0,.46,0,0,0,.05-.05,0,0,0,.19-.18h0Zm-.15-1.16.35-.33h0v0h0v0h0l-.38.39Zm0,.28Zm0,1.5Zm0,.15h0l0,0h0Zm0,0h0Zm0-1h0Zm0,1h0l.14-.13h0s0,0,0,0v0l0,0,0,0,0,0h0v0h0Zm0-.12h0Zm0-1.45h0l.14-.15h0l0,0,0,0,0,0Zm0,.54h0A0,0,0,0,1,50.13,42.32Zm0-.36h0l.14-.13v0h0l0,0,0,0,0,0Zm.1,1.13,0,0,0,0,0,0,0,0h0l0,0,0,0,0,0,0,0h0Zm0-1.08,0,0,0,0,0,0,0,0,.12-.12Zm-.12,1.4h0v0h0v0l0,0,0,0Zm0-1.59h0Zm0-.11h0l.12-.12h0l0,0,0,0,0,0S50.15,41.7,50.14,41.71Zm0,1.64h0Zm.08-.67h0l0,0,0,0,0,0,.11-.12h0v0Zm-.05.67h0Zm0-1.74h0v0h0l0,0,0,0h0v0h0l0,0h0Zm0,1.66h0Zm0-.56h0v0h0v0h0l0,0,0,0h0v0h0Zm0,.33h0l0,0,0,0v0h0l0,0h0s0,0,0,0Zm-.07.3.07-.07h0v0h0v0h0Zm0-.1h0l.07-.07v0h0v0l0,0Zm0,0h0Zm0,.1,0,0,0,0a0,0,0,0,1,0,0s0,0,0,0Zm0-.45.05,0h0Zm0,.48h0l0,0Zm0-2.35,0,0h0Zm0,1.93h0l0,0,0,0h0Zm0-.63h0s0,0,0,0h0Zm0-1.19.15-.14h0Zm0,.8Zm0,.43Zm0,.4Zm0-1.06Zm0,1.67Zm0-.46Zm0,.18Zm0-1.67,0,0h0Zm0-.43Zm.1,0,0,0,0,0,0,0,0,0,.14-.14h0Zm-.08.42h0v0l0,0,0,0v0Zm0,0h0l.27-.32,0,0,0,0-.06.07-.08.09-.08.1Zm.06-.36h0l0,0,0,0h0l0,0,0,0,0,0,0,0h0l0,0,0,0Zm0,.36h0v0h0Zm0,0h0l.17-.21h0l0,0,0,0,0,0h0l0,0,0,0-.05.06Zm.05,0Zm.06-.41h0l.06-.06h0Zm0,.41h0v0l0,0,0,0v0h0l0,0h0l0,0,0,0Zm0-.06h0v0l.14-.14h0l0,0,0,0h0v0Zm0-.24h0Zm.12,0,0,0,0,0,0,0,0,0,.11-.1h0Zm-.09.3h0s0,0,0,0l0,0Zm.08-.39v0l0,0,0,0,0,0,.05-.05a.1.1,0,0,0,0,0Zm0,0h0Zm0,.28h0l.07-.06h0l0,0Zm0,.15h0l0,0Zm0-.08.05,0h-.05Zm0,.08h0v0h0Zm0-.26h0Zm0-.09h0Z"/><path class="cls-9" d="M51.3,41.84h0v0h0a1.55,1.55,0,0,0,0,.23,1,1,0,0,0,0,.24.65.65,0,0,0,0,.19.7.7,0,0,0,.06.19.57.57,0,0,0,.11.16.58.58,0,0,0,.15.11l.1,0h.1l.1,0L52,43l.09-.06.08-.07.13.09h0l.23.18h0l-.11.12-.13.09-.13.08-.15.06h-.36l-.18,0-.17-.08h0l0,0h0l0,0,0,0h0l-.06-.07,0-.07,0,0v0l0,0h0v0l0,0,0,0a.08.08,0,0,1,0,0h0v0h0v0h0V42.7h0v0h0v-.46h0v0h0V42h0v-.17s0,0,0,0V41.7h0v0l0,0v-.1h0v0h0a1.63,1.63,0,0,1,.11-.17.57.57,0,0,1,.13-.14h.08l0,0h0l0,0h0l.09,0,.09,0H52l.15,0,.13.07h0l.06,0,0,.06,0,0a.25.25,0,0,1,0,.07h0v0h0l-.38.19h0L52,41.52l-.09-.06h-.29a.65.65,0,0,0-.21.16l0,0s0,0,0,0v0l0,0Zm-.49.37.65-.66-.55.51-.1.13Zm0,0,.54-.54h0l-.55.54Zm0-.13h0L50.9,42,51,42,51,41.9l0,0,0,0,0,0,0,0-.32.34Zm0,.17.07-.08h-.05v0h0Zm0,0,0,0a.05.05,0,0,0,0,0s0,0,0,0l0,0h0Zm0,0h0s0,0,0,0l0-.05.35-.34h0l0,0-.06.05-.06.06-.06.06-.06,0,0,0h0l0,0,0,0,0,0h0v0h0Zm0-.29h0Zm0,.33Zm0-.35h0l0,0,0,0v0h-.08Zm0,.4h0l0-.05,0,0,0-.05,0,0h0l-.17.17Zm0,0,0,0,.06-.06.07-.07,0,0,0,0,0,0,0-.06,0,0v0h0l-.38.39Zm0-.53h0l0,0,0,0,0,0,0,0,0,0,0-.07.06-.06,0,0h0l0,0,0,0,0,.06,0,0,0,0,0,0,0,0,0,0h0v0Zm0,.56.06-.06,0-.06-.11.11Zm0-.61h0v0h0v0h0Zm0,.45h0l0,0s0,0,0,0h0l0,0,0,0v0s0,0,0,0l.06-.06.06-.07,0,0h0l0,0,0,0,0,0v0l0,0-.05,0,0,.05,0,0h0v0h0Zm0,.23.06-.06h0v0h0v0Zm0,0h0Zm0,0Zm0-.8Zm0,.83.06-.05a.12.12,0,0,0,.05,0l0,0,0,0,0,0,0-.05.09-.11v0l0,0-.06.06-.06.06,0,0,0,0,0,0,0,0,0,0h0v0h0Zm0-.15,0,0,.33-.37h0v0h0l0,0,0,.05-.06,0-.05.06-.12.13Zm0,.17h0Zm.12-.86s0,0,0,0l0,0,0,0,0,0h0l0,0,0,0h0l.2-.25h0l0,0,0,0,0,.05,0,0Zm-.12,0,0,0h0Zm0,.93,0,0L51,42.6l.07-.07,0,0,0,0v0l-.25.26Zm0-.92h0v0l0,0,0,0,0,0,0,0,.05-.05.07-.06.06-.06.05,0,0,0,0,0,.06-.07.07-.08.06-.07,0,0h0l-.58.59h0Zm0,.92h0l.1-.11.09-.1,0,0,0,0,0,0,0,0h0l0,0,0,0Zm0,0Zm0-1,.1-.1,0,0h0l0,0s0,0,0,0Zm0,1.08s0,0,0,0,0,0,0,0h0Zm0-.06h0v0h0l.31-.33h0l0,0-.06.05-.07.07,0,0,0,0,0,0,0,0Zm0,.09h0Zm0-1.23h0l0,0s0,0,0,0h0Zm0,1.27,0,0,0,0,0,0,0,0,0,0,0-.05.05,0,0,0,0,0,0-.05h0l-.31.33Zm.3-.83,0,0,0,.06-.06.06-.06.07,0,0,0,0,0,0,0,0,.05-.05.06-.06.05,0,0,0,0,0,0,0h0Zm-.25.84h0l0,0h0Zm0,0h0Zm0-1.4h0l.05-.05.07-.07.06,0,0,0,0,0,.06-.06,0-.06,0,0,0,0,0,0h0l-.21.21-.19.21ZM51,43h0v0h0l0,0,0,0s0,0,0,0l0,0,0,0,0,0,0,0,0,0h0v0h0Zm.3-1.65,0,0-.05.06-.06.07-.06.06,0,.06,0,0,0,0,0,0,.05,0,0,0,0-.05,0,0,.26-.31h0v0h0l0,0,0,0,0,0ZM51,43h0l0,0,0,0,0,0,0,0L51,43Zm0,0,.23-.24h0L51,43Zm0-.91h0l0,0,0,0,0,0h0l0,0,0,0,0,0,.05,0,0,0,0,0h0s0,0,0,0ZM51,43Zm.13-.72,0,0,0,0,0,0,0,0h0l0,0,0,0,.05-.06h0v0l0,0Zm-.11.42h0Zm0,.35s0,0,0,0l.06-.06.06-.06,0,0h0l0,0,0,0,0,0h0l-.14.14-.13.14h0ZM51,43h0l0,0,0,0,0,0h0l0,0,0,0,0,0,0,0Zm0-.27.22-.21h0Zm0,.36h0l.08-.09,0,0Zm0-1.16.79-.74.06-.07,0-.06,0,0v0h0l0,0h0l-.83.83Zm0-.34.53-.56h0v0h0s0,0,0,0l0,0-.4.42Zm0-.25h0v0l.22-.23a.1.1,0,0,0-.05,0l0,0,0,0,0,0,0,0Zm0,1h0l.14-.15v0s0,0,0,0l0,.05,0,0Zm0,.78v0h0Zm0-.4h0Zm0,.27h0l0,0h0v0Zm0-.69,0,0,0,0,0,0,0,0,.12-.13h0Zm-.1.21.13-.13v0h0l0,0,0,0,0,0,0,0Zm0,.56h0l.27-.28h0l-.25.25h0Zm0,.07h0l0,0,0,0v0l-.07.07Zm0-1.15h0Zm0,.66h0l0,0h0v0h0v0l0,0,0,0,0,0h0v0h0Zm0,.51h0l0,0,0,0,0-.05,0,0h0v0h0l0,0,0,0,0,0,0,0Zm0-1.51,0,0,0,0,0,0,0,0h0v0h0l0,0,.06-.07.06-.07,0,0h0l0,0,0,0,0,0,0,0,0,0v0l0,0-.05.06,0,0,0,0Zm.24-.19-.05,0-.06.08-.07.07-.05,0h0l0,0,0,0h0l0,0,0-.06.06-.07,0,0h0Zm-.22,1.72h0l.14-.14L51.4,43h0l-.29.27h0Zm0-1.22h0l0,0,0,0,0,0h0l0,0h0Zm0,.24h0l.06-.06h0l0,0h0Zm0,1h0Zm0-1.49h0Zm0,.77h0v0h0l.08-.09h0Zm0,.26.12-.11h0Zm.07-.16v0l0,0,0,0v0l.09-.09h0Zm-.06.65,0-.05.06-.06.07-.07,0,0v0l0,0h0l-.26.27Zm.09-.63,0,0,0,0,0,0v0l.09-.09h0Zm-.08.43.2-.2h0Zm0-1.08h0v0h0v0l.06-.07h0Zm0,1.29h0l0,0,0,0,0,0v0l-.11.11Zm.23-.31,0,0,0,0,0,.05,0,0,0,0,0,0,.24-.24h0Zm-.21.33.07-.06.06-.07-.13.13Zm0-.69Zm0-.45Zm.08.67h0l0,0,0,0h0l.1-.1h0v0h0Zm.13-1.37,0,0-.06.06,0,.07,0,0,.56-.58h0l0,0h0l0,0-.05.06-.07.06-.07.07-.05.06Zm-.16,1.83h0l0,0,0,0,0,0v0l-.07.07A.6.6,0,0,0,51.27,43.29Zm0,0h0Zm0,0,.28-.28v0h-.07l0,0,0,0,0,.05,0,.06,0,0,0,0h0Zm0,0a.05.05,0,0,0,0,0s0,0,0,0l0,0,0,0Zm0-.63h0Zm0,.65h0l0,0,0-.06,0-.05,0,0,0,0,0,0,0,0,0,0h0v0l0,0h0Zm0-.54h0Zm0,.1,0,0,0,0,.08-.08h0l0,0Zm.11.1,0,0,0,0,0,0,0,0h0l0,0h0l0,0,0,0,0,0,0,0v0h0l0,0Zm-.12-1.81Zm0,2.16h0Zm0-2.18h0l0,0,0,0s0,0,0-.05l0,0h0l0,0,0,0h0v0l0,0,0,0Zm0,1.91L51.5,43h0l0,0,0,0,0,0v0Zm0-.24Zm0,.53.3-.3h0s0,0,0,0h0l-.33.34Zm0-.06Zm0,.07h0v0l0,0,0,0h0l-.07.07Zm0-2.35,0,0h0Zm0,1.85Zm0,.51h0a0,0,0,0,0,0,0Zm0-.16Zm0,.09s0,0,0,0h0l.06-.06.27-.27,0,0h-.06l0,0,0,0-.06.06,0,.06,0,0Zm0-2.32h0Zm0,.3v0h0l.05,0,0,0h0l0,0v0Zm0,1.61h0Zm0,.49h0L51.9,43h0l0,0,0,0h0l0,0-.05.06-.06.06-.06.07-.06.06,0,0Zm.14-.35,0,0,0,0,0,0,0,0v0h0s0,0,0,0l0-.06.05,0,0,0h0S51.63,43.09,51.62,43.09Zm-.12-1.88Zm0,.16Zm0,2.07h0Zm0-2.21.19-.18h0v0Zm0,0,.15-.16h0v0h0v0h0l0,0,0,0,0,0Zm0,2.24L52,43h0l0,0,0,0,0,0,0,0h0l0,0,0,0v0l-.28.27h0Zm0,0h0l0,0h0l0,0v0h0Zm.14-.38,0,0,0,0,0,0,0,0,.18-.16h0Zm0-2.06,0,0,0,0,0,0h0l.11-.09h0Zm0,2.05h0v0h0l0,0h0Zm0-1.86.17-.15h0v0h0Zm0,.06,0,0,0,0,0,0,0,0,0,0a.09.09,0,0,0,0-.05h0l0,0a.08.08,0,0,0,0,0h0l0,0,0,.05,0,0v0Zm0,1.77h0Zm0-1.57h0Zm.24,1.69,0,0,0,0-.05.06,0,.05,0,0,0,0,0,0L52,43h0v0h0l0,0,0,0,0,0Zm-.24.31h0l.2-.2Zm.3-2.28,0,0-.05,0,0,.06-.06.06,0,.05,0,0h0l0,0,.08-.07.09-.1.08-.08h0l0,0h0v0h0l0,0,0,0,0,0Zm-.26,2.29h0Zm0,0,.54-.55h-.06l-.34.35-.15.18Zm0-2.48Zm0,.44h0l.07-.06v0h0Zm0,2h0Zm0-2.46,0,0h0Zm0,.42.34-.38h0l0,0-.3.34Zm0,1.62h0Zm0,.42h0v0h0l.44-.47h0l-.51.51h0Zm0-2h0l0,0Zm0,1.86h0Zm0-2.29h0Zm0,.24h0Zm0,2.24h0l.08-.08Zm0-2h0v0l0,0,.05-.06.06-.06.06-.07,0,0,0,0h0l0,0,0,.06-.06.06,0,0,0,.05s0,0,0,0l0,0,0,0Zm0-.39h0Zm0,0,0,0h0L51.9,41v0Zm0,.16h0v0l0,0h0l0,0,0,0Zm0,2Zm0,.07h0Zm0-1.86.32-.33h0l-.3.31h0Zm0,2h0s0,0,0,0Zm0-2s0,0,0,0h0l0,0,.06-.07.07-.07a.23.23,0,0,1,0-.05v0Zm0,1.79h0l0,0h0Zm0,.21s0,0,0,0l.06-.06.06-.06.1-.1a.76.76,0,0,0,.08-.11v0l0,0,0,0h0l-.05.05-.06.06-.06.06,0,0h0Zm0-2h0l0,0,0,0,0,0h0l0,0v0h0l-.16.16Zm0,0h0l0,0h0l0,0,0,0,0,0h0v0h0v0h0l0,0,0,0ZM52,41Zm0,.2.16-.15h0l0,0,0,0,0,0h0Zm0,.27h0l0,0,0,0,.05-.05,0-.06,0,0,0,0,0,0,0,0,0,0,0,0,0,.05,0,0-.05,0,0,0h0Zm.16,1.4,0,0,0,.06L52,43l0,0,.2-.19h0ZM52,41h0l0,0Zm0,.46h0l0,0,.26-.27h0l0,0,0,0,0,0-.05.05,0,0,0,0h0v0l0,0Zm0,1.78Zm0-2.2h0Zm0,.48h0l.2-.23s0,0,0,0h0l0,0-.06.06-.05,0,0,0Zm.06,1.35h0v0h0l0,0,0,0h0Zm0,.36h0l0,0,.06-.06,0-.06,0,0h0v0h0l0,0h0l0,0,0,0,0,0,0,0Zm0-1.69h0l0,0,0,0,0,0,.05,0,0-.05,0,0,0-.05,0-.06h0l-.29.3h0Zm0,1.46h0l.11-.11h0Zm0-2h0Zm.22,2.15,0,0-.07.07-.06.07,0,0h0l.24-.28h0l0,0,0,0Zm-.2-1.6Zm.12-.43,0,0,0,0,0,0,0,0,.16-.17h0Zm-.12.17Zm.09-.24,0,0,0,0,0,0h0l0,0h0Zm-.06.22h0Zm0,.23h0Zm0,1.74h0Zm0,.11h0v0Zm.18-2,0,0-.06.06,0,.06,0,0,0,0,0,0,.19-.21h-.06v0Zm-.17,1.92Zm.18-.21,0,0,0,.06,0,.06,0,0h0v0h0l0,0,0-.06.05-.06,0,0h0v0h0Zm-.14-1.76Zm0,1.68v0h0l.07-.06h0l0,0Zm0-1.71h0l.11-.12h0v0h0l0,0,0,0Zm0,2.07h0Zm0,0h0v0h0l0,0,0,0v0h0l-.05,0Zm0,0h0a0,0,0,0,0,0,0h0v0h0l0,0,0,0,0,0,0,0,0,0,0,0h0l0,0,0,0,0,0,0,0,0,0,0,0v0Zm0-1.82h0ZM52.33,43v0l0,0,0,0v0h0l0,0h0v0h0Zm0,0h0l0-.05h0v0Zm0-1.89h0Zm0,1.83Zm0-1.52h0l0,0v0h0v0l0,0h0l0,0h0l0,0h0v0h0Zm0-.23h0v0Zm0,.25h0l0,0v0l0,0v0h0l0,0,0,0,0,0Zm.06,1.73h0v0h0l.15-.15h0l0,0,0,0Zm0-1.81.09-.08h0Zm.07,1.69,0,0,0,0,0,0v0h0l0,0,0,0h0v0h0Zm0,.17h0l0,0v0h0v0h0Zm0-2h0Zm0,0Zm0,.16h0Zm0,1.65h0l0,0Zm0-1.7h0Zm0,0Z"/><path class="cls-9" d="M53.1,42.57v.9h-.51V42.31h0v0h0v-.13h0a.13.13,0,0,0,0-.06.11.11,0,0,1,0-.05V41h.48a.17.17,0,0,0,0,.07V42h.82v-.06h0V41h.48v.16c0,.38,0,.77,0,1.15v1.16h-.5v-1h-.82v0h0Zm-.48.57.07-.07v0l0,0,0,0h0l-.14.14Zm0,.12h0l.45-.46v0s0,0,0,0h0l-.41.44h0Zm0,.15,0,0,.06-.05,0,0,0,0,0,0,0,0,.06-.06,0,0L53,43l0,0h0v0h0Zm0-.24h0l.07,0,.06-.06v0l0,0,0,0,0,0h0l-.1.08-.09.1h0Zm0,.16h0v0h0l.05,0,.07-.08.07-.07,0-.05-.26.26v0Zm0-.12h0Zm0,.08,0,0,0,0,0,0Zm0,.1v0h0Zm0,.07h.08l-.08.07Zm0-2.34h0Zm0,.07h0l0,0,0,0,0,0,0,0h0l0,0,0,0,0,0,0,0h0Zm0,.42h0l.37-.39-.32.31h0v0h0Zm0-.13h0Zm0,.21h0l.14-.15,0,0,0,0,0,0,0,0h0Zm0,1h0l.66-.66v0h0l0,0,0,0,0,0-.05.06,0,0,0,.05,0,0,0,.05-.06.06-.08.08-.08.08-.06.07,0,0h0Zm0-.55h0v0Zm0,.09h0Zm0,.21h0l.06-.05h0l0,0h0Zm0-.13Zm0,.7h0Zm0-1.64h0L53,41h0v0h0l-.18.17a1,1,0,0,0-.17.18h0v0h0Zm0-.13.2-.24h0l0,0,0,0h0l0,0,0,.05-.05.07Zm0-.17h0v0h0v0Zm0,.46.45-.49,0,0-.4.44Zm0,.13.41-.42h0l0,0h0l-.45.45Zm0-.24,0,0h0l0,0,0,0,0,0,0,0h0v0l0,0,0,0,0,0v0Zm0,.36h0v0l0,0h0v0l0,0,0,0v0l0,0,.06-.06.07-.06.06-.07.06-.05,0,0h0l-.37.36,0,0h0l0,0v0Zm0,.13,0,0,.06-.06.07-.06a.23.23,0,0,1,.07-.07l0-.06,0,0h0v0l0,0h0v0l0,0h0l-.39.39,0,0Zm0-.37h0v0h0v0h0l0,0Zm0,.58h0l0,0,0,0,0,0,0,0v0l0,0,.05,0,.06-.07.06-.07.06-.06,0,0h0v0l0,0-.06.06a.17.17,0,0,0-.06.06l-.06.06,0,0,0,0L52.7,42l-.07.09h0Zm0-.26h0v0h0l0,0,0-.05.05-.06,0,0-.18.19Zm0-.13,0-.06h0l0,0Zm0,.45.4-.41-.4.41Zm0-.36h0Zm0,.46h0l.43-.44v0l-.4.4,0,0,0,0Zm0-.33h0v0l0,0,0,0,0,0,0,0-.12.13Zm0,.45.29-.28v0l0,0,0,0h0L53,42l0-.06h0l-.43.45Zm0-.37.05,0h-.05Zm0,.89.85-.89,0,0-.83.86Zm0-.34.43-.43h0v0l0,0h0l0,0v0h0l-.53.53Zm0-.07.3-.33-.3.32Zm0,0h0l0,0,0,0,0,0,0,0-.17.18Zm0-.07Zm0,.49.45-.45v0l-.45.45Zm0-.15.28-.3-.28.29Zm0-.18h0Zm0,.1h0l0,0Zm0,.15,0,0,0-.05-.08.09Zm0,.21h0l0,0,0,0,0,0,0,0h0l-.1.1Zm0-.1h0Zm0-2s0,0,0,0h0Zm0,1.21h.07l.21-.24-.26.26h0Zm0,.39,0,0,0,0,0,0,0,0,0,0,0,0,0,0,0,0,0,0,0,0-.3.29Zm0-1.35h0l.26-.28h0l0,0,0,0,0,0,0,0h0l0,0,0,0Zm0,0h0Zm0,.72h0l0,0,0,0,0,0,0,0,.06-.06.06-.07.07-.08.06-.06,0,0h0v0l0,0Zm0,.88.82-.83h0l-.78.77Zm0,.14v0h0l0,0,.22-.23h0l-.07.07a.46.46,0,0,0-.07.07h0l0,0,0,0Zm0-1.18,0,0,0,0,0,0,0-.05,0,0,0,0,0,0,0-.06,0,0h0v0h0l0,.05a.23.23,0,0,0-.07.07l-.07.06,0,0h0v0h0v0h0v0Zm0,1.53,0,0a.21.21,0,0,0,0-.06v0h0v0l0,0,0,0h0Zm0-1.95h0Zm0-.38h0Zm0,.34h0v0h0l0,0h0Zm0,1.4h0l.44-.43h0l0,0,0,0,0,0h0l0,0-.05.05-.06.06-.06.05,0,0,0,0h0v0Zm0-.78h0Zm0,1.48Zm0,0,.21-.2.2-.21h0v0l-.4.43ZM52.72,41h0l0,0v0h0v0h0l0,0h0Zm0,.19h0Zm0,1s0,0,0,0v0L53,42h0v0h0l0,0s0,0-.05,0l-.07.07-.06.06-.05.06,0,0h0l0,0v0Zm0-1.23v0h0Zm0,1.34h0l.11-.12,0,.06Zm0-1.18h0Zm0,.12Zm0-.12.18-.19h0Zm0,2.27h0l.36-.36h0s0,0,0,0h0Zm0-1.68.34-.36v0l-.33.36Zm0,1.67h0Zm0,0,.31-.31v0l0,0,0,0h0v0l0,0h0l0,0-.06.06-.06.07,0,0Zm0,0h0v0l0,0,0,0,0,0h0l-.14.13Zm0-2.22Zm0,.63Zm0-.65Zm0,.64h0Zm0-.49h0l.21-.21h0l0,0,0,0,0,0,0,0h0v0ZM52.94,43l0,0,0,.05,0,0,0,0v0h0l0,0a.19.19,0,0,1,.06-.07L53,43l0,0h0v0H53l0,0v0Zm0-1.29,0,0,0,0,0,0,0,0,.23-.24,0,0,0,0,0,0Zm-.08,1.21h0l0,0,0,0,0,0,0,0h0v0h0v0s0,0,0,0Zm0,.5.23-.23h0l-.22.23Zm0,0h0l.07-.08-.08.08ZM53,41l0,0,0,0,0,0,0,0h0v0h0l0,0,0,0,0,0,0,0,0,0h0l0,0Zm-.11,2.09.21-.21v0h0L53,43,53,43l-.07.09Zm0-.33.19-.19h0Zm.19-.16,0,0-.06.06-.05.06,0,0,.2-.2v0h0ZM53,41.34l0,0,0,0,0,0,0,0h0l0,0,0,0h0v0l0,0,0,0h0ZM52.91,43h0s0,0,0,0h0Zm0-2v0h0L53,41h0Zm0,2.43h0v0l0,0ZM53,42.8h0A0,0,0,0,1,53,42.8Zm0-1.06h0l0,0,0,0,0,0v0h0Zm0,.94h0l0,0,0,0,0,0,0,0h0Zm.08-.86v0l0,0,0,0,0,0h0l0,0h0l0,0,0,0,0,0v0h0l0,0Zm-.08,1.64h0v0h0v0h0v0l0,0h0l0,0,0,0v0h0l0,0,0,0Zm.1-2.35,0,0,0,0,0,0,0,0,.13-.12v0h0Zm-.07.7h0l.12-.11v0h0l0,0,0,0,0,0Zm0,.41.22-.21h0L53,42.2Zm0,.56h0Zm0,.68h0Zm.07-2.2v0l0,0,0,0v0l0,0,0,0h0l0,0h0Zm-.06.89.14-.14h0Zm0,1.09h0l.09-.1h0l0,0h0l0,0,0,0Zm0-2h0Zm0,.66h0l0,0,0,0h0l.08-.07h0Zm0-.44h0l.07-.07h0v0l0,0Zm0,.18,0,0h0Zm0,1.71v0l0,0,0,0,0,0h0v0l0,0,0,0,0,0Zm.06-1.3h0v0h0l0,0h0ZM53,43.45Zm0-2.26h0S53,41.2,53,41.19Zm0,2.26h0Zm0-2.33h0Zm0,.06h0v0h0Zm0,2.23h0v0h0Zm0-2.12h0Zm0,1.55h0l0,0h0Zm0,.44h0Zm0-2.28h0Zm0,0h0Zm0,.5Zm0,1.34h0Zm0,.5h0Zm0-.63h0Zm0,.3h0Zm0-.57h0l0,0Zm.33-.3,0,0,0,0-.06.06-.06.06-.05,0,0,0h0l.32-.32,0,0s0,0,0,0h0v0l0,0,0,0ZM53.2,42h0Zm0,.45h0l0,0s0,0,0,0Zm0,0,.42-.46h0l0,0,0,0h0l-.35.39Zm0-.46h0Zm0,.06h0v0h0v0l.12-.12h0l0,0Zm0,.4h0Zm.06-.42h0l0,0,0,0h0v0Zm0,.17h0l.23-.24h0l0,0,0,.05-.07.07Zm0-.22h0Zm0,.47h0l0,0,0,0v0l0,0v0l.32-.35h0l-.25.25Zm.06-.26h0l0,0h0l.13-.13Zm0,.24h0l.44-.45h0l-.41.41h0Zm0-.43h0Zm0,0h0Zm0,.46h.05l.37-.39v0l0,0Zm.05,0h0l.09-.09.08-.08.06-.07h0v0h0Zm0,0h0Zm0,0,0,0,0,0,0,0h0l.7-.73h0l-.82.85Zm.08-.19h0l0,0,0,0s0,0,0,0h0l0,0v0Zm0-.25h0v0h0v0h0Zm0,.44h0l0,0,0,0,0,0h0l.67-.72h0l-.79.81h0Zm.09-.44,0,0,0,0,0,0v0l0,0,0,0,0,0,0,0h0Zm-.06,0h0Zm.19.07,0,0-.05,0,0,0,0,0,.25-.25h0v0h0l0,0Zm-.16.38h0l.09-.1Zm0,0h0l0,0h0l0,0h0l.52-.54,0,0,0,0v0a0,0,0,0,0,0,0l0,0,0,0h0v0h0Zm0-.15.39-.41,0,0Zm0-.24h0L53.8,42h0v0h0Zm0,.39h0Zm.09-.18,0,0,0,0v0h0l.16-.16,0,0,0,0,0,0Zm0,.15h0v0l0,0,0,0h0l0,0h0Zm0,0v0l0,0h0l0,0,0,0,0,0h0v0l0,0Zm0,.07h0Zm0,0h0l0,0,0,0h0l0,0,0,0,0,0,0,0-.15.15h0Zm0,0h0l.46-.48h0v0h0l0,0-.18.18Zm0-.15h0l0,0h0l0,0,0,0,0,0,0,0-.09.09Zm0,.15h0l0-.05.06-.06.07-.07.07-.07.06-.05v0l0,0,0,0,0,0h0v0h0Zm0,.13h0Zm0-.86,0,0,0,0,0,0,0-.06.06-.06.06-.07.05,0,0,0,0,0-.05,0,0,0,0,0h0l0,0,0,.05,0,0s0,0,0,0h0Zm0,.07h0l.28-.28,0,0-.27.26Zm0,.1s0,0,0,0h0l0,0,0,0h0v0l0,0h0l0,0,0,0,0,0,0,0h0l0,0h0l0,0h0l0,0,0,.06-.07.06Zm0,.06h0l.25-.26-.26.25Zm0-.12h0s0,0,0,0l0,0,0,0,0,0h0l0,0,0,0,0,0,0,0h0Zm0,.8h0l.06-.05,0,0,.37-.37h0l0,0,0,0,0,0-.06.06-.07.07-.06.06-.05.05,0,.06Zm0-.12h0l0,0,.05-.05,0-.06,0,0-.18.17Zm0,.28h0l.46-.46v0l0,0,0,0,0,0,0,0,0,0,0,.05-.05,0-.06.06,0,0,0,0,0,0Zm0-.23,0,0h0l0,0Zm0,.29h0v0h0v0l0,0,0-.06.06-.06,0,0-.23.23h0Zm0,.24.43-.45h0l-.42.43Zm0,.07h0l0,0h0l0,0,0,0,0,0,0,0,0,0,0,0,0,0,0,0v0l0,0,0,0,0,0,0,0,0,0v0L54,43l0,.06-.05.07h0Zm0-.43s0,0,0,0l0,0,0,0Zm0,.57.45-.48h0L54,43.2l-.09.11Zm0-.37h0Zm0,.5,0,0,0,0,0-.06.05,0,0-.06,0,0,0,0,0,0,.05,0,0,0h0l0,0h0l-.22.22,0,.05-.06.07-.06.07,0,0h0Zm0-.39,0,0,0,0-.06.06Zm0,0Zm0,.18h0Zm0,0h0Zm0,0h0Zm0,.14h0l0,0h0v0h0l0,.06h0Zm0-1.64Zm0-.17h0l0,0,0,0h0v0h0Zm0-.52h0Zm0,.36.38-.41v0h0l0,0,0,0,0,0,0,0,0,0,0,.05,0,0,0,0-.12.13Zm0,.05,0,0,0,0,0,0,0,0,0,0,.07-.07.07-.07,0-.05h0v0h0l-.37.39,0,0,0,0h0Zm0-.44h0Zm0,.08h0l0,0Zm0,.19h0l0,0,0,0,0,0,0,0,0,0,0,0,0,0,0,0h0l0,0Zm0-.08h0l0,0Zm0,.13h0Zm0,.2h0l0,0,0,0,0,0,0,0,0,.05-.05,0h0Zm0,.07h0l0,0,0,0,0,0,0,0-.14.14Zm0-.11h0Zm0,1.4h0l0-.05.36-.4h0v0l0,0-.06.06-.07.07-.07.07-.06.06,0,0-.06.06-.06.07h0Zm0,.06h0l0,0,0,0,0,0,0,0,0,0,0,0,0-.05.06-.06,0-.06.05,0,0,0,0,0h0l-.39.4h0l0,0,0,0Zm0-.28h0s0,0,0,0l0,0,0,0,0,0-.1.1h0v0Zm0-1.7Zm0,2.3h0l0,0,0,0h0l0,0Zm0-1.57H54l0,0,0,0h0l.29-.32v0Zm0,1.72h0l.21-.25h0l0,0v0h0l0,.05,0,.07a.46.46,0,0,0-.07.07Zm0-.28Zm.31-2.1,0,0-.05.07-.07.07-.07.08L54,41.4l0,0h0l.09-.09.33-.35h0l0,0,0,0Zm-.32.16h0l.05-.06.06-.07.05-.06,0,0v0h0l0,0,0,0-.06.07-.05.06,0,0Zm0-.15Zm0,0L54,41h0Zm0,.41h0ZM54,41s0,0,0,0h0Zm0,.46Zm0,2Zm0-1.07h0l0,0,0,0h0Zm.31-.22,0,0-.06.06-.08.08-.07.08-.06.07,0,0,.39-.41h0v0ZM54,41.51h0l0,0,0,0h0l0,0,0,0,0,0,0,0,0,0,.05-.06,0,0,0,0H54.3l0,0h0l-.06.07-.07.08-.06.07,0,0Zm0,1.92h0Zm0-2.42h0l0,0h0Zm.08,2.12,0,0,0,0,0,0,0,0,0,0,0,0,0,0,0,0h0v0l0,0h0Zm-.1.28h0l0,0,0,0,0,0,0,0h0l0,.06Zm0,.05h0Zm.34-1.37,0,0,0,.06-.07.07-.06.07-.06.06,0,0,.33-.35v0Zm-.31,1.37h0a.94.94,0,0,1,.1-.1l.11-.1v0l0,0,0,0,0,0h0l0,0-.05.06-.07.06,0,0h0v0l0,0,0,0,0,0,0,.05Zm.3-2.24,0,0-.05.05-.06.07-.06.06,0,.05,0,0,.3-.31h0v0h0ZM54.09,41h0v0l0,0h0Zm.12,1.4,0,0,0,.05,0,0,0,0,0,0,.06-.07.06,0s0,0,0,0a.17.17,0,0,1,.06-.06.15.15,0,0,0,.05-.06h-.07l0,0,0,0h0l0,0,0,0Zm-.13-.31.09-.08.09-.09-.17.16Zm.09,1.27h0l0,0,0,0h0l0,0h0Zm0-2.25h0v0h0l.15-.16h0l0,0s0,0,0,0h0v0h0Zm0,2.31h0l0,0h0l.2-.23v0h0l0,0-.06.07-.06.06Zm0-2.38h.05Zm.18.82s0,0,0,0l-.06.06-.05.06,0,0,.05,0s0,0,0,0l.07-.08.06-.08h0Zm-.1-.85h0l0,0,0,0v0l.1-.1h0Zm0,1.33Zm0-.77h0v0h0v0h0l0,0,0,0h0l0,0,0,0v0h0l0,0,0,0h0v0h0l0,0,0,0-.05,0Zm0,1h0Zm0,.6Zm0,.27h0Zm0-1.12,0,0,0,0,0,0,0,0h0v0h0v0l-.16.17Zm.12.71,0,0,0,0,0,0,0,0,.17-.17h0l0,0,0,0Zm.06-.65,0,0-.05.05,0,.06,0,0,.17-.17h0Zm-.16.83.15-.14h0Zm0-.76.1-.09h0Zm0-.81,0,0,0,0,0,0,0,0h0v0s0,0,0,0Zm0,1.8h0l0,0,0,0,0,0h0l0,0,0,0,0,.05Zm.13-2,0,0,0,0,0,0,0,0,.14-.14h0Zm0-.2h0l0,0,0,0h0l0,0h0Zm0-.12h0v0h0l0,0h0v0h0v0h0l0,0Zm0,.57h0l0,0,0,0h0l0,0,0,0,0,0h0Zm0,1.7Zm.06-.66,0,0,0,0,0,0v0l0,0,0,0h0Zm-.06.2Zm0,0Zm.05,0h0Zm0,.14,0,0,0,0h0l0,0h0Zm-.05.26.1-.09v0Zm0,.14h0l0,0Zm0-.61.07-.07v0l-.07.08Zm0-.5,0,0s0,0,0,0h0Zm0-.29h0l0,0a0,0,0,0,0,0,0h0Zm0,.89h0l0,0h0l0,0Zm0,.47h0Zm0-2.27h0v0h0l0,0h0Zm0,1.49h0v0Zm0,.81h0Zm0-.93h0l0,0h0v0Zm0,.86Zm0-.69,0,0h0l0,0h0Zm0-1.27,0,0h0Zm0,.46h0l0,0h0Zm0,1.49h0l0,0h0a0,0,0,0,0,0,0Zm0-2.29h0v0Zm0,.15Zm0,.51h0Zm0-.42Zm0,.58h0Zm0,1.37h0Zm0-1.69Zm0,.66Zm0,.62h0Zm0,.6s0,0,0,0h0Zm0-1.66h0Zm0,.16Zm0,.33h0Zm0,.52h0Zm0,.13h0Zm0,.08h0Zm0,0h0Zm0,.25Zm0-.13h0Zm0,.2h0Zm0,0h0s0,0,0,0Z"/><path class="cls-9" d="M54.73,43.47a.23.23,0,0,1-.14-.07.27.27,0,0,1-.07-.14v-.1l0-.09a.27.27,0,0,1,.07-.08.19.19,0,0,1,.09,0h.15l.08,0L55,43a.25.25,0,0,1,.07.21.17.17,0,0,1,0,.07s0,0,0,.05l-.06.07-.08,0-.09,0Zm-.19-.23h0l0,0,.06-.07.07-.08.06-.06v0h0l0,0,0,0,0,0,0,0a.1.1,0,0,0,0,0l0,0,0,0h0Zm0-.05,0,0h0v0h0v0l-.06.07Zm0,.07h0Zm0-.11.07-.08.07-.08-.07.06,0,.06v0h0Zm0-1.12V41h.51v.93c0,.05,0,.09,0,.13v.77h-.48V42Zm0,1.27h0l.29-.33h0l0,0,0,0,0,0,0,0,0,0,0,.05-.05,0,0,0Zm0-.24h0Zm0-1.7.06-.07L55,41h0l-.3.29h0v0l0,0,0,0h0Zm0-.38h0Zm0,.24.19-.22h0v0h0l0,0-.06.06-.06.07Zm0,0,.14-.17h0l0,0,0,0h0l0,0,0,0,0,0Zm0-.12h0v0l0,0,0,0Zm0,.45L55,41h0l0,0h0l0,0-.06.07-.08.08-.08.08-.06.07,0,.05,0,0v0Zm0,.13.45-.45h0l-.47.47Zm0,0,.41-.42-.37.35h0v0h0Zm0,.16h0v0l0,0,0,0v0l0,0,0,0,.05-.05,0,0,0,0,0,0,0,0,0,0,0,0,0,0h0v0l0,0-.06,0-.06.06-.07.07-.06,0,0,0h0l0,0,0,0,0,0v0l0,0h0Zm0-.29h0Zm0,.21h0l.14-.14h0l0,0,0,0h0v0h0l0,0Zm0,0h0l0,0h0Zm0,.3h0l0,0h0Zm0-.58.07-.07.07-.08h0l-.14.13h0Zm0,.46,0,0,0-.06.07-.06.06-.06.05,0,0,0v0l0,0,0,0,0,0h0l-.44.45Zm0-.35h0v0h0v0l-.05.07Zm0,.56h0l0,0h.06l.35-.39h0l-.34.33-.06.07-.06.07h0Zm0-.26h0l.05-.05,0-.06.07-.07h0l-.18.17Zm0,.32.39-.39v0l-.4.4Zm0,.09h0L55,41.8h0l-.39.38v0l0,0h0Zm0-.45h0Zm0,.12.05-.05.06-.06h0l0,0h0l0,0v0h0Zm0,.45h0v0l.06-.05.08-.08.08-.08.05-.05h0l0,0,0,0,0,0,0,0,0-.05h0l-.45.46Zm0-.24h0Zm0,.43,0,0,0,0,.07-.08.09-.08.07-.07,0,0,0,0,0,0h0l-.41.41Zm0,.11h0l.41-.4s0,0,0,0l0,0h0l-.36.37h0v0l0,0h0Zm0-.18.26-.28-.26.27Zm0-.27h0Zm0,.07h0Zm0,.24h0l0,0,.05-.06,0,0,0,0-.17.17Zm0-.12h0v0h0Zm0,0h0Zm0,.15Zm0,.12h0v0l0,0,0,0h0l0,0,0,0h0Zm0,.61.34-.35h0l-.32.32h0Zm0-.55Zm0-.61h0l0,0h0v0h0l0,0,0,0,0,0,0,0h0l0,0,0,0v0h0l-.24.23v0Zm0,1.19,0,0,.06,0,0-.06.06-.06,0-.06,0,0,0,0v0l-.32.33Zm0-2.1.28-.28h0l-.06.07-.08.09-.07.07,0,0Zm0,1.47h0l0,0a.1.1,0,0,0,0-.05l0,0Zm0-1h0a.05.05,0,0,1,0,0l0,0,0,0,0,0,0,0,0,0,0,0,.06-.06.05-.07,0,0h0l0,0-.07.07-.08.08-.07.07,0,.05Zm0,.82,0,0,0,0h0l0,0,0,0,0,0,0,0,0-.06.05-.05,0,0Zm0-1.24h0s0,0,0,0l0,0Zm0,.6,0,0h0l.4-.43h0l-.43.45Zm0,1.45h0l0,0,0,0,0,0h0l0,0,0,0v0h0l-.16.16Zm0-2.41h0Zm0,.23Zm0,1.56h0l.41-.41,0,0h0l-.41.41h0Zm0,0h0l0,0,0,0Zm0-.87h0Zm0,1.48h0l0,0,0,0,0,0,0,0h0l0,0h0v0l0,0v0Zm0-1.12h0Zm0-1.3v0h0v0l0,0v0h0Zm.1,0,0,0,0,.06-.05,0,0,0,0,0,.06,0,.05-.06,0,0v0h0Zm-.13,0h0l0,0h0Zm0,2.43h0l0,0,0,0,.06-.06.05-.06,0,0,0,0h0l0,0,0,0v0l0,0,0,0,0,.06,0,.05,0,0Zm0-1.14.4-.41h0l-.05,0,0,.05-.06.06,0,.06,0,0,0,0,0,0,0,0,0,0Zm0,.08h0v0l0,0,0,0,0,0h0Zm0,.64h0Zm0-.2h0l0,0,0,0,0,0v0l-.12.12Zm0,.63h0l0,0,.3-.31h0l-.28.29,0,0,0,0h0Zm.31-2,0,0-.06.06-.07.08-.06.07-.06.06,0,0,.35-.37v0h0v0Zm-.31,1.39h0l0,0,0,0,0-.05,0,0,0,0,0,0,0,0,0,0,0,0,0,0,0,0,0,0,0,.05Zm.09.19v0l0,0,0,0,0,0,.12-.12h0Zm-.06,0h0l0,0h0Zm0-.32h0v0h0l.32-.32h0l0,0,0,.05-.06.06,0,.06-.05,0Zm0,.81h0l0,0,.05-.06,0-.06,0,0h0l0,0h0l0,0-.05.06,0,0,0,0Zm0-.67h0l.22-.23h0v0l0,0v0Zm0-1.57h0ZM54.9,43l0,0,0,.05,0,.06,0,0L55,43h0v0h0Zm-.16.42h0l.06-.06.06,0,0-.05.06-.07s0,0,.06-.07h0l0,0Zm0-2.13h0v0l.21-.21,0,0,0,0h0l0,0,0,0,0,0,0,0h0v0h0Zm.09.38,0,0,0,0,0,0,0,0,.22-.22h0l0,0,0,0Zm-.11,1.08h0v0h0Zm0,.41h0Zm.08-.21h0l0,0v0h0l.1-.08h0Zm0-.2h0l0,0,0,0,0,0v0l0,0,0,0h0ZM54.93,41l0,0,0,0,0,0,0,0,0,0L55,41h0l0,0Zm-.1,2.38h0Zm.14-.12,0,0-.05.05,0,0,0,0h0l.17-.2v0h0l0,0h0Zm-.12-.5h0l0,0v0h0l-.09.09Zm0-.07,0,0,0,0,0,0,0,0h0l-.05.05,0,0,0,0,0,0Zm0-1.7h0l.06-.06s0,0,0,0Zm0,.39h0l.15-.14,0,0h0l0,0,0,0,0,0Zm0,.83.16-.16v0Zm0-.5.16-.16h0Zm.1.57,0,0,0,0,0,0,0,0,.15-.16h0v0Zm0,.77,0,0,0,0,0,0v0l.12-.13h0v0h0Zm-.08-.29h0v0l0,0h0l-.07.06Zm0-.9.14-.13v0h0l0,0,0,0,0,0ZM55,42l0,0,0,0,0,0,0,0L55,42h0Zm0-.36,0,0,0,0,0,0v0l.12-.12v0l0,0Zm-.07,1.09h0l0,0,0,0h0l0,0Zm0,.43h0ZM55,41l0,0,0,0,0,0,0,0L55,41h0ZM55,43.19h0Zm0-1.59,0,0,0,0h0ZM55,42h0v0h0L55,42v0h0Zm0-.13h0l.08-.08h0v0h0Zm0,.59h0l.07-.07h0Zm0-1.22h0l0,0h0v0h0v0h0v0Zm0,.15.08-.07h0Zm0,2h0l.06-.07h0v0h0l0,0v0l0,0Zm0-.75Zm0,.05h0l.06,0v0h0l0,0v0Zm0,.12h0ZM55,43h0Zm0-2Zm0,1.77h0v0h0Zm0,.54h0v0h0v0l0,0Zm0-.18h0v0l0,0,0,0h0Zm0-2h0Zm0,1.27Zm0-.23Zm0-1.11h0Zm0,.17h0ZM55,41h0Zm0,2.22s0,0,0,0Zm0,0h0Z"/></svg>