<svg id="Layer_1" data-name="Layer 1" xmlns="http://www.w3.org/2000/svg" xmlns:xlink="http://www.w3.org/1999/xlink" viewBox="0 0 100 100"><defs><style>.cls-1{opacity:0.5;}.cls-2{fill:url(#radial-gradient);}.cls-3{fill:#8bbcdd;}.cls-4{fill:#f58b6c;}.cls-5{fill:#371c0f;}.cls-6{fill:#e87679;}.cls-7{fill:#10101c;}.cls-8{fill:#d94469;}.cls-9{fill:#fff;}.cls-10{fill:#5381c2;}.cls-11{fill:#c0325c;}.cls-12{fill:#0a5685;}.cls-13{fill:#0f609b;}.cls-14{fill:#789ad0;}</style><radialGradient id="radial-gradient" cx="42.91" cy="48.74" r="31.17" gradientUnits="userSpaceOnUse"><stop offset="0" stop-color="#efa8b9"/><stop offset="1" stop-color="#f27594"/></radialGradient></defs><g class="cls-1"><path class="cls-2" d="M68,19.82C53.1,6.68,46.19,27.77,43.64,32c-2.55-4.18-12.31-18.89-25.21-9.35C.15,36.12,43,82.07,43.05,81.92h1.18C44.26,82.07,84.32,34.16,68,19.82Z"/></g><path class="cls-3" d="M58.46,81.33c0,.67-8.13,3.07-16.41,3.07S25.65,82,25.68,81.33c0-.86,14-.89,15.94-.89C43.05,80.43,58.42,80.42,58.46,81.33Z"/><path class="cls-4" d="M53.13,33.05v.05c0,.16-.18.28-.35.28a.88.88,0,0,1-.46-.18,1.86,1.86,0,0,1-.48-.4,1.7,1.7,0,0,1-.27-.91c0-.39,0-.78,0-1.17a.38.38,0,0,1,0-.16.21.21,0,0,1,.19,0,.42.42,0,0,1,.31.34c0,.13,0,.28,0,.39s.23.14.37.15.31,0,.37.17,0,.23.07.32.16.11.2.21-.1.25-.07.37.15.18.12.28-.09.1-.12.16A.22.22,0,0,0,53.13,33.05Z"/><path class="cls-5" d="M43.12,23.58a6.39,6.39,0,0,1-1.61.83c-.93.33-2.63.05-2.46,1.5a2.29,2.29,0,0,1,0,1.35c-.24.43-.8.54-1.28.66a4.38,4.38,0,0,0-2,1A2.6,2.6,0,0,0,34.89,31c0,.68.43,1.34.28,2s-.55.92-.74,1.42a2.05,2.05,0,0,0,.68,2.23,3.26,3.26,0,0,0,2.35.63,8.42,8.42,0,0,0,2.39-.66,12.24,12.24,0,0,0,3.28-1.77,5.16,5.16,0,0,0,1.93-4c0-.53.22-.79.73-.82s.76,0,.86-.42.09-4.79.09-5.16"/><path class="cls-5" d="M46.64,59.38a18.6,18.6,0,0,1,0-2.32,10.49,10.49,0,0,1,.3-1.69A17.78,17.78,0,0,1,49.2,50a2.12,2.12,0,0,1,1.27-.13,1.55,1.55,0,0,1,1.14.76,1.09,1.09,0,0,1,0,.8s-2.08,6.81-3,10.3a9.85,9.85,0,0,1-1.86-.43C46.72,60.84,46.68,60.23,46.64,59.38Z"/><path class="cls-6" d="M46.75,61.31a9.85,9.85,0,0,0,1.86.43,11.48,11.48,0,0,1-.61,2.6,1,1,0,0,1-.88.55.7.7,0,0,1-.68-.69c0-.53.4-.85.38-1.42S46.78,61.8,46.75,61.31Z"/><path class="cls-5" d="M40.81,41.18s9.79,7,10.67,9S50,53.23,49.14,52.49c-.56-.5-5.48-3.12-8.62-4.78l-2.61-1.37Z"/><path class="cls-7" d="M48.53,65a2.24,2.24,0,0,1-.23-.74,3,3,0,0,0,0-.73,1.75,1.75,0,0,0-.57-.1c-.07,0,.19,1,.14,1s-.59.31-.5.47a3,3,0,0,0,.71.43l.39-.19Z"/><path class="cls-8" d="M49.32,66.38s.11-.23,0-.37a7.51,7.51,0,0,0-.66-.64,2.65,2.65,0,0,0-.21-.41c0-.06-.81,0-.91-.08s.47-.16.45-.25c-.06-.27.1-.76-.2-.95s-.52,0-.72-.14-.08-.49-.3-.61a.3.3,0,0,0-.18,0l-1.09.91-.17.24.23.25.78.48.9.87.47.43.9.39Z"/><path class="cls-9" d="M49.29,66.56s.12-.19.09-.25-.21.15-.25.14a3.72,3.72,0,0,1-1.6-.72c-.86-.63-.84-1-1.24-1.26s-.9-.45-.77-.66c0,0-.45.28-.4.59s.16.27.39.43a3.82,3.82,0,0,0,.92.47c.14.06.21.32.56.62S48.69,67,49.29,66.56Z"/><path class="cls-8" d="M48.08,64.57H48s0,0,0,0,0,0,0,0h.15a1.53,1.53,0,0,1,.3,0s0,0,0,0,0,0,0,0"/><path class="cls-8" d="M47.82,64.19h0a2.3,2.3,0,0,1,.45,0s0,0,0,0,0,0,0,0a2.47,2.47,0,0,0-.47,0,0,0,0,0,0,0,0S47.81,64.19,47.82,64.19Z"/><path class="cls-8" d="M47.76,63.89h.11a2,2,0,0,1,.46-.06s0,0,0,0a0,0,0,0,0,0,0,1.73,1.73,0,0,0-.49.06h-.07s0,0,0,0S47.75,63.89,47.76,63.89Z"/><path class="cls-5" d="M36.18,43.18c-.72,1.88.53,4.31,4,5.93s2.29-6.36,1-6.72S36.18,43.18,36.18,43.18Z"/><path class="cls-6" d="M46.94,36.76l-8.51-.92a1.21,1.21,0,0,0-.37,2.35h0l.08,0,.08,0,8.08,2.08a1.81,1.81,0,0,0,2.23-1.8A1.78,1.78,0,0,0,46.94,36.76Z"/><path class="cls-10" d="M48.79,38.51a2,2,0,0,0-1.82-2l-3.54-.39,0,.1c-.14.53-.24,1.07-.35,1.6a14.42,14.42,0,0,0-.25,1.85l3.44.88A1.89,1.89,0,0,0,48,40.23,2.24,2.24,0,0,0,48.79,38.51Z"/><path class="cls-4" d="M43.81,31.06l4.48,7.29a1.22,1.22,0,0,1-.6,1.6,1.2,1.2,0,0,1-1.37-.26h0l-.06-.07,0-.07L41.16,33a1.57,1.57,0,0,1,.38-2.58A1.78,1.78,0,0,1,43.81,31.06Z"/><path class="cls-11" d="M43.4,35.31a9.63,9.63,0,0,0,1.1-1,8.92,8.92,0,0,0,.9-1.13L44,30.93a2,2,0,0,0-1.74-1,2.09,2.09,0,0,0-.85.18,1.83,1.83,0,0,0-1,1.2A2.05,2.05,0,0,0,41,33.11l1.95,2.54A2.93,2.93,0,0,0,43.4,35.31Z"/><path class="cls-4" d="M51.5,32.36h0l.09-.09a.72.72,0,0,1,1,1h0l-4.48,6.26,0,0,0,0h0a1.34,1.34,0,0,1-.21.2,1.15,1.15,0,0,1-1.57-1.67h0Z"/><path class="cls-12" d="M49.45,74.73a15.48,15.48,0,0,0-.34-2.3,9.3,9.3,0,0,0-.54-1.64,17.65,17.65,0,0,0-3-5,2.15,2.15,0,0,0-1.27,0,1.56,1.56,0,0,0-1,.91,1.16,1.16,0,0,0,.12.8s3,6.45,4.42,9.77a10.09,10.09,0,0,0,1.78-.69C49.59,76.18,49.53,75.57,49.45,74.73Z"/><path class="cls-6" d="M49.62,76.65a10.09,10.09,0,0,1-1.78.69c.31.73.54,1.31.64,1.64.42,1.35.19,1.53.13,1.56.73.12,1.68.18,1.92-.25s-.26-.76-.63-1.72A5.67,5.67,0,0,1,49.62,76.65Z"/><path class="cls-7" d="M47.46,80.06a2,2,0,0,0,.39-.68,10.45,10.45,0,0,1,.2-1,2.09,2.09,0,0,1,.66,0c.07,0-.51,1.25-.46,1.26s.51.44.38.57a2.82,2.82,0,0,1-.79.27l-.33-.28Z"/><path class="cls-12" d="M46.38,81.19s-.05-.25.07-.37a7.67,7.67,0,0,1,.79-.47,2.42,2.42,0,0,1,.3-.35c.06,0,.78.21.9.14s-.41-.27-.38-.35.42-.82.42-.89a4.58,4.58,0,0,0,1.37-.21.29.29,0,0,1,.39.12l.43.74.11.28-.27.19-.87.29L48.56,81l-.56.31-1,.18-.67-.2Z"/><path class="cls-9" d="M46.37,81.37s-.07-.21,0-.26.18.19.22.19A3.78,3.78,0,0,0,48.28,81c1-.42,1-.74,1.49-.94s1-.24.9-.48c0,0,.37.39.26.68s-.22.22-.48.32a3.83,3.83,0,0,1-1,.25c-.15,0-.28.26-.69.48S46.86,81.92,46.37,81.37Z"/><path class="cls-12" d="M48.13,79.82h0l-.13,0a1.74,1.74,0,0,0-.29-.07,0,0,0,0,1,0,0s0,0,.05,0a1.11,1.11,0,0,1,.3.08l.13,0a.05.05,0,0,1,0,.05S48.14,79.82,48.13,79.82Z"/><path class="cls-12" d="M48.35,79.4h0a2.14,2.14,0,0,0-.44-.08,0,0,0,0,1,0,0,0,0,0,0,1,0,0,1.86,1.86,0,0,1,.47.09s0,0,0,0A0,0,0,0,1,48.35,79.4Z"/><path class="cls-12" d="M48.47,79.13h0l-.07,0a2.3,2.3,0,0,0-.43-.16,0,0,0,0,1,0,0,0,0,0,0,1,0,0,1.85,1.85,0,0,1,.46.17l.08,0a0,0,0,0,1,0,0S48.48,79.12,48.47,79.13Z"/><path class="cls-12" d="M44.11,53.34s-1.66,11.93-.85,13.91,3.28,1,3.32-.08,3.27-12.38,3.27-12.38Z"/><path class="cls-13" d="M44.39,76a18.86,18.86,0,0,0,.11-2.31A10.22,10.22,0,0,0,44.28,72a17.42,17.42,0,0,0-2-5.47,2,2,0,0,0-1.25-.19,1.54,1.54,0,0,0-1.18.7,1.15,1.15,0,0,0,0,.8s1.73,6.91,2.46,10.44A9.88,9.88,0,0,0,44.18,78C44.24,77.49,44.31,76.88,44.39,76Z"/><path class="cls-6" d="M44.18,78a9.88,9.88,0,0,1-1.88.34c.17.77.28,1.39.32,1.73.15,1.41-.11,1.54-.18,1.55.7.26,1.61.51,1.94.14s-.11-.8-.29-1.82A5.65,5.65,0,0,1,44.18,78Z"/><path class="cls-7" d="M41.41,80.89a2.38,2.38,0,0,0,.52-.59c.13-.28.32-1,.38-1a1.85,1.85,0,0,1,.65.14c.06.05-.74,1.13-.69,1.15s.41.53.26.63a2.52,2.52,0,0,1-.82.11L41.43,81Z"/><path class="cls-13" d="M40.13,81.78s0-.25.14-.34a8.71,8.71,0,0,1,.87-.31,2.57,2.57,0,0,1,.35-.29c.08,0,.74.36.87.31s-.36-.35-.31-.41.57-.73.58-.79A4.59,4.59,0,0,0,44,80a.3.3,0,0,1,.36.19l.28.82.05.29-.31.14-.91.11L42.32,82l-.61.19h-1l-.62-.32Z"/><path class="cls-9" d="M40.09,82s0-.22,0-.26.13.23.17.23a3.76,3.76,0,0,0,1.75,0,10.88,10.88,0,0,0,1.65-.64c.49-.12,1,0,1-.29,0,0,.29.44.12.71s-.26.18-.53.23a3.72,3.72,0,0,1-1,0c-.16,0-.32.21-.77.34S40.46,82.6,40.09,82Z"/><path class="cls-13" d="M42.11,80.78h0L42,80.71a1.07,1.07,0,0,0-.27-.12,0,0,0,0,1,0-.08,1.51,1.51,0,0,1,.29.13l.11.07a0,0,0,0,1,0,.05Z"/><path class="cls-13" d="M42.4,80.41h0a1.68,1.68,0,0,0-.42-.17,0,0,0,0,1,0,0s0,0,0,0a2.39,2.39,0,0,1,.44.18s0,0,0,0S42.42,80.41,42.4,80.41Z"/><path class="cls-13" d="M42.58,80.16s0,0,0,0l-.06,0a2.49,2.49,0,0,0-.4-.24s0,0,0-.05a0,0,0,0,1,0,0,1.55,1.55,0,0,1,.42.25l.07,0s0,0,0,.06Z"/><path class="cls-13" d="M43.26,54S39.33,65.4,39.75,67.51s3,1.64,3.27.56S49.1,55.23,49.1,55.23Z"/><path class="cls-5" d="M48.65,35.45a16.27,16.27,0,0,0,2.52-1c.57-.37-.41-1.18-.41-1.18l-1.54-.19Z"/><polygon class="cls-6" points="49.65 34.16 47.58 37.33 46.44 36.73 47.78 34.52 49.65 34.16"/><path class="cls-5" d="M49.44,34.79a5.32,5.32,0,0,1-1.13.87,5,5,0,0,1-1.54.53l1-1.67,2-.15-.28.39Z"/><path class="cls-6" d="M50.51,31.6A2.58,2.58,0,0,0,50,30.52c-.32-.39-1.08-1.06-1.81-.88-.38.1-.7.63-1.35,1.7a5.79,5.79,0,0,0-.69,1.43,2,2,0,0,0-.12,1.42,1.55,1.55,0,0,0,.75.78,2.58,2.58,0,0,0,1.45.1,2,2,0,0,0,.58-.13,1.67,1.67,0,0,0,.52-.32c.38.41,1.12.05,1.27-.41a.54.54,0,0,0-.07-.51.39.39,0,0,0-.48-.13A3.15,3.15,0,0,0,50.54,32,3,3,0,0,0,50.51,31.6Z"/><path class="cls-5" d="M52.48,33a1.76,1.76,0,0,0,0-1.35,2,2,0,0,0-.71-.82,2.25,2.25,0,0,1-.85-.71,7.51,7.51,0,0,1-.34-.94,1.62,1.62,0,0,0-3.09.84c.05.73,1.4,1.07,2,1.3.06,0,.58.25.56.44s-.08.08-.14.22a.46.46,0,0,0-.06.33c.07.15.29.23.3.39A.49.49,0,0,1,50,33l-.56.77.08.1s.66-.41.84,0h0l0,.09a.75.75,0,0,1-.08.35.82.82,0,0,1-.35.41,3,3,0,0,0,2-.82A2.41,2.41,0,0,0,52.48,33Z"/><path class="cls-14" d="M47.47,36.58a4.54,4.54,0,0,1,1.59,1.16,3.71,3.71,0,0,1,.7,1.65,41,41,0,0,1,.31,8.25c-.36,5.68.38,7.78-.27,7.92-2,.41-5.79,1.65-7.28.5-.59-.45,1.49-16.78,1.94-18.23C44.81,36.71,47.05,36.35,47.47,36.58Z"/><path class="cls-6" d="M45.71,38.28l-1.62,8.4a1.21,1.21,0,0,0,2.32.56h0l0-.08a.24.24,0,0,0,0-.08l2.73-7.88a1.8,1.8,0,1,0-3.48-.92Z"/><path class="cls-14" d="M47.61,36.58a2,2,0,0,0-1.46.47,2.11,2.11,0,0,0-.69,1.18l-.67,3.5.09,0c.52.17,1,.32,1.57.47a12.7,12.7,0,0,0,1.83.4l1.16-3.35a1.88,1.88,0,0,0-.19-1.73A2.24,2.24,0,0,0,47.61,36.58Z"/><path class="cls-10" d="M48.28,42.73h0a14.88,14.88,0,0,1-1.84-.4l0,0c-.51-.14-1-.29-1.53-.46l-.09,0a.1.1,0,0,1-.07-.11l.68-3.49a.09.09,0,0,1,.11-.08.1.1,0,0,1,.08.11l-.66,3.41h0c.5.17,1,.32,1.52.46h0a14.68,14.68,0,0,0,1.73.39l1.14-3.28a.09.09,0,0,1,.12-.06.09.09,0,0,1,.06.12l-1.16,3.35A.11.11,0,0,1,48.28,42.73Z"/><path class="cls-5" d="M40.06,61.41A15.65,15.65,0,0,1,41,59.29a9.66,9.66,0,0,1,1-1.43,17.61,17.61,0,0,1,4.21-4,2.1,2.1,0,0,1,1.21.39,1.56,1.56,0,0,1,.74,1.15,1.14,1.14,0,0,1-.33.74s-4.63,5.4-6.87,8.23a10,10,0,0,1-1.53-1.14C39.54,62.78,39.75,62.2,40.06,61.41Z"/><path class="cls-6" d="M39.38,63.22a10,10,0,0,0,1.53,1.14,11.48,11.48,0,0,1-1.6,2.14,1,1,0,0,1-1,.15.7.7,0,0,1-.35-.9c.24-.48.71-.62.91-1.15S39.21,63.68,39.38,63.22Z"/><path class="cls-5" d="M42,42.4s6.17,10.34,6.19,12.48-2.62,2.23-3.08,1.22c-.32-.68-3.77-5.06-6-7.83-1.06-1.34-1.84-2.3-1.84-2.3Z"/><path class="cls-7" d="M39.52,67.35a2.21,2.21,0,0,1,.09-.78,3.27,3.27,0,0,0,.28-.67,1.61,1.61,0,0,0-.48-.32c-.08,0-.21,1-.26.94s-.67.06-.64.23a2.7,2.7,0,0,0,.47.69l.43,0Z"/><path class="cls-8" d="M39.71,68.9s.19-.17.16-.34a7.67,7.67,0,0,0-.35-.85,3.78,3.78,0,0,0,0-.46c0-.07-.76-.3-.81-.43s.5,0,.51,0c.06-.27.4-.66.2-1s-.5-.16-.6-.41.12-.48,0-.67a.38.38,0,0,0-.16-.11l-1.35.4-.26.15.11.32.52.76.48,1.15.26.58.66.72Z"/><path class="cls-9" d="M39.61,69.05s.19-.13.18-.19-.26,0-.29,0a3.65,3.65,0,0,1-1.18-1.29,11.33,11.33,0,0,1-.63-1.65c-.24-.45-.64-.78-.43-.92,0,0-.53.08-.62.38s0,.32.19.55a3.79,3.79,0,0,0,.66.8c.1.11.06.37.26.8S38.88,69.2,39.61,69.05Z"/><path class="cls-8" d="M39.3,66.74l-.12,0s0,0,0,0a0,0,0,0,0,0,0h0l.12,0a1,1,0,0,1,.27.11s.05,0,.06,0a0,0,0,0,0,0-.06"/><path class="cls-8" d="M39.21,66.29l0,0a2.14,2.14,0,0,1,.4.2s0,0,.06,0a0,0,0,0,0,0-.06,3.42,3.42,0,0,0-.43-.21s0,0,0,0A0,0,0,0,0,39.21,66.29Z"/><path class="cls-8" d="M39.27,66h0l.07,0a2.41,2.41,0,0,1,.45.13s0,0,0,0a0,0,0,0,0,0-.06,2,2,0,0,0-.47-.14l-.08,0s0,0,0,0S39.27,66,39.27,66Z"/><path class="cls-6" d="M37.27,45.45h-.13a.75.75,0,0,0-.62.86.77.77,0,0,0,.62.61h0l8,1.11h.09a1,1,0,0,0,.3,0,1.21,1.21,0,0,0-.14-2.4h0Z"/><path class="cls-6" d="M37.62,47.34l0,0a.35.35,0,0,0,.41-.2.91.91,0,0,0,0-.49,1.85,1.85,0,0,0-.17-.61,1.65,1.65,0,0,0-.71-.62c-.35-.18-.72-.31-1.08-.46A.23.23,0,0,0,36,45c-.06,0-.1.08-.11.15a.4.4,0,0,0,.18.42c.11.07.26.09.34.2a.47.47,0,0,1,0,.4.41.41,0,0,0,0,.4c.07.09.21.11.27.2s0,.2.1.27.26,0,.37.1.09.21.2.23.12-.05.19-.05A.29.29,0,0,1,37.62,47.34Z"/><path class="cls-8" d="M44.1,31.3a2.82,2.82,0,0,0-2.29-1.64h0a4.09,4.09,0,0,0-3.59,1.05c-.64.67-.47,1.23-.76,4.53-.08,1-.24,2.78-.54,4.39a24.62,24.62,0,0,1-1.33,4.62c.33.36,1.31,1,3.72,1.22a6.43,6.43,0,0,0,3.86-1,2.56,2.56,0,0,0,.07-.64c.07-.6.14-1.2.2-1.8a26.48,26.48,0,0,1,.67-3.64c.11-.46.24-.91.38-1.36a11,11,0,0,0,.35-1.11,3.18,3.18,0,0,0-.32-1.58C44.1,32.93,44.43,32.27,44.1,31.3Z"/><path class="cls-5" d="M46.74,24.46a1.6,1.6,0,0,1-.68,2.39c-.36.17-.58-2.07-.48-2A6.07,6.07,0,0,0,46.74,24.46Z"/><polygon class="cls-4" points="42.21 30.1 41.03 29.73 41.92 26.93 42.95 27.76 42.21 30.1"/><path class="cls-5" d="M42.29,29.83l.78-2L42,27.05A5,5,0,0,0,42.29,29.83Z"/><path class="cls-4" d="M41.86,27.06a4.77,4.77,0,0,0,.12.55c.22.91,1,2.08,2.15,2.07,1.62,0,2.94-3.53,2.6-4.4C45.94,23.28,42.52,23.3,41.86,27.06Z"/><path class="cls-5" d="M41.47,26.12c.14.18.5.74.8.71.08,0,.08,0,.12-.12a1.53,1.53,0,0,1,.26-.31,1.46,1.46,0,0,1,.84-.37c.49-.06,1,.1,1.47.06a2.25,2.25,0,0,0,1-.37,1.66,1.66,0,0,0,.72-.95c.2-.93-.83-1.29-1.55-1.44a3.18,3.18,0,0,0-2.61.63A3.09,3.09,0,0,0,41.47,26.12Z"/><path class="cls-4" d="M42.43,26.89a.53.53,0,1,1-1,0c0-.37.2-.68.48-.69A.6.6,0,0,1,42.43,26.89Z"/><path class="cls-5" d="M42.27,26.4c.16.25-.12.8-.22,1s.24.14.46-.46.42-.81.86-.89-.77-1-.77-1"/><path class="cls-4" d="M41.8,29.68c-.9-.24-1.4-.38-.2,1.61S43.2,30.05,41.8,29.68Z"/><path class="cls-4" d="M41.34,32.37l.5,8.54a1.2,1.2,0,0,1-2.36.25h0a.31.31,0,0,1,0-.08s0-.06,0-.09l-1.33-8.2a1.57,1.57,0,0,1,1.56-2.1A1.78,1.78,0,0,1,41.34,32.37Z"/><path class="cls-4" d="M46.55,37.2h0l.12,0a.72.72,0,0,1,.84.56.71.71,0,0,1-.35.76h0l-6,3.47-.06,0,0,0h0a1.31,1.31,0,0,1-.28.09,1.15,1.15,0,0,1-.68-2.19h0Z"/><path class="cls-8" d="M38.33,35.73a19.92,19.92,0,0,0,2-.11,6.29,6.29,0,0,0,1.38-.31l-.18-3.07a2,2,0,0,0-1.91-1.93h-.1a1.78,1.78,0,0,0-1.37.63,2,2,0,0,0-.36,1.77Z"/><path class="cls-11" d="M39,35.85a5.27,5.27,0,0,1-.69,0,.09.09,0,0,1-.09-.08L38,33.18a.1.1,0,0,1,.09-.1.08.08,0,0,1,.1.08l.26,2.48a8.67,8.67,0,0,0,3.25-.4c0-.46-.09-3.38-1-4.49a.11.11,0,0,1,0-.14.09.09,0,0,1,.13,0c1.05,1.27,1.06,4.55,1.06,4.69a.08.08,0,0,1-.06.08A7.39,7.39,0,0,1,39,35.85Z"/><path class="cls-4" d="M51.61,32a.23.23,0,0,1,0-.31c.11-.07.24,0,.37,0a.68.68,0,0,0,.61-.23,1,1,0,0,0,0,.17,1.54,1.54,0,0,0,0,.3c.06.24.12.48.17.72s0,.26.07.4a1.31,1.31,0,0,1,0,.27.91.91,0,0,1-.7.09.38.38,0,0,1-.24-.17.22.22,0,0,1,0-.16.47.47,0,0,1-.24-.22.23.23,0,0,1,.06-.27.48.48,0,0,1-.13-.16.25.25,0,0,1,.08-.29A.36.36,0,0,1,51.61,32Z"/><path class="cls-4" d="M47,37.13c.44-.24.83-.64,1-.4s0,.33-.16.44a1.24,1.24,0,0,1,.4.14c.47.28,1.12,1.2.93,1.26s-1-.93-1-.8,1.15.72,1,1c-.05.13-1.26-.69-1.33-.59s1,.4.95.65-1.08-.47-1.09-.41.66.32.56.4A2,2,0,0,1,47,38.2a2.32,2.32,0,0,0-.68-.61v-.07A1.07,1.07,0,0,1,47,37.13Z"/><path class="cls-8" d="M27.27,30.46c-.09-1.51,2.93-.82,2.93-.82s-.63-3,.88-2.9.55,4.37.55,4.37S27.37,32,27.27,30.46Z"/><path class="cls-8" d="M41.3,14.08c.34-1.33,2.72.11,2.72.11s.31-2.76,1.57-2.23-.75,3.88-.75,3.88S41,15.4,41.3,14.08Z"/><path class="cls-8" d="M48.5,16.53c1.84-1.24,2.87,4.26,2.87,4.26s3.69-4.21,4.64-2.21-6,6.11-6,6.11S46.66,17.77,48.5,16.53Z"/></svg>