<svg id="Layer_1" data-name="Layer 1" xmlns="http://www.w3.org/2000/svg" xmlns:xlink="http://www.w3.org/1999/xlink" viewBox="0 0 100 100"><defs><style>.cls-1{fill:url(#radial-gradient);}.cls-2{fill:url(#radial-gradient-2);}.cls-3{fill:url(#radial-gradient-3);}.cls-4{fill:url(#radial-gradient-4);}.cls-5{fill:url(#radial-gradient-5);}.cls-6{fill:url(#radial-gradient-6);}.cls-7{fill:url(#radial-gradient-7);}.cls-8{fill:url(#radial-gradient-8);}.cls-9{fill:url(#radial-gradient-9);}.cls-10{fill:url(#radial-gradient-10);}.cls-11{fill:url(#radial-gradient-11);}.cls-12{fill:url(#radial-gradient-12);}.cls-13{fill:url(#radial-gradient-13);}.cls-14{fill:url(#radial-gradient-14);}.cls-15{fill:url(#radial-gradient-15);}.cls-16{fill:url(#radial-gradient-16);}.cls-17{fill:url(#radial-gradient-17);}.cls-18{fill:url(#radial-gradient-18);}.cls-19{fill:url(#radial-gradient-19);}.cls-20{fill:url(#radial-gradient-20);}.cls-21{fill:url(#radial-gradient-21);}.cls-22{fill:url(#radial-gradient-22);}.cls-23{fill:url(#radial-gradient-23);}.cls-24{fill:url(#radial-gradient-24);}.cls-25{fill:url(#radial-gradient-25);}</style><radialGradient id="radial-gradient" cx="51.44" cy="67.59" r="10.87" gradientUnits="userSpaceOnUse"><stop offset="0" stop-color="#efa8b9"/><stop offset="1" stop-color="#f27594"/></radialGradient><radialGradient id="radial-gradient-2" cx="28.73" cy="50.16" r="13.02" xlink:href="#radial-gradient"/><radialGradient id="radial-gradient-3" cx="27.28" cy="75.02" r="18.71" xlink:href="#radial-gradient"/><radialGradient id="radial-gradient-4" cx="30.96" cy="68.44" r="21.79" xlink:href="#radial-gradient"/><radialGradient id="radial-gradient-5" cx="45.77" cy="50.32" r="1.26" xlink:href="#radial-gradient"/><radialGradient id="radial-gradient-6" cx="50.12" cy="81.86" r="0.93" xlink:href="#radial-gradient"/><radialGradient id="radial-gradient-7" cx="9.75" cy="58.56" r="0.95" xlink:href="#radial-gradient"/><radialGradient id="radial-gradient-8" cx="75.05" cy="36.41" r="6.69" xlink:href="#radial-gradient"/><radialGradient id="radial-gradient-9" cx="61.08" cy="25.69" r="8.01" xlink:href="#radial-gradient"/><radialGradient id="radial-gradient-10" cx="60.18" cy="40.99" r="11.52" xlink:href="#radial-gradient"/><radialGradient id="radial-gradient-11" cx="62.45" cy="36.94" r="13.41" xlink:href="#radial-gradient"/><radialGradient id="radial-gradient-12" cx="71.56" cy="25.79" r="0.77" xlink:href="#radial-gradient"/><radialGradient id="radial-gradient-13" cx="74.24" cy="45.2" r="0.57" xlink:href="#radial-gradient"/><radialGradient id="radial-gradient-14" cx="49.4" cy="30.86" r="0.58" xlink:href="#radial-gradient"/><radialGradient id="radial-gradient-15" cx="89.21" cy="68.66" r="6.69" xlink:href="#radial-gradient"/><radialGradient id="radial-gradient-16" cx="75.23" cy="57.94" r="8.01" xlink:href="#radial-gradient"/><radialGradient id="radial-gradient-17" cx="74.34" cy="73.23" r="11.52" xlink:href="#radial-gradient"/><radialGradient id="radial-gradient-18" cx="76.61" cy="69.18" r="13.41" xlink:href="#radial-gradient"/><radialGradient id="radial-gradient-19" cx="85.72" cy="58.04" r="0.77" xlink:href="#radial-gradient"/><radialGradient id="radial-gradient-20" cx="88.4" cy="77.44" r="0.57" xlink:href="#radial-gradient"/><radialGradient id="radial-gradient-21" cx="63.55" cy="63.1" r="0.58" xlink:href="#radial-gradient"/><radialGradient id="radial-gradient-22" cx="78.7" cy="72.55" r="2.69" gradientTransform="translate(130.47 100.55) rotate(172.02)" xlink:href="#radial-gradient"/><radialGradient id="radial-gradient-23" cx="68.16" cy="29.16" r="2.69" gradientTransform="translate(130.47 100.55) rotate(172.02)" xlink:href="#radial-gradient"/><radialGradient id="radial-gradient-24" cx="76.6" cy="87.55" r="1.74" gradientTransform="translate(130.47 100.55) rotate(172.02)" xlink:href="#radial-gradient"/><radialGradient id="radial-gradient-25" cx="36.64" cy="61.03" r="1.74" gradientTransform="translate(130.47 100.55) rotate(172.02)" xlink:href="#radial-gradient"/></defs><path class="cls-1" d="M50.08,82.6l-.62-.46a23,23,0,0,0-1.34-29.06l.57-.51a23.77,23.77,0,0,1,1.39,30Z"/><path class="cls-2" d="M11.8,55.67l-.64-.43a23.79,23.79,0,0,1,35.14-5l-.49.59a23,23,0,0,0-34,4.83Z"/><path class="cls-3" d="M31,92.23A23.81,23.81,0,0,1,9.67,57.8l.69.35A23,23,0,0,0,46.85,85.1l.53.56A23.66,23.66,0,0,1,31,92.23Z"/><circle class="cls-4" cx="30.96" cy="68.44" r="21.79"/><circle class="cls-5" cx="45.77" cy="50.32" r="1.26"/><circle class="cls-6" cx="50.12" cy="81.86" r="0.93"/><circle class="cls-7" cx="9.75" cy="58.56" r="0.95"/><path class="cls-8" d="M74.22,45.65l-.38-.28A14.17,14.17,0,0,0,73,27.49l.35-.32a14.66,14.66,0,0,1,.86,18.48Z"/><path class="cls-9" d="M50.66,29.08l-.39-.26a14.64,14.64,0,0,1,21.62-3.07l-.3.36a14.17,14.17,0,0,0-20.93,3Z"/><path class="cls-10" d="M62.45,51.58A14.66,14.66,0,0,1,47.81,36.94a14.5,14.5,0,0,1,1.54-6.54l.43.21a14,14,0,0,0-1.49,6.33A14.16,14.16,0,0,0,72.23,47.19l.32.35A14.59,14.59,0,0,1,62.45,51.58Z"/><circle class="cls-11" cx="62.45" cy="36.94" r="13.41"/><circle class="cls-12" cx="71.56" cy="25.79" r="0.77"/><circle class="cls-13" cx="74.24" cy="45.2" r="0.57"/><circle class="cls-14" cx="49.4" cy="30.86" r="0.58"/><path class="cls-15" d="M88.37,77.9,88,77.62a14.17,14.17,0,0,0-.83-17.88l.36-.32a14.64,14.64,0,0,1,.85,18.48Z"/><path class="cls-16" d="M64.82,61.33l-.4-.27A14.65,14.65,0,0,1,86.05,58l-.31.36a14.17,14.17,0,0,0-20.92,3Z"/><path class="cls-17" d="M76.61,83.82A14.65,14.65,0,0,1,62,69.18a14.37,14.37,0,0,1,1.54-6.54l.42.21a14,14,0,0,0-1.49,6.33A14.17,14.17,0,0,0,86.38,79.44l.33.34A14.57,14.57,0,0,1,76.61,83.82Z"/><circle class="cls-18" cx="76.61" cy="69.18" r="13.41"/><circle class="cls-19" cx="85.72" cy="58.04" r="0.77"/><circle class="cls-20" cx="88.4" cy="77.44" r="0.57"/><circle class="cls-21" cx="63.55" cy="63.1" r="0.58"/><circle class="cls-22" cx="42.46" cy="39.63" r="2.69"/><circle class="cls-23" cx="58.93" cy="81.13" r="2.69"/><circle class="cls-24" cx="42.46" cy="24.48" r="1.74"/><circle class="cls-25" cx="85.72" cy="45.2" r="1.74"/></svg>