<svg id="Layer_1" data-name="Layer 1" xmlns="http://www.w3.org/2000/svg" xmlns:xlink="http://www.w3.org/1999/xlink" viewBox="0 0 100 100"><defs><style>.cls-1{fill:url(#radial-gradient);}.cls-2{fill:url(#radial-gradient-2);}.cls-3{fill:url(#radial-gradient-3);}.cls-4{fill:url(#radial-gradient-4);}.cls-5{fill:url(#radial-gradient-5);}</style><radialGradient id="radial-gradient" cx="-46.81" cy="553.03" r="8.29" gradientTransform="translate(-180.27 -435.65) rotate(-28.79)" gradientUnits="userSpaceOnUse"><stop offset="0" stop-color="#efa8b9"/><stop offset="1" stop-color="#f27594"/></radialGradient><radialGradient id="radial-gradient-2" cx="56.13" cy="-59.06" r="6.23" gradientTransform="translate(-2.33 99.75) rotate(7.04)" xlink:href="#radial-gradient"/><radialGradient id="radial-gradient-3" cx="15.96" cy="381.89" r="5.56" gradientTransform="translate(-98.2 -318.44) rotate(-19.41)" xlink:href="#radial-gradient"/><radialGradient id="radial-gradient-4" cx="31.91" cy="374.33" r="3.84" gradientTransform="translate(-98.2 -318.44) rotate(-19.41)" xlink:href="#radial-gradient"/><radialGradient id="radial-gradient-5" cx="-119.38" cy="-481.07" r="1.86" gradientTransform="translate(-109.27 487.63) rotate(32.2)" xlink:href="#radial-gradient"/></defs><path class="cls-1" d="M51.1,67.68a8.85,8.85,0,0,1-1,3.41c-1.6,3-1.91,5.57-1.4,6.46l.57,1-1.12-.16a23.92,23.92,0,0,1-9-2.81c-2.45-1.48-3.34-3.06-3.64-4.13a3.51,3.51,0,0,1,1.07-3.78,4.48,4.48,0,0,1,2.78-1,7.56,7.56,0,0,1,3,.58A7.16,7.16,0,0,1,43,64.44a5,5,0,0,1,2-2.14l.06,0a4,4,0,0,1,4,.13C50.6,63.38,51.32,65.3,51.1,67.68Z"/><path class="cls-2" d="M66,48.32a6.7,6.7,0,0,1-2.13,1.61c-2.3,1.13-3.62,2.56-3.69,3.33l-.09.84-.61-.58a17.93,17.93,0,0,1-4.26-5.69,5.58,5.58,0,0,1-.4-4.11,2.64,2.64,0,0,1,2.31-1.84,3.41,3.41,0,0,1,2.13.63,5.74,5.74,0,0,1,1.55,1.65,5.53,5.53,0,0,1,1.68-1.38,3.77,3.77,0,0,1,2.17-.42h0a3,3,0,0,1,2.4,1.85A4.11,4.11,0,0,1,66,48.32Z"/><path class="cls-3" d="M48.17,34.54a6.1,6.1,0,0,1-1.05,2.14c-1.39,1.81-1.88,3.48-1.63,4.12l.27.71L45,41.29a16.16,16.16,0,0,1-5.66-2.85,4.94,4.94,0,0,1-1.95-3.13,2.37,2.37,0,0,1,1.12-2.39,3,3,0,0,1,1.94-.33,5,5,0,0,1,1.9.7,4.76,4.76,0,0,1,.8-1.78,3.32,3.32,0,0,1,1.56-1.19h0a2.64,2.64,0,0,1,2.65.52A3.62,3.62,0,0,1,48.17,34.54Z"/><path class="cls-4" d="M59.34,22.7a4.1,4.1,0,0,1-.73,1.48c-1,1.26-1.29,2.41-1.13,2.85l.19.49-.5-.15a11.06,11.06,0,0,1-3.91-2,3.44,3.44,0,0,1-1.36-2.17,1.64,1.64,0,0,1,.78-1.65A2.06,2.06,0,0,1,54,21.35a3.39,3.39,0,0,1,1.32.49,3.15,3.15,0,0,1,.55-1.23A2.28,2.28,0,0,1,57,19.78h0a1.81,1.81,0,0,1,1.83.37A2.5,2.5,0,0,1,59.34,22.7Z"/><path class="cls-5" d="M47.47,17.69a1.85,1.85,0,0,1-.78.17,1.9,1.9,0,0,0-1.42.43l-.13.22-.09-.24a5.33,5.33,0,0,1-.43-2.08A1.63,1.63,0,0,1,45,15a.78.78,0,0,1,.86-.2.91.91,0,0,1,.49.44,1.56,1.56,0,0,1,.21.64,1.72,1.72,0,0,1,.64-.16,1.17,1.17,0,0,1,.64.16h0a.89.89,0,0,1,.41.81A1.22,1.22,0,0,1,47.47,17.69Z"/></svg>