<svg id="Layer_1" data-name="Layer 1" xmlns="http://www.w3.org/2000/svg" viewBox="0 0 100 100"><defs><style>.cls-1{fill:#fff;}.cls-2{fill:#f37377;}</style></defs><circle class="cls-1" cx="50" cy="51.62" r="35.67"/><path class="cls-2" d="M70.44,56.62a2.79,2.79,0,0,1-.83.81c-.93.61-1.42,1.29-1.41,1.62v.37l-.3-.22A7.83,7.83,0,0,1,65.78,57a2.43,2.43,0,0,1-.39-1.74,1.15,1.15,0,0,1,.9-.91,1.42,1.42,0,0,1,.95.16,2.53,2.53,0,0,1,.75.62,2.49,2.49,0,0,1,.65-.68,1.65,1.65,0,0,1,.91-.3h0a1.32,1.32,0,0,1,1.13.67A1.76,1.76,0,0,1,70.44,56.62Z"/><path class="cls-2" d="M51.59,71.06c-3.76,0-3.84-1.8-12.07-1.8-3.24,0-6.14,2.65-9,1.8-2.14-.63-3.16-8.37,8.43-8.37a.63.63,0,0,0,.5-.31c1.49-3.92,5.54-14,7.09-17.92C48.5,39.54,52.18,32,59.21,32,70,32,67.55,51.74,58.9,51.74c-5.48,0-4-8.71-1.25-8.71.87,0,.75.93,1.43.93,1.44,0,1.19-3.54-.93-3.54-1.93,0-3.24,2.42-3.73,3.67-.94,2.36-5.6,14.06-7.6,19a.55.55,0,0,0,.44.74,32.93,32.93,0,0,0,5.23.63c6.9,0,9.21-2.43,9.95-5.17A1.56,1.56,0,0,1,64.12,58C67.89,58.47,63.7,71.06,51.59,71.06Z"/></svg>