<svg id="Layer_1" data-name="Layer 1" xmlns="http://www.w3.org/2000/svg" xmlns:xlink="http://www.w3.org/1999/xlink" viewBox="0 0 100 100"><defs><style>.cls-1{fill:url(#radial-gradient);}</style><radialGradient id="radial-gradient" cx="-18.7" cy="488.61" r="36.38" gradientTransform="translate(31.73 -435.11) rotate(-4.57)" gradientUnits="userSpaceOnUse"><stop offset="0" stop-color="#efa8b9"/><stop offset="1" stop-color="#f27594"/></radialGradient></defs><path class="cls-1" d="M83.28,48.82A39.48,39.48,0,0,1,73,60.58C61.19,69.73,55.32,79.44,55.78,83.93l.52,4.94-4.21-2.64c-14-8.79-24.48-18-31-27.52-7.15-10.33-7.83-18.25-7.14-23.07C14.86,29.06,19,24.11,25,22.42a19.64,19.64,0,0,1,12.89,1.12,32.84,32.84,0,0,1,10.82,7.62,31.74,31.74,0,0,1,8-9.9,22,22,0,0,1,11.91-4.93l.27,0A17.37,17.37,0,0,1,84.8,24.09C89,30.67,88.45,39.69,83.28,48.82Z"/></svg>